<svg id="圖層_1" data-name="圖層 1" xmlns="http://www.w3.org/2000/svg" xmlns:xlink="http://www.w3.org/1999/xlink" viewBox="0 0 141 282"><defs><style>.cls-1,.cls-17{fill:none;}.cls-2,.cls-6{fill:#ffd19d;}.cls-2{stroke:#ffd19d;}.cls-2,.cls-3{stroke-miterlimit:10;}.cls-10,.cls-12,.cls-17,.cls-18,.cls-2,.cls-21,.cls-3,.cls-7,.cls-8{stroke-width:2px;}.cls-3{fill:#315a87;stroke:#315a87;}.cls-4{font-size:13.46px;fill:#fff;}.cls-4,.cls-5{font-family:jf-openhuninn-1.1;}.cls-5{font-size:21.84px;}.cls-11,.cls-19,.cls-5{fill:#604c3f;}.cls-13,.cls-20,.cls-7{fill:#ffc692;}.cls-10,.cls-12,.cls-17,.cls-18,.cls-19,.cls-20,.cls-21,.cls-7,.cls-8{stroke:#604c3f;stroke-linecap:round;stroke-linejoin:round;}.cls-8{fill:#cce198;}.cls-9{fill:#91a574;}.cls-10,.cls-14{fill:#f0e0d4;}.cls-12{fill:#ffeb94;}.cls-15{clip-path:url(#clip-path);}.cls-16,.cls-18{fill:#e6b9cc;}.cls-19{stroke-width:1.88px;}.cls-20{stroke-width:1.86px;}.cls-21{fill:#c0d481;}</style><clipPath id="clip-path" transform="translate(-34.5 -9.5)"><path class="cls-1" d="M108.6,73.56c13.69-.33,20.84-2.92,20.24-18.25,0-.72-.06-2.23-.12-2.91-4.56-5-15.64-7.63-24.91-6.77-8.14.76-11.91,2.69-16.9,8a20.65,20.65,0,0,0-.07,2.1C87.23,69.84,92.76,74,108.6,73.56Z"/></clipPath></defs><title>mango_img3</title><rect class="cls-2" x="1" y="174.05" width="139" height="32.02" rx="3.2"/><rect class="cls-3" x="1" y="209.91" width="139" height="71.09" rx="3.2"/><text class="cls-4" transform="translate(20.44 236.79)">最愛種東西<tspan x="0" y="16.16">以為只要放土裡</tspan><tspan x="0" y="32.31">加水就會長大</tspan></text><text class="cls-5" transform="translate(47.47 198.42)">種植</text><ellipse class="cls-6" cx="105.08" cy="77.6" rx="68.1" ry="68.11" transform="translate(-7.79 172.61) rotate(-89.58)"/><path class="cls-7" d="M62.57,102.23c-.38,1,0,7.7,0,8.81,0,10.51,17.81,16.94,39.77,16.94s39.77-6.43,39.77-16.94c0-1.11.37-7.76,0-8.81Z" transform="translate(-34.5 -9.5)"/><path class="cls-8" d="M139.65,95.94C136.6,93.6,128.4,86.05,99,86.05c-20.77,0-29.52,4.43-35,8.55-4.25,3.22-5.45,10-3.58,13.14,2.94,5,6.71,2.41,10,.79,1.39-.7,2.43-1.62,4-.92,2.78,1.16.23,3.94.46,6.26,1.16,7.19,8.12,1.39,10.68-1.85,3-3.72,7.42-6,11.14-1.39,3.48,4.4,5.1,10.67,12.52,6.49,4.88-2.78,7.2-10.21,13.69-7.89,2.32.93,4.18,3.48,7.43,2.32,3-1.16,1.62-3.94,4.64-4.87,4.87-1.62,6.75,3.54,9.68,2C147.17,105.7,142.06,97.8,139.65,95.94Z" transform="translate(-34.5 -9.5)"/><path class="cls-9" d="M129.14,101.44c.88.9,1.33,1.88,1,2.19s-1.29-.17-2.17-1.07-1.33-1.87-1-2.19S128.26,100.54,129.14,101.44Z" transform="translate(-34.5 -9.5)"/><path class="cls-9" d="M132.73,101.77c.12,1.25-.13,2.3-.57,2.35s-.9-.94-1-2.19.13-2.3.57-2.34S132.6,100.52,132.73,101.77Z" transform="translate(-34.5 -9.5)"/><path class="cls-9" d="M135.43,102.46c-.5.92-1.16,1.53-1.49,1.35s-.18-1.06.32-2,1.16-1.53,1.48-1.36S135.93,101.54,135.43,102.46Z" transform="translate(-34.5 -9.5)"/><path class="cls-9" d="M65.55,101.82c.88.89,1.34,1.87,1,2.18s-1.28-.16-2.16-1.06-1.34-1.88-1-2.19S64.67,100.92,65.55,101.82Z" transform="translate(-34.5 -9.5)"/><path class="cls-9" d="M69.14,102.15c.13,1.25-.13,2.3-.57,2.34s-.9-.93-1-2.18.13-2.3.57-2.35S69,100.9,69.14,102.15Z" transform="translate(-34.5 -9.5)"/><path class="cls-9" d="M71.85,102.83c-.5.93-1.17,1.53-1.49,1.36s-.18-1.07.31-2,1.17-1.53,1.49-1.35S72.34,101.92,71.85,102.83Z" transform="translate(-34.5 -9.5)"/><path class="cls-10" d="M96.51,68.65S88,79.12,88.19,84.08c.12,3,4.51,5.21,5,.82,2-3.62,3.46-8.21,5.9-10.46" transform="translate(-34.5 -9.5)"/><path class="cls-10" d="M124.31,71.18s11.78,21.86,0,28.25c-3.4,2-13.66,4.3-15.93,5.43-6.55,2.07-7.72-4.59-3.13-4.49a29.79,29.79,0,0,0,2.66-2.64L91,91.34a32.67,32.67,0,0,1,8.23-20.16C104.72,71,124.31,71.18,124.31,71.18Z" transform="translate(-34.5 -9.5)"/><path class="cls-11" d="M95.91,78.19a.7.7,0,1,0,.69-.7A.69.69,0,0,0,95.91,78.19Z" transform="translate(-34.5 -9.5)"/><path class="cls-11" d="M112.62,79.58a.7.7,0,1,0,.7-.7A.7.7,0,0,0,112.62,79.58Z" transform="translate(-34.5 -9.5)"/><path class="cls-10" d="M102.82,98.42c-3.6,1.61-14,2.8-16.42,3.69-6.73,1.35-7.34-7.21-2.63-4.8A17.91,17.91,0,0,0,86.7,95C93.48,86.27,107.08,95.9,102.82,98.42Z" transform="translate(-34.5 -9.5)"/><path class="cls-7" d="M129.18,84.1s-.27,3.23-8.84,5.63c-8,2.22-22.29,5.1-28.11-2.82-.43-1.59,0-3.24-.71-2.81s-1.3,5.6-1.56,6.81c-.76-.64-3.26,2.15-2.25,3.18.9-.54,2.2.35,2.54,1.85a12.5,12.5,0,0,1,3.09.27s3.16,4.45,6.27,4.5a10.42,10.42,0,0,0,8.3-3c2-3.85,8.12-1.84,8.12-1.84l.59,2,3.67-.43s1,1.36-1.08,4.51C125.91,101.93,132.62,96.17,129.18,84.1Z" transform="translate(-34.5 -9.5)"/><path class="cls-10" d="M112,86.36a4.1,4.1,0,1,0,4.48-4A4.26,4.26,0,0,0,112,86.36Z" transform="translate(-34.5 -9.5)"/><path class="cls-10" d="M115,80.24c.57.91,4.65,12.11,2.93,15.18-1.44,2.55-6.91,4.1-11.2,3.13-1.81-.67-3.24-2-3.14-5.38s0-12.78,3.76-13.29S114,78.63,115,80.24Z" transform="translate(-34.5 -9.5)"/><path class="cls-10" d="M105.89,80.53c.25,1.26,1.94,1.19,4,.79s3.62-1,3.37-2.23-2.09-2-4.12-1.55S105.64,79.28,105.89,80.53Z" transform="translate(-34.5 -9.5)"/><path class="cls-10" d="M106.78,89.36s-.36,1.55-4.84-.46c-1.25-.54-1.66.86-1.63,1.22s2.4,5,7.42,4.43" transform="translate(-34.5 -9.5)"/><path class="cls-10" d="M123.52,78.88s.59,3-2.72,5.15c-4.07.09-2.43,5,.69,5,2.6,0,7.79-5.22,8.06-10.18a11.9,11.9,0,0,0-3.28-8.43l-5.83-2.07" transform="translate(-34.5 -9.5)"/><path class="cls-12" d="M143.67,46.57c.67,17.17-12.9,26.68-30.07,27.35S82.17,66.15,81.5,49a31.11,31.11,0,0,1,62.17-2.41Z" transform="translate(-34.5 -9.5)"/><path class="cls-13" d="M118.51,20a2.12,2.12,0,1,1-2.19-2A2.11,2.11,0,0,1,118.51,20Z" transform="translate(-34.5 -9.5)"/><path class="cls-13" d="M112.89,32.39a2.11,2.11,0,1,1-2.19-2A2.1,2.1,0,0,1,112.89,32.39Z" transform="translate(-34.5 -9.5)"/><path class="cls-13" d="M98.41,25.8a2.12,2.12,0,1,1-2.2-2A2.13,2.13,0,0,1,98.41,25.8Z" transform="translate(-34.5 -9.5)"/><path class="cls-13" d="M89,37.55a2.12,2.12,0,1,1-2.2-2A2.12,2.12,0,0,1,89,37.55Z" transform="translate(-34.5 -9.5)"/><path class="cls-13" d="M124.67,41a2.12,2.12,0,1,1-2.2-2A2.1,2.1,0,0,1,124.67,41Z" transform="translate(-34.5 -9.5)"/><path class="cls-13" d="M136,47.66a2.12,2.12,0,1,1-2.2-2A2.13,2.13,0,0,1,136,47.66Z" transform="translate(-34.5 -9.5)"/><path class="cls-13" d="M137,32.77a2.11,2.11,0,1,1-2.19-2A2.11,2.11,0,0,1,137,32.77Z" transform="translate(-34.5 -9.5)"/><path class="cls-13" d="M138,59.93a2.12,2.12,0,1,1-2.19-2A2.11,2.11,0,0,1,138,59.93Z" transform="translate(-34.5 -9.5)"/><path class="cls-13" d="M105.08,41.77a2.11,2.11,0,1,1-2.19-2A2.11,2.11,0,0,1,105.08,41.77Z" transform="translate(-34.5 -9.5)"/><path class="cls-13" d="M87.74,51.37a2.11,2.11,0,1,1-2.19-2A2.11,2.11,0,0,1,87.74,51.37Z" transform="translate(-34.5 -9.5)"/><path class="cls-14" d="M106.67,74.59c-15,0-20.45-4.93-20.83-18.84a21,21,0,0,1,.07-2.2,1,1,0,0,1,.27-.61c5.27-5.6,9.36-7.54,17.54-8.3,1.17-.11,2.4-.17,3.64-.17,9.23,0,18.11,2.91,22.09,7.25a1,1,0,0,1,.26.58c0,.54.08,1.51.11,2.28l0,.69c.27,6.76-.93,11.31-3.75,14.32-3.63,3.87-9.61,4.79-17.46,5l-2,0Z" transform="translate(-34.5 -9.5)"/><path class="cls-11" d="M107.36,45.47c8.39,0,17.37,2.58,21.36,6.93.06.68.09,2.19.12,2.91.6,15.33-6.55,17.92-20.24,18.25l-1.93,0c-14.36,0-19.46-4.34-19.83-17.86a20.65,20.65,0,0,1,.07-2.1c5-5.31,8.76-7.24,16.9-8,1.16-.11,2.35-.16,3.55-.16m0-2c-1.27,0-2.53.06-3.73.17-8.47.79-12.71,2.8-18.18,8.62a2,2,0,0,0-.54,1.22,20.77,20.77,0,0,0-.07,2.3c.4,14.44,6.31,19.81,21.83,19.81l2,0c8.11-.19,14.3-1.17,18.17-5.29,3-3.21,4.3-8,4-15l0-.65c0-.8-.06-1.79-.11-2.37a2,2,0,0,0-.52-1.16c-4.8-5.24-14.93-7.58-22.83-7.58Z" transform="translate(-34.5 -9.5)"/><g class="cls-15"><path class="cls-16" d="M129.84,65.89A6.61,6.61,0,1,1,123,59.54,6.61,6.61,0,0,1,129.84,65.89Z" transform="translate(-34.5 -9.5)"/><path class="cls-16" d="M94,68.58a6.61,6.61,0,1,1-6.86-6.35A6.61,6.61,0,0,1,94,68.58Z" transform="translate(-34.5 -9.5)"/></g><path class="cls-17" d="M105.66,64.74s3.11-.16,2.81-1.15" transform="translate(-34.5 -9.5)"/><path class="cls-18" d="M103.33,61.76c0,1.2-.59,1.71-1.78,1.76-.79,0-2.19-.41-2.24-1.6a2.17,2.17,0,0,1,2.09-2.25C102.59,59.62,103.28,60.57,103.33,61.76Z" transform="translate(-34.5 -9.5)"/><path class="cls-11" d="M94.41,59.05a1,1,0,0,1-1,1h0a1,1,0,0,1-1-1v-.81a1,1,0,0,1,1-1h0a1,1,0,0,1,1,1Z" transform="translate(-34.5 -9.5)"/><path class="cls-11" d="M114.7,58.49a1,1,0,0,1-1,1h0a1,1,0,0,1-1-1v-.81a1,1,0,0,1,1-1h0a1,1,0,0,1,1,1Z" transform="translate(-34.5 -9.5)"/><path class="cls-13" d="M83.87,59.47a2.12,2.12,0,0,1-2-.93c-.47-.75-.36-1.77.32-3.12,2.52-4.94,8.6-6.9,8.86-7a1,1,0,0,1,.3,0,1,1,0,0,1,.93.64c.07.18,1.63,4.47-3,8.35A11.22,11.22,0,0,1,83.87,59.47Z" transform="translate(-34.5 -9.5)"/><path class="cls-11" d="M91.39,49.39s1.42,3.76-2.68,7.22a10.19,10.19,0,0,1-4.84,1.86c-1.13,0-1.74-.65-.74-2.6,2.35-4.61,8.26-6.48,8.26-6.48m0-2a2.2,2.2,0,0,0-.61.09c-.27.09-6.74,2.18-9.44,7.49-.31.62-1.27,2.49-.29,4.09a3.11,3.11,0,0,0,2.82,1.41A12,12,0,0,0,90,58.17l0,0c5.13-4.32,3.34-9.25,3.26-9.46a2,2,0,0,0-1.87-1.29Z" transform="translate(-34.5 -9.5)"/><path class="cls-7" d="M91.93,97.41c-1,5.63-4,6.75-9.07,6.85s-8.19-1-9.39-6.47,3.93-10.06,9-10.16S92.86,92,91.93,97.41Z" transform="translate(-34.5 -9.5)"/><path class="cls-7" d="M94.37,90.82c.1,4.76-4.7,8-11.87,8.12s-12-2.87-12.06-7.63,4.8-5.43,12-5.58S94.27,86.06,94.37,90.82Z" transform="translate(-34.5 -9.5)"/><path class="cls-19" d="M91.74,90.08c0,1.06-4.18,2-9.39,2.12s-9.44-.67-9.46-1.74,4.18-2,9.39-2.11S91.72,89,91.74,90.08Z" transform="translate(-34.5 -9.5)"/><path class="cls-20" d="M90.16,90.47c0,.87-3.47,1.64-7.81,1.73s-7.85-.54-7.87-1.41,3.48-1.63,7.81-1.72S90.14,89.61,90.16,90.47Z" transform="translate(-34.5 -9.5)"/><path class="cls-12" d="M79.7,82.72s1.63-4.3,2.78-4.19,2,3.5,2.72,3.68c1.26.32,4.13-1.23,4.18.11S87,85.75,87.29,86.57s.77,2-.66,3-3-1-4.31-.07-2.78,1.85-3.66.67A4.38,4.38,0,0,1,78,87.36s-2.34-2.91-2.71-4.3S77.39,82.72,79.7,82.72Z" transform="translate(-34.5 -9.5)"/><path class="cls-7" d="M76.71,91.14a1.75,1.75,0,0,1,2-.93c1.45.23,1.37,1.28,1.37,1.28" transform="translate(-34.5 -9.5)"/><path class="cls-7" d="M87.19,90s.34-1.67,1.4-1.31,1,1.85,1,1.85" transform="translate(-34.5 -9.5)"/><path class="cls-7" d="M81.27,90.62a2,2,0,0,1,2.18-1.05C85.08,89.83,85,91,85,91" transform="translate(-34.5 -9.5)"/><path class="cls-21" d="M99.14,104.27c-.13,0-.16.22-.17.36a4.06,4.06,0,0,0,.7,2.81,3.18,3.18,0,0,0,2.26,1.14h0l.29,0a.43.43,0,0,0,.42-.37C103,106.16,99.36,104.2,99.14,104.27Z" transform="translate(-34.5 -9.5)"/><path class="cls-21" d="M71.5,85.29c-.18.07-.2.29-.22.48a5.37,5.37,0,0,0,1,3.64,4.18,4.18,0,0,0,3,1.41h.38a.54.54,0,0,0,.53-.49C76.62,87.59,71.78,85.19,71.5,85.29Z" transform="translate(-34.5 -9.5)"/><path class="cls-21" d="M87.51,90.12a2,2,0,0,0-.35,0,.32.32,0,0,0-.29.27,3.45,3.45,0,0,0,.56,2.38,2.31,2.31,0,0,0,1.67.81h0a3.29,3.29,0,0,0,.54,0,.32.32,0,0,0,.3-.32A2.87,2.87,0,0,0,87.51,90.12Z" transform="translate(-34.5 -9.5)"/><path class="cls-21" d="M96.49,105l-.45-.43a3,3,0,0,0-2.42-1.14c-1.14-.13-2-.31-2-.31a3.15,3.15,0,0,0,2.78,2.68h0a5.07,5.07,0,0,0,1.95-.21.32.32,0,0,0,.24-.25A.34.34,0,0,0,96.49,105Z" transform="translate(-34.5 -9.5)"/></svg>