<svg id="圖層_1" data-name="圖層 1" xmlns="http://www.w3.org/2000/svg" xmlns:xlink="http://www.w3.org/1999/xlink" viewBox="0 0 210.95 293.95"><defs><style>.cls-1,.cls-20,.cls-23{fill:none;}.cls-2,.cls-6{fill:#ffd19d;}.cls-2{stroke:#ffd19d;}.cls-2,.cls-22,.cls-3{stroke-miterlimit:10;}.cls-11,.cls-16,.cls-17,.cls-18,.cls-19,.cls-2,.cls-20,.cls-3,.cls-7,.cls-9{stroke-width:2px;}.cls-3{fill:#315a87;stroke:#315a87;}.cls-17,.cls-4{fill:#fff;}.cls-5{font-size:21.85px;font-family:jf-openhuninn-1.1;}.cls-10,.cls-18,.cls-5{fill:#604c3f;}.cls-13,.cls-7,.cls-8{fill:#f0e0d4;}.cls-11,.cls-16,.cls-17,.cls-18,.cls-19,.cls-20,.cls-22,.cls-7,.cls-8,.cls-9{stroke:#604c3f;}.cls-11,.cls-16,.cls-17,.cls-18,.cls-19,.cls-20,.cls-7,.cls-8,.cls-9{stroke-linecap:round;stroke-linejoin:round;}.cls-8{stroke-width:2.05px;}.cls-12,.cls-9{fill:#ffc692;}.cls-11,.cls-21{fill:#ffeb94;}.cls-14{clip-path:url(#clip-path);}.cls-15,.cls-16{fill:#e6b9cc;}.cls-19{fill:#666;}.cls-22{fill:#fbebdf;stroke-width:1.89px;}.cls-23{stroke:#fff;stroke-width:2.84px;}</style><clipPath id="clip-path" transform="translate(0 -3.05)"><path class="cls-1" d="M88.93,84.48c13.51,1.61,20.91,0,22.48-15.22.07-.72.26-2.22.29-2.9-3.79-5.57-14.31-9.78-23.55-10.24-8.12-.4-12.1,1-17.75,5.52A19.61,19.61,0,0,0,70,63.72C68.43,77.75,73.29,82.61,88.93,84.48Z"/></clipPath></defs><title>mango_img2</title><path class="cls-2" d="M169.11,192.17a3.19,3.19,0,0,0-3.18-3.2H34.16a3.2,3.2,0,0,0-3.18,3.2v25.64a3.19,3.19,0,0,0,3.18,3.2H165.93a3.19,3.19,0,0,0,3.18-3.2Z" transform="translate(0 -3.05)"/><path class="cls-3" d="M31,228.06V292.8a3.2,3.2,0,0,0,3.18,3.2H165.93a3.19,3.19,0,0,0,3.18-3.2V228.06a3.19,3.19,0,0,0-3.18-3.2H34.16A3.19,3.19,0,0,0,31,228.06Z" transform="translate(0 -3.05)"/><path class="cls-4" d="M55.53,252.46v-.9l-.14,0a18.76,18.76,0,0,1-3.84,1c-.33,0-.5-.18-.5-.53a.47.47,0,0,1,.39-.49l.7-.15v-4.85h-.7a.52.52,0,0,1-.38-.11.45.45,0,0,1-.13-.35c0-.29.17-.43.51-.43H62.36c.34,0,.52.15.52.45s-.18.44-.52.44H56.5v5.85c0,.39-.16.59-.48.59S55.53,252.85,55.53,252.46Zm-2.91-7.62a1,1,0,0,1-.23-.82v-1.56a1.15,1.15,0,0,1,.25-.83,1.05,1.05,0,0,1,.8-.23h6.9a1.21,1.21,0,0,1,.85.25,1,1,0,0,1,.23.81V244a1.16,1.16,0,0,1-.26.84,1,1,0,0,1-.82.24h-6.9A1.09,1.09,0,0,1,52.62,244.84Zm2.91,2.6v-.83H53.1v.83Zm0,1.69v-.9H53.1v.9Zm0,1.56v-.77H53.1v1.34Q54.42,251,55.53,250.69Zm4.81-8.11a.36.36,0,0,0-.39-.4H53.81c-.24,0-.37.13-.39.4v.28h6.92Zm0,1.34v-.32H53.42v.32a.37.37,0,0,0,.39.41H60C60.21,244.33,60.34,244.19,60.34,243.92ZM56.8,252.5a.45.45,0,0,1,.12-.31,1.12,1.12,0,0,1,.37-.23,8.42,8.42,0,0,0,1.59-.91A3.43,3.43,0,0,1,57.64,249c0-.27.16-.41.5-.41s.4.16.53.48a3.86,3.86,0,0,0,.9,1.34l0,0a5.44,5.44,0,0,0,1-1.34l.25-.47.06-.12a.31.31,0,0,0,.05-.13c0-.1-.06-.15-.19-.15H57.6c-.37,0-.55-.15-.55-.44s.18-.45.55-.45h3.76a1.18,1.18,0,0,1,.63.13.46.46,0,0,1,.21.42,2.32,2.32,0,0,1-.34.92q-.39.73-.69,1.2a11,11,0,0,1-.84,1,6.37,6.37,0,0,0,1.92.81c.42.11.63.3.63.58s-.18.57-.55.57a3.37,3.37,0,0,1-1.29-.44,8.79,8.79,0,0,1-1.43-.83,4.46,4.46,0,0,1-2.3,1.32A.45.45,0,0,1,56.8,252.5Z" transform="translate(0 -3.05)"/><path class="cls-4" d="M64.45,252.94a.57.57,0,0,1-.13-.4c0-.3.19-.47.58-.52a22,22,0,0,0,4.32-.87,6.35,6.35,0,0,1-1.58-1.52A6.56,6.56,0,0,1,65.22,251c-.34,0-.51-.15-.51-.46a.48.48,0,0,1,.12-.33,1,1,0,0,1,.39-.25,8.38,8.38,0,0,0,3.13-2.08.59.59,0,0,1-.61-.64v-1.58a.5.5,0,0,1,.11-.36.47.47,0,0,1,.36-.11.41.41,0,0,1,.47.46v1.17a.25.25,0,0,0,.26.27c.24,0,.87,0,1.9,0A3.47,3.47,0,0,0,72,247q.09,0,.12-.39a.42.42,0,0,1,.13-.31.5.5,0,0,1,.32-.11c.33,0,.49.14.49.42a1.34,1.34,0,0,1-.33,1,3.21,3.21,0,0,1-1.82.3H69.5l-.58.66h4.36a1.1,1.1,0,0,1,.64.17.52.52,0,0,1,.22.42.89.89,0,0,1-.41.67,11.81,11.81,0,0,1-1.06.72c-.44.28-.83.5-1.17.68a17.66,17.66,0,0,0,3.75.62c.67,0,1,.23,1,.58s-.23.58-.68.58a11.78,11.78,0,0,1-2.52-.36,13.63,13.63,0,0,1-2.76-.88A18.1,18.1,0,0,1,65.45,253l-.61.08A.43.43,0,0,1,64.45,252.94Zm0-6.63v-1.1a1.35,1.35,0,0,1,.3-1,1.22,1.22,0,0,1,1-.29h1a3.17,3.17,0,0,1-.39-.81c0-.27.16-.41.47-.41.13,0,.28.1.44.3a6.33,6.33,0,0,1,.63.92h2l-.31-.5a1.33,1.33,0,0,1-.21-.43q0-.42.54-.42a.62.62,0,0,1,.51.26l.68,1.09h1.37l.46-.77q.48-.81.84-.81c.38,0,.57.14.57.4a4.29,4.29,0,0,1-.77,1.18h1.21a1.3,1.3,0,0,1,1,.31,1.16,1.16,0,0,1,.27,1v1.1c0,.4-.17.59-.52.59s-.51-.19-.51-.59v-1c0-.29-.15-.44-.46-.46H66c-.29,0-.44.15-.46.46v1c0,.4-.17.59-.52.59S64.5,246.71,64.5,246.31Zm.56-3.89a.46.46,0,0,1,0-.74,1.17,1.17,0,0,1,.61-.12h2a35.67,35.67,0,0,0,6.44-.46,3,3,0,0,1,.54-.06q.54,0,.54.51c0,.3-.29.48-.85.54a70.38,70.38,0,0,1-8.6.46A1.14,1.14,0,0,1,65.06,242.42Zm.65,5.38a.35.35,0,0,1-.13-.28.48.48,0,0,1,0-.18l.59-1.3c.18-.39.36-.58.56-.58s.45.14.45.43a4.19,4.19,0,0,1-.39,1.11c-.27.61-.53.92-.76.92A.49.49,0,0,1,65.71,247.8Zm6.79,1.76a.14.14,0,0,0,0-.09s0-.05-.11-.05H68.6a5,5,0,0,0,1.71,1.34l.41-.2A9.65,9.65,0,0,0,72.5,249.56Zm-2.37-3.33-.26-.26c-.17-.18-.26-.31-.26-.4,0-.28.16-.42.47-.42a1.41,1.41,0,0,1,.69.42c.29.25.43.44.43.58,0,.3-.15.45-.47.45A1,1,0,0,1,70.13,246.23ZM74,247.29a6.86,6.86,0,0,0-.78-1c-.29-.3-.43-.53-.43-.68a.31.31,0,0,1,.12-.24.38.38,0,0,1,.27-.1.76.76,0,0,1,.44.21,6.66,6.66,0,0,1,.68.7c.54.6.8,1,.8,1.16s-.16.46-.5.46Q74.33,247.8,74,247.29Z" transform="translate(0 -3.05)"/><path class="cls-4" d="M80.15,252.5v-4.71a14.79,14.79,0,0,1-1,1.9c-.42.65-.75,1-1,1s-.47-.2-.47-.6a1.09,1.09,0,0,1,.31-.6,9.62,9.62,0,0,0,2-3.5H78.26c-.35,0-.52-.17-.52-.5s.17-.49.52-.49h1.89v-3.4c0-.37.17-.54.51-.54s.51.17.51.54V245h1.44c.4,0,.6.16.6.49a.44.44,0,0,1-.15.37.69.69,0,0,1-.45.13H81.17v1.47a.52.52,0,0,1,.41-.18c.16,0,.38.19.67.56l.27.35a3.87,3.87,0,0,1,.4.57.77.77,0,0,1,.12.39.34.34,0,0,1-.12.27.43.43,0,0,1-.31.11.62.62,0,0,1-.48-.32L81.29,248l-.12-.16v4.66q0,.54-.51.54T80.15,252.5ZM79,244.4a.47.47,0,0,1-.28-.09.42.42,0,0,1-.16-.26c-.1-.41-.22-.88-.38-1.4a.58.58,0,0,1,0-.14.35.35,0,0,1,.14-.28.48.48,0,0,1,.33-.12.49.49,0,0,1,.45.32c0,.12.12.33.22.63a6.79,6.79,0,0,1,.22.82.39.39,0,0,1-.07.34.51.51,0,0,1-.28.17Zm4.1-2.17a.4.4,0,0,1,.07.35c-.05.24-.13.51-.22.81s-.17.51-.22.63a.47.47,0,0,1-.45.32.52.52,0,0,1-.33-.11.37.37,0,0,1-.14-.29.7.7,0,0,1,0-.14c.15-.52.28-1,.38-1.4a.42.42,0,0,1,.16-.26.47.47,0,0,1,.28-.09h.16A.57.57,0,0,1,83.05,242.23Zm4,10.12v-3.2L84,250a1,1,0,0,1-.28,0,.38.38,0,0,1-.35-.16.69.69,0,0,1-.11-.39.53.53,0,0,1,.44-.54l3.3-.86v-6.33c0-.45.18-.68.55-.68s.55.23.55.68v6l.78-.22a.66.66,0,0,1,.23,0,.41.41,0,0,1,.32.13.56.56,0,0,1,.12.38.51.51,0,0,1-.43.53l-1,.31v3.49a.81.81,0,0,1-.14.52.51.51,0,0,1-.42.17Q87,253,87,252.35ZM85.16,247a4.72,4.72,0,0,1-.56-.43l-.41-.31q-.48-.39-.48-.6a.56.56,0,0,1,.12-.38.39.39,0,0,1,.32-.13,1,1,0,0,1,.45.14,5.72,5.72,0,0,1,.66.44c.53.38.79.67.79.87a.48.48,0,0,1-.55.55A.79.79,0,0,1,85.16,247Zm.51-2.87a2,2,0,0,1-.33-.25,9.63,9.63,0,0,0-.74-.65c-.27-.22-.41-.39-.41-.53a.55.55,0,0,1,.11-.36.4.4,0,0,1,.31-.14.79.79,0,0,1,.42.12,8.24,8.24,0,0,1,.7.52,2.83,2.83,0,0,1,.55.52.59.59,0,0,1,.15.37.43.43,0,0,1-.46.47A.66.66,0,0,1,85.67,244.08Z" transform="translate(0 -3.05)"/><path class="cls-4" d="M91.08,251.05c0-.3.22-.51.65-.62l1.09-.29v-3.53h-.93c-.41,0-.61-.16-.61-.48s.2-.5.61-.5h.93v-2.84h-1.1c-.4,0-.6-.17-.6-.49s.2-.51.6-.51h3.11q.6,0,.6.51c0,.32-.2.49-.6.49h-1v2.84h.78c.41,0,.61.16.61.5s-.2.48-.61.48h-.78v3.25l1.12-.31c.3,0,.46.16.46.5a.47.47,0,0,1-.24.45l-1.76.6c-.5.17-.91.29-1.24.38a3.4,3.4,0,0,1-.6.13C91.26,251.61,91.08,251.43,91.08,251.05Zm3,1.09c0-.32.2-.49.59-.49H98.5v-1.76H96.11c-.39,0-.59-.16-.59-.49s.2-.48.59-.48H98.5v-1.41H97c-.87.07-1.28-.34-1.21-1.22V242.8c-.07-.89.34-1.3,1.21-1.22h4.18c.88-.08,1.28.33,1.21,1.22v3.49c.07.87-.33,1.28-1.21,1.22h-1.6v1.41H102c.38,0,.58.16.58.48s-.2.49-.58.49H99.57v1.76h2.85c.4,0,.6.17.6.49s-.2.49-.6.49H94.71C94.32,252.63,94.12,252.46,94.12,252.14Zm4.4-9.62H97.33a.45.45,0,0,0-.51.52v1h1.7Zm0,2.44h-1.7v1.1a.44.44,0,0,0,.51.5h1.19Zm2.82-1.92c0-.36-.17-.53-.5-.52H99.57V244h1.77Zm0,3V245H99.57v1.6h1.27C101.18,246.56,101.35,246.39,101.34,246.06Z" transform="translate(0 -3.05)"/><path class="cls-4" d="M52.75,268.56v-6.29a9.46,9.46,0,0,1-.81,1.35c-.23.3-.4.45-.52.45-.32,0-.49-.2-.49-.6a1.73,1.73,0,0,1,.34-.73,17.73,17.73,0,0,0,2.28-4.81c.14-.49.36-.73.66-.73s.55.16.55.48a15.53,15.53,0,0,1-.94,2.42v8.46c0,.44-.18.66-.53.66S52.75,269,52.75,268.56Zm1.46-.36c0-.36.22-.54.64-.54h7.38c.43,0,.65.18.65.54s-.22.53-.65.53H54.85C54.43,268.73,54.21,268.55,54.21,268.2Zm1.4-2.31a1.16,1.16,0,0,1-.25-.94v-5.87a1.39,1.39,0,0,1,.29-1,1.12,1.12,0,0,1,.93-.25h4.06a1.36,1.36,0,0,1,1,.29,1.13,1.13,0,0,1,.26.93V265a1.36,1.36,0,0,1-.29,1,1.12,1.12,0,0,1-.93.27H56.58A1.39,1.39,0,0,1,55.61,265.89Zm5.15-6.4a.49.49,0,0,0-.55-.56H57a.49.49,0,0,0-.55.56v2h4.3Zm0,5.05v-2.06h-4.3v2.06a.5.5,0,0,0,.55.57h3.2C60.58,265.11,60.76,264.92,60.76,264.54Z" transform="translate(0 -3.05)"/><path class="cls-4" d="M67,266a1.11,1.11,0,0,1-.25-.85v-2a7.81,7.81,0,0,1-2,.62c-.32,0-.48-.18-.48-.53s.17-.44.52-.52a24.51,24.51,0,0,0,4.32-1.57H64.81c-.32,0-.48-.15-.48-.46s.16-.46.48-.46H69v-.95H66a.46.46,0,1,1,0-.92H69v-.53c0-.39.18-.59.54-.59s.54.2.54.59v.53h1.75a.46.46,0,1,1,0,.92H70.11v.95h.78A20.88,20.88,0,0,0,74,257.76a.73.73,0,0,1,.48-.24c.36,0,.54.17.54.52s-.83,1.07-2.5,2.15h3.27a.46.46,0,1,1,0,.92H71.07c-.5.29-1.1.59-1.8.91h4.55a1.24,1.24,0,0,1,.88.27,1.1,1.1,0,0,1,.25.87v2a1.19,1.19,0,0,1-.27.87,1.06,1.06,0,0,1-.86.25H67.88A1.18,1.18,0,0,1,67,266Zm-2.48,2.65a2.75,2.75,0,0,1,.33-.71,6.12,6.12,0,0,0,.49-1.06.49.49,0,0,1,.52-.37.48.48,0,0,1,.55.54,4,4,0,0,1-.7,1.71q-.28.45-.6.45C64.73,269.18,64.54,269,64.54,268.62Zm9.33-5.38a.36.36,0,0,0-.1-.27.45.45,0,0,0-.28-.11H68.11a.27.27,0,0,0-.3.3v.54h6.06Zm0,1.78v-.53H67.81V265c0,.24.12.36.37.38h5.31C73.73,265.4,73.85,265.27,73.87,265Zm-5.49,3.52a2.26,2.26,0,0,1,0-.3c0-.25-.09-.45-.13-.59a3,3,0,0,1-.12-.45c0-.35.18-.52.55-.52s.43.19.56.58a5.34,5.34,0,0,1,.34,1.21A.5.5,0,0,1,69,269,.54.54,0,0,1,68.38,268.54Zm3.07,0c-.09-.3-.2-.61-.34-.95a2,2,0,0,1-.15-.47.47.47,0,0,1,.54-.53.54.54,0,0,1,.5.36,5.44,5.44,0,0,1,.59,1.51A.51.51,0,0,1,72,269C71.74,269,71.56,268.85,71.45,268.52Zm3.43.25c-.26-.55-.51-1-.76-1.46A.74.74,0,0,1,74,267a.49.49,0,0,1,.56-.54c.18,0,.37.16.58.47a5.78,5.78,0,0,1,.9,1.65q0,.6-.63.6A.57.57,0,0,1,74.88,268.77Z" transform="translate(0 -3.05)"/><path class="cls-4" d="M78.33,268.67a1,1,0,0,1-.25-.76v-7.48a1.07,1.07,0,0,1,.25-.77,1,1,0,0,1,.73-.26h.66c.07-.39.16-.95.25-1.67a.56.56,0,0,1,.17-.36.57.57,0,0,1,.38-.11c.44,0,.62.22.56.67a8.67,8.67,0,0,1-.34,1.47h1c.66,0,1,.34,1,1v7.48a.89.89,0,0,1-1,1H79.08A1,1,0,0,1,78.33,268.67Zm3.34-7.84a.38.38,0,0,0-.43-.43H79.58a.38.38,0,0,0-.43.43v2.64h2.52Zm0,6.66v-3.05H79.15v3.05a.38.38,0,0,0,.43.44h1.66A.38.38,0,0,0,81.67,267.49Zm3.88,1.5a.51.51,0,0,1-.15-.41q0-.54.6-.54c.54,0,.92,0,1.13,0a1,1,0,0,0,.5-.15.85.85,0,0,0,.27-.42,12.44,12.44,0,0,0,.29-2.63c.07-1.4.11-2.72.11-4,0-.33-.2-.5-.58-.5H84.81a7.46,7.46,0,0,1-.8,1.61.53.53,0,0,1-.46.3.45.45,0,0,1-.27-.08.43.43,0,0,1-.26-.4.7.7,0,0,1,.1-.36,13.76,13.76,0,0,0,.81-1.75c.22-.58.42-1.23.62-1.95a.75.75,0,0,1,.2-.35.48.48,0,0,1,.33-.12l.18,0a.45.45,0,0,1,.4.47,1.67,1.67,0,0,1,0,.29c-.06.25-.14.51-.22.76a3.82,3.82,0,0,1-.25.58h3.13c.77,0,1.15.33,1.15,1,0,1.65,0,3.24-.13,4.77a11.7,11.7,0,0,1-.44,3.08,1.41,1.41,0,0,1-.72.76,3.85,3.85,0,0,1-1.46.21h-.61A.87.87,0,0,1,85.55,269Zm.07-3.46a2,2,0,0,1-.32-.46c-.16-.3-.41-.7-.73-1.2l-.18-.29a.65.65,0,0,1-.11-.22.74.74,0,0,1,0-.22.48.48,0,0,1,.13-.35.49.49,0,0,1,.34-.13.67.67,0,0,1,.45.24,7.36,7.36,0,0,1,.6.78,4,4,0,0,1,.76,1.51.45.45,0,0,1-.14.35.53.53,0,0,1-.39.14A.49.49,0,0,1,85.62,265.53Z" transform="translate(0 -3.05)"/><path class="cls-4" d="M97.6,260.19v8.39c0,.43-.18.64-.55.64s-.55-.21-.55-.64v-6.73a15,15,0,0,1-2.12,2.31A14,14,0,0,1,92,265.89a.75.75,0,0,1-.34.09.45.45,0,0,1-.26-.08.59.59,0,0,1-.19-.22.83.83,0,0,1-.06-.27.57.57,0,0,1,.32-.47,16,16,0,0,0,3.21-2.6A13.07,13.07,0,0,0,97,259H91.82a.63.63,0,0,1-.43-.12.54.54,0,0,1-.14-.4c0-.35.19-.52.57-.52h10.46c.39,0,.59.17.59.52s-.2.52-.59.52h-4.1C98,259.37,97.84,259.75,97.6,260.19Zm5.36,5.29a.56.56,0,0,1-.16.38.5.5,0,0,1-.39.2.66.66,0,0,1-.46-.23q-1.77-1.81-3.17-3a.56.56,0,0,1-.25-.43.5.5,0,0,1,.46-.46.74.74,0,0,1,.39.15c.5.38,1.09.85,1.75,1.42a19.63,19.63,0,0,1,1.63,1.54A.68.68,0,0,1,103,265.48Z" transform="translate(0 -3.05)"/><path class="cls-4" d="M104.54,263.06c0-.4.24-.61.73-.61h10.34c.49,0,.73.21.73.62s-.24.59-.73.59H105.27C104.78,263.66,104.54,263.46,104.54,263.06Z" transform="translate(0 -3.05)"/><path class="cls-4" d="M129.75,268.27c0,.37-.24.55-.72.55-2.07,0-3.57-.05-4.5-.14a6.87,6.87,0,0,1-2.45-.7,3.93,3.93,0,0,1-1.56-1.47h0a7.34,7.34,0,0,1-1,1.7c-.42.51-.76.77-1,.77a.48.48,0,0,1-.54-.54c0-.15.19-.4.56-.75a6,6,0,0,0,1.66-3.8.89.89,0,0,1,.19-.49.51.51,0,0,1,.39-.17.47.47,0,0,1,.53.54,7.38,7.38,0,0,1-.33,1.65,4.22,4.22,0,0,0,2.4,2V262h-3.1c-.4,0-.6-.16-.6-.5s.2-.47.6-.47h7.25c.41,0,.62.16.62.47s-.21.5-.62.5h-3.09v2.09h3.13c.42,0,.63.18.63.52s-.21.51-.63.51h-3.13v2.51a22.63,22.63,0,0,0,2.64.14l2.09,0C129.52,267.71,129.75,267.89,129.75,268.27ZM118.1,261v-1.15a1.3,1.3,0,0,1,.3-1,1.48,1.48,0,0,1,1-.32h3.74v-.8a.5.5,0,0,1,.58-.56c.4,0,.59.19.59.56v.8h4a1.35,1.35,0,0,1,.94.32,1.25,1.25,0,0,1,.3.93V261a.68.68,0,0,1-.13.47.52.52,0,0,1-.42.15c-.34,0-.52-.2-.52-.62v-.93a.53.53,0,0,0-.14-.41.46.46,0,0,0-.39-.13h-8.2q-.52,0-.51.54V261c0,.42-.18.62-.55.62S118.1,261.46,118.1,261Z" transform="translate(0 -3.05)"/><path class="cls-4" d="M136.53,260.74l-4.6.38a.68.68,0,0,1-.5-.11.52.52,0,0,1-.18-.43c0-.35.37-.54,1.1-.54h.21l.57-1.78.21-.63a.8.8,0,0,1,.17-.32.68.68,0,0,1,.42-.12c.38,0,.57.16.57.49a7.19,7.19,0,0,1-1,2.34l2.51-.12-.42-.59a1.62,1.62,0,0,1-.27-.49c0-.29.17-.43.51-.43s.57.37,1.1,1.1a3.84,3.84,0,0,1,.78,1.48.45.45,0,0,1-.51.5C137,261.47,136.79,261.23,136.53,260.74Zm-4.43,7.94v-6a1.21,1.21,0,0,1,.24-.83,1,1,0,0,1,.79-.23h2.79a1.15,1.15,0,0,1,.81.25,1,1,0,0,1,.22.81v5.21a1.39,1.39,0,0,1-.3,1,1.13,1.13,0,0,1-.94.25h-.57c-.37,0-.56-.16-.56-.5s.19-.52.56-.52h.34q.45,0,.48-.48v-1.21h-2.87v2.23c0,.35-.16.52-.48.52A.45.45,0,0,1,132.1,268.68ZM136,263a.37.37,0,0,0-.41-.42H133.5a.37.37,0,0,0-.41.42v.59H136Zm0,2.5v-1h-2.87v1Zm2.37-3a.88.88,0,0,1-.35-.77v-3.84c0-.42.17-.64.51-.64s.5.22.5.64v1.38l1-.36,1.54-.63a1.09,1.09,0,0,1,.41-.1.45.45,0,0,1,.52.51.51.51,0,0,1-.31.47,7.13,7.13,0,0,1-1.14.41l-2,.54v1.14c0,.31.2.48.6.5l.33,0h.53a5.92,5.92,0,0,0,1.11-.07.61.61,0,0,0,.48-.61.48.48,0,0,1,.53-.47c.38,0,.57.16.57.5a1.38,1.38,0,0,1-.79,1.44,7.55,7.55,0,0,1-2.11.16A4.25,4.25,0,0,1,138.33,262.54Zm0,6.1a.92.92,0,0,1-.35-.79v-4.09a.74.74,0,0,1,.12-.47.5.5,0,0,1,.39-.15c.33,0,.5.2.5.62v1.36c.55-.17,1.09-.37,1.62-.59l.93-.39a1.1,1.1,0,0,1,.4-.11.53.53,0,0,1,.26,1c-.15.07-.56.22-1.23.44-.46.15-1.12.32-2,.52v1.4a.41.41,0,0,0,.15.34.83.83,0,0,0,.45.13l.33,0h.53a5.41,5.41,0,0,0,1.11-.07.59.59,0,0,0,.48-.59.49.49,0,0,1,.53-.47c.38,0,.57.17.57.5a1.35,1.35,0,0,1-.79,1.43,7.48,7.48,0,0,1-2.11.17A4.6,4.6,0,0,1,138.33,268.64Z" transform="translate(0 -3.05)"/><path class="cls-4" d="M148.48,258.64a1,1,0,0,1,.24.87v5.88a1.26,1.26,0,0,1-.27.89,1.1,1.1,0,0,1-.85.26h-1.3a1.19,1.19,0,0,1-.88-.28,1.1,1.1,0,0,1-.25-.87v-5.88a1.25,1.25,0,0,1,.27-.89,1.06,1.06,0,0,1,.86-.26h1.3A1.19,1.19,0,0,1,148.48,258.64Zm-.75,1.13q0-.39-.42-.42h-.71a.41.41,0,0,0-.3.11.48.48,0,0,0-.11.31v5.34a.37.37,0,0,0,.11.3.46.46,0,0,0,.3.12h.71q.39,0,.42-.42Zm2.21,1.93c-.24.31-.43.47-.58.49a.46.46,0,0,1-.36-.11.41.41,0,0,1-.13-.32,1,1,0,0,1,.2-.57A12.16,12.16,0,0,0,150.6,258c.2-.55.43-.82.68-.82s.53.15.53.47a6.49,6.49,0,0,1-.54,1.5h4.61c.43,0,.64.18.64.53s-.21.51-.64.51H150.8A10.86,10.86,0,0,1,149.94,261.7Zm6.64,4.66a2.62,2.62,0,0,1-.58,2q-.48.45-3.27.45a6.43,6.43,0,0,1-2.58-.37,1.26,1.26,0,0,1-.8-1.22c0-1,1.14-2.35,3.44-4,.13-.09.19-.16.19-.21s0-.11-.13-.11h-2.22c-.39,0-.59-.16-.59-.49s.2-.48.59-.48h3.44c.6,0,.9.19.9.56,0,.19-.22.42-.67.71a26.8,26.8,0,0,0-2.42,1.9c-1,.83-1.46,1.47-1.46,1.92s.3.62.89.72a11.54,11.54,0,0,0,1.76.08,4,4,0,0,0,2.09-.31.9.9,0,0,0,.21-.42,3.19,3.19,0,0,0,.09-.77c0-.34.21-.51.58-.51S156.58,266,156.58,266.36Z" transform="translate(0 -3.05)"/><text class="cls-5" transform="translate(77.09 210.31) scale(0.99 1)">料理</text><path class="cls-6" d="M176.49,82.93c0,37.64-30.3,68.16-67.69,68.16S41.11,120.57,41.11,82.93,71.42,14.78,108.8,14.78,176.49,45.29,176.49,82.93Z" transform="translate(0 -3.05)"/><path class="cls-7" d="M83.39,81.78s-8.19,15.13-3.64,25.76c.73,1.37,3.46,4.22,5.83,4.49.4,1.73.78,4.27,1.28,6.23-1.44,1.73.31,2.93,1.54,2.85,1.46-.11,3.19.27,3.46-1.84a79,79,0,0,0,0-8.15,52.42,52.42,0,0,0,7.46.18c.16,1.69.17,4.72.58,7-1.62,1.7.83,2.9,1.79,2.9,2.28,0,2.82-.45,3.19-1.92s.82-8,.82-8S113.07,110.11,112,99s-3.55-16.32-6.92-18.25C100.23,81.14,83.39,81.78,83.39,81.78Z" transform="translate(0 -3.05)"/><path class="cls-8" d="M109.62,91.68s4.4,1.85,7,.31,6.77-4.88,6.07-7.75c-1-4.12-5.81-3.47-5.83.14-1.53,1.89-2.55,1.41-2.55,1.41l-8.64-3.08" transform="translate(0 -3.05)"/><path class="cls-7" d="M72.23,91.68s2.27,6.72,6.6,3.48c.23-1.25,2.27-9.57,3.42-11a7.55,7.55,0,0,1-3.46-.88L75.5,91S72.1,89.79,72.23,91.68Z" transform="translate(0 -3.05)"/><path class="cls-9" d="M78.11,101s1.09,2.8,6.8,3.23,20.21.92,24.94-3.73a6,6,0,0,0,2-3c-.06-.55,1.38.12,1,3.79s0,8.8-5.28,12c-1.34-.67-3.82-1.65-3.82-1.65l-6.14,3.55-7.4-3.79-5.4,3.3-2.54-2-.62,1.47s-3.82-2-4.4-10.94C77.08,101.46,77.67,100.31,78.11,101Z" transform="translate(0 -3.05)"/><path class="cls-10" d="M100,91.27a.69.69,0,1,1-.62-.76A.69.69,0,0,1,100,91.27Z" transform="translate(0 -3.05)"/><path class="cls-10" d="M85.23,90.06a.69.69,0,1,1-.62-.77A.71.71,0,0,1,85.23,90.06Z" transform="translate(0 -3.05)"/><path class="cls-11" d="M127.23,62.7c-1.77,17.1-16.45,24.61-33.43,22.84S64,73.38,65.73,56.28a30.92,30.92,0,1,1,61.5,6.42Z" transform="translate(0 -3.05)"/><path class="cls-12" d="M106.22,32.82a2.1,2.1,0,1,1-1.87-2.33A2.11,2.11,0,0,1,106.22,32.82Z" transform="translate(0 -3.05)"/><path class="cls-12" d="M99,44.29A2.1,2.1,0,1,1,97.08,42,2.11,2.11,0,0,1,99,44.29Z" transform="translate(0 -3.05)"/><path class="cls-12" d="M85.63,35.71a2.1,2.1,0,1,1-1.88-2.32A2.11,2.11,0,0,1,85.63,35.71Z" transform="translate(0 -3.05)"/><path class="cls-12" d="M74.68,46a2.11,2.11,0,0,1-2.3,1.89,2.12,2.12,0,0,1,.43-4.21A2.1,2.1,0,0,1,74.68,46Z" transform="translate(0 -3.05)"/><path class="cls-12" d="M109.32,54.5a2.1,2.1,0,1,1-1.87-2.32A2.11,2.11,0,0,1,109.32,54.5Z" transform="translate(0 -3.05)"/><path class="cls-12" d="M119.5,62.69a2.1,2.1,0,1,1-1.87-2.33A2.11,2.11,0,0,1,119.5,62.69Z" transform="translate(0 -3.05)"/><path class="cls-12" d="M122.59,48.08a2.1,2.1,0,1,1-1.87-2.32A2.09,2.09,0,0,1,122.59,48.08Z" transform="translate(0 -3.05)"/><path class="cls-12" d="M119.81,75.14a2.1,2.1,0,1,1-4.18-.44,2.1,2.1,0,1,1,4.18.44Z" transform="translate(0 -3.05)"/><path class="cls-12" d="M90,52.47a2.1,2.1,0,1,1-1.88-2.32A2.11,2.11,0,0,1,90,52.47Z" transform="translate(0 -3.05)"/><path class="cls-12" d="M71.53,59.53a2.1,2.1,0,1,1-1.87-2.32A2.09,2.09,0,0,1,71.53,59.53Z" transform="translate(0 -3.05)"/><path class="cls-13" d="M96.05,86a60.92,60.92,0,0,1-7.24-.51C72.38,83.51,67.39,78,69,63.6a18.77,18.77,0,0,1,.38-2.17,1,1,0,0,1,.35-.57c5.4-4.34,9.4-5.8,15.88-5.8q1.2,0,2.55.06c10.07.5,20.53,5.09,24.32,10.67a1,1,0,0,1,.18.61c0,.56-.14,1.55-.23,2.34l-.07.62c-1.21,11.8-6,16.62-16.35,16.62Z" transform="translate(0 -3.05)"/><path class="cls-10" d="M85.64,56.06c.8,0,1.63,0,2.51.06,9.24.46,19.76,4.67,23.55,10.24,0,.68-.22,2.18-.29,2.9C110.14,81.59,105.07,85,96.05,85a61,61,0,0,1-7.12-.5C73.29,82.61,68.43,77.75,70,63.72a19.61,19.61,0,0,1,.37-2.08c5-4,8.75-5.58,15.24-5.58m0-2c-6.73,0-10.89,1.52-16.5,6a2,2,0,0,0-.7,1.12c-.15.7-.3,1.46-.4,2.28-1.7,14.94,3.7,20.95,20.65,23a60.89,60.89,0,0,0,7.36.52c10.9,0,16.09-5.24,17.35-17.52l.07-.64c.09-.8.2-1.79.23-2.37a2,2,0,0,0-.35-1.22c-4.51-6.63-16.3-10.67-25.1-11.11-.92,0-1.8-.06-2.61-.06Z" transform="translate(0 -3.05)"/><g class="cls-14"><path class="cls-15" d="M110.9,79.88A6.57,6.57,0,1,1,105,72.62,6.58,6.58,0,0,1,110.9,79.88Z" transform="translate(0 -3.05)"/><path class="cls-15" d="M75.31,77.47a6.58,6.58,0,1,1-5.86-7.26A6.59,6.59,0,0,1,75.31,77.47Z" transform="translate(0 -3.05)"/></g><path class="cls-12" d="M67.27,67.05c-1.53,0-2.17-.61-2.44-1.13-.64-1.23.38-2.68.71-3.15,3.17-4.54,9.43-5.63,9.7-5.67l.16,0a1,1,0,0,1,1,.79c0,.18,1,4.65-4.09,7.84A11.88,11.88,0,0,1,67.27,67.05Z" transform="translate(0 -3.05)"/><path class="cls-10" d="M75.4,58.08s.87,3.93-3.65,6.78a10.88,10.88,0,0,1-4.47,1.19c-1.48,0-2.36-.65-.92-2.71,3-4.25,9-5.26,9-5.26m0-2-.33,0c-.28,0-6.95,1.2-10.35,6.08-1.12,1.61-1.38,3-.77,4.2.39.75,1.29,1.66,3.33,1.66a12.65,12.65,0,0,0,5.49-1.47l0,0c5.65-3.55,4.58-8.68,4.53-8.9a2,2,0,0,0-1.95-1.57Z" transform="translate(0 -3.05)"/><path class="cls-16" d="M85.38,72.14c-.2,1.18-.92,1.56-2.09,1.36-.77-.13-2-.84-1.85-2a2.15,2.15,0,0,1,2.48-1.78A1.91,1.91,0,0,1,85.38,72.14Z" transform="translate(0 -3.05)"/><path class="cls-10" d="M77.06,68.06a1.06,1.06,0,0,1-1.2.9h0a1.06,1.06,0,0,1-.9-1.2l.13-.89a1.06,1.06,0,0,1,1.2-.9h0a1.06,1.06,0,0,1,.89,1.21Z" transform="translate(0 -3.05)"/><path class="cls-10" d="M98.14,71.18a1,1,0,0,1-1.2.9h0a1.05,1.05,0,0,1-.89-1.21l.13-.88a1.06,1.06,0,0,1,1.2-.9h0a1.06,1.06,0,0,1,.89,1.21Z" transform="translate(0 -3.05)"/><path class="cls-10" d="M87.17,76.14c0,.39-.18.7-1.8.58s-1.73-.46-1.7-.85.24-.29,1.75-.18S87.2,75.75,87.17,76.14Z" transform="translate(0 -3.05)"/><path class="cls-17" d="M73.11,37.08c-2.17,1.2-6.14,3.69-5.79,6.55.21,1.27,1.31,2.75,5,1.22s10.82-3.52,14.83-3.79c9.36-1.18-.91-5-5.39-6.06C79.15,34.37,75.28,35.88,73.11,37.08Z" transform="translate(0 -3.05)"/><path class="cls-17" d="M127.07,53.37S131,59,128.67,62c-.83,1-2.54,1.67-4.93-1.58s-7.45-8.69-10.75-11c-1.27-.95-.42-6.22,6-4.54C121.08,45.36,125.39,50.19,127.07,53.37Z" transform="translate(0 -3.05)"/><path class="cls-17" d="M88.84,39.88c.4,3.15,13,5.62,15.29,5.08,3.06,1.19,1.86-1.7,1.59-3.1s-1.36-4.35-5.41-6S84.61,32.66,81.89,34C78.46,36.6,88.24,35,88.84,39.88Z" transform="translate(0 -3.05)"/><path class="cls-17" d="M114.25,40.53S102,32.92,99.47,35.81c-.72,1.06,4.16,1.47,4.12,6,0,5.23,9.34,9.14,12.19,10.15,1.21,1,6-1.06,2.87-7.05C117.67,42.94,118.48,43.06,114.25,40.53Z" transform="translate(0 -3.05)"/><path class="cls-17" d="M118.2,37.51s-1.42,2.67-.45,4.7c.49,1.91.31,8.9-2,6.47s-5.65-5.75-4.28-12.82c1-3.58,7.22-2.51,7.72-.33C119.44,36.3,118.2,37.51,118.2,37.51Z" transform="translate(0 -3.05)"/><path class="cls-17" d="M121.81,48.07a4.49,4.49,0,0,0,3.8-4.37c0-2.13,1.53-1.7,2.4-.71s2.36,3.76.52,5.71-5.37,4.66-8.64,3.15C118.51,51,120.14,48.7,121.81,48.07Z" transform="translate(0 -3.05)"/><path class="cls-17" d="M117.64,42.68s-1.23,5.4-4.15,7.54c-1,.83-1,2.81,1.7,4.46,1.64,1,3.61-.42,4.67-1.86,1.37-1.85,3.45-5.3,1.86-8.29C119.92,41.18,118,41.19,117.64,42.68Z" transform="translate(0 -3.05)"/><path class="cls-18" d="M124.25,75.43a1.09,1.09,0,0,1-1.35.75h0a1.11,1.11,0,0,1-.75-1.37l8.23-28.51a1.08,1.08,0,0,1,1.35-.75h0a1.11,1.11,0,0,1,.75,1.36Z" transform="translate(0 -3.05)"/><path class="cls-9" d="M122.24,85.22a1.87,1.87,0,0,1-2.32,1.29h0a1.9,1.9,0,0,1-1.29-2.35l2.68-9.28a1.88,1.88,0,0,1,2.33-1.29h0a1.9,1.9,0,0,1,1.28,2.35Z" transform="translate(0 -3.05)"/><path class="cls-19" d="M127.52,39.12a2,2,0,0,0-1.18,1.31l-3,10.26c0,.18-.2.69-.22.78-.29,1,2.32,2.6,5.82,3.63s6.56,1.06,6.84.08c0-.09.17-.6.22-.79l3-10.26a1.88,1.88,0,0,0-.34-1.8C138.25,41.87,128.08,38.88,127.52,39.12Z" transform="translate(0 -3.05)"/><path class="cls-4" d="M126.61,47.56a.52.52,0,0,1-.65.36.53.53,0,0,1-.36-.66.52.52,0,0,1,.65-.36A.53.53,0,0,1,126.61,47.56Z" transform="translate(0 -3.05)"/><path class="cls-4" d="M126.4,46.4a.46.46,0,0,1-.31-.57l.85-3a.46.46,0,0,1,.88.26L127,46.08A.45.45,0,0,1,126.4,46.4Z" transform="translate(0 -3.05)"/><path class="cls-10" d="M129.7,53a13.39,13.39,0,0,1-3.3-1.49.47.47,0,0,1-.12-.64.46.46,0,0,1,.63-.13,11.13,11.13,0,0,0,5.93,1.75.46.46,0,0,1,.49.43.46.46,0,0,1-.43.48A9.23,9.23,0,0,1,129.7,53Z" transform="translate(0 -3.05)"/><polygon class="cls-13" points="39.53 97.93 150.76 110.21 115.61 135.49 0 116.71 39.53 97.93"/><line class="cls-20" x1="39.53" y1="97.93" x2="150.76" y2="110.21"/><path class="cls-18" d="M68.88,88.48s7.23-1.5,8.48,0,1.46,3.78-2.78,4S68.88,88.48,68.88,88.48Z" transform="translate(0 -3.05)"/><path class="cls-8" d="M75.88,89.32a2.6,2.6,0,0,1-3.21,1.78l-2-.59a2.61,2.61,0,0,1-1.76-3.23h0c.4-1.38,2-2.48,4.21-1.88a3.44,3.44,0,0,1,2.75,3.92Z" transform="translate(0 -3.05)"/><path class="cls-18" d="M75.12,92.82c0,7.67-9.56,10.78-21.34,10.78S32.44,101,32.44,92.82c0-4.5,9.55-8.15,21.34-8.15S75.12,88.32,75.12,92.82Z" transform="translate(0 -3.05)"/><path class="cls-17" d="M75.12,91.71c0,3.88-9.56,7-21.34,7s-21.34-3.15-21.34-7,9.55-7,21.34-7S75.12,87.82,75.12,91.71Z" transform="translate(0 -3.05)"/><path class="cls-20" d="M35.81,93.17s3.49-2.81,11.77-3.34c6.19-.39,23-.19,24.07,5.36" transform="translate(0 -3.05)"/><path class="cls-17" d="M53.72,84.4c2.59,1.9,3.36,5.27,1.73,7.52s-5.05,2.53-7.64.63S44.45,87.28,46.09,85,51.14,82.49,53.72,84.4Z" transform="translate(0 -3.05)"/><path class="cls-17" d="M72,115.2c0,2.78-7.55,5-16.86,5s-16.86-2.26-16.86-5,7.55-5,16.86-5S72,112.41,72,115.2Z" transform="translate(0 -3.05)"/><path class="cls-17" d="M72.39,118c0,2.85-7.74,5.17-17.29,5.17S37.81,120.81,37.81,118c0-7,7.74-6.24,17.29-6.24S72.39,110.42,72.39,118Z" transform="translate(0 -3.05)"/><path class="cls-18" d="M68.74,114.68c0,2.23-6,4-13.52,4s-13.52-1.81-13.52-4,6-4,13.52-4S68.74,112.45,68.74,114.68Z" transform="translate(0 -3.05)"/><path class="cls-9" d="M45.68,107.38s-2.38,1.5-2,3.17c-.65.51-1.27,3.51,2,3.34s3.13-1.83,3-3.25C47.81,110.22,47.2,108.05,45.68,107.38Z" transform="translate(0 -3.05)"/><path class="cls-21" d="M45.56,110.23c-.57.62-1.71,2.73.36,3,1.54,0,1.67-1.32,1.2-1.77S45.56,110.23,45.56,110.23Z" transform="translate(0 -3.05)"/><path class="cls-9" d="M65.31,108.17s-2.53,1.6-2.16,3.37c-.69.54-1.35,3.73,2.16,3.55s3.32-2,3.15-3.46C67.58,111.18,66.92,108.87,65.31,108.17Z" transform="translate(0 -3.05)"/><path class="cls-21" d="M65.19,111.2c-.61.65-1.82,2.89.38,3.22,1.63,0,1.77-1.41,1.27-1.88S65.19,111.2,65.19,111.2Z" transform="translate(0 -3.05)"/><path class="cls-9" d="M54.45,110.28s-3,1.91-2.58,4c-.82.64-1.61,4.45,2.58,4.24s4-2.33,3.76-4.13C57.16,113.89,56.37,111.13,54.45,110.28Z" transform="translate(0 -3.05)"/><path class="cls-21" d="M54.3,113.9c-.73.78-2.17,3.46.46,3.85,1.94,0,2.12-1.69,1.51-2.25S54.3,113.9,54.3,113.9Z" transform="translate(0 -3.05)"/><path class="cls-22" d="M156,60.4a4.82,4.82,0,0,0-4.22-1c-3.14.61-5.94,3.87-4.26,7.11a2.33,2.33,0,0,0,.74.86,6.29,6.29,0,0,0,1.88,1.49,5.08,5.08,0,0,0,7.15-3.06A5.34,5.34,0,0,0,156,60.4Z" transform="translate(0 -3.05)"/><path class="cls-22" d="M140.49,66.82a2.21,2.21,0,0,0-1.92-.44c-1.43.28-2.7,1.76-1.94,3.23A1.09,1.09,0,0,0,137,70a2.93,2.93,0,0,0,.85.68,2.31,2.31,0,0,0,3.25-1.39A2.44,2.44,0,0,0,140.49,66.82Z" transform="translate(0 -3.05)"/><path class="cls-22" d="M209.4,29.9C205.28,10.37,182-.15,162.84,5.54c-8.89,2.64-19.18,8.3-21,17.75-2.18,7.47.31,16.25,4.93,22.46,5.53,7.45,15.42,11.09,24.34,13.19,8.13,1.92,19.65,3.58,27-1.14A26.41,26.41,0,0,0,209.4,29.9Z" transform="translate(0 -3.05)"/><path class="cls-17" d="M170.49,18.68a3.12,3.12,0,0,0-.92.74,12.77,12.77,0,0,0-11.38,16c2.86,12,15.36,16.66,26.21,14C206,44,188.33,8.88,170.49,18.68Z" transform="translate(0 -3.05)"/><path class="cls-11" d="M180.85,30.67c-2.9-4.59-10.52-2.53-12,2.25a5.74,5.74,0,0,0,1.35,5.8,3.58,3.58,0,0,0,2.9,1.14,8.45,8.45,0,0,0,5.11.32,5.26,5.26,0,0,0,3.85-3.34A7.45,7.45,0,0,0,180.85,30.67Z" transform="translate(0 -3.05)"/><path class="cls-10" d="M62,27.35c-.45-.39-.29-.71.1-1.6.48-1.06,1-2.1,1.4-3.21a6.1,6.1,0,0,0-1.76-6.38c-3.6-3.27-9.28-.78-11.54,2.84-1.58,2.53,2.39,4.84,4,2.33a4.4,4.4,0,0,1,3-2c1-.13,2.29.37,2,1.64-.33,1.58-1.37,3-1.85,4.53a4.84,4.84,0,0,0,1.42,5.13C60.94,32.54,64.2,29.29,62,27.35Z" transform="translate(0 -3.05)"/><path class="cls-10" d="M64.53,32H64a2.31,2.31,0,0,0,0,4.61h.55a2.31,2.31,0,0,0,0-4.61Z" transform="translate(0 -3.05)"/><path class="cls-23" d="M62,27.35c-.45-.39-.29-.71.1-1.6.48-1.06,1-2.1,1.4-3.21a6.1,6.1,0,0,0-1.76-6.38c-3.6-3.27-9.28-.78-11.54,2.84-1.58,2.53,2.39,4.84,4,2.33a4.4,4.4,0,0,1,3-2c1-.13,2.29.37,2,1.64-.33,1.58-1.37,3-1.85,4.53a4.84,4.84,0,0,0,1.42,5.13C60.94,32.54,64.2,29.29,62,27.35Z" transform="translate(0 -3.05)"/><path class="cls-23" d="M64.53,32H64a2.31,2.31,0,0,0,0,4.61h.55a2.31,2.31,0,0,0,0-4.61Z" transform="translate(0 -3.05)"/><path class="cls-10" d="M62,27.35c-.45-.39-.29-.71.1-1.6.48-1.06,1-2.1,1.4-3.21a6.1,6.1,0,0,0-1.76-6.38c-3.6-3.27-9.28-.78-11.54,2.84-1.58,2.53,2.39,4.84,4,2.33a4.4,4.4,0,0,1,3-2c1-.13,2.29.37,2,1.64-.33,1.58-1.37,3-1.85,4.53a4.84,4.84,0,0,0,1.42,5.13C60.94,32.54,64.2,29.29,62,27.35Z" transform="translate(0 -3.05)"/><path class="cls-10" d="M64.53,32H64a2.31,2.31,0,0,0,0,4.61h.55a2.31,2.31,0,0,0,0-4.61Z" transform="translate(0 -3.05)"/><path class="cls-10" d="M80.29,18.7c-.19-.43,0-.61.62-1.1s1.44-1.13,2.1-1.78A4.85,4.85,0,0,0,84,10.68c-1.42-3.56-6.31-3.78-9.15-2-2,1.24,0,4.26,2,3a3.48,3.48,0,0,1,2.83-.38c.77.26,1.49,1.07.87,1.87-.78,1-2,1.63-2.86,2.56a3.8,3.8,0,0,0-.76,4.13C77.79,22,81.22,20.85,80.29,18.7Z" transform="translate(0 -3.05)"/><path class="cls-10" d="M80.52,22.89l-.39-.19a1.8,1.8,0,0,0-2.41.83A1.83,1.83,0,0,0,78.55,26c.12.07.25.13.38.19a1.82,1.82,0,0,0,2.42-.83A1.84,1.84,0,0,0,80.52,22.89Z" transform="translate(0 -3.05)"/><path class="cls-23" d="M80.29,18.7c-.19-.43,0-.61.62-1.1s1.44-1.13,2.1-1.78A4.85,4.85,0,0,0,84,10.68c-1.42-3.56-6.31-3.78-9.15-2-2,1.24,0,4.26,2,3a3.48,3.48,0,0,1,2.83-.38c.77.26,1.49,1.07.87,1.87-.78,1-2,1.63-2.86,2.56a3.8,3.8,0,0,0-.76,4.13C77.79,22,81.22,20.85,80.29,18.7Z" transform="translate(0 -3.05)"/><path class="cls-23" d="M80.52,22.89l-.39-.19a1.8,1.8,0,0,0-2.41.83A1.83,1.83,0,0,0,78.55,26c.12.07.25.13.38.19a1.82,1.82,0,0,0,2.42-.83A1.84,1.84,0,0,0,80.52,22.89Z" transform="translate(0 -3.05)"/><path class="cls-10" d="M80.29,18.7c-.19-.43,0-.61.62-1.1s1.44-1.13,2.1-1.78A4.85,4.85,0,0,0,84,10.68c-1.42-3.56-6.31-3.78-9.15-2-2,1.24,0,4.26,2,3a3.48,3.48,0,0,1,2.83-.38c.77.26,1.49,1.07.87,1.87-.78,1-2,1.63-2.86,2.56a3.8,3.8,0,0,0-.76,4.13C77.79,22,81.22,20.85,80.29,18.7Z" transform="translate(0 -3.05)"/><path class="cls-10" d="M80.52,22.89l-.39-.19a1.8,1.8,0,0,0-2.41.83A1.83,1.83,0,0,0,78.55,26c.12.07.25.13.38.19a1.82,1.82,0,0,0,2.42-.83A1.84,1.84,0,0,0,80.52,22.89Z" transform="translate(0 -3.05)"/></svg>