<svg id="圖層_1" data-name="圖層 1" xmlns="http://www.w3.org/2000/svg" xmlns:xlink="http://www.w3.org/1999/xlink" viewBox="0 0 227 281"><defs><style>.cls-1,.cls-13{fill:none;}.cls-2,.cls-9{fill:#ffc692;}.cls-13,.cls-14,.cls-15,.cls-2,.cls-3,.cls-5,.cls-6,.cls-8{stroke:#604c3f;stroke-linecap:round;stroke-linejoin:round;stroke-width:3px;}.cls-3{fill:#cce198;}.cls-4{fill:#91a574;}.cls-5{fill:#ffd19d;}.cls-10,.cls-6{fill:#f0e0d4;}.cls-7{fill:#604c3f;}.cls-8{fill:#ffeb94;}.cls-11{clip-path:url(#clip-path);}.cls-12,.cls-14{fill:#e6b9cc;}.cls-15{fill:#fff;}</style><clipPath id="clip-path" transform="translate(1.5 1.5)"><path class="cls-1" d="M81.53,133c32.1.47,49.11-5,49.1-40.95,0-1.69.06-5.22,0-6.83-10.22-12-35.95-19.31-57.76-18.13-19.16,1-28.18,5.21-40.34,17.2a46.06,46.06,0,0,0-.37,4.92C31.76,122.35,44.36,132.49,81.53,133Z"/></clipPath></defs><title>mango_img1</title><path class="cls-2" d="M6.27,223.74c-.81,2.22,0,16.24,0,18.58C6.27,264.46,43.79,278,90.08,278s83.81-13.54,83.81-35.68c0-2.34.8-16.36,0-18.58Z" transform="translate(1.5 1.5)"/><path class="cls-3" d="M168.72,210.5C162.28,205.55,145,189.65,83,189.65c-43.78,0-62.2,9.34-73.69,18-9,6.77-11.49,21-7.55,27.69,6.19,10.52,14.13,5.08,21,1.66,2.93-1.47,5.12-3.41,8.54-1.94,5.87,2.44.49,8.31,1,13.2,2.44,15.16,17.11,2.93,22.49-3.91,6.36-7.82,15.65-12.71,23.48-2.93,7.33,9.28,10.76,22.48,26.4,13.68,10.27-5.86,15.16-21.51,28.85-16.62,4.9,2,8.81,7.33,15.65,4.89,6.36-2.45,3.43-8.31,9.79-10.27,10.26-3.42,14.21,7.46,20.4,4.26C184.56,231.07,173.79,214.41,168.72,210.5Z" transform="translate(1.5 1.5)"/><path class="cls-4" d="M146.56,222.09c1.85,1.89,2.81,3.95,2.15,4.6s-2.71-.35-4.56-2.25-2.82-3.95-2.16-4.61S144.7,220.19,146.56,222.09Z" transform="translate(1.5 1.5)"/><path class="cls-4" d="M154.12,222.78c.26,2.64-.27,4.85-1.2,4.94s-1.89-2-2.16-4.6.27-4.85,1.2-4.94S153.85,220.14,154.12,222.78Z" transform="translate(1.5 1.5)"/><path class="cls-4" d="M159.82,224.23c-1,1.94-2.45,3.22-3.14,2.85s-.38-2.24.67-4.18,2.45-3.22,3.13-2.85S160.87,222.29,159.82,224.23Z" transform="translate(1.5 1.5)"/><path class="cls-4" d="M12.55,222.88c1.85,1.89,2.82,4,2.15,4.6s-2.7-.35-4.56-2.25-2.82-3.95-2.15-4.6S10.7,221,12.55,222.88Z" transform="translate(1.5 1.5)"/><path class="cls-4" d="M20.11,223.57c.27,2.64-.26,4.85-1.19,4.94s-1.9-2-2.16-4.6S17,219.06,18,219,19.85,220.94,20.11,223.57Z" transform="translate(1.5 1.5)"/><path class="cls-4" d="M25.81,225c-1,1.94-2.45,3.22-3.13,2.85s-.39-2.24.66-4.18,2.45-3.22,3.14-2.85S26.86,223.08,25.81,225Z" transform="translate(1.5 1.5)"/><path class="cls-5" d="M161.57,58.19s11,22.34,29.44,14.17c8-3.22,38.9-25.35,31.81-31.79-4.3-3.86-18.91,7.52-25.15,11A4.7,4.7,0,0,1,191,49.59c-1.07-1.93.87-4.08,4.3-6.44s34.17-20.84,27.83-29c-4.4-4.54-13.43,1-38.57,16.51-2.15.43-3.44,1.29-6.23-1.08s-.65-5.8,1.5-7.51S199.39,6.49,196.17,2.4s-22.77,7.24-35.24,15c-8,4.73-12,17.83-6.88,27.07S161.57,58.19,161.57,58.19Z" transform="translate(1.5 1.5)"/><path class="cls-6" d="M67.67,129.07s-19.34,35.45-8.6,60.37c1.72,3.22,8.17,9.88,13.75,10.52,1.14,4.81,2.17,12.32,3.73,17-2.9,4.47,1.36,6.37,4.56,5.94,3.57-.48,5.9-1,6.54-6s0-19.12,0-19.12,11.61,1.07,17.63.42c.42,4.51.38,13.09,1.82,18.46-3,3.72.89,5.59,4.23,5.34,5.36-.41,6-2.37,7-5.1,1.23-3.33,1.94-18.7,1.94-18.7s17.4-2.79,14.83-28.78-8.39-38.24-16.34-42.75C107.42,127.57,67.67,129.07,67.67,129.07Z" transform="translate(1.5 1.5)"/><path class="cls-6" d="M41.31,152.27s6.27,8.29,16.16,5.09C58,154.43,62.25,138,65,134.68a18,18,0,0,1-8.16-2.08l-7.75,18.1S41,147.85,41.31,152.27Z" transform="translate(1.5 1.5)"/><path class="cls-5" d="M55.21,174.07s2.57,6.56,16,7.57,47.71,2.14,58.88-8.74a14.3,14.3,0,0,0,4.63-7c-.16-1.31,3.25.27,2.39,8.87s0,20.62-12.46,28.07c-3.16-1.58-9-3.87-9-3.87l-14.47,8.31-17.48-8.88L71,206.12l-6-4.58L63.52,205s-9-4.72-10.39-25.63C52.77,175.19,54.16,172.48,55.21,174.07Z" transform="translate(1.5 1.5)"/><path class="cls-6" d="M117.15,145.83c0,.47,4.26,17.9,5.3,21-2.23,5.41,1.56,10,7.25,8.47,6.5-1.74,3.93-14.11,3-22.75a45.54,45.54,0,0,0-5.09-15.73" transform="translate(1.5 1.5)"/><path class="cls-7" d="M103,150.88a1.64,1.64,0,1,1-1.64-1.63A1.64,1.64,0,0,1,103,150.88Z" transform="translate(1.5 1.5)"/><path class="cls-7" d="M69.27,150.88a1.64,1.64,0,1,1-1.64-1.63A1.64,1.64,0,0,1,69.27,150.88Z" transform="translate(1.5 1.5)"/><path class="cls-8" d="M166.18,73c0,40.29-32.67,61.37-73,61.37s-73-21.08-73-61.37a73,73,0,0,1,145.94,0Z" transform="translate(1.5 1.5)"/><path class="cls-9" d="M109.62,8.39a5,5,0,1,1-5-5A5,5,0,0,1,109.62,8.39Z" transform="translate(1.5 1.5)"/><path class="cls-9" d="M95.33,36.91a5,5,0,1,1-5-5A5,5,0,0,1,95.33,36.91Z" transform="translate(1.5 1.5)"/><path class="cls-9" d="M62,20.16a5,5,0,1,1-5-5A5,5,0,0,1,62,20.16Z" transform="translate(1.5 1.5)"/><path class="cls-9" d="M38.77,46.83a5,5,0,1,1-5-5A5,5,0,0,1,38.77,46.83Z" transform="translate(1.5 1.5)"/><path class="cls-9" d="M122.15,58.19a5,5,0,1,1-5-5A5,5,0,0,1,122.15,58.19Z" transform="translate(1.5 1.5)"/><path class="cls-9" d="M148.05,74.79a5,5,0,1,1-5-5A5,5,0,0,1,148.05,74.79Z" transform="translate(1.5 1.5)"/><path class="cls-9" d="M151.77,40a5,5,0,1,1-5-5A5,5,0,0,1,151.77,40Z" transform="translate(1.5 1.5)"/><path class="cls-9" d="M151.77,103.74a5,5,0,1,1-5-5A5,5,0,0,1,151.77,103.74Z" transform="translate(1.5 1.5)"/><path class="cls-9" d="M76.18,58.19a5,5,0,1,1-5-5A5,5,0,0,1,76.18,58.19Z" transform="translate(1.5 1.5)"/><path class="cls-9" d="M34.65,79.11a5,5,0,1,1-4.95-5A4.94,4.94,0,0,1,34.65,79.11Z" transform="translate(1.5 1.5)"/><path class="cls-10" d="M85,134.56l-3.49,0c-38.41-.56-51.25-12-50.88-45.31A46.51,46.51,0,0,1,31,84.15a1.47,1.47,0,0,1,.43-.9C44.11,70.77,53.76,66.66,72.76,65.63c1.56-.09,3.17-.13,4.79-.13,22.53,0,44.81,7.72,54.2,18.78a1.52,1.52,0,0,1,.35.89c.07,1.24.05,3.51,0,5.33,0,.6,0,1.15,0,1.58,0,17.24-3.87,28.26-12.2,34.67-7.1,5.47-17.55,7.81-34.93,7.81Z" transform="translate(1.5 1.5)"/><path class="cls-7" d="M77.55,67c20.68,0,43.55,7,53.05,18.25.09,1.61,0,5.14,0,6.83,0,34.66-15.78,41-45.63,41l-3.47,0c-37.17-.54-49.77-10.68-49.4-43.79a46.06,46.06,0,0,1,.37-4.92c12.16-12,21.18-16.16,40.34-17.2Q75.16,67,77.55,67m0-3c-1.65,0-3.29,0-4.88.13-19.42,1.05-29.3,5.27-42.28,18.05A3,3,0,0,0,29.52,84a49.12,49.12,0,0,0-.39,5.24c-.2,18,3.4,29.22,11.66,36.4,7.94,6.91,20.49,10.13,40.7,10.42l3.51,0c22.3,0,30.63-4.1,35.84-8.12,8.73-6.72,12.79-18.12,12.79-35.86,0-.43,0-1,0-1.57,0-1.84,0-4.13,0-5.42a3,3,0,0,0-.71-1.78C123.24,71.94,100.48,64,77.55,64Z" transform="translate(1.5 1.5)"/><g class="cls-11"><path class="cls-12" d="M132,117a15.51,15.51,0,1,1-15.51-15.5A15.5,15.5,0,0,1,132,117Z" transform="translate(1.5 1.5)"/><path class="cls-12" d="M47.85,120a15.52,15.52,0,1,1-15.52-15.51A15.52,15.52,0,0,1,47.85,120Z" transform="translate(1.5 1.5)"/></g><path class="cls-9" d="M25.22,96.9c-2.5,0-3.63-1-4.13-1.87-.9-1.54-.57-3.67,1-6.51,6.16-11,20.28-15,20.87-15.17a1.44,1.44,0,0,1,.4-.06,1.5,1.5,0,0,1,1.42,1c.14.4,3.22,10.05-7.43,18.34C35,94.41,29.13,96.9,25.22,96.9Z" transform="translate(1.5 1.5)"/><path class="cls-7" d="M43.38,74.79s3,8.95-6.93,16.69c-2.15,1.59-7.7,3.92-11.23,3.92-2.85,0-4.39-1.51-1.8-6.15,5.93-10.62,20-14.46,20-14.46m0-3a3.07,3.07,0,0,0-.79.11c-.62.17-15.32,4.3-21.79,15.89-.68,1.23-2.78,5-1,8C20.5,97,22,98.4,25.22,98.4c4.27,0,10.46-2.62,13-4.5a.18.18,0,0,1,.07-.05c11.46-8.94,8.08-19.56,7.93-20a3,3,0,0,0-2.85-2Z" transform="translate(1.5 1.5)"/><path class="cls-13" d="M75.38,112.12s7.3-.19,6.66-2.53" transform="translate(1.5 1.5)"/><path class="cls-14" d="M70.07,105c0,2.81-1.47,4-4.28,4-1.84,0-5.1-1.09-5.14-3.9a5.08,5.08,0,0,1,5-5.15C68.48,99.94,70,102.2,70.07,105Z" transform="translate(1.5 1.5)"/><path class="cls-7" d="M95.34,93.17s4.82,0,6.89,4.15c1,2.35,1.06,4.11-1,3.48s-3.15-2.06-7.61-2.36c-1.37.14-3.08-1.27-2.82-2.65C91,94.82,92.43,93,95.34,93.17Z" transform="translate(1.5 1.5)"/><path class="cls-7" d="M46.93,94s-4.12-.29-6.13,3.12c-1,2-1.16,3.44.66,3s2.82-1.58,6.65-1.56c1.15.2,2.7-.9,2.56-2.1C50.57,95.71,49.43,94,46.93,94Z" transform="translate(1.5 1.5)"/><path class="cls-15" d="M40.11,18.56C35,21.38,25.62,27.21,26.44,33.9c.5,3,3.09,6.46,11.87,2.88s25.54-8.27,35-8.89c22.1-2.76-2.15-11.69-12.72-14.2C54.38,12.21,45.23,15.74,40.11,18.56Z" transform="translate(1.5 1.5)"/><path class="cls-15" d="M167.49,56.75S176.8,69.86,171.26,77c-2,2.29-6,3.91-11.64-3.71S142.05,52.9,134.26,47.44c-3-2.24-1-14.59,14.08-10.64C153.35,38,163.53,49.3,167.49,56.75Z" transform="translate(1.5 1.5)"/><path class="cls-15" d="M77.25,25.13c.93,7.39,30.67,13.17,36.08,11.89,7.23,2.8,4.39-4,3.76-7.27s-3.2-10.17-12.77-14.17S67.25,8.21,60.83,11.25C52.75,17.44,75.82,13.7,77.25,25.13Z" transform="translate(1.5 1.5)"/><path class="cls-15" d="M137.22,26.65S108.4,8.81,102.34,15.57c-1.71,2.5,9.81,3.46,9.71,14.14C111.94,42,134.11,51.14,140.84,53.5,143.69,56,154.93,51,147.6,37,145.3,32.29,147.22,32.58,137.22,26.65Z" transform="translate(1.5 1.5)"/><path class="cls-15" d="M146.54,19.57s-3.34,6.26-1,11c1.14,4.47.73,20.87-4.74,15.16s-13.31-13.47-10.1-30c2.45-8.39,17-5.89,18.24-.79C149.47,16.73,146.54,19.57,146.54,19.57Z" transform="translate(1.5 1.5)"/><path class="cls-15" d="M155.06,44.32s8.84-1.3,9-10.23c0-5,3.6-4,5.68-1.68s5.56,8.81,1.2,13.39-12.65,10.92-20.38,7.37C147.28,51.25,151.13,45.79,155.06,44.32Z" transform="translate(1.5 1.5)"/><path class="cls-15" d="M145.22,31.69s-2.9,12.66-9.8,17.67c-2.29,2-2.35,6.58,4,10.45,3.87,2.35,8.53-1,11-4.35,3.24-4.34,8.15-12.44,4.38-19.43C150.62,28.17,146.18,28.2,145.22,31.69Z" transform="translate(1.5 1.5)"/><path class="cls-5" d="M60.59,141.82,29.11,166.34s-7.43,6-12.44,0c-4.78-5.8-1.43-11.32,3-13.18S56.8,132.6,56.8,132.6a4.7,4.7,0,0,1,5.24.74C65.18,135.85,62.89,139.6,60.59,141.82Z" transform="translate(1.5 1.5)"/><path class="cls-5" d="M15.64,156.5s4.42-4.55,9.63-1c3.89,2.66,3.06,7.39,3.06,7.39" transform="translate(1.5 1.5)"/><path class="cls-6" d="M36.5,143.54s-.49-10.48,8.88-13c6.7-1.09,10.24,2.23,10.45,5.84,0,5.7-8.15,11.18-10.53,8.87C43.93,143.58,42.2,141.28,36.5,143.54Z" transform="translate(1.5 1.5)"/></svg>