<svg xmlns="http://www.w3.org/2000/svg" xmlns:xlink="http://www.w3.org/1999/xlink" viewBox="0 0 142 287.09"><defs><style>.cls-1,.cls-9{fill:none;}.cls-2{isolation:isolate;}.cls-3,.cls-7{fill:#ffd19d;}.cls-3{stroke:#ffd19d;}.cls-3,.cls-4{stroke-miterlimit:10;}.cls-10,.cls-14,.cls-16,.cls-17,.cls-21,.cls-22,.cls-23,.cls-3,.cls-4,.cls-8,.cls-9{stroke-width:2px;}.cls-4{fill:#315a87;stroke:#315a87;}.cls-5{font-size:13.47px;}.cls-16,.cls-5{fill:#fff;}.cls-5,.cls-6{font-family:jf-openhuninn-1.1;}.cls-6{font-size:21.85px;}.cls-10,.cls-15,.cls-6{fill:#604c3f;}.cls-18,.cls-8{fill:#ffc692;}.cls-10,.cls-14,.cls-16,.cls-17,.cls-21,.cls-22,.cls-23,.cls-8,.cls-9{stroke:#604c3f;stroke-linecap:round;stroke-linejoin:round;}.cls-11{clip-path:url(#clip-path);}.cls-12{fill:#d0d1d1;mix-blend-mode:multiply;}.cls-13,.cls-14{fill:#f0e0d4;}.cls-17{fill:#ffeb94;}.cls-19{clip-path:url(#clip-path-2);}.cls-20,.cls-21{fill:#e6b9cc;}.cls-22{fill:#c0d481;}.cls-23{fill:#cce198;}</style><clipPath id="clip-path" transform="translate(-34.5 -8.41)"><path class="cls-1" d="M81.54,95s-4.48,3.28,0,4.66L86,101s12.73,8.43,31.78,1.07c6.22-.17,11.75-2.19,7.86-5.57-3.21-2,11.9-31.9,11.9-31.9S116.25-62,67.63,55.43C63.81,55.3,81.54,95,81.54,95Z"/></clipPath><clipPath id="clip-path-2" transform="translate(-34.5 -8.41)"><path class="cls-1" d="M102.68,85.83c14.78,0,23.6-5.23,23.6-18.16a20.86,20.86,0,0,0-.1-2.11c-5.84-5.22-14.13-8.06-23.34-8.06s-17.5,2.84-23.34,8.06a20.83,20.83,0,0,0-.11,2.11C79.39,80.6,87.59,85.83,102.68,85.83Z"/></clipPath></defs><title>mango_img4</title><g class="cls-2"><g id="圖層_1" data-name="圖層 1"><path class="cls-3" d="M175.5,190.67a3.2,3.2,0,0,0-3.2-3.2H39.84a3.21,3.21,0,0,0-3.2,3.2v25.64a3.2,3.2,0,0,0,3.2,3.2H172.3a3.2,3.2,0,0,0,3.2-3.2Z" transform="translate(-34.5 -8.41)"/><path class="cls-4" d="M36.64,226.56V291.3a3.21,3.21,0,0,0,3.2,3.2H172.3a3.2,3.2,0,0,0,3.2-3.2V226.56a3.2,3.2,0,0,0-3.2-3.2H39.84A3.2,3.2,0,0,0,36.64,226.56Z" transform="translate(-34.5 -8.41)"/><text class="cls-5" transform="translate(21.3 241.85)">通常看到的生物<tspan x="0" y="16.17">都會被成為食材</tspan></text><text class="cls-6" transform="translate(48.31 203.45)">探索</text><ellipse class="cls-7" cx="68.05" cy="73.03" rx="68.05" ry="68.15"/><path class="cls-8" d="M83.24,104.78s-12.51-2.93-7-8.78,11.43-5.26,11.43-5.26,5.21-4.35,16.3-3.45,13.79,5,13.79,5S130.08,91,130.62,101c-.88,1.71-.83,8.21-6.07,12.29s-28.18,4.32-28.18,4.32l-13.65-6.31Z" transform="translate(-34.5 -8.41)"/><path class="cls-8" d="M130.39,101.55c-2.09,4.85-10.49,7.21-11.69,3.61h-.45c-3,3.9-11.84,4-16.64,3.75-3.14-.15-14.69-.45-16-3.75-2.29.09-7.17-2-10.41-4.69-2.35,11.68.73,25.55,10.21,28.67a10.19,10.19,0,0,0,4.61.39A17.61,17.61,0,0,0,95.41,132c1,.23,2,.42,2.88.59a10.28,10.28,0,0,0,4.37.5c5.85.32,10.31-1,13.59-3.45a10.63,10.63,0,0,0,4-.46c9.34-3.07,12.47-16.56,10.32-28.13C130.55,101.19,130.47,101.37,130.39,101.55Z" transform="translate(-34.5 -8.41)"/><path class="cls-9" d="M90,129.53s-5.74-5.45-4.31-21.62" transform="translate(-34.5 -8.41)"/><path class="cls-9" d="M116.25,129.6s4-8.79,2.92-16.3" transform="translate(-34.5 -8.41)"/><path class="cls-8" d="M118.7,105.16a5.06,5.06,0,0,1,.64,2.75" transform="translate(-34.5 -8.41)"/><path class="cls-8" d="M119.36,124.38s3.48.22,4.81-1.61" transform="translate(-34.5 -8.41)"/><path class="cls-8" d="M123,120.1s2.67,0,3.17-.93" transform="translate(-34.5 -8.41)"/><path class="cls-8" d="M87.71,125.27s3.13,1.44,4.13,1" transform="translate(-34.5 -8.41)"/><path class="cls-8" d="M86.32,121.45s2.72,1.65,3.46,1.32" transform="translate(-34.5 -8.41)"/><path class="cls-8" d="M74.71,112.86a6.31,6.31,0,0,0,3.2,1.11" transform="translate(-34.5 -8.41)"/><path class="cls-8" d="M79.68,125.27a20.91,20.91,0,0,0,3.87.55" transform="translate(-34.5 -8.41)"/><path class="cls-8" d="M86.88,123.58a10.33,10.33,0,0,1-3.33,0" transform="translate(-34.5 -8.41)"/><path class="cls-8" d="M110.74,114.7a12.87,12.87,0,0,0,3.81-.73" transform="translate(-34.5 -8.41)"/><path class="cls-8" d="M109.25,117.62s3,.14,4.47-.84" transform="translate(-34.5 -8.41)"/><path class="cls-10" d="M81.54,95.29s-4.48,3.28,0,4.66L86,101.33s12.73,8.43,31.78,1.06c6.22-.16,11.75-2.18,7.86-5.56a18.86,18.86,0,0,0-7.86-2.26s-14.7-6.71-29.31-.77A15.61,15.61,0,0,0,81.54,95.29Z" transform="translate(-34.5 -8.41)"/><g class="cls-11"><path class="cls-12" d="M123.56,120.66c0,3.49-9.92,6.32-22.15,6.32s-22.14-2.83-22.14-6.32,9.91-6.32,22.14-6.32S123.56,117.17,123.56,120.66Z" transform="translate(-34.5 -8.41)"/><path class="cls-13" d="M113.17,86.16c0,3.46-5.26,6.27-11.76,6.27s-11.76-2.81-11.76-6.27,5.27-6.28,11.76-6.28S113.17,82.7,113.17,86.16Z" transform="translate(-34.5 -8.41)"/><path class="cls-14" d="M91.23,109.83l.7,6.58s.56,5,3.33,5c3.18,0,3.5-4.64,3.5-4.64l.46-6.37" transform="translate(-34.5 -8.41)"/><path class="cls-14" d="M113.56,87.05s3.73,8.44,3.65,12.92c-.13,7.07-4.06,13.71-16.19,13.71h-.36C88.53,113.68,84.6,107,84.47,100c-.07-4.48,3.65-12.92,3.65-12.92" transform="translate(-34.5 -8.41)"/><path class="cls-15" d="M105.61,91.14a.74.74,0,1,1-.74-.75A.74.74,0,0,1,105.61,91.14Z" transform="translate(-34.5 -8.41)"/><path class="cls-15" d="M91.51,90.5a.74.74,0,1,1-.75-.75A.75.75,0,0,1,91.51,90.5Z" transform="translate(-34.5 -8.41)"/><path class="cls-15" d="M108.44,96.69s11.52,2,12,3.25-.34,2.46-3.14,1.39-8.63-1.81-9.43-2.61S107.27,96.48,108.44,96.69Z" transform="translate(-34.5 -8.41)"/><path class="cls-14" d="M110.35,99.74c-1.26,3.13-5.23,4.48-8.87,3s-5.58-5.2-4.32-8.33,5.23-4.49,8.87-3S111.61,96.6,110.35,99.74Z" transform="translate(-34.5 -8.41)"/><path class="cls-16" d="M110.35,99.74a6.65,6.65,0,1,1-3.87-8.15A6.38,6.38,0,0,1,110.35,99.74Z" transform="translate(-34.5 -8.41)"/><path class="cls-15" d="M105.57,94.53a.93.93,0,0,1-.35-.13,3.51,3.51,0,0,0-2.85-.29.79.79,0,0,1-1-.46.8.8,0,0,1,.46-1,5.07,5.07,0,0,1,4.26.45.79.79,0,0,1-.51,1.44Z" transform="translate(-34.5 -8.41)"/><path class="cls-15" d="M108.17,94.93a.7.7,0,1,1-1.39-.15.7.7,0,0,1,1.39.15Z" transform="translate(-34.5 -8.41)"/><path class="cls-15" d="M96,104a.75.75,0,0,1-.55.19h-.32l0,.31a.88.88,0,0,1-.18.58.3.3,0,0,1-.49,0,.84.84,0,0,1-.16-.61l0-.28H94a.91.91,0,0,1-.6-.18.31.31,0,0,1,0-.49.91.91,0,0,1,.62-.15h.3l0-.34a.81.81,0,0,1,.18-.54.3.3,0,0,1,.47,0,.74.74,0,0,1,.14.56v.35h.33a.79.79,0,0,1,.54.17C96.16,103.7,96.15,103.85,96,104Z" transform="translate(-34.5 -8.41)"/><path class="cls-14" d="M112.4,109.83l-.69,6.58s-.57,5-3.34,5c-3.18,0-3.5-4.64-3.5-4.64l-.45-6.37" transform="translate(-34.5 -8.41)"/><path class="cls-14" d="M111.92,80.69s13.83,18,6.73,21.36c-2.76,1.27-7.16.34-4.94-2.76-.66-2.28-2.14-6.92-2.75-8.49" transform="translate(-34.5 -8.41)"/><path class="cls-17" d="M134.86,59.48c0,18.82-14.49,27.11-32.18,27.11S70.82,78.83,70.82,59.48a32,32,0,1,1,64,0Z" transform="translate(-34.5 -8.41)"/><path class="cls-13" d="M102.68,86.83c-16.34,0-24.29-6.26-24.29-19.16,0-.71,0-1.44.11-2.21a1.07,1.07,0,0,1,.33-.65c6-5.36,14.53-8.31,24-8.31s18,3,24,8.31a1,1,0,0,1,.33.66c.07.75.1,1.49.1,2.2C127.28,80.39,119,86.83,102.68,86.83Z" transform="translate(-34.5 -8.41)"/><path class="cls-15" d="M102.84,57.5c9.21,0,17.5,2.84,23.34,8.06a20.86,20.86,0,0,1,.1,2.11c0,12.93-8.82,18.16-23.6,18.16-15.09,0-23.29-5.23-23.29-18.16a20.83,20.83,0,0,1,.11-2.11c5.84-5.22,14.13-8.06,23.34-8.06m0-2c-9.73,0-18.49,3-24.67,8.57a2,2,0,0,0-.66,1.3,22.89,22.89,0,0,0-.12,2.3c0,13.57,8.27,20.16,25.29,20.16s25.6-6.78,25.6-20.16a22.34,22.34,0,0,0-.11-2.29,2,2,0,0,0-.66-1.31c-6.18-5.53-15-8.57-24.67-8.57Z" transform="translate(-34.5 -8.41)"/><path class="cls-18" d="M78.3,70A2.35,2.35,0,0,1,76,68.89c-.61-1.18.39-2.57.72-3,3.36-4.69,10.77-6.47,11.09-6.54a.83.83,0,0,1,.22,0,1,1,0,0,1,.93.63c.07.18,1.71,4.47-4.15,8.16A16.27,16.27,0,0,1,78.3,70Z" transform="translate(-34.5 -8.41)"/><path class="cls-15" d="M88,60.29s1.47,3.65-3.76,6.94a15.18,15.18,0,0,1-6,1.73c-1.42,0-2.14-.62-.78-2.52C80.7,62,88,60.29,88,60.29m0-2a2.3,2.3,0,0,0-.45.05c-.33.08-8.1,1.95-11.67,6.94-.42.57-1.68,2.34-.8,4.06A3.25,3.25,0,0,0,78.3,71a17.15,17.15,0,0,0,7-2c6.6-4.15,4.68-9.19,4.59-9.4A2,2,0,0,0,88,58.29Z" transform="translate(-34.5 -8.41)"/><g class="cls-19"><path class="cls-20" d="M89.31,81.43a6.81,6.81,0,1,1-6.8-6.82A6.81,6.81,0,0,1,89.31,81.43Z" transform="translate(-34.5 -8.41)"/><path class="cls-20" d="M130,81.43a6.81,6.81,0,1,1-6.81-6.82A6.81,6.81,0,0,1,130,81.43Z" transform="translate(-34.5 -8.41)"/></g><path class="cls-1" d="M102.84,57.5c-13,0-23.45,6.31-23.45,19.23a20.83,20.83,0,0,0,.11,2.11c5.84,5.22,14.13,8.06,23.34,8.06s17.5-2.84,23.34-8.06a20.86,20.86,0,0,0,.1-2.11C126.28,63.81,115.78,57.5,102.84,57.5Z" transform="translate(-34.5 -8.41)"/><path class="cls-18" d="M110,31.36a2.18,2.18,0,1,1-2.18-2.18A2.18,2.18,0,0,1,110,31.36Z" transform="translate(-34.5 -8.41)"/><path class="cls-18" d="M103.77,43.9a2.18,2.18,0,1,1-2.18-2.18A2.18,2.18,0,0,1,103.77,43.9Z" transform="translate(-34.5 -8.41)"/><path class="cls-18" d="M89.13,36.53A2.18,2.18,0,1,1,87,34.35,2.18,2.18,0,0,1,89.13,36.53Z" transform="translate(-34.5 -8.41)"/><path class="cls-18" d="M79,48.25a2.18,2.18,0,1,1-2.18-2.18A2.17,2.17,0,0,1,79,48.25Z" transform="translate(-34.5 -8.41)"/><path class="cls-18" d="M115.54,53.25a2.18,2.18,0,1,1-2.18-2.18A2.19,2.19,0,0,1,115.54,53.25Z" transform="translate(-34.5 -8.41)"/><path class="cls-18" d="M128.53,45.25a2.18,2.18,0,1,1-2.17-2.18A2.18,2.18,0,0,1,128.53,45.25Z" transform="translate(-34.5 -8.41)"/><path class="cls-18" d="M132.89,62.45a2.18,2.18,0,1,1-2.18-2.19A2.19,2.19,0,0,1,132.89,62.45Z" transform="translate(-34.5 -8.41)"/><path class="cls-18" d="M95.36,53.25a2.18,2.18,0,1,1-2.18-2.18A2.18,2.18,0,0,1,95.36,53.25Z" transform="translate(-34.5 -8.41)"/><path class="cls-18" d="M77.14,62.45A2.18,2.18,0,1,1,75,60.26,2.18,2.18,0,0,1,77.14,62.45Z" transform="translate(-34.5 -8.41)"/><path class="cls-16" d="M104.59,80.05c0,1.38-.7,2.51-1.57,2.51s-1.57-1.13-1.57-2.51.7-2,1.56-2S104.58,78.66,104.59,80.05Z" transform="translate(-34.5 -8.41)"/><path class="cls-21" d="M105,74.17c0,1.24-1,1.49-2.23,1.49s-2.23-.25-2.23-1.48a2.23,2.23,0,1,1,4.46,0Z" transform="translate(-34.5 -8.41)"/><path class="cls-15" d="M92.9,72.71a1.1,1.1,0,0,1-1.1,1.1h0a1.11,1.11,0,0,1-1.1-1.09v-.93a1.09,1.09,0,0,1,1.1-1.09h0a1.1,1.1,0,0,1,1.1,1.09Z" transform="translate(-34.5 -8.41)"/><path class="cls-15" d="M115,72.68a1.09,1.09,0,0,1-1.09,1.1h0a1.08,1.08,0,0,1-1.1-1.09v-.92a1.1,1.1,0,0,1,1.1-1.1h0A1.09,1.09,0,0,1,115,71.76Z" transform="translate(-34.5 -8.41)"/><path class="cls-14" d="M93,85.83c-6.81-1.15-8.44-5.91-8.44-5.91s-1.89-.47-2.49.66a28.39,28.39,0,0,1-2.14,3.07s1.22,4.58,7.15,7.84" transform="translate(-34.5 -8.41)"/><path class="cls-14" d="M80.2,84.55s-5.62-4.43-1-8.67c1.53-1.3,6.62-4.38,4,1.16,1.25.42,2.72,2.83.36,5.06" transform="translate(-34.5 -8.41)"/></g><path class="cls-22" d="M112,11c-2.58-2.36-8.44-2.12-9.85,1.4-1.17,2.35.93,7.28.93,7.28,1.18,4.23,3.52,2.58,5.4.24C110.8,17.06,115.26,13.77,112,11Z" transform="translate(-34.5 -8.41)"/><path class="cls-22" d="M113.08,12.63c0,1.55-2.49,2-5.06,2s-5.58-.84-5.58-2.39,2.88-2.82,5.45-2.82S113.08,11.07,113.08,12.63Z" transform="translate(-34.5 -8.41)"/><path class="cls-8" d="M104.11,14a5.38,5.38,0,0,0,0,3.54" transform="translate(-34.5 -8.41)"/><line class="cls-8" x1="71.76" y1="9.08" x2="71.25" y2="13.74"/><line class="cls-8" x1="74.75" y1="6.21" x2="74.75" y2="7.42"/><path class="cls-8" d="M110.22,20.13a2.44,2.44,0,0,0-1.7.92c-2.63-2.08-5.9-2.57-8.59.48A2.77,2.77,0,0,0,98,20.13c-7.79-.31-19.32,12.18-8.1,15a7.09,7.09,0,0,0,6.63-1.36c2.71,3.09,8.86,4.33,12.38,2.92a6.53,6.53,0,0,0,3.3-2.52,7.15,7.15,0,0,0,6.11,1C129.54,32.31,118,19.82,110.22,20.13Z" transform="translate(-34.5 -8.41)"/><path class="cls-8" d="M96.53,33.75a33,33,0,0,1,1.58-7.37" transform="translate(-34.5 -8.41)"/><path class="cls-8" d="M112.21,34.15a8.65,8.65,0,0,0,0-5.84" transform="translate(-34.5 -8.41)"/><path class="cls-8" d="M108.52,21.05a23,23,0,0,1,2.15,3.46" transform="translate(-34.5 -8.41)"/><path class="cls-8" d="M99.93,21.53A2.41,2.41,0,0,0,99,22.77" transform="translate(-34.5 -8.41)"/><path class="cls-8" d="M96.53,20.22a7.34,7.34,0,0,0-3.37,2.55" transform="translate(-34.5 -8.41)"/><path class="cls-8" d="M87.71,30.06s-1.84,2.82-1.39,3.22" transform="translate(-34.5 -8.41)"/><path class="cls-8" d="M89.78,31.23a18.08,18.08,0,0,0,4,0" transform="translate(-34.5 -8.41)"/><path class="cls-8" d="M91.8,33.28s1,.45,3-.68" transform="translate(-34.5 -8.41)"/><path class="cls-8" d="M111.18,31.29a5.36,5.36,0,0,1-3.42,1.31" transform="translate(-34.5 -8.41)"/><path class="cls-8" d="M109.6,33.75a8,8,0,0,1-3.34.4" transform="translate(-34.5 -8.41)"/><path class="cls-8" d="M113.72,21.5a2.47,2.47,0,0,1-1,1.27" transform="translate(-34.5 -8.41)"/><line class="cls-8" x1="81.75" y1="13.48" x2="80.35" y2="14.36"/><path class="cls-8" d="M123,30.06s-.48,1.56-3.63,1.89" transform="translate(-34.5 -8.41)"/><path class="cls-23" d="M139.67,127.76c0,4.74-3.83,8.07-8.56,8.07s-8.56-3.33-8.56-8.07a8.56,8.56,0,1,1,17.12,0Z" transform="translate(-34.5 -8.41)"/><path class="cls-23" d="M147.08,130.15c-.7,3.31-3.82,4.5-7.2,3.78s-5.73-3.1-5-6.4a6.25,6.25,0,0,1,12.22,2.62Z" transform="translate(-34.5 -8.41)"/><path class="cls-23" d="M152.52,132.41a3.82,3.82,0,0,1-3.48,4.65c-2.57.33-6-.63-6.36-3.08a4.56,4.56,0,0,1,4.07-5C149.31,128.62,152.21,130,152.52,132.41Z" transform="translate(-34.5 -8.41)"/><path class="cls-16" d="M132,127.43c-1.63,2.92-4.77,4.27-7,3s-2.73-4.63-1.1-7.55,4.76-4.26,7-3S133.58,124.52,132,127.43Z" transform="translate(-34.5 -8.41)"/><path class="cls-15" d="M127.05,122.35a1.19,1.19,0,0,1-1.62.39,1.37,1.37,0,1,1,1.62-.39Z" transform="translate(-34.5 -8.41)"/><path class="cls-14" d="M136.73,118.64c-1.78,3.8-3.43,7,0,8S136.73,118.64,136.73,118.64Z" transform="translate(-34.5 -8.41)"/></g></g></svg>