<?xml version="1.0" encoding="utf-8"?>
<!-- Generator: Adobe Illustrator 16.0.0, SVG Export Plug-In . SVG Version: 6.00 Build 0)  -->
<!DOCTYPE svg PUBLIC "-//W3C//DTD SVG 1.1//EN" "http://www.w3.org/Graphics/SVG/1.1/DTD/svg11.dtd">
<svg version="1.1" xmlns="http://www.w3.org/2000/svg" xmlns:xlink="http://www.w3.org/1999/xlink" x="0px" y="0px" width="435.5px"
	 height="262.4px" viewBox="0 0 435.5 262.4" enable-background="new 0 0 435.5 262.4" xml:space="preserve">
<g id="bg">
</g>
<g id="info">
	<path fill="#FFFFFF" d="M433.6,115.9c2.6-10,2.7-20.9-0.9-30.6c-3.1-8.1-8.4-14.8-15.2-19.9c5.9-10.9,7.4-24,3.4-36
		c-1.8-5.5-4.7-10.6-8.5-14.9c-3.6-4.1-8.1-8.1-13.2-10c-4.9-1.9-10.4-2.8-15.6-2.3c-3.4,0.3-7.1,1.1-9.6,3.3
		c-2.2-1.3-4.6-2.5-7-3.3c-8.5-3.1-18.8-3.2-26.3,2.5c-6.8,5.2-8.9,13.5-8.6,21.6c-1.7,0-3.3,0.3-4.8,1.2c-1.1,0.7-2.1,1.6-2.7,2.8
		c-4.6-1.8-9.6-2.3-14.4-1.5c-0.5-0.6-1.2-1.2-2-1.6c-2.2-1.1-4.7-1.1-6.9-0.1c-2.1,0.9-4,2.7-4.4,5.1c-0.2,1.1-0.1,2.1,0.1,3.1
		c-5.6,5.1-8.3,12.2-8,19.7c-1.3,0.2-2.6,0.9-3.6,2.2c-2,2.5-1.8,5.2-0.4,7.5c-6.2,0.3-12.4,2-17.6,5.7c-6.9,4.8-10.9,12-12.7,19.8
		c-1.2-0.5-2.5-0.8-3.8-1.1c-4.5-0.7-9.1,0-13.1,2.3c-3.9,2.2-7.1,5.7-8.6,10c-0.7,1.9-1,3.8-1.1,5.7c-3.1-0.4-6.2-0.4-9.4,0
		c-4.2,0.5-8.4,1.8-12.3,3.5c-0.3-0.1-0.6-0.3-0.9-0.4c-1.4-9.6-12.3-21.3-18.6-25.2c-12.4-7.6-30.9-6.5-38.6,4.2
		c-9.1-4.5-13.6,2.3-12.7,9.5c-13.6,4.3-27,15.3-29.8,28.5c-7.2-6.4-18.3-9.6-24.5,5.5c-3.3-4.1-10.9-3.2-13.2,0.9
		c-11.1-5.7-26.7-3.6-32.8,5.2c-8.9-3.3-19.8,2.1-17.8,11.5c-9.9-6.1-27.6,14.3-10.3,21.2c-6,10.9,8.8,29.6,24.4,19.7
		c-1.2,21.5,19.6,46.4,40.6,44.9c7,10.7,17.5,19,30.1,20.3c10.6,1.4,23.5-4.3,29.5-14c14.3,6.8,32.2,8.3,41.9-4.9
		c2.9-4.3,5.3-10.4,6.8-17.2c4.5,1.8,9.4,2.8,14,3.1c5.3,0.4,11,0.3,16.4-0.9c2.3,6.3,7.2,11.4,13.2,14.9c8.4,4.9,18.4,7.2,28.2,7.3
		c7.7,0.1,16.2-1,23-4.9c4.8,6.4,14.5,5.7,22.5,3.6c3.7,5.5,9,9.6,15.3,12c10,3.8,21.3,3.7,31.6,1.5c4-0.8,8-1.9,11.8-3.4
		c4.3,5.3,10.3,8.7,17.3,9c8.5,0.3,16.8-3.2,23.4-8.2c7.3-5.5,13.1-13.1,16-21.9c1.9-5.9,2.3-12,1.3-17.9
		c10-7.1,16.5-18.9,18.7-31.2c2.8-15.6-0.7-32.6-11.5-44C427.4,132.3,431.4,124.4,433.6,115.9z"/>
</g>
<g id="圖層_6">
</g>
<g id="圖層_1" display="none">
</g>
<g id="其他">
</g>
<g id="圖層_2">
</g>
</svg>
