<?xml version="1.0" encoding="utf-8"?>
<!-- Generator: Adobe Illustrator 16.0.0, SVG Export Plug-In . SVG Version: 6.00 Build 0)  -->
<!DOCTYPE svg PUBLIC "-//W3C//DTD SVG 1.1//EN" "http://www.w3.org/Graphics/SVG/1.1/DTD/svg11.dtd">
<svg version="1.1" xmlns="http://www.w3.org/2000/svg" xmlns:xlink="http://www.w3.org/1999/xlink" x="0px" y="0px" width="171.9px"
	 height="30.7px" viewBox="0 0 171.9 30.7" enable-background="new 0 0 171.9 30.7" xml:space="preserve">
<g id="bg">
</g>
<g id="info">
	<path fill="#FFFFFF" d="M171.2,6.2c-5.8-6.8-18.2,3.9-24.7,3.2c4.4-19-29.6-2.8-44.3,2.4c-0.2-0.5-0.5-1.1-1-1.7
		c-6.8-8.8-14-13.2-31.3-7.6c-3,1-5.8,2.1-8.3,3.4C60.3,6,59,6.1,57.7,6.2C35.2,8.9,36.6,20,36.6,20c-69.9,13.8-25.2,11,14,8.5
		c3,2.2,8,3.4,19.3,0.2c2.7-0.7,5.4-1.5,8.1-2.3c34,7.6,52.4-7.6,59.7-6.5C145.8,21.2,177,13,171.2,6.2z"/>
</g>
<g id="圖層_6">
</g>
<g id="圖層_1" display="none">
</g>
<g id="其他">
</g>
<g id="圖層_2">
</g>
</svg>
