<?xml version="1.0" encoding="utf-8"?>
<!-- Generator: Adobe Illustrator 16.0.0, SVG Export Plug-In . SVG Version: 6.00 Build 0)  -->
<!DOCTYPE svg PUBLIC "-//W3C//DTD SVG 1.1//EN" "http://www.w3.org/Graphics/SVG/1.1/DTD/svg11.dtd">
<svg version="1.1" xmlns="http://www.w3.org/2000/svg" xmlns:xlink="http://www.w3.org/1999/xlink" x="0px" y="0px" width="353px"
	 height="168.4px" viewBox="0 0 353 168.4" enable-background="new 0 0 353 168.4" xml:space="preserve">
<g id="bg">
</g>
<g id="info">
	<path fill="#FFFFFF" d="M320.4,106.3c-4.7-2-10.9-3.4-17.7-3.9c-5.4-4.5-11.9-6.3-17.7-6.8c5-3.4,7-7.2,3.4-11.7
		c-9.2-11.9-18.9-17.8-42.4-10.3c-3.2,1-6.2,2.2-9,3.5c-9-5.5-21.2-7.3-35.4-0.3c-2-1.7-4.1-3.3-6.4-4.7c2-1.9,3.7-4,5.3-6.3
		c1.2,0.2,2.5,0.3,3.8,0.3c13.3,0,24.1-10.8,24.1-24.1c0-13.3-10.8-24.1-24.1-24.1c-1.3,0-2.6,0.1-3.8,0.3C193,7.3,180.2,0,165.7,0
		c-20.3,0-37.3,14.4-41.2,33.5c-15.3,2.2-27.1,15.3-27.1,31.2c0,2.7,0.4,5.4,1,7.9c-8.8,0.6-17.3,4.4-20.7,10.3
		c-20.2-15.2-31.9-2.8-38.4,1.3c-13-5.6-24.9,8.2-19.8,18.9c-0.2,0.1-0.3,0.2-0.5,0.3c-2.2,0.2-4.5,0.5-7,0.9
		c0,0-14.2,5.7-11.8,12.8c1.4,4.1,14.2,6.6,25.1,6.2c5.1,0.4,10.6,0.4,15.6,0.3c4.4,4.7,10.7,7.7,17.6,7.7c4.1,0,7.9-1,11.3-2.8
		c4.1,13.7,16.8,23.6,31.8,23.6c4.9,0,9.6-1.1,13.8-3c-1.2,2.9-1.1,5.4,0.4,7.3c4,4.9,7.3,11.6,28.3,6.4c7.1,3.6,15.1,5.7,23.6,5.7
		c16.1,0,30.5-7.3,40-18.8c5.7,4.4,12.8,7.1,20.5,7.1c15.2,0,28.1-10.2,32-24.2c1.1,0.3,11.3,2.3,14.9-5.4
		c9.3,11.6,40.2,4.5,44.7-3.5c2.6,2.5,26.3-3,30.9-9.4C362.4,98.1,323,103.8,320.4,106.3z"/>
</g>
<g id="圖層_6">
</g>
<g id="圖層_1" display="none">
</g>
<g id="其他">
</g>
<g id="圖層_2">
</g>
</svg>
