<?xml version="1.0" encoding="utf-8"?>
<!-- Generator: Adobe Illustrator 16.0.0, SVG Export Plug-In . SVG Version: 6.00 Build 0)  -->
<!DOCTYPE svg PUBLIC "-//W3C//DTD SVG 1.1//EN" "http://www.w3.org/Graphics/SVG/1.1/DTD/svg11.dtd">
<svg version="1.1" xmlns="http://www.w3.org/2000/svg" xmlns:xlink="http://www.w3.org/1999/xlink" x="0px" y="0px" width="325.8px"
	 height="285.3px" viewBox="0 0 325.8 285.3" enable-background="new 0 0 325.8 285.3" xml:space="preserve">
<g id="bg">
</g>
<g id="info">
	<g>
		<g>
			<path fill="#F2C5D8" d="M248.7,164.1c0.8-2.1-136.1-82.3-136.1-82.3l202.4,61L274.5,179L248.7,164.1z"/>
			<path fill="#F2C5D8" stroke="#FFFFFF" stroke-width="2.39" stroke-miterlimit="10" d="M211.5,30.1c-5.4,3.4-137.6,141-137.6,141
				l220,66.1L211.5,30.1z"/>
			<polygon fill="#F2C5D8" points="144.5,194.8 111.2,185.6 126.3,201.5 			"/>
			<g>
				
					<text transform="matrix(0.968 0.2509 -0.2509 0.968 1.1055 170.4678)" fill="#315A8D" font-family="'CandyShopBlack'" font-size="21.7932">HEALTH</text>
				
					<text transform="matrix(0.968 0.2509 -0.2509 0.968 96.8125 238.7402)" fill="#315A8D" font-family="'CandyShopBlack'" font-size="21.7932">FIRST</text>
			</g>
			<g>
				
					<path fill="#F2C5D8" stroke="#315A8D" stroke-width="2.39" stroke-linecap="round" stroke-linejoin="round" stroke-miterlimit="10" d="
					M110.3,54.6c5,5.7-8.1,18.7-25.4,34.1c-17.3,15.4-33.2,26.3-38,20.9c-12.6-14.1-8.1-37.4,9.2-52.8C73.4,41.4,98,40.8,110.3,54.6
					z"/>
				<g>
					<path fill="#315A8D" d="M76.8,68.1c0.8,1.1-0.4,2.6-2.2,3.9c-1.8,1.3-3.6,1.9-4.4,0.7c-0.8-1.1,0-3.1,1.9-4.4
						C73.9,67.1,76,67,76.8,68.1z"/>
					<g>
						<path fill="#FFFFFF" d="M66.1,75.7c0.4,2.9-1.7,5.6-4.6,5.9c-2.9,0.4-5.6-1.7-5.9-4.6c-0.4-2.9,1.7-5.6,4.6-5.9
							C63,70.7,65.7,72.8,66.1,75.7z"/>
						<path fill="#315A8D" d="M62.1,76.3c0.1,0.6-0.4,1.2-1,1.3c-0.6,0.1-1.2-0.4-1.3-1c-0.1-0.6,0.4-1.2,1-1.3
							C61.4,75.2,62,75.7,62.1,76.3z"/>
					</g>
					<g>
						<path fill="#FFFFFF" d="M84.5,58.9c0.4,2.9-1.7,5.6-4.6,6c-2.9,0.4-5.6-1.7-5.9-4.6c-0.4-2.9,1.7-5.6,4.6-5.9
							C81.5,54,84.1,56,84.5,58.9z"/>
						<path fill="#315A8D" d="M80.5,59.6c0.1,0.6-0.4,1.2-1,1.3c-0.6,0.1-1.2-0.4-1.3-1c-0.1-0.6,0.4-1.2,1-1.3
							C79.8,58.5,80.4,58.9,80.5,59.6z"/>
					</g>
				</g>
				
					<path fill="#315A8D" stroke="#315A8D" stroke-width="2.39" stroke-linecap="round" stroke-linejoin="round" stroke-miterlimit="10" d="
					M111.2,56.1c2.8,3.1-10,18.3-28.2,34.3c-17.8,15.6-32.3,22.8-35.1,19.7c-1-1.1,1.8-8.1,28-30.4
					C100.1,59.2,109.8,54.6,111.2,56.1z"/>
				
					<path fill="#FFF1C2" stroke="#315A8D" stroke-width="2.39" stroke-linecap="round" stroke-linejoin="round" stroke-miterlimit="10" d="
					M70.3,44.1c-4,0.5-6.3,2.6-8.3,2.8c-3,0-2.7-3.7-5.3-4.3c-3.3-1-3.8,2.5-3.9,4.7c0.1,3.5,1.6,4.1-2.2,5
					c-2.4,0.5-6.5,1.3-5.2,3.8c0.4,1.7,4,1.2,5.5,1.6c-1.5,2.2-7.4,10.6-5.1,12.2c2.6,1.9,8.9-7.9,10.3-9.4c5.3-6.5,6.1,4.5,9.3,1
					c2-2.1-0.5-5.6-0.2-7.7c0.6-2.7,3.4-2.4,5.7-3.8C75.2,47.3,76.3,43.5,70.3,44.1z"/>
				
					<path fill="#F2C5D8" stroke="#315A8D" stroke-width="2.39" stroke-linecap="round" stroke-linejoin="round" stroke-miterlimit="10" d="
					M62.7,126.4c-5-5.7,8.1-18.7,25.4-34.1c17.3-15.4,33.2-26.3,38-20.9c12.6,14.1-1.2,27.2-18.5,42.6
					C90.2,129.4,75,140.2,62.7,126.4z"/>
				<g>
					
						<path fill="#FFFFFF" stroke="#315A8D" stroke-width="2.39" stroke-linecap="round" stroke-linejoin="round" stroke-miterlimit="10" d="
						M114.7,136.1c2,3,0.8,7.2-2.5,9.4c-3.3,2.1-7.6,1.4-9.6-1.7c-2-3.1-0.8-7.2,2.5-9.4C108.5,132.3,112.8,133,114.7,136.1z"/>
					
						<path fill="#FFFFFF" stroke="#315A8D" stroke-width="2.39" stroke-linecap="round" stroke-linejoin="round" stroke-miterlimit="10" d="
						M111.5,130.2c2,3,0.8,7.2-2.5,9.4c-3.3,2.1-7.6,1.4-9.6-1.7c-2-3.1-0.8-7.2,2.5-9.4C105.3,126.5,109.6,127.2,111.5,130.2z"/>
					
						<path fill="#F2C5D8" stroke="#315A8D" stroke-width="2.39" stroke-linecap="round" stroke-linejoin="round" stroke-miterlimit="10" d="
						M100.3,117.9c2.5,2.6,6.3,11.6,6.7,13.9c0.4,2.4-1.3,6.1-5.3,3c-4.1-3.1-7.8-7-9.5-10.3"/>
				</g>
				<g>
					
						<path fill="#FFFFFF" stroke="#315A8D" stroke-width="2.39" stroke-linecap="round" stroke-linejoin="round" stroke-miterlimit="10" d="
						M145.9,105.3c3.9,2.6,3.4,7,0.4,9.6c-3,2.6-10.7,2.1-13.2-0.6c-3.5-3.7-0.3-6.5,2.7-9C138.9,102.8,142.9,103.3,145.9,105.3z"/>
					
						<path fill="#FFFFFF" stroke="#315A8D" stroke-width="2.39" stroke-linecap="round" stroke-linejoin="round" stroke-miterlimit="10" d="
						M139.8,102.1c2.4,2.8,1.8,7.1-1.2,9.6c-3,2.6-7.3,2.4-9.7-0.3c-2.4-2.8-1.8-7.1,1.2-9.6C133.1,99.2,137.4,99.4,139.8,102.1z"/>
					
						<path fill="#F2C5D8" stroke="#315A8D" stroke-width="2.39" stroke-linecap="round" stroke-linejoin="round" stroke-miterlimit="10" d="
						M122.8,93.1c2.8,1.2,10.6,7.5,11.8,9.6c1.2,2.1,0.9,6.1-4,4.6c-4.9-1.5-9.8-3.3-12.7-5.4"/>
				</g>
			</g>
			<g>
				
					<path fill="#F2C5D8" stroke="#315A8D" stroke-width="2.39" stroke-linecap="round" stroke-linejoin="round" stroke-miterlimit="10" d="
					M272.4,37.9c2.2,6.7,5.8,35.9-0.9,38.2c-6.7,2.2-21.2-23.4-23.5-30.1c-2.2-6.7,2.5-10.9,9.2-13.1
					C264,30.7,270.2,31.2,272.4,37.9z"/>
				<g>
					<path fill="#315A8D" d="M268.7,54.4c0.2,0.8-0.8,1.5-2.1,1.8c-1.3,0.4-2.5,0.4-2.7-0.5c-0.2-0.8,0.6-1.8,2-2.2
						C267.2,53.2,268.5,53.6,268.7,54.4z"/>
					<g>
						<path fill="#315A8D" d="M261.2,55.5c-0.1,0.4-0.5,0.6-0.8,0.6c-0.4-0.1-0.6-0.5-0.6-0.8c0.1-0.4,0.5-0.6,0.8-0.6
							C261.1,54.8,261.3,55.1,261.2,55.5z"/>
					</g>
					<g>
						<path fill="#315A8D" d="M271.2,52c-0.1,0.4-0.5,0.6-0.8,0.6c-0.4-0.1-0.6-0.5-0.5-0.8c0.1-0.4,0.5-0.6,0.8-0.6
							C271,51.3,271.2,51.6,271.2,52z"/>
					</g>
				</g>
				
					<path fill="#FFF1C2" stroke="#315A8D" stroke-width="2.39" stroke-linecap="round" stroke-linejoin="round" stroke-miterlimit="10" d="
					M266.7,22.8c-2.4-1.9-5.1-0.1-7,1.8c-1.2-3.1-3.2-5.4-5.9-4.8c-3.6,0.8-3.3,5.5-2.7,8.3c0.1,0.3,0.1,0.6,0.2,1
					c-3.7-0.1-7,1-7.3,4c-0.4,3.7,4.1,4.9,6.9,5.3c2.5,0.3,6.8,0.6,9.2-1.3C264.5,34.6,270.9,26.2,266.7,22.8z"/>
			</g>
			<g>
				
					<path fill="#F2C5D8" stroke="#315A8D" stroke-width="2.39" stroke-linecap="round" stroke-linejoin="round" stroke-miterlimit="10" d="
					M95.2,199.4c5.2,5.6,10.7,19.4,5.2,24.6c-5.6,5.2-20.1-0.2-25.3-5.7c-5.2-5.5-2.5-11.7,3-16.9C83.7,196.1,90,193.8,95.2,199.4z"
					/>
				<g>
					<path fill="#315A8D" d="M92.7,212.9c0.5,0.7-0.1,1.6-1.2,2.5c-1.1,0.9-2.1,1.3-2.7,0.7c-0.5-0.7-0.1-1.9,0.9-2.8
						C90.8,212.4,92.1,212.3,92.7,212.9z"/>
					<g>
						<path fill="#315A8D" d="M86.3,216.9c0.1,0.4-0.2,0.8-0.6,0.8c-0.4,0.1-0.8-0.2-0.8-0.6c-0.1-0.4,0.2-0.8,0.6-0.8
							C85.8,216.3,86.2,216.5,86.3,216.9z"/>
					</g>
					<g>
						<path fill="#315A8D" d="M93.9,209.7c0.1,0.4-0.2,0.8-0.6,0.8c-0.4,0.1-0.8-0.2-0.8-0.6c-0.1-0.4,0.2-0.8,0.5-0.8
							C93.5,209.1,93.9,209.3,93.9,209.7z"/>
					</g>
				</g>
				
					<path fill="#FFF1C2" stroke="#315A8D" stroke-width="2.39" stroke-linecap="round" stroke-linejoin="round" stroke-miterlimit="10" d="
					M82.3,195.7c-1.7-0.4-2.7,1.2-3.2,2.6c-1.4-1.3-2.9-2-4.2-1.1c-1.7,1.3-0.4,3.6,0.6,4.9c0.1,0.1,0.2,0.3,0.3,0.5
					c-1.9,0.8-3.4,2.2-2.9,3.8c0.7,2,3.3,1.5,4.9,1.1c1.4-0.4,3.7-1.3,4.4-2.9C84,202.4,85.3,196.5,82.3,195.7z"/>
			</g>
			<g>
				<g>
					
						<path fill="#F2C5D8" stroke="#315A8D" stroke-width="2.39" stroke-linecap="round" stroke-linejoin="round" stroke-miterlimit="10" d="
						M155.9,159.2c0,0,26.6,8.5,26.1,14.2c-0.5,5.8-7.7,5.7-29.3-6.5C149.5,165.2,152.1,158.8,155.9,159.2z"/>
					
						<path fill="#315A8D" stroke="#315A8D" stroke-width="2.39" stroke-linecap="round" stroke-linejoin="round" stroke-miterlimit="10" d="
						M114.6,135.9l41.3,23.3c0,0-5.9,21.7-15.3,18.8c-9.4-2.8-40.9-12.1-38-22.5C105.5,145.2,107.6,133.8,114.6,135.9z"/>
					
						<path fill="#FFFFFF" stroke="#315A8D" stroke-width="2.39" stroke-linecap="round" stroke-linejoin="round" stroke-miterlimit="10" d="
						M102.6,155.6c0.1-0.2,0.1-0.4,0.2-0.6c3.1-0.4,6.4-1.7,9.1-2c6.3-0.6,7.6,1.7,11.5,5.8c2,2,3.8,3.6,6.8,3.8
						c3.2,0.1,4.5-1.6,6.9,1.7c1.8,2.2,1.1,4.3,4,5.6c2.7,1.4,5.7,0.5,8.3,2.6c0.2,0.1,0.3,0.3,0.5,0.4c-2.5,3.6-5.6,6.2-9.3,5.1
						C131.2,175.2,99.7,165.9,102.6,155.6z"/>
				</g>
				
					<path fill="#FFFFFF" stroke="#315A8D" stroke-width="2.39" stroke-linecap="round" stroke-linejoin="round" stroke-miterlimit="10" d="
					M202,180.3c0,0-33.8-30.6-41.8-16.9c-3,5.4-0.1,16,8.2,11.1c10.4,3.9,19.6,9.5,19.6,9.5"/>
				
					<path fill="#FFFFFF" stroke="#315A8D" stroke-width="2.39" stroke-linecap="round" stroke-linejoin="round" stroke-miterlimit="10" d="
					M180.7,195.7c-0.7,0-23.2,14.5-23.2,14.5s-2.9-1.1-6.1,3.9c-3.2,5-9.5,17.9-3,13.6c6.6-4.3,6.6-4.3,6.6-4.3s24.1-3.4,35.2-8.6
					C194.1,213.5,180.7,195.7,180.7,195.7z"/>
				
					<path fill="#FFFFFF" stroke="#315A8D" stroke-width="2.39" stroke-linecap="round" stroke-linejoin="round" stroke-miterlimit="10" d="
					M203.6,205.5c0,0,25.3-0.2,28.3,12.3c1.7,7.1,0.3,12.4-15,25.2c-2.3,4.6-3.5,7.2-5.4,5.8c-3.4-2.3-5.1-11.6,2.7-19.5
					c3-1.9-7.8,2.2-16.3-3.3C189.3,220.4,194.8,208.2,203.6,205.5z"/>
				
					<path fill="#FFFFFF" stroke="#315A8D" stroke-width="2.39" stroke-linecap="round" stroke-linejoin="round" stroke-miterlimit="10" d="
					M213.3,162.3c0,0-28.2,19.1-36.8,33.6c36.3,9.1,40.7,12.6,51.9,12.6c16.6,0,14.9-40.8,14.9-40.8L213.3,162.3z"/>
				
					<path fill="#FFFFFF" stroke="#315A8D" stroke-width="2.39" stroke-linecap="round" stroke-linejoin="round" stroke-miterlimit="10" d="
					M235,201.2c0,0,31.9,12.9,51.7,0.7c4.9-3.6,8.7-11.1,2.9-16.6c-5.8-5.5-11.2-1.7-16.2,1.5c-5,3.2-20.6,9.4-45.5,0"/>
				
					<path fill="#FFF1C2" stroke="#315A8D" stroke-width="2.39" stroke-linecap="round" stroke-linejoin="round" stroke-miterlimit="10" d="
					M190.8,187.4c0,0-5.2-7.7-11.1-4.8c-3.2,1.4-2.7,3.4-2.7,3.4s-12.3,3.6-11.1,20.4c0.5,7.5,9.1,21.6,20.4,25
					c3.6,1.1,3.9-1.6,3-3.4c-0.5-0.9,25,9.5,22.9,1.8c-1.8-5.9-1.1-7.7,5.2-6.6c6.4,1.1-4.3-10.4,1.6-12.7
					c5.2-1.4,14.4,4.2,14.2,1.5c-0.3-6.6-7-7.1-10.8-7.6c-8.7-1.1-8.3,1.2-20.8-5.1C198.9,198,193.2,192.6,190.8,187.4z"/>
				<g>
					<g>
						<path fill="#FFF1C2" d="M244.7,195.1c-33.6,0-58.5-14.1-66.5-37.6c-5.2-15.4-4-31.7,3.4-46c7.1-13.7,19.3-24.2,34.1-29.8
							c6.4-2.4,13.2-3.6,20.1-3.6c29.4,0,55.8,20.8,60.1,47.4c3.7,22.4,0.2,40.8-10.1,53.1c-8.7,10.4-22.1,16.1-38.8,16.4
							C246.3,195.1,245.5,195.1,244.7,195.1z"/>
						<path fill="#315A8D" d="M235.8,79.4c27.7,0,54.6,19.4,59,46.4c6.7,40.8-10.9,67.4-47.7,68.1c-0.8,0-1.6,0-2.4,0
							c-33.8,0-57.7-14.3-65.4-36.8c-10.9-32,7.5-63.3,36.8-74.2C222.5,80.5,229.2,79.4,235.8,79.4 M235.8,77
							c-7.1,0-14,1.2-20.5,3.7c-15.1,5.6-27.5,16.4-34.7,30.3c-7.6,14.5-8.8,31.2-3.5,46.9c8.2,24.1,33.5,38.4,67.6,38.4
							c0.8,0,1.6,0,2.4,0c17-0.3,30.7-6.2,39.7-16.9c10.5-12.6,14.1-31.3,10.4-54.1C292.7,98.3,265.8,77,235.8,77L235.8,77z"/>
					</g>
					<g>
						<defs>
							<path id="SVGID_191_" d="M179.3,157.2c7.8,23.1,32.7,37.5,67.7,36.8c36.8-0.7,54.4-27.3,47.7-68.1
								c-5.5-33.4-45.4-55.2-78.7-42.9C186.8,93.8,168.4,125.1,179.3,157.2z"/>
						</defs>
						<clipPath id="SVGID_2_">
							<use xlink:href="#SVGID_191_"  overflow="visible"/>
						</clipPath>
						<g clip-path="url(#SVGID_2_)">
							<path fill="#315A8D" d="M214.1,82.8c0.4,2.5,2.7,4.1,5.2,3.8c2.5-0.4,4.1-2.7,3.7-5.2c-0.4-2.5-2.7-4.1-5.2-3.8
								C215.4,78,213.7,80.3,214.1,82.8z"/>
							<path fill="#315A8D" d="M231.1,106.4c0.4,2.5,2.7,4.1,5.2,3.8c2.5-0.4,4.2-2.7,3.8-5.2c-0.4-2.5-2.7-4.2-5.2-3.8
								C232.4,101.6,230.7,103.9,231.1,106.4z"/>
							<path fill="#315A8D" d="M258.8,86.5c0.4,2.5,2.7,4.1,5.2,3.8c2.5-0.4,4.1-2.7,3.8-5.2c-0.4-2.5-2.7-4.2-5.2-3.8
								C260.1,81.7,258.4,84,258.8,86.5z"/>
							<path fill="#315A8D" d="M283.5,107.2c0.4,2.5,2.7,4.2,5.2,3.8c2.5-0.4,4.1-2.7,3.8-5.2c-0.4-2.5-2.7-4.2-5.2-3.8
								C284.8,102.4,283.1,104.7,283.5,107.2z"/>
							<path fill="#315A8D" d="M210,129.5c0.4,2.5,2.7,4.1,5.2,3.8c2.5-0.4,4.2-2.7,3.8-5.2c-0.4-2.5-2.7-4.2-5.2-3.8
								C211.3,124.7,209.6,127,210,129.5z"/>
							<path fill="#315A8D" d="M189.6,151.4c0.4,2.5,2.7,4.1,5.2,3.8c2.5-0.4,4.2-2.7,3.8-5.2c-0.4-2.5-2.7-4.2-5.2-3.8
								C190.9,146.6,189.2,148.9,189.6,151.4z"/>
							<path fill="#315A8D" d="M182.4,121.4c0.4,2.5,2.7,4.1,5.2,3.8c2.5-0.4,4.1-2.7,3.8-5.2c-0.4-2.5-2.7-4.1-5.2-3.8
								C183.7,116.6,182,118.9,182.4,121.4z"/>
							<path fill="#315A8D" d="M194.9,181.8c0.4,2.5,2.7,4.1,5.2,3.8c2.5-0.4,4.2-2.7,3.8-5.2c-0.4-2.5-2.7-4.1-5.2-3.8
								C196.2,177,194.5,179.3,194.9,181.8z"/>
							<path fill="#315A8D" d="M251.5,122.8c0.4,2.5,2.7,4.1,5.2,3.8c2.5-0.4,4.1-2.7,3.7-5.2c-0.4-2.5-2.7-4.2-5.2-3.8
								C252.7,118,251.1,120.4,251.5,122.8z"/>
							<path fill="#315A8D" d="M291.9,135.7c0.4,2.5,2.7,4.2,5.2,3.8c2.5-0.4,4.1-2.7,3.8-5.2c-0.4-2.5-2.7-4.2-5.2-3.8
								C293.2,130.9,291.5,133.3,291.9,135.7z"/>
						</g>
					</g>
					<g>
						<path fill="#FFFFFF" d="M251.4,192.5c-15.7,0-26.1-4.9-30.7-14.7c-6.4-13.4,0.8-31.8,3.4-35c5.2-6.4,21.3-11,38.2-11
							c8.9,0,22,1.3,33.3,7.4c1.3,0.7,1.6,3,1.9,6.9c0.1,1.4,0.3,3.2,0.5,3.7c3.5,8.3,3.1,16.4-1.3,23.5
							c-6.4,10.5-21.1,17.6-39.3,18.9C255.4,192.4,253.3,192.5,251.4,192.5z"/>
						<path fill="#315A8D" d="M262.3,133c11.3,0,23.2,2.1,32.7,7.3c1.4,0.8,1.1,8.3,1.8,10.1c8.9,21.2-9.7,38.5-39.5,40.7
							c-2.1,0.2-4.1,0.2-6,0.2c-45.9,0-30.2-42.9-26.3-47.7C230,137.7,245.5,133,262.3,133 M262.3,130.7v2.4V130.7L262.3,130.7
							c-17.2,0-33.7,4.8-39.1,11.5c-3.1,3.7-10.2,22.4-3.6,36.2c4.8,10.2,15.5,15.3,31.7,15.3c2,0,4.1-0.1,6.2-0.2
							c18.5-1.3,33.6-8.6,40.2-19.4c4.5-7.4,5-15.9,1.3-24.6c-0.1-0.4-0.3-2.2-0.4-3.3c-0.4-4.4-0.6-6.9-2.5-7.9
							C284.6,132,271.4,130.7,262.3,130.7L262.3,130.7z"/>
					</g>
					<g>
						<path fill="#FFF1C2" d="M214.7,152.7c-3.2,0-7.2-0.5-8.2-3c-0.9-2.4,1.8-4.8,2.6-5.6c6.9-6.2,17-6.9,21-6.9c0.9,0,1.4,0,1.4,0
							c0.6,0,1.1,0.6,1.1,1.2c0,0.4-0.2,9.5-11.8,13.5C219.5,152.4,217,152.7,214.7,152.7z"/>
						<g>
							<path fill="#315A8D" d="M230.2,138.4c0.8,0,1.3,0,1.3,0s-0.1,8.6-10.9,12.3c-1.3,0.4-3.6,0.7-5.8,0.7
								c-5.1,0-10.4-1.5-4.7-6.5C216.7,139,226.7,138.4,230.2,138.4 M230.2,136L230.2,136c-4.2,0-14.6,0.7-21.8,7.2
								c-2.8,2.5-3.8,4.8-3,6.9c1,2.5,4.1,3.8,9.3,3.8c2.4,0,5-0.3,6.5-0.8c0,0,0,0,0.1,0c12.3-4.2,12.6-14.2,12.6-14.6
								c0-1.3-1-2.3-2.2-2.4C231.6,136.1,231.1,136,230.2,136L230.2,136z"/>
						</g>
					</g>
					<g>
						
							<path fill="#F2C5D8" stroke="#315A8D" stroke-width="2.39" stroke-linecap="round" stroke-linejoin="round" stroke-miterlimit="10" d="
							M270.4,167.7c-0.1,2.6,0.7,3.8,3.2,3.9c1.7,0.1,4.7-0.9,4.8-3.4c0.1-2.6-1.9-4.7-4.4-4.8C271.4,163.2,270.5,165.1,270.4,167.7
							z"/>
					</g>
					<path fill="#315A8D" d="M282.1,159.2c1.6-0.7,3.6-1.5,6.3-2.7c1.4-1,3.3,0.7,1.9,2c-2.1,2-4.8,3.4-7.7,3.9
						C281.1,162.7,280.2,160.1,282.1,159.2z"/>
					<path fill="#315A8D" d="M253.3,160.6c-2-0.6-4.6-1.2-8.1-2.2c-1.9-0.9-3.8,1-2,2.2c2.9,1.8,6.4,3,10.1,3.2
						C255.3,164,255.8,161.3,253.3,160.6z"/>
					
						<path fill="#FFFFFF" stroke="#315A8D" stroke-width="2.39" stroke-linecap="round" stroke-linejoin="round" stroke-miterlimit="10" d="
						M272.1,177.8c0.8-2.1-3.1-3.7-6-2.6c-2.9,1.1-7.6,5.8,0.8,5C272.9,182.2,271.9,178.3,272.1,177.8z"/>
					<g>
						<defs>
							<path id="SVGID_193_" d="M257.4,191.1c-53.2,3.9-36.4-42.5-32.3-47.4c8.1-10,46.1-16.2,70-3.3c1.4,0.8,1.1,8.3,1.8,10.1
								C305.8,171.6,287.2,188.9,257.4,191.1z"/>
						</defs>
						<clipPath id="SVGID_4_">
							<use xlink:href="#SVGID_193_"  overflow="visible"/>
						</clipPath>
						<path clip-path="url(#SVGID_4_)" fill="#F2C5D8" d="M211.1,185.8c1.2,7.7,8.5,13,16.2,11.8c7.7-1.2,13-8.5,11.7-16.2
							c-1.2-7.7-8.5-13-16.2-11.7C215.1,170.8,209.9,178,211.1,185.8z"/>
						<path clip-path="url(#SVGID_4_)" fill="#F2C5D8" d="M288.9,177.9c1.2,7.7,8.5,13,16.2,11.8c7.7-1.2,13-8.5,11.7-16.2
							c-1.2-7.7-8.5-13-16.2-11.7C292.9,162.9,287.7,170.2,288.9,177.9z"/>
					</g>
				</g>
				
					<path fill="#FFFFFF" stroke="#315A8D" stroke-width="2.39" stroke-linecap="round" stroke-linejoin="round" stroke-miterlimit="10" d="
					M288.1,185.3c0,0,19.8,18.4,12.3,14.3c-7.5-4.1-12.7-10.1-13.3-8.9c-0.1,0.9,12.4,16.8,4.1,9.4c-8.2-7.4-4.5-5.8-6.1-4.1"/>
				
					<path fill="#FFF1C2" stroke="#315A8D" stroke-width="2.39" stroke-linecap="round" stroke-linejoin="round" stroke-miterlimit="10" d="
					M183.6,183.8c0,0-19.7-18.4-15.1-11.2c4.6,7.2,8.2,9.7,7,10.4c-0.8,0.2-14.8-8.9-6.9-1.2c7.9,7.7,9.5,5.4,7.5,6.6"/>
				
					<path fill="#FFF1C2" stroke="#315A8D" stroke-width="2.39" stroke-linecap="round" stroke-linejoin="round" stroke-miterlimit="10" d="
					M177.4,138.1c-56.5-57.6-52.1-44.5-22.8-16.9c7.9,7.4,14.3,14,13.3,14.9c-1,0.9-28.2-23.2-21.8-14.1
					c4.8,6.8,33.3,30.2,31.3,31.4"/>
				
					<path fill="#FFF1C2" stroke="#315A8D" stroke-width="2.39" stroke-linecap="round" stroke-linejoin="round" stroke-miterlimit="10" d="
					M274.5,91.8c0,0-35.6-35.9-23.8-20.2c6.5,8.7,10.6,15.8,11.8,17.6c-0.8,0.2-18.7-19.7-13.3-10.2c5.5,9.6,4.8,8.7,2.7,9.9"/>
				
					<path fill="#FFF1C2" stroke="#315A8D" stroke-width="2.39" stroke-linecap="round" stroke-linejoin="round" stroke-miterlimit="10" d="
					M173.9,187.3c-56.5-57.6-52.1-44.5-22.8-16.9c7.9,7.4,14.3,14,13.3,14.9c-1,0.9-28.2-23.2-21.8-14.1
					c4.8,6.8,33.3,30.2,31.2,31.4"/>
				<g>
					<g>
						<path fill="#FFFFFF" d="M187.7,108.1c-2.6,0-4.6-0.9-5.9-2.7c-2.1-3-0.3-5.8,1.1-7.4c-0.7-0.8-1.4-1.6-2-2.4l-2.8-4
							c-0.2-0.3-0.4-0.6-0.6-0.9c-1.5,0.6-3.2,0.9-4.8,0.9c-4.1,0-8-2-10.4-5.4c-4.1-5.7-2.7-13.7,3-17.7l3.1-2.2
							c-0.2-5.3,2.3-10.5,6.6-13.6c2.7-1.9,5.8-2.9,9.1-2.9c3.5,0,7,1.2,9.7,3.3c2-1.2,4.2-1.9,6.6-1.9c4,0,7.8,2,10.1,5.2
							c3.4,4.8,2.9,11.3-1,15.6l1.5,2.1c0.6,0.8,1.1,1.7,1.6,2.6c1.2-0.5,2.3-0.7,3.3-0.7c1.7,0,3,0.7,4,2.1
							c3.1,4.4-0.2,10.9-9.3,18.4c-0.6,0.5-1.1,1-1.6,1.3l-5.2,3.7c-0.5,0.4-1.1,0.7-1.8,1C198.3,105.2,192.4,108.1,187.7,108.1z"/>
						<path fill="#315A8D" d="M184.3,51.1c3.5,0,7,1.3,9.7,3.6l0.2-0.1c2-1.4,4.2-2.1,6.5-2.1c3.5,0,7,1.6,9.2,4.7
							c3.3,4.7,2.5,11-1.5,14.7l2.1,2.9c0.8,1.1,1.5,2.3,2,3.5c1.5-0.7,2.7-1.1,3.9-1.1c1.2,0,2.3,0.5,3.1,1.6
							c2.9,4.1-1.5,10.6-9.2,16.8c-0.5,0.4-0.9,0.9-1.5,1.3l-5.2,3.7c-0.5,0.4-1.1,0.7-1.7,1c-5.3,3.3-10.3,5.3-14,5.3
							c-2.1,0-3.9-0.7-4.9-2.2c-1.5-2.2-0.6-4.3,1.8-6.7c-1-0.9-1.9-1.9-2.7-3l-2.8-4c-0.4-0.6-0.8-1.2-1.1-1.8
							c-1.7,0.9-3.5,1.3-5.3,1.3c-3.6,0-7.2-1.7-9.4-4.8c-3.7-5.2-2.5-12.4,2.7-16.1l3.6-2.6c-0.4-5,1.7-10.1,6.1-13.2
							C178.4,52,181.3,51.1,184.3,51.1 M184.3,48.7c-3.5,0-6.9,1.1-9.8,3.1c-4.5,3.2-7.2,8.4-7.2,13.9l-2.6,1.8
							c-6.3,4.4-7.7,13.1-3.3,19.4c2.6,3.7,6.8,5.9,11.4,5.9c1.5,0,2.9-0.2,4.3-0.7c0,0.1,0.1,0.1,0.1,0.2l2.8,4
							c0.4,0.6,0.9,1.2,1.4,1.7c-2.1,2.8-2.3,5.5-0.5,8c1,1.5,3.1,3.2,6.9,3.2c5,0,11-3,15.1-5.5c0.7-0.4,1.3-0.7,1.9-1.1L210,99
							c0.6-0.4,1.1-0.8,1.7-1.4c9.7-7.9,13-15,9.5-20c-1.2-1.7-3-2.6-5-2.6c-0.8,0-1.7,0.1-2.7,0.5c-0.4-0.6-0.8-1.3-1.2-1.9
							l-0.9-1.3c3.7-4.7,4-11.3,0.4-16.3c-2.5-3.6-6.7-5.7-11.1-5.7c-2.3,0-4.5,0.6-6.5,1.7C191.2,49.8,187.8,48.7,184.3,48.7
							L184.3,48.7z"/>
					</g>
					
						<path fill="#FFFFFF" stroke="#315A8D" stroke-width="2.39" stroke-linecap="round" stroke-linejoin="round" stroke-miterlimit="10" d="
						M187,79.1c0,0,11.4,4.3,14-10"/>
					
						<path fill="#FFFFFF" stroke="#315A8D" stroke-width="2.39" stroke-linecap="round" stroke-linejoin="round" stroke-miterlimit="10" d="
						M208.8,72.9c0,0-5.6,4.7-8,0.5"/>
					
						<path fill="#FFFFFF" stroke="#315A8D" stroke-width="2.39" stroke-linecap="round" stroke-linejoin="round" stroke-miterlimit="10" d="
						M183.6,98c0,0,2.8,0,6.1-2"/>
				</g>
			</g>
			
				<path fill="#F2C5D8" stroke="#315A8D" stroke-width="2.39" stroke-linecap="round" stroke-linejoin="round" stroke-miterlimit="10" d="
				M210.8,3c-1.7,0.4,0,4.3,1.5,9.3c2.2,7.6,18.3,63.9,22.4,50.4c-0.2-6.8-3.6-14.6-3.6-14.6S217.9,1.2,210.8,3z"/>
			<g>
				
					<path fill="#F2C5D8" stroke="#315A8D" stroke-width="2.39" stroke-linecap="round" stroke-linejoin="round" stroke-miterlimit="10" d="
					M302,85.3c0,0-7.2-4.7-12.3-1.8c-1.4,2,1.7,4.6,11.1,11.6c9.4,7,23.3,20.5,21.3,7.4c-4.3-7.2-3.6-4.6-3.6-4.6L302,85.3z"/>
				
					<path fill="#F2C5D8" stroke="#315A8D" stroke-width="2.39" stroke-linecap="round" stroke-linejoin="round" stroke-miterlimit="10" d="
					M310.5,88.2c11.2,8.6,16.6,11.7,10.7,18c0.1-5.1-1.9-4.8-13-13.3c-9.3-7.1-4.6-3.5-9-6.3c-4.5-2.8-7.6-3.3-9.5-3.1
					C296.5,77.2,299.3,79.6,310.5,88.2z"/>
			</g>
			<g>
				
					<path fill="#F2C5D8" stroke="#315A8D" stroke-width="2.39" stroke-linecap="round" stroke-linejoin="round" stroke-miterlimit="10" d="
					M127.7,33.3c0,0,22.9,36.1,24.6,28c1.7-8.2-35.9-75.7-36.1-53.2C123,27,127.7,33.3,127.7,33.3z"/>
				
					<path fill="#F2C5D8" stroke="#315A8D" stroke-width="2.39" stroke-linecap="round" stroke-linejoin="round" stroke-miterlimit="10" d="
					M113.6,8c0,0,0.3-2.6,3.9-4c5.6,12.9,24.2,46.8,34.8,57.3c-3,3.1-5.8,3.1-5.8,3.1S124.8,47.1,113.6,8z"/>
			</g>
			<g>
				
					<path fill="#F2C5D8" stroke="#315A8D" stroke-width="2.39" stroke-linecap="round" stroke-linejoin="round" stroke-miterlimit="10" d="
					M35.8,189.7c0,0,31.4-3.2,25-8.5c-6.4-5.3-56.7-3.1-36.8,7.5C43.9,191.5,35.8,189.7,35.8,189.7z"/>
				
					<path fill="#F2C5D8" stroke="#315A8D" stroke-width="2.39" stroke-linecap="round" stroke-linejoin="round" stroke-miterlimit="10" d="
					M22.8,191c0,0-3.6-2.2-3.1-6.1c14,1,27,0.8,41.2-3.7c1.4,4.1,0.1,6.6,0.1,6.6S57.4,198.7,22.8,191z"/>
			</g>
		</g>
		<g>
			<polygon fill="#315A8D" points="226.3,243.5 230,237.6 235,241.7 			"/>
			<polygon fill="#315A8D" points="226.3,247.2 232.2,250.4 228.1,254.4 			"/>
		</g>
		<g>
			<polygon fill="#315A8D" points="77.7,161.6 77.9,155.8 83.4,157.5 			"/>
			<polygon fill="#315A8D" points="73.7,162.7 74,154 69.1,155.1 			"/>
		</g>
		
			<path fill="none" stroke="#FFFFFF" stroke-width="2.39" stroke-linecap="round" stroke-linejoin="round" stroke-miterlimit="10" d="
			M46.1,81.2c0,0-3.5,8.7,0.3,15.4"/>
		<path fill="#FFFFFF" d="M48.9,76.8c0,0.7-0.6,1.3-1.3,1.3c-0.7,0-1.3-0.6-1.3-1.3c0-0.7,0.6-1.3,1.3-1.3
			C48.3,75.5,48.9,76.1,48.9,76.8z"/>
		<path fill="#FFFFFF" d="M76.9,212.3c0,0.4-0.3,0.7-0.7,0.7c-0.4,0-0.7-0.3-0.7-0.7s0.3-0.7,0.7-0.7
			C76.6,211.6,76.9,212,76.9,212.3z"/>
		<path fill="#FFFFFF" d="M79.1,215.1c0,0.6-0.5,1.1-1.1,1.1c-0.6,0-1.1-0.5-1.1-1.1c0-0.6,0.5-1.1,1.1-1.1
			C78.6,214,79.1,214.5,79.1,215.1z"/>
		<path fill="#FFFFFF" d="M252.8,42.8c0,0.5-0.4,0.9-0.9,0.9c-0.5,0-0.9-0.4-0.9-0.9c0-0.5,0.4-0.9,0.9-0.9
			C252.4,41.9,252.8,42.3,252.8,42.8z"/>
		<path fill="#FFFFFF" d="M253.8,46c0,0.7-0.5,1.2-1.2,1.2c-0.7,0-1.2-0.5-1.2-1.2c0-0.7,0.5-1.2,1.2-1.2
			C253.3,44.8,253.8,45.3,253.8,46z"/>
	</g>
</g>
<g id="圖層_6">
</g>
<g id="圖層_1" display="none">
</g>
<g id="其他">
</g>
<g id="圖層_2">
</g>
</svg>
