<?xml version="1.0" encoding="utf-8"?>
<!-- Generator: Adobe Illustrator 16.0.0, SVG Export Plug-In . SVG Version: 6.00 Build 0)  -->
<!DOCTYPE svg PUBLIC "-//W3C//DTD SVG 1.1//EN" "http://www.w3.org/Graphics/SVG/1.1/DTD/svg11.dtd">
<svg version="1.1" xmlns="http://www.w3.org/2000/svg" xmlns:xlink="http://www.w3.org/1999/xlink" x="0px" y="0px" width="317.4px"
	 height="274.3px" viewBox="0 0 317.4 274.3" enable-background="new 0 0 317.4 274.3" xml:space="preserve">
<g id="bg">
</g>
<g id="info">
	<g>
		
			<path fill="#FFFFFF" stroke="#315A8D" stroke-width="2.39" stroke-linecap="round" stroke-linejoin="round" stroke-miterlimit="10" d="
			M219,212.1c-19.5-3.9-40.6,1.6-54.1,2c-15.6,0.5-31-3.8-46.7-3.4c-8.2,0.2-16.4,0.4-24.6,0.9c-17.5,1.2-38.3,3.2-52.2,14.9
			c-6.7,5.6-9.1,14.9-7.6,23.7c4,23,67.9,22.8,88.1,22.8c15.5,0,80.2-1.8,97.1-1.8C270.9,271.3,274.1,223,219,212.1z"/>
		<g>
			<g>
				<g>
					
						<path fill="#FCECDB" stroke="#315A8D" stroke-width="2.39" stroke-linecap="round" stroke-linejoin="round" stroke-miterlimit="10" d="
						M104.3,157.6c-4.2,10.6-11.4,34.4-2.4,55.2c-7.3,8.8-16.7,17.9-16.7,17.9s-0.2,5.7,7.3,6.4c7.5,0.7,28.2-13.2,35.1-20.6
						c11-0.3,24-2.7,24-2.7s36.5,6.6,44.7,7.6c4.7-1.6,2.2-12.4-2.1-13.6c-4.2-1.2-18.8-8.8-18.8-8.8s6.2-9.5-0.2-22.4
						c-6.4-12.9-3-11.2-3-11.2s24.1,4.9,29.6,2.7c5.5-2.2,13.5-12.4-0.1-13c-12-1.8-62-10.8-62-10.8l-61.1-8.5c0,0-12.5-4.5-5.8,9.4
						c3,6.3,19.6,10.4,19.6,10.4L104.3,157.6z"/>
					
						<path fill="#E9C093" stroke="#315A8D" stroke-width="2.39" stroke-linecap="round" stroke-linejoin="round" stroke-miterlimit="10" d="
						M178.1,182.5c-2.6,2.2-4.8,8.4-44.6,9.4c-39.7,1.1-35.7-7.6-35.7-7.6c-6.4,8.2-3.4,24.9-3.4,24.9l0.7,11.3l8.3-10l22.8,16.9
						l14.2-6.5c4,3.2,11.5,5.9,11.5,5.9l2-8.3l12.6,2.6l9-22.2c0,0,7.4,5.6,12.5,6.2C186.8,200.9,182,183.2,178.1,182.5z"/>
					<g>
						<g>
							<path fill="#315A8D" d="M157.2,166.6c-0.1,0.9-0.9,1.6-1.8,1.5c-0.9-0.1-1.6-0.9-1.5-1.8c0.1-0.9,0.9-1.6,1.8-1.5
								C156.6,164.9,157.3,165.7,157.2,166.6z"/>
						</g>
						<g>
							<path fill="#315A8D" d="M116.4,162.7c-0.1,0.9-0.9,1.6-1.8,1.5c-0.9-0.1-1.6-0.9-1.5-1.8c0.1-0.9,0.9-1.6,1.8-1.5
								C115.8,161,116.5,161.8,116.4,162.7z"/>
						</g>
					</g>
					
						<path fill="#FCECDB" stroke="#315A8D" stroke-width="2.39" stroke-linecap="round" stroke-linejoin="round" stroke-miterlimit="10" d="
						M92.7,232.4c0,0-4.3-4.7-6-3"/>
					
						<path fill="#FCECDB" stroke="#315A8D" stroke-width="2.39" stroke-linecap="round" stroke-linejoin="round" stroke-miterlimit="10" d="
						M194,213.5c0,0-1.1-6.4,0.3-5.6"/>
					
						<path fill="#FCECDB" stroke="#315A8D" stroke-width="2.39" stroke-linecap="round" stroke-linejoin="round" stroke-miterlimit="10" d="
						M198.5,160.3c0,0-0.2-5.5,2.3-5.3c2.5,0.3,2.4,2.5,2.4,2.5"/>
				</g>
				<g>
					
						<path fill="#FFF1C2" stroke="#315A8D" stroke-width="2.39" stroke-linecap="round" stroke-linejoin="round" stroke-miterlimit="10" d="
						M222.4,89.6c2.4,41.5-30.1,65.1-71.6,67.5c-41.5,2.3-76.4-17.5-78.7-59c-2.4-41.5,29.4-77.1,70.9-79.4
						C184.5,16.3,220,48.1,222.4,89.6z"/>
					<g>
						<path fill="#E9C093" d="M160.3,26.3c0.2,2.8-2,5.2-4.8,5.4c-2.8,0.2-5.2-2-5.4-4.8c-0.2-2.8,2-5.2,4.8-5.4
							C157.8,21.4,160.2,23.5,160.3,26.3z"/>
						<path fill="#E9C093" d="M147.3,56.6c0.2,2.8-2,5.2-4.8,5.4c-2.8,0.2-5.2-2-5.4-4.8c-0.2-2.8,2-5.2,4.8-5.4
							C144.7,51.6,147.1,53.7,147.3,56.6z"/>
						<path fill="#E9C093" d="M111.9,41.3c0.2,2.8-2,5.2-4.8,5.4c-2.8,0.2-5.2-2-5.4-4.8c-0.2-2.8,2-5.2,4.8-5.4
							C109.4,36.3,111.8,38.4,111.9,41.3z"/>
						<path fill="#E9C093" d="M89.6,70.1c0.2,2.8-2,5.2-4.8,5.4s-5.2-2-5.4-4.8c-0.2-2.8,2-5.2,4.8-5.4C87,65.1,89.4,67.3,89.6,70.1
							z"/>
						<path fill="#E9C093" d="M176.1,76.9c0.2,2.8-2,5.2-4.8,5.4c-2.8,0.2-5.2-2-5.4-4.8c-0.2-2.8,2-5.2,4.8-5.4
							C173.6,71.9,176,74.1,176.1,76.9z"/>
						<path fill="#E9C093" d="M203.8,92.5c0.2,2.8-2,5.2-4.8,5.4c-2.8,0.2-5.2-2-5.4-4.8c-0.2-2.8,2-5.2,4.8-5.4
							C201.2,87.5,203.6,89.7,203.8,92.5z"/>
						<path fill="#E9C093" d="M205.6,56.4c0.2,2.8-2,5.2-4.8,5.4c-2.8,0.2-5.2-2-5.4-4.8c-0.2-2.8,2-5.2,4.8-5.4
							C203,51.5,205.4,53.6,205.6,56.4z"/>
						<path fill="#E9C093" d="M209.3,122.1c0.2,2.8-2,5.2-4.8,5.4c-2.8,0.2-5.2-2-5.4-4.8c-0.2-2.8,2-5.2,4.8-5.4
							C206.7,117.2,209.2,119.3,209.3,122.1z"/>
						<path fill="#E9C093" d="M128.8,79.6c0.2,2.8-2,5.2-4.8,5.4c-2.8,0.2-5.2-2-5.4-4.8c-0.2-2.8,2-5.2,4.8-5.4
							C126.2,74.6,128.6,76.8,128.8,79.6z"/>
						<path fill="#E9C093" d="M87.2,103.6c0.2,2.8-2,5.2-4.8,5.4c-2.8,0.2-5.2-2-5.4-4.8c-0.2-2.8,2-5.2,4.8-5.4
							C84.7,98.6,87.1,100.8,87.2,103.6z"/>
					</g>
					<g>
						<path fill="#FCECDB" d="M140.7,157.8c-1.4,0-2.8,0-4.2,0c-15.8-0.3-30.6-5-41.7-13.2c-10-7.4-16-17.1-16-25.8
							c0-10.3,4.1-25,15.4-33c9.9-5.8,17-7.3,27.5-8.1c2-0.2,4.1-0.2,6.1-0.2c27.8,0,49.6,14.2,56.2,24.3c0,0.1,0.1,0.1,0.1,0.2
							c1.5,3.4,2.4,9.6,2.4,9.9c2.2,15.8,0.1,27.1-6.3,34.4C173.3,154.2,161,157.8,140.7,157.8C140.7,157.8,140.7,157.8,140.7,157.8
							z"/>
						<path fill="#315A8D" d="M127.9,78.6c26,0,48.3,13.2,55.2,23.8c1.2,2.8,2.1,7.8,2.3,9.6c4.9,36.2-12.8,44.7-44.8,44.7
							c-1.4,0-2.8,0-4.2,0c-34-0.7-56.5-21.4-56.5-37.8c0-10.5,4.2-24.5,14.9-32c9.3-5.5,16.1-7,26.9-7.9
							C123.9,78.7,125.9,78.6,127.9,78.6 M127.9,76.2c-2.1,0-4.2,0.1-6.2,0.2c-10.7,0.9-17.9,2.4-27.9,8.2c-0.1,0-0.1,0.1-0.2,0.1
							c-11.7,8.2-15.9,23.4-15.9,34c0,9.1,6.1,19.1,16.4,26.7c11.3,8.3,26.3,13.1,42.4,13.5c1.4,0,2.9,0,4.2,0
							c20.8,0,33.3-3.7,40.5-12.1c6.6-7.6,8.8-19.2,6.6-35.3c0-0.3-0.9-6.7-2.5-10.2c-0.1-0.1-0.1-0.2-0.2-0.3
							c-3.9-6-11.7-12.1-21.4-16.7C155.9,80.7,143.3,76.2,127.9,76.2L127.9,76.2z"/>
					</g>
					<g>
						<path fill="#E9C093" d="M82.5,102.1c-2.3,0-3.8-0.7-4.5-1.9c-0.8-1.5-0.3-3.4,1.5-5.9c6.6-9.4,19.3-11.3,19.8-11.4
							c0.1,0,0.1,0,0.2,0c0.6,0,1.1,0.4,1.2,1c0.1,0.4,1.6,9.4-8.5,15.7C90.1,100.8,85.7,102.1,82.5,102.1z"/>
						<path fill="#315A8D" d="M99.5,84c0,0,1.6,8.6-8,14.5c-1.8,1.1-6,2.3-9,2.3c-3.2,0-5.2-1.4-2-5.9C86.9,85.9,99.5,84,99.5,84
							 M99.5,81.6c-0.1,0-0.2,0-0.3,0c-0.6,0.1-13.7,2.1-20.6,11.9c-0.8,1.1-3,4.3-1.6,7.1c0.6,1.2,2.1,2.6,5.6,2.6
							c3.5,0,8.1-1.4,10.3-2.7c0,0,0,0,0.1,0c10.8-6.7,9.1-16.6,9-17C101.6,82.4,100.6,81.6,99.5,81.6L99.5,81.6z"/>
					</g>
					<g>
						<defs>
							<path id="SVGID_195_" d="M136.5,156.6c34.5,0.7,54.1-6.9,48.9-44.6c-0.2-1.7-1.1-6.8-2.3-9.6c-7.5-11.4-32.7-25.8-61.3-23.5
								c-10.8,0.9-17.5,2.4-26.9,7.9c-10.7,7.5-14.9,21.6-14.9,32C80,135.3,102.5,155.9,136.5,156.6z"/>
						</defs>
						<clipPath id="SVGID_2_">
							<use xlink:href="#SVGID_195_"  overflow="visible"/>
						</clipPath>
						<g clip-path="url(#SVGID_2_)">
							<path fill="#F2C5D8" d="M188.2,133.4c0.5,8.8-6.2,16.4-15.1,16.9c-8.8,0.5-16.4-6.2-16.9-15.1c-0.5-8.8,6.3-16.4,15.1-16.9
								C180.1,117.8,187.7,124.6,188.2,133.4z"/>
							<path fill="#F2C5D8" d="M100.7,136.5c0.5,8.8-6.2,16.4-15.1,16.9c-8.8,0.5-16.4-6.2-16.9-15.1c-0.5-8.8,6.3-16.4,15.1-16.9
								C92.7,120.9,100.3,127.6,100.7,136.5z"/>
						</g>
					</g>
					<g>
						
							<path fill="none" stroke="#315A8D" stroke-width="2.39" stroke-linecap="round" stroke-linejoin="round" stroke-miterlimit="10" d="
							M129.2,125.3c0,0,7.5,0.6,7.1-1.9"/>
						
							<path fill="#F2C5D8" stroke="#315A8D" stroke-width="2.39" stroke-linecap="round" stroke-linejoin="round" stroke-miterlimit="10" d="
							M124.5,117.5c-0.2,2.9-1.9,3.9-4.8,3.7c-1.9-0.2-5.1-1.6-4.9-4.5c0.2-2.9,2.8-5,5.7-4.8C123.3,112.1,124.7,114.6,124.5,117.5z
							"/>
						<g>
							<path fill="#315A8D" d="M151.6,107.9c0,0,4.9,0.5,6.7,5c0.7,2.5,0.7,4.3-1.4,3.5c-2.1-0.9-3-2.4-7.6-3.2c-1.4,0-3-1.6-2.6-3
								C146.9,109.1,148.6,107.4,151.6,107.9z"/>
							<path fill="#315A8D" d="M101.8,103.8c0,0-4.2-0.7-6.6,2.6c-1.2,1.9-1.5,3.4,0.4,3.2c1.9-0.2,3-1.3,7-0.9
								c1.2,0.3,2.9-0.6,2.9-1.9C105.4,105.9,104.4,104.1,101.8,103.8z"/>
						</g>
					</g>
				</g>
			</g>
			<g>
				
					<path fill="#F2C5D8" stroke="#315A8D" stroke-width="2.39" stroke-linecap="round" stroke-linejoin="round" stroke-miterlimit="10" d="
					M204.8,41.1c0,0,13.1-23.7,0.2-36.2c-12.9-12.5-69.5,10.3-52.7,16.2C169.2,27.1,204.8,41.1,204.8,41.1z"/>
				
					<path fill="#FFFFFF" stroke="#315A8D" stroke-width="2.39" stroke-linecap="round" stroke-linejoin="round" stroke-miterlimit="10" d="
					M211.5,41.1c0,0.2,1.4,10.2-5.4,7.9c-5.1-1.8-57.2-22.8-57.2-22.8s-9.7-3.8-5.4-9.9c4.3-6.1,11.8-2.3,17-0.7
					C168,17.8,210.9,28.8,211.5,41.1z"/>
				
					<polyline fill="#F2C5D8" stroke="#315A8D" stroke-width="2.39" stroke-linecap="round" stroke-linejoin="round" stroke-miterlimit="10" points="
					205.9,5.7 219,23.6 204.6,18.7 				"/>
				
					<path fill="#FFFFFF" stroke="#315A8D" stroke-width="2.39" stroke-linecap="round" stroke-linejoin="round" stroke-miterlimit="10" d="
					M213.6,21.7c-0.8,2.5,0.5,5.3,3,6.1c2.5,0.9,5.3-0.5,6.1-3c0.8-2.5-0.5-5.3-3-6.1C217.2,17.9,214.4,19.2,213.6,21.7z"/>
			</g>
			<g>
				
					<path fill="#FFFFFF" stroke="#315A8D" stroke-width="2.39" stroke-linecap="round" stroke-linejoin="round" stroke-miterlimit="10" d="
					M72.1,148.3c0.7,1.2,2.2,1.5,3.3,0.9l0.6-0.3c1.2-0.7,1.5-2.2,0.9-3.3l-21.1-35.7c-0.7-1.2-2.2-1.5-3.3-0.9l-0.6,0.3
					c-1.2,0.7-1.5,2.2-0.8,3.3L72.1,148.3z"/>
				
					<path fill="#F2C5D8" stroke="#315A8D" stroke-width="2.39" stroke-linecap="round" stroke-linejoin="round" stroke-miterlimit="10" d="
					M54.4,112.9c-3.2,8.9-15.1-6.6-2.2-8.5c13.1-2.8,14.2,20.5,1.4,23.8c-12.8,3.3-23.5-10-20.5-21.7c8.9-31.3,56.3-0.1,28.6,16.2"
					/>
				
					<path fill="#FFFFFF" stroke="#315A8D" stroke-width="2.39" stroke-linecap="round" stroke-linejoin="round" stroke-miterlimit="10" d="
					M59.7,106.3c-2.2-3.7-9.9-1.3-9.9-1.3s0.1-6.3,0.2-11.9c6.4,0.3,12.8,3.8,16.7,8.5C64.2,103.4,61.6,105.3,59.7,106.3z"/>
				
					<path fill="#FFFFFF" stroke="#315A8D" stroke-width="2.39" stroke-linecap="round" stroke-linejoin="round" stroke-miterlimit="10" d="
					M33.1,114.5l13.4-3.8l3.5,4.5l-2.8,13.2C40.2,127.3,34.7,121.4,33.1,114.5z"/>
				
					<polygon fill="#FFFFFF" stroke="#315A8D" stroke-width="2.39" stroke-linecap="round" stroke-linejoin="round" stroke-miterlimit="10" points="
					61.7,117.9 54.9,113.8 54.6,112.7 61.8,109.7 				"/>
			</g>
		</g>
		
			<path fill="#FFFFFF" stroke="#315A8D" stroke-width="2.39" stroke-linecap="round" stroke-linejoin="round" stroke-miterlimit="10" d="
			M7.5,239.4c4.9-2.4,12-2.3,16.3,1c0.4,0.3,0.8,0.7,1,1.1c3.7,3.9,2.4,11.1-3.6,13.6c-2.5,1.1-5.4,1.1-8.1,1.1
			c-2.8,0-6.6-0.2-8.8-2.2c-2.2-2-3.7-5.2-2.9-8.2C2.2,242.6,4.6,240.8,7.5,239.4z"/>
		
			<path fill="#FFFFFF" stroke="#315A8D" stroke-width="2.39" stroke-linecap="round" stroke-linejoin="round" stroke-miterlimit="10" d="
			M294.5,231.8c2.8-2.5,8.9-3.9,14.4-2.8c0.5,0.1,1,0.3,1.4,0.4c5.1,1.6,7.9,6.3,4.2,9.1c-1.5,1.2-4,1.9-6.3,2.4
			c-2.4,0.6-5.7,1.3-8.6,0.6c-3-0.8-5.9-2.4-6.8-4.4C291.8,234.9,292.9,233.2,294.5,231.8z"/>
		
			<path fill="#FFFFFF" stroke="#315A8D" stroke-width="2.39" stroke-linecap="round" stroke-linejoin="round" stroke-miterlimit="10" d="
			M270.7,244.2c2.8-2.5,8.9-3.9,14.4-2.8c0.6,0.1,1,0.3,1.4,0.4c5.1,1.6,7.9,6.3,4.2,9.1c-1.5,1.2-4,1.9-6.3,2.4
			c-2.4,0.6-5.7,1.3-8.6,0.6c-3-0.8-5.9-2.4-6.8-4.4C268,247.3,269.1,245.7,270.7,244.2z"/>
		
			<path fill="#FFFFFF" stroke="#315A8D" stroke-width="2.39" stroke-linecap="round" stroke-linejoin="round" stroke-miterlimit="10" d="
			M71.9,247.6c0,0,12.4-3.9,17.7,7c9.9-8.8,22.3-2.2,22.3-2.2"/>
		
			<path fill="#FFFFFF" stroke="#315A8D" stroke-width="2.39" stroke-linecap="round" stroke-linejoin="round" stroke-miterlimit="10" d="
			M186.5,245.7c0,0,7.5-2.4,10.8,4.2c6-5.4,13.6-1.3,13.6-1.3"/>
		<g>
			
				<text transform="matrix(0.9992 4.057985e-002 -4.057985e-002 0.9992 229.2773 137.2021)" fill="#315A8D" font-family="'CandyShopBlack'" font-size="18">Mm~</text>
		</g>
	</g>
</g>
<g id="圖層_6">
</g>
<g id="圖層_1" display="none">
</g>
<g id="其他">
</g>
<g id="圖層_2">
</g>
</svg>
