<?xml version="1.0" encoding="utf-8"?>
<!-- Generator: Adobe Illustrator 16.0.0, SVG Export Plug-In . SVG Version: 6.00 Build 0)  -->
<!DOCTYPE svg PUBLIC "-//W3C//DTD SVG 1.1//EN" "http://www.w3.org/Graphics/SVG/1.1/DTD/svg11.dtd">
<svg version="1.1" xmlns="http://www.w3.org/2000/svg" xmlns:xlink="http://www.w3.org/1999/xlink" x="0px" y="0px" width="353px"
	 height="304.7px" viewBox="0 0 353 304.7" enable-background="new 0 0 353 304.7" xml:space="preserve">
<g id="bg">
</g>
<g id="info">
	<g>
		<g>
			<g>
				<g>
					<path fill="none" stroke="#315A8D" stroke-width="9.5602" stroke-linecap="round" stroke-linejoin="round" d="M53,22.5
						c-0.2-1-0.3-2-0.4-3c-0.2-1.9-0.3-3.5-0.3-4.9c0-5.5,1.7-8.2,5.1-8.2H58C61.8,6.8,66.6,7,72.5,7h4.6c3.8,0,6.5,0,8.2-0.1
						c2.7,0,4.9,0.1,6.6,0.3c2.2,0.2,3.5,0.5,3.9,0.8c0.9,0.6,1.3,1.9,1.3,4l0.1,2.2c0,1,0.2,3.8,0.4,8.3l0.1,2.1
						c0,1.3-0.7,2.2-2,2.5c-0.4,0.1-0.9,0.2-1.4,0.2c-0.7,0-1.4-0.1-2-0.4c-1.9-0.7-3.3-1.1-4.4-1.1c-1.3,0-2.4,0.2-3.3,0.6
						c-1.2,0.6-1.8,1.4-1.8,2.5l0.3,16L83.3,58c0,1.9-0.4,3.2-1.2,4c-1,1-2.5,1.4-4.6,1.4c-1.3,0-2.8-0.2-4.4-0.5
						c-2.4-0.4-4-1.2-4.8-2.2c-0.5-0.5-0.7-1.1-0.7-1.9c0-0.7,0.1-1.5,0.4-2.5c1.5-5.8,2.2-12.6,2.2-20.1c0-2.2-0.1-4-0.4-5.3
						c-0.2-1.2-0.7-1.9-1.4-2.3c-0.7-0.3-1.8-0.5-3.3-0.5l-2.2,0.1l-2.2,0.1l-3.3-0.4C56.5,28,56,28,55.8,27.9
						c-1.7-0.5-2.5-1.7-2.5-3.5C53.3,24.1,53.2,23.5,53,22.5z"/>
					<path fill="none" stroke="#315A8D" stroke-width="9.5602" stroke-linecap="round" stroke-linejoin="round" d="M130.8,63.1
						c-1.7-0.1-2.8-0.8-3.4-2.1c-0.3-0.6-0.4-1.4-0.4-2.6l0.1-1.8l0.1-1.4c0-1.4-0.1-2.7-0.4-3.7c-0.2-1.1-0.4-1.7-0.4-2l-0.3-1.7
						c-0.1-0.8-0.5-1.4-1.4-1.8c-1.1-0.5-2.3-0.8-3.4-0.8c-0.3,0-0.5,0-0.6,0.1c-0.8,0.3-1.1,1.3-1.1,2.8l-0.2,2.4
						c-0.2,2.2-0.3,4.1-0.4,5.6c-0.1,3.1-0.3,5.2-0.5,6.2c-0.2,0.5-0.5,0.9-1,1c-0.5,0.2-1.2,0.3-2.3,0.3h-1.5c-2,0-3.9-0.1-5.6-0.3
						c-2.6-0.3-4.6-0.8-6-1.4c-0.6-0.4-0.9-0.7-0.9-1v-0.1c0.1-1.8,0.3-3.5,0.6-5.3c0.9-6.7,1.4-14.9,1.7-24.6
						c0.1-1.9,0.1-4.9,0.1-9.1c0-4.4,0-7.8-0.1-10.2v-0.3c0-1.5,0.6-2.6,1.7-3.4c1.2-0.9,3.5-1.4,6.8-1.4h2c0.4,0.1,0.9,0.1,1.4,0.1
						c2,0.1,3.4,0.6,4.1,1.5c1.2,1.3,1.8,2.7,1.8,4.1c0,0.4,0,0.7-0.1,0.9c-0.7,5.3-1,8.7-1,10.1c0,0.8,0,1.4,0.1,1.7
						c0.3,3.1,1.6,4.7,3.9,4.8h1.1c1,0,1.8-0.1,2.3-0.2c0.6-0.1,1-0.6,1.3-1.4c0.1-0.6,0.2-1.4,0.2-2.5v-1.1l-0.1-2.9l0.1-3.9v-0.9
						c0-0.9-0.1-1.8-0.2-2.7c-0.1-0.8-0.2-1.5-0.2-2.2c0-1.6,0.4-2.8,1.2-3.8c0.7-0.9,2-1.3,3.9-1.3c0.5,0,1.2,0.1,2.1,0.1
						c2.8,0.3,4.9,0.6,6.4,0.9c0.9,0.2,1.4,0.4,1.4,0.6c0.4,0.6,0.6,1.9,0.6,3.9c0,1.1-0.1,2.5-0.2,4.2l-0.3,3l-0.5,5.6l-0.6,7.2
						l-0.7,8l-1.9,21c0,1.1-1.5,1.8-4.4,2l-1.6,0.1l-1.6-0.1L130.8,63.1z"/>
					<path fill="none" stroke="#315A8D" stroke-width="9.5602" stroke-linecap="round" stroke-linejoin="round" d="M189.6,59.8
						c0,0.4-0.2,0.8-0.6,1.1c-0.7,0.6-1.7,1.2-3.1,1.6c-0.9,0.3-1.5,0.4-1.8,0.5c-2.1,0.2-3.6,0.4-4.3,0.4l-1.1-0.1
						c-0.4,0-0.8,0-1.1-0.1c-0.3-0.1-0.5-0.1-0.6-0.1c-2.4-0.6-3.6-2.2-3.6-4.8c0-0.6,0.1-1.2,0.2-1.9c0.3-1.3,0.4-2.5,0.4-3.6
						c0-0.7-0.1-1.4-0.3-2.3c-0.5-1.8-1.3-2.6-2.5-2.6c-0.8,0-1.6,0.4-2.4,1.1c-1,0.9-2.1,2.5-3.3,4.8c-1,2-2.1,3.8-3.4,5.3
						c-1.3,1.5-2.5,2.4-3.5,2.6c-0.5,0.1-0.8,0.1-1.1,0.1c-1.2,0-2.9-0.5-5-1.6c-1.1-0.6-1.9-1.1-2.4-1.4c0,0-0.3-0.2-0.7-0.5
						c-0.4-0.3-0.7-0.6-0.9-0.9c-0.2-0.3-0.3-0.6-0.3-1l-0.1-0.6c0-0.5,0.2-1.4,0.5-2.9c0.3-1.3,1-3.6,2.1-7l6.6-20.3l2.9-9.6
						c0.6-2,1-3.4,1.4-4.3c0.5-1.4,1.1-2.5,1.6-3.4c0.3-0.5,0.6-0.8,0.8-1c0.3-0.2,0.7-0.3,1.3-0.5c0.9-0.1,2.3-0.3,4.3-0.4
						c1.2,0,2.3,0,3.3-0.1h1.2h1.6h2.6l1.8,0.2l0.3,0.1c0.9,0.2,1.7,0.7,2.3,1.6c0.6,0.9,1,2,1,3.5v0.6c-0.1,1.3-0.1,2.4-0.1,3.1
						c0,3.9,0.7,10,2.2,18.4c1,5.2,1.6,8.6,1.9,10.2c0.6,3.4,1,6.2,1,8.3c0,0.2,0,0.9,0.1,1.9l0.3,2.4l0.2,2.2
						C189.5,59.1,189.6,59.4,189.6,59.8z M176,26.6c0-0.8-0.1-1.5-0.2-2.1c-0.2-0.9-0.7-1.5-1.5-1.6h-0.1c-0.9,0-2,0.8-3.2,2.4
						c-0.7,0.8-1.3,1.9-1.9,3.2c-0.6,1.3-0.9,2.5-0.9,3.4v0.5c0.3,2.1,1.3,3.3,2.9,3.4h0.2c0.7,0,1.4-0.3,2.1-1
						c0.7-0.7,1.2-1.6,1.6-2.9C175.7,30,176,28.2,176,26.6z"/>
					<path fill="none" stroke="#315A8D" stroke-width="9.5602" stroke-linecap="round" stroke-linejoin="round" d="M194.1,22.5
						c-0.2-1-0.3-2-0.4-3c-0.2-1.9-0.3-3.5-0.3-4.9c0-5.5,1.7-8.2,5.1-8.2h0.6c3.8,0.4,8.6,0.6,14.5,0.6h4.6c3.8,0,6.5,0,8.2-0.1
						c2.7,0,4.9,0.1,6.6,0.3c2.2,0.2,3.5,0.5,3.9,0.8c0.9,0.6,1.3,1.9,1.3,4l0.1,2.2c0,1,0.2,3.8,0.4,8.3l0.1,2.1
						c0,1.3-0.7,2.2-2,2.5c-0.4,0.1-0.9,0.2-1.4,0.2c-0.7,0-1.4-0.1-2-0.4c-1.9-0.7-3.3-1.1-4.4-1.1c-1.3,0-2.4,0.2-3.3,0.6
						c-1.2,0.6-1.8,1.4-1.8,2.5l0.3,16l0.2,13.1c0,1.9-0.4,3.2-1.2,4c-1,1-2.5,1.4-4.6,1.4c-1.3,0-2.8-0.2-4.4-0.5
						c-2.4-0.4-4-1.2-4.9-2.2c-0.5-0.5-0.7-1.1-0.7-1.9c0-0.7,0.1-1.5,0.4-2.5c1.5-5.8,2.2-12.6,2.2-20.1c0-2.2-0.1-4-0.4-5.3
						c-0.2-1.2-0.7-1.9-1.4-2.3c-0.7-0.3-1.8-0.5-3.3-0.5l-2.2,0.1l-2.2,0.1l-3.3-0.4c-0.8-0.1-1.3-0.2-1.5-0.2
						c-1.7-0.5-2.5-1.7-2.5-3.5C194.3,24.1,194.2,23.5,194.1,22.5z"/>
					<path fill="none" stroke="#315A8D" stroke-width="9.5602" stroke-linecap="round" stroke-linejoin="round" d="M252.8,11.2
						c0,0.8-0.4,1.9-1.2,3.3l-1.4,2.4c-1.7,2.9-3.1,4.6-4.3,5.1c-0.4,0.2-0.8,0.3-1.2,0.3c-0.4,0-0.7-0.1-1.1-0.2
						c-1-0.4-1.5-1.2-1.5-2.4c0-0.6,0.1-1.2,0.3-1.8c0.6-1.2,1.1-2.7,1.7-4.5c0.3-1.1,0.6-1.8,0.7-2c0.8-1.5,1.9-2.2,3.5-2.2
						c0.4,0,0.8,0,1,0.1c1.1,0.1,1.9,0.3,2.5,0.6C252.5,10,252.8,10.5,252.8,11.2z"/>
					<path fill="none" stroke="#315A8D" stroke-width="9.5602" stroke-linecap="round" stroke-linejoin="round" d="M299.6,44.6
						c-0.6,7.1-3.4,12.3-8.4,15.5c-3.5,2.2-7.8,3.4-13,3.4c-2.8,0-5.7-0.3-8.6-0.9c-4.3-0.8-7.8-2.5-10.6-5.1
						c-2.2-2-3.3-4.2-3.3-6.5c0-0.5,0-1,0.1-1.3v-1.7c0.1-1.8,0.1-2.8,0.1-3c0-3.1,1-4.6,3.1-4.6c1.2,0,2.9,0.5,4.9,1.6
						c0.3,0.1,1.7,1.3,4,3.4c2.3,2.1,3.7,3.3,4,3.4c1.5,0.7,3.1,1.1,4.6,1.1c2.5,0,4.1-1.2,4.6-3.5c0.1-0.6,0.1-1,0.1-1.3
						c0-1.6-0.8-3-2.3-4.2c-1.1-0.9-2.7-1.6-4.6-2.2c-0.2,0-0.8-0.3-1.9-0.7l-2.8-1.1l-4.6-1.9c-4.1-1.4-6.1-5-6.1-10.8
						c0-1,0-1.8,0.1-2.3c0.4-6,3.1-10.1,7.9-12.3c4-1.9,8.2-3,12.5-3.1c0.8,0,1.5,0,2.1,0.1c3.7,0.1,6,0.2,6.8,0.2
						c1.2,0,2.4-0.1,3.6-0.2c0.2,0,0.5-0.1,0.9-0.1c1.3,0,2.4,0.4,3.4,1.2c0.9,0.9,1.9,2.4,2.9,4.5c1,2.2,1.5,4,1.5,5.5
						c0,1.3-0.4,2.4-1.1,3.2c-1.2,1.5-3.2,2.2-6,2.2c-2.4,0-4.2-0.4-5.4-1.2c-1.2-0.8-2.9-1.1-5-1.1c-1.7,0-2.9,0.3-3.6,0.9
						c-0.8,0.6-1.3,1.6-1.6,2.9c0,0.2-0.1,0.5-0.1,0.9c0,2.1,1.8,3.8,5.3,5.1c1.3,0.5,3.2,1.1,5.5,1.8c4.7,1.4,7.9,3.5,9.6,6.1
						c0.9,1.2,1.4,2.9,1.4,5L299.6,44.6z"/>
				</g>
				<g>
					<path fill="#FFFFFF" d="M53,22.5c-0.2-1-0.3-2-0.4-3c-0.2-1.9-0.3-3.5-0.3-4.9c0-5.5,1.7-8.2,5.1-8.2H58
						C61.8,6.8,66.6,7,72.5,7h4.6c3.8,0,6.5,0,8.2-0.1c2.7,0,4.9,0.1,6.6,0.3c2.2,0.2,3.5,0.5,3.9,0.8c0.9,0.6,1.3,1.9,1.3,4
						l0.1,2.2c0,1,0.2,3.8,0.4,8.3l0.1,2.1c0,1.3-0.7,2.2-2,2.5c-0.4,0.1-0.9,0.2-1.4,0.2c-0.7,0-1.4-0.1-2-0.4
						c-1.9-0.7-3.3-1.1-4.4-1.1c-1.3,0-2.4,0.2-3.3,0.6c-1.2,0.6-1.8,1.4-1.8,2.5l0.3,16L83.3,58c0,1.9-0.4,3.2-1.2,4
						c-1,1-2.5,1.4-4.6,1.4c-1.3,0-2.8-0.2-4.4-0.5c-2.4-0.4-4-1.2-4.8-2.2c-0.5-0.5-0.7-1.1-0.7-1.9c0-0.7,0.1-1.5,0.4-2.5
						c1.5-5.8,2.2-12.6,2.2-20.1c0-2.2-0.1-4-0.4-5.3c-0.2-1.2-0.7-1.9-1.4-2.3c-0.7-0.3-1.8-0.5-3.3-0.5l-2.2,0.1l-2.2,0.1
						l-3.3-0.4C56.5,28,56,28,55.8,27.9c-1.7-0.5-2.5-1.7-2.5-3.5C53.3,24.1,53.2,23.5,53,22.5z"/>
					<path fill="#FFFFFF" d="M130.8,63.1c-1.7-0.1-2.8-0.8-3.4-2.1c-0.3-0.6-0.4-1.4-0.4-2.6l0.1-1.8l0.1-1.4c0-1.4-0.1-2.7-0.4-3.7
						c-0.2-1.1-0.4-1.7-0.4-2l-0.3-1.7c-0.1-0.8-0.5-1.4-1.4-1.8c-1.1-0.5-2.3-0.8-3.4-0.8c-0.3,0-0.5,0-0.6,0.1
						c-0.8,0.3-1.1,1.3-1.1,2.8l-0.2,2.4c-0.2,2.2-0.3,4.1-0.4,5.6c-0.1,3.1-0.3,5.2-0.5,6.2c-0.2,0.5-0.5,0.9-1,1
						c-0.5,0.2-1.2,0.3-2.3,0.3h-1.5c-2,0-3.9-0.1-5.6-0.3c-2.6-0.3-4.6-0.8-6-1.4c-0.6-0.4-0.9-0.7-0.9-1v-0.1
						c0.1-1.8,0.3-3.5,0.6-5.3c0.9-6.7,1.4-14.9,1.7-24.6c0.1-1.9,0.1-4.9,0.1-9.1c0-4.4,0-7.8-0.1-10.2v-0.3c0-1.5,0.6-2.6,1.7-3.4
						c1.2-0.9,3.5-1.4,6.8-1.4h2c0.4,0.1,0.9,0.1,1.4,0.1c2,0.1,3.4,0.6,4.1,1.5c1.2,1.3,1.8,2.7,1.8,4.1c0,0.4,0,0.7-0.1,0.9
						c-0.7,5.3-1,8.7-1,10.1c0,0.8,0,1.4,0.1,1.7c0.3,3.1,1.6,4.7,3.9,4.8h1.1c1,0,1.8-0.1,2.3-0.2c0.6-0.1,1-0.6,1.3-1.4
						c0.1-0.6,0.2-1.4,0.2-2.5v-1.1l-0.1-2.9l0.1-3.9v-0.9c0-0.9-0.1-1.8-0.2-2.7c-0.1-0.8-0.2-1.5-0.2-2.2c0-1.6,0.4-2.8,1.2-3.8
						c0.7-0.9,2-1.3,3.9-1.3c0.5,0,1.2,0.1,2.1,0.1c2.8,0.3,4.9,0.6,6.4,0.9c0.9,0.2,1.4,0.4,1.4,0.6c0.4,0.6,0.6,1.9,0.6,3.9
						c0,1.1-0.1,2.5-0.2,4.2l-0.3,3l-0.5,5.6l-0.6,7.2l-0.7,8l-1.9,21c0,1.1-1.5,1.8-4.4,2l-1.6,0.1l-1.6-0.1L130.8,63.1z"/>
					<path fill="#FFFFFF" d="M189.6,59.8c0,0.4-0.2,0.8-0.6,1.1c-0.7,0.6-1.7,1.2-3.1,1.6c-0.9,0.3-1.5,0.4-1.8,0.5
						c-2.1,0.2-3.6,0.4-4.3,0.4l-1.1-0.1c-0.4,0-0.8,0-1.1-0.1c-0.3-0.1-0.5-0.1-0.6-0.1c-2.4-0.6-3.6-2.2-3.6-4.8
						c0-0.6,0.1-1.2,0.2-1.9c0.3-1.3,0.4-2.5,0.4-3.6c0-0.7-0.1-1.4-0.3-2.3c-0.5-1.8-1.3-2.6-2.5-2.6c-0.8,0-1.6,0.4-2.4,1.1
						c-1,0.9-2.1,2.5-3.3,4.8c-1,2-2.1,3.8-3.4,5.3c-1.3,1.5-2.5,2.4-3.5,2.6c-0.5,0.1-0.8,0.1-1.1,0.1c-1.2,0-2.9-0.5-5-1.6
						c-1.1-0.6-1.9-1.1-2.4-1.4c0,0-0.3-0.2-0.7-0.5c-0.4-0.3-0.7-0.6-0.9-0.9c-0.2-0.3-0.3-0.6-0.3-1l-0.1-0.6
						c0-0.5,0.2-1.4,0.5-2.9c0.3-1.3,1-3.6,2.1-7l6.6-20.3l2.9-9.6c0.6-2,1-3.4,1.4-4.3c0.5-1.4,1.1-2.5,1.6-3.4
						c0.3-0.5,0.6-0.8,0.8-1c0.3-0.2,0.7-0.3,1.3-0.5c0.9-0.1,2.3-0.3,4.3-0.4c1.2,0,2.3,0,3.3-0.1h1.2h1.6h2.6l1.8,0.2l0.3,0.1
						c0.9,0.2,1.7,0.7,2.3,1.6c0.6,0.9,1,2,1,3.5v0.6c-0.1,1.3-0.1,2.4-0.1,3.1c0,3.9,0.7,10,2.2,18.4c1,5.2,1.6,8.6,1.9,10.2
						c0.6,3.4,1,6.2,1,8.3c0,0.2,0,0.9,0.1,1.9l0.3,2.4l0.2,2.2C189.5,59.1,189.6,59.4,189.6,59.8z M176,26.6c0-0.8-0.1-1.5-0.2-2.1
						c-0.2-0.9-0.7-1.5-1.5-1.6h-0.1c-0.9,0-2,0.8-3.2,2.4c-0.7,0.8-1.3,1.9-1.9,3.2c-0.6,1.3-0.9,2.5-0.9,3.4v0.5
						c0.3,2.1,1.3,3.3,2.9,3.4h0.2c0.7,0,1.4-0.3,2.1-1c0.7-0.7,1.2-1.6,1.6-2.9C175.7,30,176,28.2,176,26.6z"/>
					<path fill="#FFFFFF" d="M194.1,22.5c-0.2-1-0.3-2-0.4-3c-0.2-1.9-0.3-3.5-0.3-4.9c0-5.5,1.7-8.2,5.1-8.2h0.6
						c3.8,0.4,8.6,0.6,14.5,0.6h4.6c3.8,0,6.5,0,8.2-0.1c2.7,0,4.9,0.1,6.6,0.3c2.2,0.2,3.5,0.5,3.9,0.8c0.9,0.6,1.3,1.9,1.3,4
						l0.1,2.2c0,1,0.2,3.8,0.4,8.3l0.1,2.1c0,1.3-0.7,2.2-2,2.5c-0.4,0.1-0.9,0.2-1.4,0.2c-0.7,0-1.4-0.1-2-0.4
						c-1.9-0.7-3.3-1.1-4.4-1.1c-1.3,0-2.4,0.2-3.3,0.6c-1.2,0.6-1.8,1.4-1.8,2.5l0.3,16l0.2,13.1c0,1.9-0.4,3.2-1.2,4
						c-1,1-2.5,1.4-4.6,1.4c-1.3,0-2.8-0.2-4.4-0.5c-2.4-0.4-4-1.2-4.9-2.2c-0.5-0.5-0.7-1.1-0.7-1.9c0-0.7,0.1-1.5,0.4-2.5
						c1.5-5.8,2.2-12.6,2.2-20.1c0-2.2-0.1-4-0.4-5.3c-0.2-1.2-0.7-1.9-1.4-2.3c-0.7-0.3-1.8-0.5-3.3-0.5l-2.2,0.1l-2.2,0.1
						l-3.3-0.4c-0.8-0.1-1.3-0.2-1.5-0.2c-1.7-0.5-2.5-1.7-2.5-3.5C194.3,24.1,194.2,23.5,194.1,22.5z"/>
					<path fill="#FFFFFF" d="M252.8,11.2c0,0.8-0.4,1.9-1.2,3.3l-1.4,2.4c-1.7,2.9-3.1,4.6-4.3,5.1c-0.4,0.2-0.8,0.3-1.2,0.3
						c-0.4,0-0.7-0.1-1.1-0.2c-1-0.4-1.5-1.2-1.5-2.4c0-0.6,0.1-1.2,0.3-1.8c0.6-1.2,1.1-2.7,1.7-4.5c0.3-1.1,0.6-1.8,0.7-2
						c0.8-1.5,1.9-2.2,3.5-2.2c0.4,0,0.8,0,1,0.1c1.1,0.1,1.9,0.3,2.5,0.6C252.5,10,252.8,10.5,252.8,11.2z"/>
					<path fill="#FFFFFF" d="M299.6,44.6c-0.6,7.1-3.4,12.3-8.4,15.5c-3.5,2.2-7.8,3.4-13,3.4c-2.8,0-5.7-0.3-8.6-0.9
						c-4.3-0.8-7.8-2.5-10.6-5.1c-2.2-2-3.3-4.2-3.3-6.5c0-0.5,0-1,0.1-1.3v-1.7c0.1-1.8,0.1-2.8,0.1-3c0-3.1,1-4.6,3.1-4.6
						c1.2,0,2.9,0.5,4.9,1.6c0.3,0.1,1.7,1.3,4,3.4c2.3,2.1,3.7,3.3,4,3.4c1.5,0.7,3.1,1.1,4.6,1.1c2.5,0,4.1-1.2,4.6-3.5
						c0.1-0.6,0.1-1,0.1-1.3c0-1.6-0.8-3-2.3-4.2c-1.1-0.9-2.7-1.6-4.6-2.2c-0.2,0-0.8-0.3-1.9-0.7l-2.8-1.1l-4.6-1.9
						c-4.1-1.4-6.1-5-6.1-10.8c0-1,0-1.8,0.1-2.3c0.4-6,3.1-10.1,7.9-12.3c4-1.9,8.2-3,12.5-3.1c0.8,0,1.5,0,2.1,0.1
						c3.7,0.1,6,0.2,6.8,0.2c1.2,0,2.4-0.1,3.6-0.2c0.2,0,0.5-0.1,0.9-0.1c1.3,0,2.4,0.4,3.4,1.2c0.9,0.9,1.9,2.4,2.9,4.5
						c1,2.2,1.5,4,1.5,5.5c0,1.3-0.4,2.4-1.1,3.2c-1.2,1.5-3.2,2.2-6,2.2c-2.4,0-4.2-0.4-5.4-1.2c-1.2-0.8-2.9-1.1-5-1.1
						c-1.7,0-2.9,0.3-3.6,0.9c-0.8,0.6-1.3,1.6-1.6,2.9c0,0.2-0.1,0.5-0.1,0.9c0,2.1,1.8,3.8,5.3,5.1c1.3,0.5,3.2,1.1,5.5,1.8
						c4.7,1.4,7.9,3.5,9.6,6.1c0.9,1.2,1.4,2.9,1.4,5L299.6,44.6z"/>
				</g>
				<g>
					<path fill="#FFFFFF" d="M53,22.5c-0.2-1-0.3-2-0.4-3c-0.2-1.9-0.3-3.5-0.3-4.9c0-5.5,1.7-8.2,5.1-8.2H58
						C61.8,6.8,66.6,7,72.5,7h4.6c3.8,0,6.5,0,8.2-0.1c2.7,0,4.9,0.1,6.6,0.3c2.2,0.2,3.5,0.5,3.9,0.8c0.9,0.6,1.3,1.9,1.3,4
						l0.1,2.2c0,1,0.2,3.8,0.4,8.3l0.1,2.1c0,1.3-0.7,2.2-2,2.5c-0.4,0.1-0.9,0.2-1.4,0.2c-0.7,0-1.4-0.1-2-0.4
						c-1.9-0.7-3.3-1.1-4.4-1.1c-1.3,0-2.4,0.2-3.3,0.6c-1.2,0.6-1.8,1.4-1.8,2.5l0.3,16L83.3,58c0,1.9-0.4,3.2-1.2,4
						c-1,1-2.5,1.4-4.6,1.4c-1.3,0-2.8-0.2-4.4-0.5c-2.4-0.4-4-1.2-4.8-2.2c-0.5-0.5-0.7-1.1-0.7-1.9c0-0.7,0.1-1.5,0.4-2.5
						c1.5-5.8,2.2-12.6,2.2-20.1c0-2.2-0.1-4-0.4-5.3c-0.2-1.2-0.7-1.9-1.4-2.3c-0.7-0.3-1.8-0.5-3.3-0.5l-2.2,0.1l-2.2,0.1
						l-3.3-0.4C56.5,28,56,28,55.8,27.9c-1.7-0.5-2.5-1.7-2.5-3.5C53.3,24.1,53.2,23.5,53,22.5z"/>
					<path fill="#FFFFFF" d="M130.8,63.1c-1.7-0.1-2.8-0.8-3.4-2.1c-0.3-0.6-0.4-1.4-0.4-2.6l0.1-1.8l0.1-1.4c0-1.4-0.1-2.7-0.4-3.7
						c-0.2-1.1-0.4-1.7-0.4-2l-0.3-1.7c-0.1-0.8-0.5-1.4-1.4-1.8c-1.1-0.5-2.3-0.8-3.4-0.8c-0.3,0-0.5,0-0.6,0.1
						c-0.8,0.3-1.1,1.3-1.1,2.8l-0.2,2.4c-0.2,2.2-0.3,4.1-0.4,5.6c-0.1,3.1-0.3,5.2-0.5,6.2c-0.2,0.5-0.5,0.9-1,1
						c-0.5,0.2-1.2,0.3-2.3,0.3h-1.5c-2,0-3.9-0.1-5.6-0.3c-2.6-0.3-4.6-0.8-6-1.4c-0.6-0.4-0.9-0.7-0.9-1v-0.1
						c0.1-1.8,0.3-3.5,0.6-5.3c0.9-6.7,1.4-14.9,1.7-24.6c0.1-1.9,0.1-4.9,0.1-9.1c0-4.4,0-7.8-0.1-10.2v-0.3c0-1.5,0.6-2.6,1.7-3.4
						c1.2-0.9,3.5-1.4,6.8-1.4h2c0.4,0.1,0.9,0.1,1.4,0.1c2,0.1,3.4,0.6,4.1,1.5c1.2,1.3,1.8,2.7,1.8,4.1c0,0.4,0,0.7-0.1,0.9
						c-0.7,5.3-1,8.7-1,10.1c0,0.8,0,1.4,0.1,1.7c0.3,3.1,1.6,4.7,3.9,4.8h1.1c1,0,1.8-0.1,2.3-0.2c0.6-0.1,1-0.6,1.3-1.4
						c0.1-0.6,0.2-1.4,0.2-2.5v-1.1l-0.1-2.9l0.1-3.9v-0.9c0-0.9-0.1-1.8-0.2-2.7c-0.1-0.8-0.2-1.5-0.2-2.2c0-1.6,0.4-2.8,1.2-3.8
						c0.7-0.9,2-1.3,3.9-1.3c0.5,0,1.2,0.1,2.1,0.1c2.8,0.3,4.9,0.6,6.4,0.9c0.9,0.2,1.4,0.4,1.4,0.6c0.4,0.6,0.6,1.9,0.6,3.9
						c0,1.1-0.1,2.5-0.2,4.2l-0.3,3l-0.5,5.6l-0.6,7.2l-0.7,8l-1.9,21c0,1.1-1.5,1.8-4.4,2l-1.6,0.1l-1.6-0.1L130.8,63.1z"/>
					<path fill="#FFFFFF" d="M189.6,59.8c0,0.4-0.2,0.8-0.6,1.1c-0.7,0.6-1.7,1.2-3.1,1.6c-0.9,0.3-1.5,0.4-1.8,0.5
						c-2.1,0.2-3.6,0.4-4.3,0.4l-1.1-0.1c-0.4,0-0.8,0-1.1-0.1c-0.3-0.1-0.5-0.1-0.6-0.1c-2.4-0.6-3.6-2.2-3.6-4.8
						c0-0.6,0.1-1.2,0.2-1.9c0.3-1.3,0.4-2.5,0.4-3.6c0-0.7-0.1-1.4-0.3-2.3c-0.5-1.8-1.3-2.6-2.5-2.6c-0.8,0-1.6,0.4-2.4,1.1
						c-1,0.9-2.1,2.5-3.3,4.8c-1,2-2.1,3.8-3.4,5.3c-1.3,1.5-2.5,2.4-3.5,2.6c-0.5,0.1-0.8,0.1-1.1,0.1c-1.2,0-2.9-0.5-5-1.6
						c-1.1-0.6-1.9-1.1-2.4-1.4c0,0-0.3-0.2-0.7-0.5c-0.4-0.3-0.7-0.6-0.9-0.9c-0.2-0.3-0.3-0.6-0.3-1l-0.1-0.6
						c0-0.5,0.2-1.4,0.5-2.9c0.3-1.3,1-3.6,2.1-7l6.6-20.3l2.9-9.6c0.6-2,1-3.4,1.4-4.3c0.5-1.4,1.1-2.5,1.6-3.4
						c0.3-0.5,0.6-0.8,0.8-1c0.3-0.2,0.7-0.3,1.3-0.5c0.9-0.1,2.3-0.3,4.3-0.4c1.2,0,2.3,0,3.3-0.1h1.2h1.6h2.6l1.8,0.2l0.3,0.1
						c0.9,0.2,1.7,0.7,2.3,1.6c0.6,0.9,1,2,1,3.5v0.6c-0.1,1.3-0.1,2.4-0.1,3.1c0,3.9,0.7,10,2.2,18.4c1,5.2,1.6,8.6,1.9,10.2
						c0.6,3.4,1,6.2,1,8.3c0,0.2,0,0.9,0.1,1.9l0.3,2.4l0.2,2.2C189.5,59.1,189.6,59.4,189.6,59.8z M176,26.6c0-0.8-0.1-1.5-0.2-2.1
						c-0.2-0.9-0.7-1.5-1.5-1.6h-0.1c-0.9,0-2,0.8-3.2,2.4c-0.7,0.8-1.3,1.9-1.9,3.2c-0.6,1.3-0.9,2.5-0.9,3.4v0.5
						c0.3,2.1,1.3,3.3,2.9,3.4h0.2c0.7,0,1.4-0.3,2.1-1c0.7-0.7,1.2-1.6,1.6-2.9C175.7,30,176,28.2,176,26.6z"/>
					<path fill="#FFFFFF" d="M194.1,22.5c-0.2-1-0.3-2-0.4-3c-0.2-1.9-0.3-3.5-0.3-4.9c0-5.5,1.7-8.2,5.1-8.2h0.6
						c3.8,0.4,8.6,0.6,14.5,0.6h4.6c3.8,0,6.5,0,8.2-0.1c2.7,0,4.9,0.1,6.6,0.3c2.2,0.2,3.5,0.5,3.9,0.8c0.9,0.6,1.3,1.9,1.3,4
						l0.1,2.2c0,1,0.2,3.8,0.4,8.3l0.1,2.1c0,1.3-0.7,2.2-2,2.5c-0.4,0.1-0.9,0.2-1.4,0.2c-0.7,0-1.4-0.1-2-0.4
						c-1.9-0.7-3.3-1.1-4.4-1.1c-1.3,0-2.4,0.2-3.3,0.6c-1.2,0.6-1.8,1.4-1.8,2.5l0.3,16l0.2,13.1c0,1.9-0.4,3.2-1.2,4
						c-1,1-2.5,1.4-4.6,1.4c-1.3,0-2.8-0.2-4.4-0.5c-2.4-0.4-4-1.2-4.9-2.2c-0.5-0.5-0.7-1.1-0.7-1.9c0-0.7,0.1-1.5,0.4-2.5
						c1.5-5.8,2.2-12.6,2.2-20.1c0-2.2-0.1-4-0.4-5.3c-0.2-1.2-0.7-1.9-1.4-2.3c-0.7-0.3-1.8-0.5-3.3-0.5l-2.2,0.1l-2.2,0.1
						l-3.3-0.4c-0.8-0.1-1.3-0.2-1.5-0.2c-1.7-0.5-2.5-1.7-2.5-3.5C194.3,24.1,194.2,23.5,194.1,22.5z"/>
					<path fill="#FFFFFF" d="M252.8,11.2c0,0.8-0.4,1.9-1.2,3.3l-1.4,2.4c-1.7,2.9-3.1,4.6-4.3,5.1c-0.4,0.2-0.8,0.3-1.2,0.3
						c-0.4,0-0.7-0.1-1.1-0.2c-1-0.4-1.5-1.2-1.5-2.4c0-0.6,0.1-1.2,0.3-1.8c0.6-1.2,1.1-2.7,1.7-4.5c0.3-1.1,0.6-1.8,0.7-2
						c0.8-1.5,1.9-2.2,3.5-2.2c0.4,0,0.8,0,1,0.1c1.1,0.1,1.9,0.3,2.5,0.6C252.5,10,252.8,10.5,252.8,11.2z"/>
					<path fill="#FFFFFF" d="M299.6,44.6c-0.6,7.1-3.4,12.3-8.4,15.5c-3.5,2.2-7.8,3.4-13,3.4c-2.8,0-5.7-0.3-8.6-0.9
						c-4.3-0.8-7.8-2.5-10.6-5.1c-2.2-2-3.3-4.2-3.3-6.5c0-0.5,0-1,0.1-1.3v-1.7c0.1-1.8,0.1-2.8,0.1-3c0-3.1,1-4.6,3.1-4.6
						c1.2,0,2.9,0.5,4.9,1.6c0.3,0.1,1.7,1.3,4,3.4c2.3,2.1,3.7,3.3,4,3.4c1.5,0.7,3.1,1.1,4.6,1.1c2.5,0,4.1-1.2,4.6-3.5
						c0.1-0.6,0.1-1,0.1-1.3c0-1.6-0.8-3-2.3-4.2c-1.1-0.9-2.7-1.6-4.6-2.2c-0.2,0-0.8-0.3-1.9-0.7l-2.8-1.1l-4.6-1.9
						c-4.1-1.4-6.1-5-6.1-10.8c0-1,0-1.8,0.1-2.3c0.4-6,3.1-10.1,7.9-12.3c4-1.9,8.2-3,12.5-3.1c0.8,0,1.5,0,2.1,0.1
						c3.7,0.1,6,0.2,6.8,0.2c1.2,0,2.4-0.1,3.6-0.2c0.2,0,0.5-0.1,0.9-0.1c1.3,0,2.4,0.4,3.4,1.2c0.9,0.9,1.9,2.4,2.9,4.5
						c1,2.2,1.5,4,1.5,5.5c0,1.3-0.4,2.4-1.1,3.2c-1.2,1.5-3.2,2.2-6,2.2c-2.4,0-4.2-0.4-5.4-1.2c-1.2-0.8-2.9-1.1-5-1.1
						c-1.7,0-2.9,0.3-3.6,0.9c-0.8,0.6-1.3,1.6-1.6,2.9c0,0.2-0.1,0.5-0.1,0.9c0,2.1,1.8,3.8,5.3,5.1c1.3,0.5,3.2,1.1,5.5,1.8
						c4.7,1.4,7.9,3.5,9.6,6.1c0.9,1.2,1.4,2.9,1.4,5L299.6,44.6z"/>
				</g>
			</g>
			<g>
				<g>
					<path fill="none" stroke="#315A8D" stroke-width="9.5602" stroke-linecap="round" stroke-linejoin="round" d="M133.2,176.2
						c0,0.7-0.4,1.4-1.2,2.1c-1.2,1.1-3.1,2.2-5.7,3c-1.7,0.5-2.8,0.8-3.3,0.9c-4,0.4-6.6,0.7-7.9,0.7l-2-0.1c-0.8,0-1.5-0.1-2-0.3
						c-0.5-0.2-0.9-0.3-1.2-0.3c-4.4-1.1-6.6-4.1-6.6-9c0-1.1,0.1-2.2,0.4-3.4c0.5-2.5,0.8-4.7,0.8-6.8c0-1.2-0.2-2.6-0.5-4.2
						c-0.9-3.3-2.4-4.9-4.6-4.9c-1.4,0-2.9,0.7-4.5,2c-1.9,1.6-4,4.5-6.1,8.9c-1.8,3.7-3.9,7-6.4,9.8c-2.5,2.8-4.6,4.5-6.5,4.9
						c-0.9,0.2-1.5,0.3-2,0.3c-2.3,0-5.4-1-9.3-3c-2.1-1.1-3.6-2-4.4-2.7c-0.1-0.1-0.5-0.4-1.3-0.9c-0.8-0.5-1.3-1.1-1.7-1.6
						c-0.3-0.5-0.5-1.1-0.6-1.9l-0.1-1.1c0-0.9,0.3-2.6,0.9-5.3c0.5-2.4,1.8-6.7,3.8-13l12.3-37.8L79,94.8c1.1-3.7,1.9-6.4,2.5-8
						c1-2.6,2-4.7,3-6.4c0.5-0.9,1-1.5,1.5-1.8c0.5-0.3,1.3-0.6,2.4-0.9c1.6-0.3,4.3-0.5,8.1-0.7c2.2,0,4.3-0.1,6.2-0.3h2.2h2.9h4.8
						l3.3,0.4l0.5,0.1c1.7,0.4,3.1,1.4,4.3,3c1.2,1.6,1.8,3.8,1.8,6.4V88c-0.2,2.5-0.3,4.4-0.3,5.7c0,7.2,1.4,18.6,4.1,34.2
						c1.8,9.7,2.9,16,3.4,18.9c1.1,6.3,1.8,11.4,1.9,15.5c0,0.4,0.1,1.6,0.3,3.6l0.5,4.4l0.4,4.1
						C133.1,174.9,133.2,175.5,133.2,176.2z M108,114.6c0-1.4-0.1-2.7-0.4-4c-0.4-1.8-1.3-2.7-2.8-2.9h-0.3c-1.7,0-3.7,1.5-6,4.4
						c-1.2,1.5-2.4,3.5-3.4,6c-1.1,2.5-1.6,4.6-1.6,6.4v0.9c0.5,4,2.3,6.1,5.4,6.4h0.4c1.3,0,2.6-0.6,3.8-1.9c1.2-1.3,2.3-3.1,3-5.4
						C107.4,120.8,108,117.5,108,114.6z"/>
					<path fill="none" stroke="#315A8D" stroke-width="9.5602" stroke-linecap="round" stroke-linejoin="round" d="M216.6,157.1
						c0.3,2.1,0.6,4.2,0.7,6.4c0.3,1.4,0.4,2.7,0.4,4c0,0.6-0.1,1.5-0.3,2.5c-0.3,3.7-1.4,6.3-3.4,7.9c-2,1.5-5.4,2.8-10.2,3.6
						c-4.9,0.7-11.4,1.2-19.5,1.3c-2.6,0.1-6.5,0.1-11.9,0.1h-11.1c-2.7,0-5.4-0.1-8.1-0.3c-4.9-0.5-8.3-1.9-10.2-4
						c-1.8-1.8-2.7-4.6-2.7-8.6c0-2,0.5-7.2,1.6-15.5c0-0.4,1-8,2.9-23.1c2-16.3,3-24,2.9-23.2c0.8-7.3,1.2-11.4,1.3-12.3
						c0.5-6,2.6-10.1,6.2-12.2l11.9-3.8l7-2.1c1.9-0.6,3.3-0.9,4-0.9c3.7,0.4,5.6,2.5,5.6,6.4c0,1.9-0.6,5.1-1.7,9.5
						c-2.4,8.9-4.4,17.4-6,25.4c-1.3,6.4-2,12.2-2,17.6c0,3.5,0.2,6.4,0.7,8.5c1.1,5.7,4.2,8.6,9.3,8.6c1.8,0,3.4-0.2,4.9-0.7
						c4.1-1.1,9.4-3.9,16.2-8.6c2.3-1.3,4.1-2,5.4-2h0.5c1.2,0.2,2.3,0.9,3.3,2.1c0.9,1.3,1.4,3.7,1.6,7
						C216,152.6,216.2,154.6,216.6,157.1z"/>
					<path fill="none" stroke="#315A8D" stroke-width="9.5602" stroke-linecap="round" stroke-linejoin="round" d="M301.2,157.1
						c0.3,2.1,0.6,4.2,0.7,6.4c0.3,1.4,0.4,2.7,0.4,4c0,0.6-0.1,1.5-0.3,2.5c-0.3,3.7-1.4,6.3-3.4,7.9c-2,1.5-5.4,2.8-10.2,3.6
						c-5,0.7-11.4,1.2-19.5,1.3c-2.6,0.1-6.5,0.1-11.9,0.1h-11.1c-2.7,0-5.4-0.1-8.1-0.3c-4.9-0.5-8.3-1.9-10.2-4
						c-1.8-1.8-2.6-4.6-2.6-8.6c0-2,0.5-7.2,1.6-15.5c0-0.4,1-8,2.9-23.1c2-16.3,3-24,2.9-23.2c0.8-7.3,1.2-11.4,1.3-12.3
						c0.5-6,2.6-10.1,6.2-12.2l11.9-3.8l7-2.1c1.9-0.6,3.3-0.9,4-0.9c3.7,0.4,5.6,2.5,5.6,6.4c0,1.9-0.6,5.1-1.7,9.5
						c-2.4,8.9-4.4,17.4-6,25.4c-1.3,6.4-2,12.2-2,17.6c0,3.5,0.2,6.4,0.7,8.5c1.1,5.7,4.2,8.6,9.3,8.6c1.8,0,3.4-0.2,4.9-0.7
						c4.1-1.1,9.5-3.9,16.2-8.6c2.3-1.3,4.1-2,5.4-2h0.5c1.2,0.2,2.3,0.9,3.3,2.1c0.9,1.3,1.4,3.7,1.6,7
						C300.5,152.6,300.7,154.6,301.2,157.1z"/>
				</g>
				<g>
					<path fill="#FFFFFF" d="M133.2,176.2c0,0.7-0.4,1.4-1.2,2.1c-1.2,1.1-3.1,2.2-5.7,3c-1.7,0.5-2.8,0.8-3.3,0.9
						c-4,0.4-6.6,0.7-7.9,0.7l-2-0.1c-0.8,0-1.5-0.1-2-0.3c-0.5-0.2-0.9-0.3-1.2-0.3c-4.4-1.1-6.6-4.1-6.6-9c0-1.1,0.1-2.2,0.4-3.4
						c0.5-2.5,0.8-4.7,0.8-6.8c0-1.2-0.2-2.6-0.5-4.2c-0.9-3.3-2.4-4.9-4.6-4.9c-1.4,0-2.9,0.7-4.5,2c-1.9,1.6-4,4.5-6.1,8.9
						c-1.8,3.7-3.9,7-6.4,9.8c-2.5,2.8-4.6,4.5-6.5,4.9c-0.9,0.2-1.5,0.3-2,0.3c-2.3,0-5.4-1-9.3-3c-2.1-1.1-3.6-2-4.4-2.7
						c-0.1-0.1-0.5-0.4-1.3-0.9c-0.8-0.5-1.3-1.1-1.7-1.6c-0.3-0.5-0.5-1.1-0.6-1.9l-0.1-1.1c0-0.9,0.3-2.6,0.9-5.3
						c0.5-2.4,1.8-6.7,3.8-13l12.3-37.8L79,94.8c1.1-3.7,1.9-6.4,2.5-8c1-2.6,2-4.7,3-6.4c0.5-0.9,1-1.5,1.5-1.8
						c0.5-0.3,1.3-0.6,2.4-0.9c1.6-0.3,4.3-0.5,8.1-0.7c2.2,0,4.3-0.1,6.2-0.3h2.2h2.9h4.8l3.3,0.4l0.5,0.1c1.7,0.4,3.1,1.4,4.3,3
						c1.2,1.6,1.8,3.8,1.8,6.4V88c-0.2,2.5-0.3,4.4-0.3,5.7c0,7.2,1.4,18.6,4.1,34.2c1.8,9.7,2.9,16,3.4,18.9
						c1.1,6.3,1.8,11.4,1.9,15.5c0,0.4,0.1,1.6,0.3,3.6l0.5,4.4l0.4,4.1C133.1,174.9,133.2,175.5,133.2,176.2z M108,114.6
						c0-1.4-0.1-2.7-0.4-4c-0.4-1.8-1.3-2.7-2.8-2.9h-0.3c-1.7,0-3.7,1.5-6,4.4c-1.2,1.5-2.4,3.5-3.4,6c-1.1,2.5-1.6,4.6-1.6,6.4
						v0.9c0.5,4,2.3,6.1,5.4,6.4h0.4c1.3,0,2.6-0.6,3.8-1.9c1.2-1.3,2.3-3.1,3-5.4C107.4,120.8,108,117.5,108,114.6z"/>
					<path fill="#FFFFFF" d="M216.6,157.1c0.3,2.1,0.6,4.2,0.7,6.4c0.3,1.4,0.4,2.7,0.4,4c0,0.6-0.1,1.5-0.3,2.5
						c-0.3,3.7-1.4,6.3-3.4,7.9c-2,1.5-5.4,2.8-10.2,3.6c-4.9,0.7-11.4,1.2-19.5,1.3c-2.6,0.1-6.5,0.1-11.9,0.1h-11.1
						c-2.7,0-5.4-0.1-8.1-0.3c-4.9-0.5-8.3-1.9-10.2-4c-1.8-1.8-2.7-4.6-2.7-8.6c0-2,0.5-7.2,1.6-15.5c0-0.4,1-8,2.9-23.1
						c2-16.3,3-24,2.9-23.2c0.8-7.3,1.2-11.4,1.3-12.3c0.5-6,2.6-10.1,6.2-12.2l11.9-3.8l7-2.1c1.9-0.6,3.3-0.9,4-0.9
						c3.7,0.4,5.6,2.5,5.6,6.4c0,1.9-0.6,5.1-1.7,9.5c-2.4,8.9-4.4,17.4-6,25.4c-1.3,6.4-2,12.2-2,17.6c0,3.5,0.2,6.4,0.7,8.5
						c1.1,5.7,4.2,8.6,9.3,8.6c1.8,0,3.4-0.2,4.9-0.7c4.1-1.1,9.4-3.9,16.2-8.6c2.3-1.3,4.1-2,5.4-2h0.5c1.2,0.2,2.3,0.9,3.3,2.1
						c0.9,1.3,1.4,3.7,1.6,7C216,152.6,216.2,154.6,216.6,157.1z"/>
					<path fill="#FFFFFF" d="M301.2,157.1c0.3,2.1,0.6,4.2,0.7,6.4c0.3,1.4,0.4,2.7,0.4,4c0,0.6-0.1,1.5-0.3,2.5
						c-0.3,3.7-1.4,6.3-3.4,7.9c-2,1.5-5.4,2.8-10.2,3.6c-5,0.7-11.4,1.2-19.5,1.3c-2.6,0.1-6.5,0.1-11.9,0.1h-11.1
						c-2.7,0-5.4-0.1-8.1-0.3c-4.9-0.5-8.3-1.9-10.2-4c-1.8-1.8-2.6-4.6-2.6-8.6c0-2,0.5-7.2,1.6-15.5c0-0.4,1-8,2.9-23.1
						c2-16.3,3-24,2.9-23.2c0.8-7.3,1.2-11.4,1.3-12.3c0.5-6,2.6-10.1,6.2-12.2l11.9-3.8l7-2.1c1.9-0.6,3.3-0.9,4-0.9
						c3.7,0.4,5.6,2.5,5.6,6.4c0,1.9-0.6,5.1-1.7,9.5c-2.4,8.9-4.4,17.4-6,25.4c-1.3,6.4-2,12.2-2,17.6c0,3.5,0.2,6.4,0.7,8.5
						c1.1,5.7,4.2,8.6,9.3,8.6c1.8,0,3.4-0.2,4.9-0.7c4.1-1.1,9.5-3.9,16.2-8.6c2.3-1.3,4.1-2,5.4-2h0.5c1.2,0.2,2.3,0.9,3.3,2.1
						c0.9,1.3,1.4,3.7,1.6,7C300.5,152.6,300.7,154.6,301.2,157.1z"/>
				</g>
				<g>
					<path fill="#FFFFFF" d="M133.2,176.2c0,0.7-0.4,1.4-1.2,2.1c-1.2,1.1-3.1,2.2-5.7,3c-1.7,0.5-2.8,0.8-3.3,0.9
						c-4,0.4-6.6,0.7-7.9,0.7l-2-0.1c-0.8,0-1.5-0.1-2-0.3c-0.5-0.2-0.9-0.3-1.2-0.3c-4.4-1.1-6.6-4.1-6.6-9c0-1.1,0.1-2.2,0.4-3.4
						c0.5-2.5,0.8-4.7,0.8-6.8c0-1.2-0.2-2.6-0.5-4.2c-0.9-3.3-2.4-4.9-4.6-4.9c-1.4,0-2.9,0.7-4.5,2c-1.9,1.6-4,4.5-6.1,8.9
						c-1.8,3.7-3.9,7-6.4,9.8c-2.5,2.8-4.6,4.5-6.5,4.9c-0.9,0.2-1.5,0.3-2,0.3c-2.3,0-5.4-1-9.3-3c-2.1-1.1-3.6-2-4.4-2.7
						c-0.1-0.1-0.5-0.4-1.3-0.9c-0.8-0.5-1.3-1.1-1.7-1.6c-0.3-0.5-0.5-1.1-0.6-1.9l-0.1-1.1c0-0.9,0.3-2.6,0.9-5.3
						c0.5-2.4,1.8-6.7,3.8-13l12.3-37.8L79,94.8c1.1-3.7,1.9-6.4,2.5-8c1-2.6,2-4.7,3-6.4c0.5-0.9,1-1.5,1.5-1.8
						c0.5-0.3,1.3-0.6,2.4-0.9c1.6-0.3,4.3-0.5,8.1-0.7c2.2,0,4.3-0.1,6.2-0.3h2.2h2.9h4.8l3.3,0.4l0.5,0.1c1.7,0.4,3.1,1.4,4.3,3
						c1.2,1.6,1.8,3.8,1.8,6.4V88c-0.2,2.5-0.3,4.4-0.3,5.7c0,7.2,1.4,18.6,4.1,34.2c1.8,9.7,2.9,16,3.4,18.9
						c1.1,6.3,1.8,11.4,1.9,15.5c0,0.4,0.1,1.6,0.3,3.6l0.5,4.4l0.4,4.1C133.1,174.9,133.2,175.5,133.2,176.2z M108,114.6
						c0-1.4-0.1-2.7-0.4-4c-0.4-1.8-1.3-2.7-2.8-2.9h-0.3c-1.7,0-3.7,1.5-6,4.4c-1.2,1.5-2.4,3.5-3.4,6c-1.1,2.5-1.6,4.6-1.6,6.4
						v0.9c0.5,4,2.3,6.1,5.4,6.4h0.4c1.3,0,2.6-0.6,3.8-1.9c1.2-1.3,2.3-3.1,3-5.4C107.4,120.8,108,117.5,108,114.6z"/>
					<path fill="#FFFFFF" d="M216.6,157.1c0.3,2.1,0.6,4.2,0.7,6.4c0.3,1.4,0.4,2.7,0.4,4c0,0.6-0.1,1.5-0.3,2.5
						c-0.3,3.7-1.4,6.3-3.4,7.9c-2,1.5-5.4,2.8-10.2,3.6c-4.9,0.7-11.4,1.2-19.5,1.3c-2.6,0.1-6.5,0.1-11.9,0.1h-11.1
						c-2.7,0-5.4-0.1-8.1-0.3c-4.9-0.5-8.3-1.9-10.2-4c-1.8-1.8-2.7-4.6-2.7-8.6c0-2,0.5-7.2,1.6-15.5c0-0.4,1-8,2.9-23.1
						c2-16.3,3-24,2.9-23.2c0.8-7.3,1.2-11.4,1.3-12.3c0.5-6,2.6-10.1,6.2-12.2l11.9-3.8l7-2.1c1.9-0.6,3.3-0.9,4-0.9
						c3.7,0.4,5.6,2.5,5.6,6.4c0,1.9-0.6,5.1-1.7,9.5c-2.4,8.9-4.4,17.4-6,25.4c-1.3,6.4-2,12.2-2,17.6c0,3.5,0.2,6.4,0.7,8.5
						c1.1,5.7,4.2,8.6,9.3,8.6c1.8,0,3.4-0.2,4.9-0.7c4.1-1.1,9.4-3.9,16.2-8.6c2.3-1.3,4.1-2,5.4-2h0.5c1.2,0.2,2.3,0.9,3.3,2.1
						c0.9,1.3,1.4,3.7,1.6,7C216,152.6,216.2,154.6,216.6,157.1z"/>
					<path fill="#FFFFFF" d="M301.2,157.1c0.3,2.1,0.6,4.2,0.7,6.4c0.3,1.4,0.4,2.7,0.4,4c0,0.6-0.1,1.5-0.3,2.5
						c-0.3,3.7-1.4,6.3-3.4,7.9c-2,1.5-5.4,2.8-10.2,3.6c-5,0.7-11.4,1.2-19.5,1.3c-2.6,0.1-6.5,0.1-11.9,0.1h-11.1
						c-2.7,0-5.4-0.1-8.1-0.3c-4.9-0.5-8.3-1.9-10.2-4c-1.8-1.8-2.6-4.6-2.6-8.6c0-2,0.5-7.2,1.6-15.5c0-0.4,1-8,2.9-23.1
						c2-16.3,3-24,2.9-23.2c0.8-7.3,1.2-11.4,1.3-12.3c0.5-6,2.6-10.1,6.2-12.2l11.9-3.8l7-2.1c1.9-0.6,3.3-0.9,4-0.9
						c3.7,0.4,5.6,2.5,5.6,6.4c0,1.9-0.6,5.1-1.7,9.5c-2.4,8.9-4.4,17.4-6,25.4c-1.3,6.4-2,12.2-2,17.6c0,3.5,0.2,6.4,0.7,8.5
						c1.1,5.7,4.2,8.6,9.3,8.6c1.8,0,3.4-0.2,4.9-0.7c4.1-1.1,9.5-3.9,16.2-8.6c2.3-1.3,4.1-2,5.4-2h0.5c1.2,0.2,2.3,0.9,3.3,2.1
						c0.9,1.3,1.4,3.7,1.6,7C300.5,152.6,300.7,154.6,301.2,157.1z"/>
				</g>
			</g>
		</g>
		<g>
			<g>
				<g>
					<path fill="#FFFFFF" d="M170.3,249.8c-1.9,0-82.2-3.4-102.5,13.2c-7.6,6.2-20.9,5.3-27.6,4.6c-6.2-0.7-17.6,0-22.5,2.2
						c-17.9,8,8.1,11.8,22.5,11.2c14.4-0.7,36.2-5.7,33.1,2.6c-2.5,5.3,0,15.2,105.2,14.5c105.2-0.7,132.7-16.5,114-20.8
						c-18.8-4.3-3.1-8.3,0-9.6C295.5,266.3,339.3,250.8,170.3,249.8z"/>
					<path fill="#315A8D" d="M168.6,300.4c-80.5,0-94.1-6.7-97.3-11.7c-1.2-1.8-1.2-3.8-0.2-6c0.2-0.4,0.1-0.6,0.1-0.6l0,0
						c0,0-0.8-0.9-5.5-0.9c-3.7,0-8.5,0.5-13.5,1.1c-4,0.4-8.2,0.9-11.9,1.1c-1.1,0.1-2.3,0.1-3.5,0.1c-2.6,0-25.9-0.2-27.4-7.6
						c-0.8-3.9,3.8-6.4,7.4-8c4.3-1.9,12.5-2.6,18.1-2.6c2.1,0,4,0.1,5.6,0.3c2,0.2,5,0.5,8.4,0.5c7.9,0,13.8-1.5,17.5-4.6
						c14.2-11.6,54.4-14,85.7-14c8.7,0,15.3,0.2,17.5,0.3l0.8,0c129.2,0.8,130.9,9.9,131.7,13.9c0.9,4.6-5.6,7.2-8.4,8.3l-0.3,0.1
						c-0.4,0.2-1,0.4-1.8,0.7c-1.1,0.4-4.1,1.4-5.4,2.3c0.8,0.5,2.7,1.3,6.8,2.2c6.4,1.5,7.5,4.2,7.2,6.2
						c-1.2,10.8-51.2,18.7-121.7,19.2C175.1,300.3,171.8,300.4,168.6,300.4z M65.7,276.5c5.1,0,8,0.9,9.3,2.9
						c0.7,0.9,1.2,2.6,0.3,4.9c0,0.1,0,0.1-0.1,0.2c-0.5,1-0.3,1.3-0.1,1.7c2.3,3.6,17.4,9.6,93.4,9.6c3.2,0,6.4,0,9.8,0
						c89.7-0.6,114.9-11.7,117-14.9c-0.4-0.3-1.4-0.9-3.6-1.4c-7.6-1.7-10.7-3.6-10.9-6.5c-0.2-3.7,4.9-5.5,9-6.9
						c0.6-0.2,1.2-0.4,1.5-0.6l0.4-0.2c4.3-1.7,5.3-2.8,5.5-3.2c-1.5-2.4-15.4-9.4-127.1-10c-0.1,0-0.4,0-0.9,0
						c-2.1-0.1-8.7-0.3-17.3-0.3c-25,0-69,1.7-82.8,13c-4.6,3.7-11.4,5.6-20.4,5.6c-3.6,0-6.8-0.3-8.9-0.5c-1.4-0.2-3.2-0.2-5.1-0.2
						c-6.7,0-13.2,0.9-16.2,2.2c-3.3,1.5-4.3,2.5-4.6,2.9c1.5,1.6,10.9,3.9,22.8,3.9c1.1,0,2.2,0,3.3-0.1c3.6-0.2,7.7-0.6,11.6-1
						C56.8,277,61.7,276.5,65.7,276.5z"/>
				</g>
				<g>
					<path fill="#FFFFFF" d="M335.1,277.4c-3.3-4.1-21.4-4-24.5,1.5c-5,8.8,18.9,4.9,22.2,3.3C334.4,281.6,336,278.1,335.1,277.4z"
						/>
					<path fill="#315A8D" d="M318.1,286.7L318.1,286.7c-5.3,0-8.5-1.1-9.9-3.4c-0.7-1.1-1.1-3,0.4-5.6c2.3-4.1,9.5-5.5,15.5-5.5
						c2.3,0,9.8,0.3,12.7,3.6c0.5,0.5,1.1,1.5,0.8,3.1c-0.3,1.7-1.7,4.5-3.9,5.4C331.3,285.4,323.8,286.7,318.1,286.7z M324.2,276.8
						c-6.3,0-10.6,1.6-11.5,3.2c-0.4,0.8-0.4,1.1-0.4,1.1c0.2,0.3,1.6,1.1,5.9,1.1c5.8,0,12.5-1.5,13.7-2c0.1,0,0.2-0.1,0.3-0.1
						c0.2-0.2,0.7-0.9,0.9-1.5C331.8,277.7,328.7,276.8,324.2,276.8z"/>
				</g>
				<g>
					<path fill="#FFFFFF" d="M344.1,253.3c-4.6-5.7-29.8-5.6-34.2,2.1c-7,12.3,26.4,6.9,30.9,4.6
						C343.2,259.2,345.3,254.2,344.1,253.3z"/>
					<path fill="#315A8D" d="M320.4,265.4L320.4,265.4c-7,0-11.3-1.4-13-4.3c-0.8-1.4-1.3-3.7,0.5-6.9c3-5.3,12.8-7.3,20.8-7.3
						c3.1,0,13.3,0.3,17,4.8c0.5,0.6,1.2,1.6,0.9,3.6c-0.4,2.2-2.2,5.7-4.9,6.8C338.9,263.4,328.8,265.4,320.4,265.4z M328.8,251.6
						c-8.1,0-15.2,2.1-16.8,4.9c-0.3,0.5-0.9,1.7-0.5,2.4c0.5,0.9,3.2,2,9,2l0,0c8.3,0,17.7-2.1,19.5-3c0.1,0,0.2-0.1,0.3-0.1
						c0.7-0.3,1.8-2.2,2-3.2C340.6,253,335.7,251.6,328.8,251.6z"/>
				</g>
				<g>
					<path fill="#FFFFFF" d="M289.3,238c-2.6-4.4-16.6-3.4-20.3,2c-5.4,8,14.9,6,17.4,4.2C287.7,243.6,291.7,240.5,289.3,238z"/>
					<path fill="#315A8D" d="M276.5,248.1C276.5,248.1,276.5,248.1,276.5,248.1c-5.5,0-8.9-1.2-10.2-3.6c-0.6-1.2-1-3.1,0.8-5.8
						c2.7-4,9.2-5.8,14.4-5.8c4.6,0,8.1,1.3,9.7,3.7c1,1.1,1.4,2.5,1.1,4c-0.5,2.7-3.3,4.9-4.7,5.6
						C285.6,247.4,280.5,248.1,276.5,248.1z M281.5,237.6c-4.6,0-9.1,1.6-10.5,3.7c-0.5,0.8-0.5,1.1-0.5,1.1
						c0.2,0.2,1.7,1.1,6.1,1.1h0c4.1,0,8-0.8,8.7-1.2c0.1-0.1,0.2-0.1,0.3-0.2c0.8-0.4,2.3-1.8,2.2-2.4c-0.1-0.1-0.3-0.4-0.4-0.5
						C286.8,238.4,284.7,237.6,281.5,237.6z"/>
				</g>
			</g>
			<g>
				<g>
					<g>
						<path fill="#315A8D" d="M311.9,213.7c-0.3,0-0.5-0.2-0.7-0.4c-0.1-0.1-0.1-0.3-0.1-0.5l0-0.4l0-0.3c0-0.3,0-0.5-0.1-0.7
							c0-0.2-0.1-0.3-0.1-0.4l-0.1-0.3c0-0.2-0.1-0.3-0.3-0.4c-0.2-0.1-0.4-0.2-0.7-0.2c-0.1,0-0.1,0-0.1,0
							c-0.2,0.1-0.2,0.2-0.2,0.5l0,0.5c0,0.4-0.1,0.8-0.1,1.1c0,0.6,0,1-0.1,1.2c0,0.1-0.1,0.2-0.2,0.2c-0.1,0-0.2,0.1-0.5,0.1h-0.3
							c-0.4,0-0.8,0-1.1-0.1c-0.5-0.1-0.9-0.1-1.2-0.3c-0.1-0.1-0.2-0.1-0.2-0.2v0c0-0.3,0.1-0.7,0.1-1c0.2-1.3,0.3-2.9,0.3-4.8
							c0-0.4,0-1,0-1.8c0-0.9,0-1.5,0-2v-0.1c0-0.3,0.1-0.5,0.3-0.7c0.2-0.2,0.7-0.3,1.3-0.3h0.4c0.1,0,0.2,0,0.3,0
							c0.4,0,0.7,0.1,0.8,0.3c0.2,0.3,0.4,0.5,0.4,0.8c0,0.1,0,0.1,0,0.2c-0.1,1-0.2,1.7-0.2,2c0,0.2,0,0.3,0,0.3
							c0.1,0.6,0.3,0.9,0.8,0.9h0.2c0.2,0,0.4,0,0.5,0c0.1,0,0.2-0.1,0.3-0.3c0-0.1,0-0.3,0-0.5v-0.2l0-0.6l0-0.8v-0.2
							c0-0.2,0-0.4,0-0.5c0-0.2,0-0.3,0-0.4c0-0.3,0.1-0.6,0.2-0.7c0.1-0.2,0.4-0.3,0.8-0.3c0.1,0,0.2,0,0.4,0
							c0.5,0.1,1,0.1,1.3,0.2c0.2,0.1,0.3,0.1,0.3,0.1c0.1,0.1,0.1,0.4,0.1,0.8c0,0.2,0,0.5,0,0.8l-0.1,0.6l-0.1,1.1l-0.1,1.4
							l-0.1,1.6l-0.4,4.1c0,0.2-0.3,0.4-0.9,0.4l-0.3,0l-0.3,0L311.9,213.7z"/>
						<path fill="#315A8D" d="M320.6,211.7c0.2,0.1,0.3,0.2,0.4,0.4c0.1,0.1,0.1,0.2,0.1,0.4c0,0.3-0.2,0.6-0.6,0.8
							c-0.3,0.2-0.6,0.3-1,0.4c-0.4,0.1-0.7,0.2-1.1,0.2c-0.8,0-1.4-0.1-1.8-0.3c-0.5-0.2-0.8-0.6-1.1-1.2c-0.2-0.4-0.2-1.1-0.2-2
							c0-0.7,0.2-1.4,0.5-2c0.4-0.6,0.8-1.1,1.4-1.4c0.6-0.3,1.2-0.4,2-0.4c0.4,0,0.8,0.1,1.1,0.3c0.3,0.2,0.6,0.4,0.8,0.8
							c0.3,0.4,0.4,0.9,0.4,1.5c0,0.5-0.2,0.8-0.5,1.1c-0.6,0.4-1.2,0.7-1.9,0.8l-0.3,0c-0.2,0-0.3,0-0.4,0c-0.3,0-0.6-0.1-0.7-0.1
							c-0.1,0-0.2,0-0.2,0c-0.1,0-0.1,0.1-0.1,0.2v0.1c0,0.5,0.3,0.8,0.8,0.9c0.1,0,0.2,0,0.3,0c0.2,0,0.4-0.1,0.7-0.2
							c0.3-0.1,0.4-0.2,0.5-0.2c0.2-0.1,0.4-0.1,0.5-0.1C320.3,211.6,320.4,211.6,320.6,211.7z M317.5,208.9c0,0.2,0.1,0.4,0.4,0.6
							c0.1,0.1,0.3,0.2,0.5,0.2c0.1,0,0.2,0,0.4,0c0.3-0.1,0.5-0.2,0.8-0.5c0.2-0.2,0.3-0.4,0.3-0.7c0-0.1,0-0.1,0-0.1
							c-0.1-0.4-0.3-0.6-0.8-0.6l-0.2,0c-0.2,0-0.5,0.1-0.7,0.2c-0.2,0.1-0.4,0.3-0.5,0.4C317.6,208.6,317.5,208.7,317.5,208.9z"/>
						<path fill="#315A8D" d="M327,207.4c0.5,0.5,0.8,1.3,0.8,2.4l0.1,3.7c0,0.2-0.1,0.3-0.4,0.4c-0.2,0.1-0.4,0.2-0.6,0.2
							c0,0-0.1,0-0.2,0c-0.3-0.1-0.4-0.3-0.4-0.6c0-0.1,0-0.1,0-0.1c0-0.1,0-0.1,0-0.1l0,0c0,0,0,0,0,0c-0.1,0-0.3,0.1-0.5,0.3
							c-0.3,0.2-0.5,0.3-0.7,0.3c-0.2,0-0.5,0-0.8,0h-0.2c-0.5,0-0.9-0.1-1.2-0.4c-0.3-0.2-0.5-0.6-0.5-1.2c0-0.1,0-0.2,0-0.4
							c0.1-0.5,0.1-0.8,0.2-0.9c0.1-0.3,0.3-0.6,0.5-0.8c0.5-0.4,0.9-0.6,1.4-0.6c0.2,0,0.3,0,0.5,0.1l0.5,0.1h0
							c0.1,0,0.1-0.1,0.1-0.2c0-0.1,0-0.2,0-0.3c0-0.2-0.1-0.5-0.2-0.7c-0.1-0.2-0.3-0.3-0.5-0.4c0,0-0.1,0-0.2,0
							c-0.1,0-0.3,0-0.3,0l-0.4,0l-0.4,0c-0.1,0-0.2,0-0.3,0l-0.2,0c0,0-0.1,0-0.1,0c-0.2,0-0.3-0.1-0.4-0.2
							c-0.1-0.1-0.1-0.3-0.1-0.4c0-0.2,0-0.3,0.1-0.5c0.1-0.2,0.2-0.2,0.4-0.3c1-0.1,1.7-0.2,2.1-0.2h0.2
							C326,206.8,326.6,207,327,207.4z M323.9,211.9l0.1,0.1c0.1,0.2,0.3,0.3,0.5,0.4c0.1,0,0.2,0.1,0.3,0.1c0.2,0,0.3-0.1,0.5-0.2
							c0.2-0.1,0.3-0.3,0.4-0.4c0.1-0.2,0.2-0.3,0.2-0.5c0,0,0-0.1,0-0.1c-0.1-0.3-0.4-0.5-0.8-0.6l-0.1,0c-0.4,0-0.7,0.2-0.9,0.5
							c-0.1,0.2-0.1,0.3-0.1,0.5L323.9,211.9z"/>
						<path fill="#315A8D" d="M329.1,213.1l0.2-1.6c0-0.2,0-0.5,0-0.8l0-0.7c0-0.8-0.1-1.7-0.1-3c-0.1-0.9-0.1-1.9-0.1-2.9l0-1V203
							c0-0.3,0.1-0.4,0.3-0.4c0.1,0,0.2,0,0.3,0.1c0.1,0,0.3,0.1,0.6,0.1c0.2,0,0.4,0.1,0.5,0.2c0.1,0.1,0.2,0.3,0.2,0.5
							c0.1,0.8,0.2,2,0.3,3.5c0.1,2,0.2,3.9,0.2,5.6v0.2c0,0.7-0.2,1.1-0.6,1.1c-0.1,0-0.2,0-0.3-0.1l-1-0.2
							C329.3,213.5,329.1,213.3,329.1,213.1z"/>
						<path fill="#315A8D" d="M334.8,207.5c0,0.2-0.1,0.5-0.1,0.7l0,0.6c0,0.1,0,0.3,0,0.5c0,0.9,0.1,1.5,0.3,1.8
							c0.1,0.2,0.2,0.3,0.4,0.3c0.1,0,0.2-0.1,0.3-0.2c0.3-0.3,0.4-0.8,0.5-1.4c0-0.4,0.1-0.7,0.1-0.8c0.1-0.1,0.3-0.2,0.6-0.2
							c0.2,0,0.3,0.1,0.4,0.2c0.1,0.1,0.3,0.3,0.4,0.5c0.1,0.3,0.2,0.6,0.2,0.9c0,0.3,0,0.6-0.1,0.9c-0.3,1-0.8,1.7-1.5,2.1
							c-0.4,0.2-1,0.3-1.7,0.3c-0.6,0-1-0.2-1.3-0.5c-0.2-0.2-0.3-0.7-0.4-1.4c-0.3-1.7-0.4-3.2-0.4-4.5c0-0.4,0-0.7,0-0.9
							c-0.1,0-0.3,0-0.7-0.1c-0.2,0-0.3,0-0.4-0.1c-0.1,0-0.1-0.1-0.1-0.2l0-0.1c0.1-0.6,0.3-1,0.4-1.2c0.1-0.1,0.3-0.2,0.6-0.2
							c0.1,0,0.3,0,0.4,0l0-0.4l0-0.4l0-0.4c0-0.1,0-0.1,0-0.2c0-0.5,0.3-0.7,0.9-0.7c0.3,0,0.6,0.1,1.1,0.2
							c0.4,0.1,0.7,0.5,0.8,1.1v0.2c0,0,0,0.1,0,0.4c0,0.1,0,0.2-0.1,0.5c0.1,0,0.1,0,0.2,0h0.1h0.2h0.2c0.2,0,0.5,0.1,0.6,0.2
							c0.2,0.2,0.4,0.4,0.5,0.6c0,0,0,0.1,0,0.2c0,0.2-0.1,0.3-0.3,0.5c-0.2,0.1-0.5,0.2-0.9,0.2h-0.2H335
							C334.9,207,334.8,207.3,334.8,207.5z"/>
						<path fill="#315A8D" d="M342.9,213.7c-0.3,0-0.5-0.1-0.6-0.4c-0.1-0.2-0.1-0.4-0.1-0.5l0-0.3l0.1-0.7c0-0.3,0.1-0.5,0.1-0.7
							c0-0.4-0.1-0.7-0.2-1c-0.1-0.2-0.4-0.4-0.7-0.5c-0.1,0-0.2,0-0.2,0c-0.1,0-0.2,0.1-0.3,0.2c0,0.1-0.1,0.2-0.1,0.3l0,0.4
							c0,0.4-0.1,0.8-0.1,1.1c0,0.9,0,1.4-0.1,1.7c0,0.2-0.1,0.3-0.2,0.3c-0.1,0-0.3,0.1-0.5,0.1c-0.5,0-0.9-0.1-1.3-0.3
							c-0.1-0.1-0.2-0.2-0.2-0.2v0c0-0.3,0-0.6,0.1-1c0.2-1.5,0.3-3,0.3-4.6c0-0.7,0-1.3,0-1.7c0-0.4,0-1,0-1.9c0-0.2,0-0.3-0.1-0.4
							c0-0.1,0-0.1,0-0.2c0-0.1,0.1-0.2,0.2-0.3c0.1,0,0.3-0.1,0.6-0.1h0.3c0.1,0,0.2,0,0.2,0c0.3,0,0.6,0.1,0.7,0.3
							c0,0,0.1,0.1,0.2,0.2c0.1,0.1,0.1,0.3,0.1,0.5c0,0.1,0,0.1,0,0.2c-0.1,0.9-0.2,1.6-0.2,2.1c0,0.2,0,0.3,0,0.4
							c0,0.7,0.3,1,0.7,1h0.2c0.8,0,1.4,0.3,1.7,0.8c0.3,0.5,0.5,1.1,0.5,1.9v0.2c0,0.7-0.1,1.6-0.4,2.6c0,0.2-0.1,0.3-0.4,0.4
							c0,0-0.1,0-0.2,0h-0.1C343,213.7,343,213.7,342.9,213.7z"/>
						<path fill="#315A8D" d="M315.3,223.5c-0.1,0.2-0.1,0.3-0.2,0.3l-0.4,0.1c-0.1,0-0.2,0-0.2,0c-0.1,0-0.2,0-0.4,0
							c-0.2,0-0.4-0.1-0.5-0.1c-0.3,0-0.5,0.1-0.7,0.2c-0.1,0.1-0.2,0.3-0.2,0.6v0.1c0,0.1,0,0.3,0,0.4v0.3c0,0,0,0.2,0,0.4
							c0,0.4,0.1,0.6,0.1,0.7c0-0.1,0,0,0.1,0.4c0,0.1,0,0.1,0,0.3c0,0.4-0.2,0.6-0.5,0.8c-0.4,0.2-1.1,0.3-2.2,0.3
							c-0.4,0-0.7-0.2-1-0.5c-0.2-0.3-0.3-0.6-0.3-0.9c0-0.1,0-0.2,0.1-0.4c0.2-0.7,0.3-1.3,0.4-1.8c0.1-0.4,0.1-0.9,0.1-1.4
							c0-1,0.2-2.2,0.4-3.5c0.1-0.6,0.2-1.1,0.3-1.3c0.1-0.4,0.2-0.6,0.2-0.7c0.2-0.5,0.7-0.7,1.4-0.7c0.3,0,0.5,0,0.6,0
							c0.7,0.1,1.6,0.2,2.6,0.2c0.6,0,1.2,0,2,0c0.3,0,0.5,0.1,0.8,0.3c0.3,0.3,0.4,0.7,0.4,1.2c0,0.4-0.1,0.7-0.2,1.1
							c0,0.1-0.1,0.2-0.1,0.3c0,0.1-0.1,0.2-0.1,0.2c-0.1,0.5-0.6,0.8-1.3,0.8h-0.1c-0.2,0-0.6-0.1-1.2-0.2
							c-0.7-0.1-1.1-0.2-1.3-0.3c0,0-0.1,0-0.2,0c-0.2,0-0.4,0.1-0.6,0.4c-0.2,0.3-0.3,0.6-0.3,0.9v0.1c0,0.3,0.1,0.4,0.2,0.4
							c0.1,0,0.2,0,0.3-0.1c0.3-0.1,0.6-0.1,0.9-0.1c0.2,0,0.4,0,0.8,0.1c0.2,0,0.3,0.2,0.3,0.5v0.1
							C315.5,223.1,315.4,223.3,315.3,223.5z"/>
						<path fill="#315A8D" d="M318.9,225.6c0.1-0.3,0.2-0.7,0.3-1.2l0.2-1.2c0-0.2,0.1-0.4,0.1-0.4c0-0.3,0-0.5,0.1-0.6
							c0-0.1,0.1-0.2,0.1-0.3c0.1-0.1,0.2-0.1,0.4-0.1c0.1,0,0.3,0,0.4,0.1c0.3,0,0.6,0,0.8,0.1c0.2,0,0.3,0.3,0.4,0.7
							c0.1,1.3,0.2,2.3,0.2,2.9v0.2l0,1.3c0,0.4-0.1,0.7-0.2,0.8c-0.1,0.1-0.3,0.2-0.6,0.2c-0.2,0-0.3,0-0.4,0
							c-0.7,0-1.2-0.1-1.5-0.3c-0.3-0.2-0.5-0.6-0.5-1.2C318.7,226.3,318.8,226,318.9,225.6z M321,220.8c-0.2,0-0.4-0.1-0.7-0.2
							c-0.2-0.1-0.4-0.3-0.6-0.6c-0.2-0.3-0.2-0.6-0.2-1c0-0.6,0.3-1,0.8-1c0.1,0,0.3,0,0.4,0.1c0.4,0.1,0.8,0.3,1,0.6
							c0.2,0.3,0.4,0.7,0.4,1.1c0,0.5-0.2,0.8-0.5,0.9C321.3,220.7,321.1,220.8,321,220.8z"/>
						<path fill="#315A8D" d="M327,224.2c0,0-0.1,0-0.1-0.1c-0.1-0.1-0.2-0.2-0.4-0.3c-0.1,0-0.2-0.1-0.3-0.1c0,0-0.1,0-0.2,0
							c-0.6,0-0.9,0.6-1,1.8c0,0.1,0,0.5,0.1,1.2l0,0.7l0,0.4c0,0.1-0.1,0.2-0.3,0.2c-0.2,0.1-0.4,0.1-0.6,0.2c-0.2,0-0.3,0-0.4,0
							h-0.1h-0.2c-0.3,0-0.5-0.1-0.6-0.4c-0.1-0.1-0.1-0.3-0.1-0.6V227l0-0.4c0-0.3,0.1-0.5,0.1-0.6c0.1-0.6,0.1-1.4,0.1-2.5
							c0-0.9,0-1.6,0.1-2c0.1-0.2,0.4-0.4,1-0.5l0.5-0.1l0.2,0c0.2,0,0.3,0.1,0.3,0.3c0,0.1,0,0.1,0,0.1c0,0.1,0,0.1,0,0.2
							c0,0.2,0,0.3,0,0.4v0.2c0,0.2,0,0.3,0.1,0.3h0c0,0,0.1-0.1,0.2-0.2c0,0,0.1-0.1,0.2-0.2c0.4-0.3,0.7-0.5,1-0.7
							c0.5-0.3,0.9-0.4,1.3-0.4c0.4,0,0.7,0.2,0.9,0.6c0.1,0.2,0.1,0.4,0.1,0.7c0,0.1,0,0.2,0,0.3c0,0,0,0.1-0.1,0.2
							c-0.2,0.2-0.4,0.5-0.8,0.8c-0.3,0.3-0.6,0.5-0.9,0.7C327.1,224.1,327.1,224.2,327,224.2L327,224.2z"/>
						<path fill="#315A8D" d="M335.1,225.7c-0.1,0.9-0.4,1.6-1.1,2c-0.4,0.3-1,0.4-1.7,0.4c-0.4,0-0.8,0-1.1-0.1
							c-0.6-0.1-1-0.3-1.3-0.7c-0.3-0.3-0.4-0.5-0.4-0.8c0-0.1,0-0.1,0-0.2v-0.2c0-0.1,0-0.2,0-0.2v-0.2c0-0.4,0.1-0.6,0.4-0.6
							c0.1,0,0.4,0.1,0.6,0.2c0.1,0,0.3,0.2,0.5,0.4c0.3,0.3,0.4,0.4,0.5,0.5c0.2,0.1,0.4,0.1,0.6,0.1c0.3,0,0.5-0.1,0.6-0.4
							c0,0,0-0.1,0-0.2c0-0.2-0.1-0.4-0.3-0.5c-0.1-0.1-0.3-0.2-0.6-0.3c-0.3-0.1-0.5-0.2-0.6-0.2l-0.6-0.2
							c-0.5-0.2-0.8-0.6-0.8-1.3c0-0.1,0-0.2,0-0.3c0.1-0.7,0.4-1.3,1-1.6c0.5-0.2,1-0.4,1.6-0.4c0.1,0,0.2,0,0.3,0
							c0.3,0,0.6,0,0.9,0c0.1,0,0.3,0,0.5,0h0.1c0.2,0,0.3,0,0.5,0.2c0.1,0.1,0.2,0.3,0.4,0.6c0.1,0.3,0.2,0.5,0.2,0.7
							c0,0.3-0.2,0.6-0.5,0.6c-0.2,0-0.3,0.1-0.4,0.1c-0.3,0-0.5-0.1-0.7-0.2c-0.2-0.1-0.4-0.2-0.6-0.2c-0.2,0-0.4,0-0.5,0.1
							c-0.1,0.1-0.2,0.2-0.2,0.4l0,0.1c0,0.3,0.2,0.5,0.7,0.7c0.2,0.1,0.5,0.2,0.7,0.2c0.6,0.2,1,0.4,1.2,0.8
							C335,225.1,335.1,225.3,335.1,225.7L335.1,225.7z"/>
						<path fill="#315A8D" d="M338.3,221.9c0,0.2-0.1,0.5-0.1,0.7l0,0.6c0,0.1,0,0.3,0,0.5c0,0.9,0.1,1.5,0.3,1.8
							c0.1,0.2,0.2,0.3,0.4,0.3c0.1,0,0.2-0.1,0.3-0.2c0.3-0.3,0.4-0.8,0.5-1.4c0-0.4,0.1-0.7,0.1-0.8c0.1-0.1,0.3-0.2,0.6-0.2
							c0.2,0,0.3,0.1,0.4,0.2c0.1,0.1,0.3,0.3,0.4,0.5c0.1,0.3,0.2,0.6,0.2,0.9c0,0.3,0,0.6-0.1,0.9c-0.3,1-0.8,1.7-1.5,2.1
							c-0.4,0.2-1,0.4-1.7,0.4c-0.6,0-1-0.2-1.3-0.5c-0.2-0.2-0.3-0.7-0.4-1.4c-0.3-1.7-0.4-3.2-0.4-4.5c0-0.4,0-0.7,0-0.9
							c-0.1,0-0.3,0-0.7-0.1c-0.2,0-0.3,0-0.4-0.1c-0.1,0-0.1-0.1-0.1-0.2l0-0.1c0.1-0.6,0.3-1,0.4-1.2c0.1-0.1,0.3-0.2,0.6-0.2
							c0.1,0,0.3,0,0.3,0l0-0.4l0-0.4l0-0.4c0-0.1,0-0.1,0-0.2c0-0.5,0.3-0.7,0.9-0.7c0.3,0,0.6,0.1,1.1,0.2
							c0.4,0.1,0.7,0.5,0.7,1.1v0.2c0,0,0,0.1,0,0.4c0,0.1,0,0.2-0.1,0.5c0.1,0,0.1,0,0.2,0h0.1h0.2h0.2c0.2,0,0.5,0.1,0.6,0.2
							c0.2,0.2,0.4,0.4,0.4,0.6c0,0,0,0.1,0,0.2c0,0.2-0.1,0.3-0.3,0.5c-0.2,0.1-0.5,0.2-0.9,0.2h-0.2h-0.7
							C338.4,221.3,338.4,221.6,338.3,221.9z"/>
					</g>
				</g>
				<g>
					<path fill="#315A8D" d="M346.3,232.7H304c-0.2,0-0.4-0.2-0.4-0.4c0-0.2,0.2-0.4,0.4-0.4h42.3c0.2,0,0.4,0.2,0.4,0.4
						C346.8,232.5,346.6,232.7,346.3,232.7z"/>
					<path fill="#315A8D" d="M346.3,198.6H304c-0.2,0-0.4-0.2-0.4-0.4c0-0.2,0.2-0.4,0.4-0.4h42.3c0.2,0,0.4,0.2,0.4,0.4
						C346.8,198.4,346.6,198.6,346.3,198.6z"/>
				</g>
			</g>
			<g>
				<g>
					<path fill="#315A8D" d="M35.8,212.2h-2.7v1.5h2.5c0.2,0,0.3,0,0.4,0.1c0.1,0.1,0.1,0.2,0.1,0.3c0,0.1,0,0.2-0.1,0.3
						c-0.1,0.1-0.2,0.1-0.4,0.1h-2.5v1.7h2.8c0.2,0,0.3,0,0.4,0.1c0.1,0.1,0.1,0.2,0.1,0.4c0,0.1-0.1,0.3-0.1,0.3
						c-0.1,0.1-0.2,0.1-0.4,0.1h-3.3c-0.3,0-0.5-0.1-0.6-0.2c-0.1-0.1-0.2-0.3-0.2-0.6V212c0-0.2,0-0.3,0.1-0.4
						c0.1-0.1,0.1-0.2,0.2-0.2c0.1,0,0.2-0.1,0.4-0.1h3.2c0.2,0,0.3,0,0.4,0.1c0.1,0.1,0.1,0.2,0.1,0.3c0,0.1,0,0.3-0.1,0.3
						C36.2,212.1,36,212.2,35.8,212.2z"/>
					<path fill="#315A8D" d="M38.2,213.5l0.9,2.5l1-2.6c0.1-0.2,0.1-0.4,0.2-0.5c0.1-0.1,0.2-0.1,0.3-0.1c0.1,0,0.3,0,0.4,0.1
						c0.1,0.1,0.1,0.2,0.1,0.3c0,0,0,0.1,0,0.2c0,0.1,0,0.1-0.1,0.2c0,0.1,0,0.1-0.1,0.2l-1.1,2.6c0,0.1-0.1,0.2-0.1,0.3
						c0,0.1-0.1,0.2-0.2,0.3c-0.1,0.1-0.1,0.2-0.2,0.2c-0.1,0-0.2,0.1-0.3,0.1c-0.2,0-0.3,0-0.4-0.1c-0.1-0.1-0.2-0.1-0.2-0.2
						c0-0.1-0.1-0.3-0.2-0.5l-1.1-2.6c0-0.1-0.1-0.1-0.1-0.2c0-0.1,0-0.1-0.1-0.2c0-0.1,0-0.1,0-0.2c0-0.1,0-0.1,0.1-0.2
						c0-0.1,0.1-0.1,0.2-0.2c0.1,0,0.2-0.1,0.3-0.1c0.2,0,0.3,0,0.4,0.2C38,213.1,38.1,213.2,38.2,213.5z"/>
					<path fill="#315A8D" d="M44.9,215.3h-2.2c0,0.2,0.1,0.5,0.2,0.7c0.1,0.2,0.2,0.3,0.4,0.4c0.2,0.1,0.3,0.1,0.5,0.1
						c0.1,0,0.3,0,0.4,0c0.1,0,0.2-0.1,0.3-0.1c0.1-0.1,0.2-0.1,0.3-0.2c0.1-0.1,0.2-0.2,0.3-0.3c0.1,0,0.1-0.1,0.2-0.1
						c0.1,0,0.2,0,0.3,0.1c0.1,0.1,0.1,0.1,0.1,0.3c0,0.1,0,0.2-0.1,0.3c-0.1,0.1-0.2,0.3-0.4,0.4c-0.2,0.1-0.4,0.2-0.6,0.3
						c-0.2,0.1-0.5,0.1-0.8,0.1c-0.7,0-1.3-0.2-1.7-0.6c-0.4-0.4-0.6-1-0.6-1.7c0-0.3,0-0.6,0.1-0.9c0.1-0.3,0.2-0.5,0.4-0.7
						c0.2-0.2,0.4-0.4,0.7-0.5c0.3-0.1,0.6-0.2,0.9-0.2c0.4,0,0.8,0.1,1.1,0.3c0.3,0.2,0.5,0.4,0.7,0.7c0.2,0.3,0.2,0.6,0.2,0.9
						c0,0.3-0.1,0.5-0.2,0.5C45.4,215.3,45.2,215.3,44.9,215.3z M42.7,214.7h2c0-0.4-0.1-0.7-0.3-0.9c-0.2-0.2-0.4-0.3-0.7-0.3
						c-0.3,0-0.5,0.1-0.7,0.3C42.9,214,42.7,214.3,42.7,214.7z"/>
					<path fill="#315A8D" d="M47.8,215.7v0.9c0,0.2-0.1,0.4-0.2,0.5c-0.1,0.1-0.2,0.2-0.4,0.2s-0.3-0.1-0.4-0.2
						c-0.1-0.1-0.2-0.3-0.2-0.5v-3.1c0-0.5,0.2-0.7,0.5-0.7c0.2,0,0.3,0.1,0.4,0.2c0.1,0.1,0.1,0.3,0.1,0.5c0.1-0.2,0.3-0.4,0.4-0.5
						c0.1-0.1,0.3-0.2,0.6-0.2c0.2,0,0.5,0.1,0.7,0.2c0.2,0.1,0.3,0.3,0.3,0.5c0,0.1,0,0.3-0.1,0.3c-0.1,0.1-0.2,0.1-0.3,0.1
						c0,0-0.1,0-0.3-0.1c-0.2-0.1-0.3-0.1-0.4-0.1c-0.2,0-0.3,0-0.4,0.1c-0.1,0.1-0.2,0.2-0.2,0.4c-0.1,0.2-0.1,0.4-0.1,0.6
						C47.8,215.1,47.8,215.4,47.8,215.7z"/>
					<path fill="#315A8D" d="M51.4,217.4l0.1-0.2l-1.4-3.4c-0.1-0.2-0.1-0.3-0.1-0.4c0-0.1,0-0.2,0.1-0.3c0-0.1,0.1-0.1,0.2-0.2
						c0.1,0,0.2-0.1,0.3-0.1c0.2,0,0.3,0,0.4,0.2c0.1,0.1,0.2,0.2,0.2,0.4l0.9,2.7l0.9-2.5c0.1-0.2,0.1-0.4,0.2-0.5
						c0.1-0.1,0.1-0.2,0.2-0.2c0.1,0,0.2-0.1,0.3-0.1c0.1,0,0.2,0,0.2,0.1c0.1,0,0.1,0.1,0.2,0.2c0,0.1,0.1,0.2,0.1,0.2
						c0,0,0,0.1-0.1,0.2c0,0.1-0.1,0.2-0.1,0.3l-1.4,3.8c-0.1,0.3-0.2,0.6-0.4,0.8c-0.1,0.2-0.3,0.3-0.5,0.4
						c-0.2,0.1-0.5,0.2-0.8,0.2c-0.3,0-0.6,0-0.7-0.1c-0.2-0.1-0.2-0.2-0.2-0.4c0-0.1,0-0.2,0.1-0.3c0.1-0.1,0.2-0.1,0.3-0.1
						c0.1,0,0.1,0,0.2,0c0.1,0,0.1,0,0.2,0c0.1,0,0.2,0,0.3-0.1c0.1,0,0.1-0.1,0.2-0.2C51.2,217.8,51.3,217.6,51.4,217.4z"/>
					<path fill="#315A8D" d="M58.9,215.1c0,0.3,0,0.6-0.2,0.9c-0.1,0.3-0.3,0.5-0.4,0.7c-0.2,0.2-0.4,0.4-0.7,0.5
						c-0.3,0.1-0.6,0.2-0.9,0.2c-0.3,0-0.6-0.1-0.9-0.2c-0.3-0.1-0.5-0.3-0.7-0.5c-0.2-0.2-0.3-0.4-0.5-0.7
						c-0.1-0.3-0.1-0.6-0.1-0.9c0-0.3,0.1-0.6,0.1-0.9c0.1-0.3,0.3-0.5,0.4-0.7c0.2-0.2,0.4-0.3,0.7-0.5c0.3-0.1,0.6-0.2,0.9-0.2
						c0.3,0,0.6,0,0.9,0.2c0.3,0.1,0.5,0.3,0.7,0.5c0.2,0.2,0.3,0.4,0.4,0.7C58.9,214.4,58.9,214.7,58.9,215.1z M57.8,215.1
						c0-0.5-0.1-0.8-0.3-1.1c-0.2-0.3-0.5-0.4-0.8-0.4c-0.2,0-0.4,0.1-0.6,0.2c-0.2,0.1-0.3,0.3-0.4,0.5c-0.1,0.2-0.1,0.5-0.1,0.8
						c0,0.3,0,0.5,0.1,0.8c0.1,0.2,0.2,0.4,0.4,0.5c0.2,0.1,0.4,0.2,0.6,0.2c0.3,0,0.6-0.1,0.8-0.4
						C57.7,215.8,57.8,215.5,57.8,215.1z"/>
					<path fill="#315A8D" d="M60.8,213.4v0.1c0.2-0.3,0.4-0.4,0.6-0.6c0.2-0.1,0.5-0.2,0.8-0.2c0.3,0,0.6,0.1,0.8,0.2
						c0.2,0.1,0.4,0.3,0.5,0.5c0.1,0.1,0.1,0.3,0.1,0.4c0,0.2,0,0.4,0,0.6v2.1c0,0.2,0,0.4-0.2,0.5c-0.1,0.1-0.2,0.2-0.4,0.2
						c-0.2,0-0.3-0.1-0.4-0.2c-0.1-0.1-0.2-0.3-0.2-0.5v-1.9c0-0.4-0.1-0.6-0.2-0.8c-0.1-0.2-0.3-0.3-0.6-0.3
						c-0.2,0-0.4,0.1-0.5,0.2c-0.2,0.1-0.3,0.3-0.4,0.5c-0.1,0.2-0.1,0.5-0.1,0.9v1.4c0,0.2-0.1,0.4-0.2,0.5
						c-0.1,0.1-0.2,0.2-0.4,0.2c-0.2,0-0.3-0.1-0.4-0.2c-0.1-0.1-0.2-0.3-0.2-0.5v-3.2c0-0.2,0-0.4,0.1-0.5c0.1-0.1,0.2-0.2,0.4-0.2
						c0.1,0,0.2,0,0.3,0.1c0.1,0,0.1,0.1,0.2,0.2C60.8,213.2,60.8,213.3,60.8,213.4z"/>
					<path fill="#315A8D" d="M67.9,215.3h-2.2c0,0.2,0.1,0.5,0.2,0.7c0.1,0.2,0.2,0.3,0.4,0.4c0.2,0.1,0.3,0.1,0.5,0.1
						c0.1,0,0.3,0,0.4,0c0.1,0,0.2-0.1,0.3-0.1c0.1-0.1,0.2-0.1,0.3-0.2c0.1-0.1,0.2-0.2,0.3-0.3c0.1,0,0.1-0.1,0.2-0.1
						c0.1,0,0.2,0,0.3,0.1c0.1,0.1,0.1,0.1,0.1,0.3c0,0.1,0,0.2-0.1,0.3c-0.1,0.1-0.2,0.3-0.4,0.4c-0.2,0.1-0.4,0.2-0.6,0.3
						c-0.2,0.1-0.5,0.1-0.8,0.1c-0.7,0-1.3-0.2-1.7-0.6c-0.4-0.4-0.6-1-0.6-1.7c0-0.3,0-0.6,0.1-0.9c0.1-0.3,0.2-0.5,0.4-0.7
						c0.2-0.2,0.4-0.4,0.7-0.5c0.3-0.1,0.6-0.2,0.9-0.2c0.4,0,0.8,0.1,1.1,0.3c0.3,0.2,0.5,0.4,0.7,0.7c0.2,0.3,0.2,0.6,0.2,0.9
						c0,0.3-0.1,0.5-0.2,0.5C68.4,215.3,68.2,215.3,67.9,215.3z M65.8,214.7h2c0-0.4-0.1-0.7-0.3-0.9c-0.2-0.2-0.4-0.3-0.7-0.3
						c-0.3,0-0.5,0.1-0.7,0.3C65.9,214,65.8,214.3,65.8,214.7z"/>
					<path fill="#315A8D" d="M38.9,226.6v-4.7c0-0.2,0.1-0.4,0.2-0.6c0.1-0.1,0.3-0.2,0.4-0.2c0.2,0,0.3,0.1,0.4,0.2
						c0.1,0.1,0.2,0.3,0.2,0.6v4.7c0,0.2-0.1,0.4-0.2,0.6c-0.1,0.1-0.3,0.2-0.4,0.2c-0.2,0-0.3-0.1-0.4-0.2
						C38.9,227,38.9,226.8,38.9,226.6z"/>
					<path fill="#315A8D" d="M44.9,225.8c0,0.3-0.1,0.6-0.2,0.8c-0.2,0.2-0.4,0.4-0.7,0.5c-0.3,0.1-0.6,0.2-1.1,0.2
						c-0.4,0-0.7-0.1-1-0.2c-0.3-0.1-0.5-0.3-0.6-0.5c-0.1-0.2-0.2-0.4-0.2-0.6c0-0.1,0-0.2,0.1-0.3c0.1-0.1,0.2-0.1,0.3-0.1
						c0.1,0,0.2,0,0.3,0.1c0.1,0.1,0.1,0.1,0.2,0.2c0.1,0.2,0.3,0.3,0.4,0.4c0.2,0.1,0.4,0.1,0.6,0.1c0.2,0,0.4-0.1,0.5-0.1
						c0.1-0.1,0.2-0.2,0.2-0.3c0-0.2-0.1-0.3-0.2-0.4c-0.1-0.1-0.4-0.2-0.7-0.3c-0.4-0.1-0.7-0.2-0.9-0.3c-0.2-0.1-0.4-0.2-0.6-0.4
						c-0.1-0.2-0.2-0.4-0.2-0.6c0-0.2,0.1-0.4,0.2-0.6c0.1-0.2,0.3-0.4,0.6-0.5c0.3-0.1,0.6-0.2,0.9-0.2c0.3,0,0.5,0,0.8,0.1
						c0.2,0.1,0.4,0.1,0.6,0.2c0.2,0.1,0.3,0.2,0.4,0.3c0.1,0.1,0.1,0.2,0.1,0.4c0,0.1,0,0.2-0.1,0.3c-0.1,0.1-0.2,0.1-0.4,0.1
						c-0.1,0-0.2,0-0.3-0.1c-0.1-0.1-0.2-0.2-0.3-0.3c-0.1-0.1-0.2-0.2-0.3-0.3c-0.1-0.1-0.3-0.1-0.5-0.1c-0.2,0-0.4,0-0.5,0.1
						c-0.1,0.1-0.2,0.2-0.2,0.3c0,0.1,0,0.2,0.1,0.3c0.1,0.1,0.2,0.1,0.4,0.2c0.2,0,0.4,0.1,0.7,0.2c0.3,0.1,0.6,0.2,0.8,0.3
						c0.2,0.1,0.4,0.2,0.5,0.4C44.8,225.5,44.9,225.6,44.9,225.8z"/>
					<path fill="#315A8D" d="M53.4,224.8v1.1c0,0.2,0,0.3,0,0.4c0,0.1-0.1,0.2-0.2,0.2c-0.1,0.1-0.2,0.1-0.3,0.2
						c-0.4,0.2-0.7,0.3-1,0.4c-0.3,0.1-0.7,0.1-1.1,0.1c-0.5,0-0.9-0.1-1.3-0.2c-0.4-0.1-0.7-0.3-1-0.6c-0.3-0.3-0.5-0.6-0.6-1
						c-0.1-0.4-0.2-0.8-0.2-1.3c0-0.5,0.1-0.9,0.2-1.3c0.1-0.4,0.3-0.7,0.6-1c0.3-0.3,0.6-0.5,1-0.6c0.4-0.1,0.8-0.2,1.3-0.2
						c0.4,0,0.8,0.1,1.1,0.2c0.3,0.1,0.6,0.2,0.8,0.4c0.2,0.2,0.3,0.3,0.4,0.5c0.1,0.2,0.1,0.3,0.1,0.5c0,0.2-0.1,0.3-0.2,0.4
						c-0.1,0.1-0.2,0.2-0.4,0.2c-0.1,0-0.2,0-0.3-0.1c-0.1,0-0.1-0.1-0.2-0.2c-0.1-0.2-0.3-0.4-0.4-0.5c-0.1-0.1-0.2-0.2-0.4-0.3
						c-0.2-0.1-0.4-0.1-0.7-0.1c-0.3,0-0.5,0-0.8,0.1c-0.2,0.1-0.4,0.2-0.6,0.4c-0.2,0.2-0.3,0.4-0.4,0.7c-0.1,0.3-0.1,0.6-0.1,0.9
						c0,0.7,0.2,1.2,0.5,1.6c0.3,0.4,0.8,0.6,1.3,0.6c0.3,0,0.5,0,0.8-0.1c0.2-0.1,0.5-0.2,0.7-0.3v-1h-0.9c-0.2,0-0.4,0-0.5-0.1
						c-0.1-0.1-0.2-0.2-0.2-0.3c0-0.1,0.1-0.2,0.1-0.3c0.1-0.1,0.2-0.1,0.4-0.1h1.4c0.2,0,0.3,0,0.4,0c0.1,0,0.2,0.1,0.3,0.2
						C53.4,224.4,53.4,224.6,53.4,224.8z"/>
					<path fill="#315A8D" d="M58.7,225c0,0.3,0,0.6-0.2,0.9c-0.1,0.3-0.3,0.5-0.4,0.7c-0.2,0.2-0.4,0.4-0.7,0.5
						c-0.3,0.1-0.6,0.2-0.9,0.2c-0.3,0-0.6-0.1-0.9-0.2c-0.3-0.1-0.5-0.3-0.7-0.5c-0.2-0.2-0.3-0.4-0.4-0.7s-0.2-0.6-0.2-0.9
						c0-0.3,0.1-0.6,0.2-0.9c0.1-0.3,0.3-0.5,0.4-0.7c0.2-0.2,0.4-0.4,0.7-0.5c0.3-0.1,0.6-0.2,0.9-0.2c0.3,0,0.6,0.1,0.9,0.2
						c0.3,0.1,0.5,0.3,0.7,0.5c0.2,0.2,0.3,0.4,0.4,0.7C58.6,224.4,58.7,224.7,58.7,225z M57.6,225c0-0.5-0.1-0.8-0.3-1.1
						c-0.2-0.3-0.5-0.4-0.8-0.4c-0.2,0-0.4,0.1-0.6,0.2c-0.2,0.1-0.3,0.3-0.4,0.5c-0.1,0.2-0.1,0.5-0.1,0.8c0,0.3,0,0.5,0.1,0.8
						c0.1,0.2,0.2,0.4,0.4,0.5c0.2,0.1,0.4,0.2,0.6,0.2c0.3,0,0.6-0.1,0.8-0.4C57.5,225.8,57.6,225.5,57.6,225z"/>
					<path fill="#315A8D" d="M63.7,225c0,0.3,0,0.6-0.2,0.9c-0.1,0.3-0.3,0.5-0.4,0.7c-0.2,0.2-0.4,0.4-0.7,0.5
						c-0.3,0.1-0.6,0.2-0.9,0.2s-0.6-0.1-0.9-0.2c-0.3-0.1-0.5-0.3-0.7-0.5c-0.2-0.2-0.3-0.4-0.4-0.7c-0.1-0.3-0.2-0.6-0.2-0.9
						c0-0.3,0.1-0.6,0.2-0.9c0.1-0.3,0.3-0.5,0.4-0.7c0.2-0.2,0.4-0.4,0.7-0.5c0.3-0.1,0.6-0.2,0.9-0.2c0.3,0,0.6,0.1,0.9,0.2
						c0.3,0.1,0.5,0.3,0.7,0.5c0.2,0.2,0.3,0.4,0.4,0.7C63.6,224.4,63.7,224.7,63.7,225z M62.6,225c0-0.5-0.1-0.8-0.3-1.1
						c-0.2-0.3-0.5-0.4-0.8-0.4c-0.2,0-0.4,0.1-0.6,0.2c-0.2,0.1-0.3,0.3-0.4,0.5c-0.1,0.2-0.1,0.5-0.1,0.8c0,0.3,0,0.5,0.1,0.8
						c0.1,0.2,0.2,0.4,0.4,0.5c0.2,0.1,0.4,0.2,0.6,0.2c0.3,0,0.6-0.1,0.8-0.4C62.5,225.8,62.6,225.5,62.6,225z"/>
					<path fill="#315A8D" d="M67.6,226.7v-0.1c-0.2,0.2-0.3,0.3-0.4,0.4c-0.1,0.1-0.3,0.2-0.5,0.2c-0.2,0.1-0.4,0.1-0.6,0.1
						c-0.3,0-0.5-0.1-0.7-0.2c-0.2-0.1-0.4-0.3-0.6-0.5c-0.2-0.2-0.3-0.5-0.4-0.7c-0.1-0.3-0.1-0.6-0.1-0.9c0-0.7,0.2-1.2,0.5-1.6
						c0.3-0.4,0.8-0.6,1.3-0.6c0.3,0,0.6,0.1,0.8,0.2c0.2,0.1,0.4,0.3,0.6,0.5v-1.6c0-0.2,0-0.4,0.1-0.5c0.1-0.1,0.2-0.2,0.4-0.2
						c0.2,0,0.3,0.1,0.4,0.2c0.1,0.1,0.1,0.3,0.1,0.5v4.9c0,0.2,0,0.4-0.1,0.5c-0.1,0.1-0.2,0.2-0.4,0.2c-0.2,0-0.3-0.1-0.4-0.2
						C67.7,227,67.6,226.9,67.6,226.7z M65.4,225c0,0.3,0,0.6,0.1,0.8c0.1,0.2,0.2,0.4,0.4,0.5c0.2,0.1,0.3,0.2,0.5,0.2
						c0.2,0,0.4-0.1,0.5-0.1c0.2-0.1,0.3-0.3,0.4-0.5c0.1-0.2,0.1-0.5,0.1-0.8c0-0.3,0-0.5-0.1-0.8c-0.1-0.2-0.2-0.4-0.4-0.5
						c-0.2-0.1-0.3-0.2-0.5-0.2c-0.2,0-0.4,0.1-0.5,0.2c-0.2,0.1-0.3,0.3-0.4,0.5C65.5,224.5,65.4,224.7,65.4,225z"/>
					<path fill="#315A8D" d="M19.5,236.7c-0.3,0.2-0.5,0.4-0.8,0.5c-0.3,0.1-0.5,0.2-0.8,0.2c-0.3,0-0.5-0.1-0.8-0.2
						c-0.2-0.1-0.4-0.3-0.5-0.5c-0.1-0.2-0.2-0.4-0.2-0.6c0-0.3,0.1-0.6,0.3-0.8c0.2-0.2,0.5-0.4,0.8-0.4c0.1,0,0.2-0.1,0.5-0.1
						c0.3-0.1,0.5-0.1,0.7-0.2c0.2,0,0.4-0.1,0.6-0.2c0-0.3-0.1-0.5-0.2-0.6c-0.1-0.1-0.3-0.2-0.7-0.2c-0.3,0-0.5,0-0.6,0.1
						c-0.1,0.1-0.3,0.2-0.4,0.4c-0.1,0.2-0.2,0.3-0.2,0.3c0,0-0.1,0.1-0.3,0.1c-0.1,0-0.2,0-0.3-0.1c-0.1-0.1-0.1-0.2-0.1-0.3
						c0-0.2,0.1-0.4,0.2-0.6c0.1-0.2,0.4-0.3,0.6-0.5c0.3-0.1,0.7-0.2,1.1-0.2c0.5,0,0.9,0.1,1.2,0.2c0.3,0.1,0.5,0.3,0.6,0.5
						c0.1,0.3,0.2,0.6,0.2,1c0,0.3,0,0.5,0,0.7c0,0.2,0,0.4,0,0.6c0,0.2,0,0.4,0.1,0.7c0.1,0.2,0.1,0.4,0.1,0.4
						c0,0.1-0.1,0.2-0.2,0.3c-0.1,0.1-0.2,0.1-0.4,0.1c-0.1,0-0.2-0.1-0.3-0.2C19.7,237,19.6,236.9,19.5,236.7z M19.4,235
						c-0.2,0.1-0.4,0.1-0.7,0.2c-0.3,0.1-0.5,0.1-0.6,0.1c-0.1,0-0.2,0.1-0.3,0.2c-0.1,0.1-0.2,0.2-0.2,0.4c0,0.2,0.1,0.3,0.2,0.4
						c0.1,0.1,0.3,0.2,0.5,0.2c0.2,0,0.4,0,0.6-0.1c0.2-0.1,0.3-0.2,0.4-0.4c0.1-0.2,0.2-0.4,0.2-0.8V235z"/>
					<path fill="#315A8D" d="M21.5,232.9h0.1v-0.7c0-0.2,0-0.3,0-0.4c0-0.1,0-0.2,0.1-0.3c0-0.1,0.1-0.1,0.2-0.2
						c0.1,0,0.2-0.1,0.3-0.1c0.1,0,0.3,0.1,0.4,0.2c0.1,0.1,0.1,0.2,0.1,0.3c0,0.1,0,0.2,0,0.4v0.8h0.4c0.2,0,0.3,0,0.4,0.1
						c0.1,0.1,0.1,0.2,0.1,0.3c0,0.1-0.1,0.3-0.2,0.3c-0.1,0.1-0.3,0.1-0.5,0.1h-0.2v2c0,0.2,0,0.3,0,0.4c0,0.1,0,0.2,0.1,0.2
						c0.1,0.1,0.1,0.1,0.3,0.1c0.1,0,0.2,0,0.3,0c0.1,0,0.2,0,0.3,0c0.1,0,0.2,0,0.2,0.1c0.1,0.1,0.1,0.2,0.1,0.3
						c0,0.2-0.1,0.3-0.3,0.4c-0.2,0.1-0.5,0.1-0.8,0.1c-0.3,0-0.6-0.1-0.8-0.2c-0.2-0.1-0.3-0.3-0.4-0.5c-0.1-0.2-0.1-0.5-0.1-0.8
						v-2.1h-0.1c-0.2,0-0.3,0-0.4-0.1c-0.1-0.1-0.1-0.2-0.1-0.3c0-0.1,0-0.2,0.1-0.3C21.2,232.9,21.3,232.9,21.5,232.9z"/>
					<path fill="#315A8D" d="M31,235.4c0,0.4-0.1,0.7-0.3,1c-0.2,0.3-0.5,0.5-0.8,0.7c-0.4,0.2-0.8,0.2-1.3,0.2
						c-0.6,0-1.1-0.1-1.5-0.3c-0.3-0.2-0.5-0.4-0.7-0.6c-0.2-0.3-0.3-0.5-0.3-0.8c0-0.2,0-0.3,0.2-0.4c0.1-0.1,0.2-0.2,0.4-0.2
						c0.1,0,0.2,0,0.3,0.1c0.1,0.1,0.2,0.2,0.2,0.4c0.1,0.2,0.2,0.3,0.2,0.5c0.1,0.1,0.2,0.2,0.4,0.3c0.2,0.1,0.4,0.1,0.6,0.1
						c0.4,0,0.6-0.1,0.9-0.3c0.2-0.2,0.3-0.4,0.3-0.6c0-0.2-0.1-0.4-0.2-0.5c-0.1-0.1-0.3-0.2-0.5-0.3c-0.2-0.1-0.4-0.1-0.8-0.2
						c-0.4-0.1-0.8-0.2-1.1-0.3c-0.3-0.1-0.5-0.3-0.7-0.5c-0.2-0.2-0.3-0.5-0.3-0.9c0-0.3,0.1-0.6,0.3-0.9c0.2-0.3,0.4-0.4,0.8-0.6
						c0.3-0.1,0.7-0.2,1.2-0.2c0.4,0,0.7,0,1,0.1c0.3,0.1,0.5,0.2,0.7,0.4c0.2,0.1,0.3,0.3,0.4,0.5c0.1,0.2,0.1,0.3,0.1,0.5
						c0,0.1-0.1,0.3-0.2,0.4c-0.1,0.1-0.2,0.2-0.4,0.2c-0.1,0-0.2,0-0.3-0.1c-0.1-0.1-0.1-0.2-0.2-0.3c-0.1-0.2-0.2-0.4-0.4-0.5
						c-0.2-0.1-0.4-0.2-0.7-0.2c-0.3,0-0.6,0.1-0.8,0.2c-0.2,0.1-0.3,0.3-0.3,0.5c0,0.1,0,0.2,0.1,0.3c0.1,0.1,0.2,0.2,0.3,0.2
						c0.1,0.1,0.2,0.1,0.3,0.1c0.1,0,0.3,0.1,0.6,0.2c0.3,0.1,0.6,0.2,0.9,0.3c0.3,0.1,0.5,0.2,0.7,0.3c0.2,0.1,0.3,0.3,0.4,0.5
						C31,234.8,31,235.1,31,235.4z"/>
					<path fill="#315A8D" d="M36.1,235c0,0.3-0.1,0.6-0.2,0.9c-0.1,0.3-0.3,0.5-0.4,0.7c-0.2,0.2-0.4,0.3-0.7,0.5
						c-0.3,0.1-0.6,0.2-0.9,0.2c-0.3,0-0.6-0.1-0.9-0.2c-0.3-0.1-0.5-0.3-0.7-0.5c-0.2-0.2-0.3-0.4-0.5-0.7
						c-0.1-0.3-0.2-0.6-0.2-0.9c0-0.3,0-0.6,0.2-0.9c0.1-0.3,0.2-0.5,0.4-0.7c0.2-0.2,0.4-0.4,0.7-0.5c0.3-0.1,0.6-0.2,0.9-0.2
						c0.3,0,0.6,0.1,0.9,0.2c0.3,0.1,0.5,0.3,0.7,0.5c0.2,0.2,0.3,0.4,0.4,0.7C36.1,234.4,36.1,234.7,36.1,235z M35,235
						c0-0.5-0.1-0.8-0.3-1.1c-0.2-0.3-0.5-0.4-0.8-0.4c-0.2,0-0.4,0.1-0.6,0.2c-0.2,0.1-0.3,0.3-0.4,0.5c-0.1,0.2-0.1,0.5-0.1,0.8
						c0,0.3,0,0.5,0.1,0.8c0.1,0.2,0.2,0.4,0.4,0.5c0.2,0.1,0.4,0.2,0.6,0.2c0.3,0,0.6-0.1,0.8-0.4C34.9,235.8,35,235.5,35,235z"/>
					<path fill="#315A8D" d="M40.7,235.1v1.5c0,0.2-0.1,0.4-0.2,0.5c-0.1,0.1-0.2,0.2-0.4,0.2c-0.2,0-0.3-0.1-0.4-0.2
						c-0.1-0.1-0.2-0.3-0.2-0.5v-1.8c0-0.3,0-0.5,0-0.7c0-0.2-0.1-0.3-0.2-0.4c-0.1-0.1-0.2-0.2-0.4-0.2c-0.4,0-0.6,0.1-0.7,0.4
						c-0.1,0.3-0.2,0.6-0.2,1.1v1.5c0,0.2-0.1,0.4-0.2,0.5c-0.1,0.1-0.2,0.2-0.4,0.2c-0.2,0-0.3-0.1-0.4-0.2
						c-0.1-0.1-0.2-0.3-0.2-0.5v-3.2c0-0.2,0-0.4,0.1-0.5c0.1-0.1,0.2-0.2,0.4-0.2c0.2,0,0.3,0,0.4,0.1c0.1,0.1,0.2,0.2,0.2,0.4v0.1
						c0.2-0.2,0.4-0.4,0.6-0.5c0.2-0.1,0.5-0.2,0.7-0.2c0.3,0,0.5,0.1,0.7,0.2c0.2,0.1,0.4,0.3,0.5,0.5c0.2-0.2,0.4-0.4,0.6-0.5
						c0.2-0.1,0.4-0.2,0.7-0.2c0.3,0,0.6,0.1,0.8,0.2c0.2,0.1,0.4,0.3,0.5,0.5c0.1,0.2,0.1,0.5,0.1,0.9v2.2c0,0.2-0.1,0.4-0.2,0.5
						c-0.1,0.1-0.2,0.2-0.4,0.2c-0.2,0-0.3-0.1-0.4-0.2c-0.1-0.1-0.2-0.3-0.2-0.5v-1.9c0-0.2,0-0.4,0-0.6c0-0.1-0.1-0.3-0.2-0.4
						c-0.1-0.1-0.2-0.1-0.4-0.1c-0.1,0-0.3,0-0.4,0.1c-0.1,0.1-0.2,0.2-0.3,0.4C40.7,234.3,40.7,234.6,40.7,235.1z"/>
					<path fill="#315A8D" d="M47.5,235.3h-2.2c0,0.2,0.1,0.5,0.2,0.7c0.1,0.2,0.2,0.3,0.4,0.4c0.2,0.1,0.3,0.1,0.5,0.1
						c0.1,0,0.3,0,0.4-0.1c0.1,0,0.2-0.1,0.3-0.1c0.1-0.1,0.2-0.1,0.3-0.2c0.1-0.1,0.2-0.2,0.3-0.3c0.1,0,0.1-0.1,0.2-0.1
						c0.1,0,0.2,0,0.3,0.1c0.1,0.1,0.1,0.1,0.1,0.3c0,0.1,0,0.2-0.1,0.4c-0.1,0.1-0.2,0.3-0.4,0.4c-0.2,0.1-0.4,0.2-0.6,0.3
						c-0.2,0.1-0.5,0.1-0.8,0.1c-0.7,0-1.3-0.2-1.7-0.6s-0.6-1-0.6-1.7c0-0.3,0-0.6,0.1-0.9c0.1-0.3,0.2-0.5,0.4-0.7
						c0.2-0.2,0.4-0.4,0.7-0.5c0.3-0.1,0.6-0.2,0.9-0.2c0.4,0,0.8,0.1,1.1,0.3c0.3,0.2,0.5,0.4,0.7,0.7c0.2,0.3,0.2,0.6,0.2,0.9
						c0,0.3-0.1,0.5-0.2,0.5C48,235.3,47.8,235.3,47.5,235.3z M45.3,234.7h2c0-0.4-0.1-0.7-0.3-0.9c-0.2-0.2-0.4-0.3-0.7-0.3
						c-0.3,0-0.5,0.1-0.7,0.3C45.4,234,45.3,234.3,45.3,234.7z"/>
					<path fill="#315A8D" d="M49.4,232.9h0.1v-0.7c0-0.2,0-0.3,0-0.4c0-0.1,0-0.2,0.1-0.3c0-0.1,0.1-0.1,0.2-0.2
						c0.1,0,0.2-0.1,0.3-0.1c0.1,0,0.3,0.1,0.4,0.2c0.1,0.1,0.1,0.2,0.1,0.3c0,0.1,0,0.2,0,0.4v0.8H51c0.2,0,0.3,0,0.4,0.1
						c0.1,0.1,0.1,0.2,0.1,0.3c0,0.1-0.1,0.3-0.2,0.3c-0.1,0.1-0.3,0.1-0.5,0.1h-0.2v2c0,0.2,0,0.3,0,0.4c0,0.1,0,0.2,0.1,0.2
						c0.1,0.1,0.1,0.1,0.3,0.1c0.1,0,0.2,0,0.3,0c0.1,0,0.2,0,0.3,0c0.1,0,0.2,0,0.2,0.1c0.1,0.1,0.1,0.2,0.1,0.3
						c0,0.2-0.1,0.3-0.3,0.4c-0.2,0.1-0.5,0.1-0.8,0.1c-0.3,0-0.6-0.1-0.8-0.2c-0.2-0.1-0.3-0.3-0.3-0.5c-0.1-0.2-0.1-0.5-0.1-0.8
						v-2.1h-0.1c-0.2,0-0.3,0-0.4-0.1c-0.1-0.1-0.1-0.2-0.1-0.3c0-0.1,0-0.2,0.1-0.3C49.1,232.9,49.2,232.9,49.4,232.9z"/>
					<path fill="#315A8D" d="M53.3,231.8v1.6c0.1-0.2,0.3-0.3,0.4-0.4c0.1-0.1,0.3-0.2,0.4-0.2c0.2,0,0.3-0.1,0.5-0.1
						c0.3,0,0.5,0.1,0.8,0.2c0.2,0.1,0.4,0.3,0.5,0.5c0.1,0.1,0.1,0.3,0.2,0.4c0,0.2,0,0.4,0,0.6v2.1c0,0.2,0,0.4-0.2,0.5
						c-0.1,0.1-0.2,0.2-0.4,0.2c-0.4,0-0.6-0.2-0.6-0.7v-1.9c0-0.4,0-0.6-0.2-0.8c-0.1-0.2-0.3-0.3-0.6-0.3c-0.2,0-0.4,0.1-0.5,0.2
						c-0.2,0.1-0.3,0.3-0.4,0.5c-0.1,0.2-0.1,0.5-0.1,0.9v1.5c0,0.2,0,0.4-0.1,0.5c-0.1,0.1-0.2,0.2-0.4,0.2c-0.4,0-0.5-0.2-0.5-0.7
						v-4.8c0-0.2,0-0.4,0.1-0.5c0.1-0.1,0.2-0.2,0.4-0.2c0.2,0,0.3,0.1,0.4,0.2C53.3,231.4,53.3,231.6,53.3,231.8z"/>
					<path fill="#315A8D" d="M57.8,232.3c-0.2,0-0.3,0-0.4-0.1c-0.1-0.1-0.2-0.2-0.2-0.4c0-0.2,0.1-0.3,0.2-0.4
						c0.1-0.1,0.2-0.2,0.4-0.2c0.1,0,0.3,0,0.4,0.1c0.1,0.1,0.2,0.2,0.2,0.4c0,0.2-0.1,0.3-0.2,0.4C58.1,232.2,58,232.3,57.8,232.3z
						 M58.4,233.4v3.2c0,0.2,0,0.4-0.2,0.5c-0.1,0.1-0.2,0.2-0.4,0.2c-0.2,0-0.3-0.1-0.4-0.2c-0.1-0.1-0.2-0.3-0.2-0.5v-3.2
						c0-0.2,0-0.4,0.2-0.5c0.1-0.1,0.2-0.2,0.4-0.2c0.2,0,0.3,0.1,0.4,0.2C58.3,233,58.4,233.2,58.4,233.4z"/>
					<path fill="#315A8D" d="M60.6,233.4v0.1c0.2-0.3,0.4-0.4,0.6-0.6c0.2-0.1,0.5-0.2,0.8-0.2c0.3,0,0.6,0.1,0.8,0.2
						c0.2,0.1,0.4,0.3,0.5,0.5c0.1,0.1,0.1,0.3,0.1,0.4c0,0.2,0,0.4,0,0.6v2.1c0,0.2-0.1,0.4-0.2,0.5c-0.1,0.1-0.2,0.2-0.4,0.2
						c-0.2,0-0.3-0.1-0.4-0.2c-0.1-0.1-0.2-0.3-0.2-0.5v-1.9c0-0.4-0.1-0.6-0.2-0.8c-0.1-0.2-0.3-0.3-0.6-0.3
						c-0.2,0-0.4,0.1-0.5,0.2c-0.2,0.1-0.3,0.3-0.4,0.5c-0.1,0.2-0.1,0.5-0.1,0.9v1.4c0,0.2-0.1,0.4-0.2,0.5
						c-0.1,0.1-0.2,0.2-0.4,0.2c-0.2,0-0.3-0.1-0.4-0.2c-0.1-0.1-0.2-0.3-0.2-0.5v-3.2c0-0.2,0-0.4,0.1-0.5c0.1-0.1,0.2-0.2,0.4-0.2
						c0.1,0,0.2,0,0.3,0.1c0.1,0,0.1,0.1,0.2,0.2C60.5,233.1,60.6,233.3,60.6,233.4z"/>
					<path fill="#315A8D" d="M68.7,233.6v3.2c0,0.4,0,0.7-0.1,1c-0.1,0.3-0.2,0.5-0.4,0.7c-0.2,0.2-0.4,0.3-0.7,0.4
						c-0.3,0.1-0.6,0.1-1,0.1c-0.4,0-0.7-0.1-1-0.2c-0.3-0.1-0.5-0.2-0.7-0.4c-0.2-0.2-0.2-0.3-0.2-0.5c0-0.1,0-0.2,0.1-0.3
						c0.1-0.1,0.2-0.1,0.3-0.1c0.2,0,0.3,0.1,0.4,0.2c0.1,0.1,0.1,0.1,0.2,0.2c0.1,0.1,0.1,0.1,0.2,0.2c0.1,0,0.2,0.1,0.3,0.1
						c0.1,0,0.2,0,0.4,0c0.3,0,0.5,0,0.7-0.1c0.2-0.1,0.3-0.2,0.3-0.3c0.1-0.1,0.1-0.3,0.1-0.5c0-0.2,0-0.4,0-0.8
						c-0.2,0.2-0.4,0.4-0.6,0.5c-0.2,0.1-0.5,0.2-0.8,0.2c-0.4,0-0.7-0.1-1-0.3c-0.3-0.2-0.5-0.5-0.6-0.8c-0.1-0.3-0.2-0.7-0.2-1.2
						c0-0.3,0-0.6,0.1-0.9c0.1-0.3,0.2-0.5,0.4-0.7c0.2-0.2,0.4-0.3,0.6-0.4c0.2-0.1,0.5-0.1,0.7-0.1c0.3,0,0.6,0.1,0.8,0.2
						c0.2,0.1,0.4,0.3,0.6,0.6v-0.2c0-0.2,0-0.3,0.1-0.4s0.2-0.2,0.4-0.2c0.2,0,0.4,0.1,0.4,0.2C68.6,233.1,68.7,233.3,68.7,233.6z
						 M65.4,235c0,0.4,0.1,0.8,0.3,1c0.2,0.2,0.4,0.3,0.8,0.3c0.2,0,0.4,0,0.5-0.1c0.2-0.1,0.3-0.2,0.4-0.4c0.1-0.2,0.2-0.4,0.2-0.7
						c0-0.5-0.1-0.8-0.3-1.1c-0.2-0.3-0.5-0.4-0.8-0.4c-0.3,0-0.6,0.1-0.8,0.4C65.5,234.2,65.4,234.5,65.4,235z"/>
				</g>
			</g>
			<g>
				<path fill="#315A8D" d="M282.8,262c-0.5-4.1-8.2-6.8-13-6.8c-1.2,0-2.3,0.2-3.1,0.5c-0.1-0.2-0.1-0.4-0.2-0.6
					c12.4-12.6,13.2-24,11.3-31.8c-5-20.2-31.7-34.4-55.4-38c-4.3-0.7-6.3-1.9-6.3-2.8c0-1.1,1.5-2.7,2.7-3.6
					c0.2-0.1,0.3-0.1,0.5-0.2c0,0,0,0,0.1-0.1c3.2,3.3,7.9,7.3,12.8,7.3c2.2,0,5.3-0.8,7.7-4.9c2.2-3.8,1.9-8.8-0.8-13.8
					c-2.8-5.1-7.9-9.8-14.3-13.2c-7.3-3.9-16.3-6.2-25.9-6.5c-1.1,0-2.2-0.1-3.3-0.1c-12.6,0-23.6,2.4-32.7,7.1
					c-7.9,4.1-14.3,9.9-19.1,17.3c-6.1,9.5-8.2,19.5-8.8,26.1c0,0,0,0.1,0,0.1c-5.4-0.3-11.2,0-18,1.3c-0.2-0.2-0.5-0.5-0.7-0.7
					c-2.2-2.3-4.6-4.8-7.9-4.8c0,0,0,0-0.1,0c-2.4,0-4.8,1.4-7.3,4.2c-0.2,0.2-4.6,5.1-9.4,13.9c-4.4,8-9.8,20.8-11.2,36.5
					c-2.6,3-8,12.7-4.9,22c2.9,8.8,12.2,14.4,27.5,16.6c10.3,1.5,20.2,2.2,29.5,2.2c12.3,0,23.4-1.3,32.9-3.9
					c2.6,0.3,5.5,0.5,8.6,0.5c26.3,0,63.5-11.1,75-15.9c2.2,0.2,4.7,0.4,7.5,0.4c4,0,10-0.3,16.6-1.5c0,0,0,0,0.1,0
					C279.8,267.3,283.1,265,282.8,262z"/>
				<path fill="#315A8D" d="M195.4,147.5c1.1,0,2.2,0,3.3,0.1c9.6,0.3,18.5,2.5,25.9,6.5c6.4,3.4,11.5,8.1,14.3,13.2
					c2.7,5,3,10,0.8,13.8c-2.4,4-5.5,4.9-7.7,4.9c-4.9,0-9.6-4-12.8-7.3c-0.1,0-0.1,0.1-0.1,0.1c-0.1,0.1-0.3,0.2-0.5,0.2
					c-1.2,0.9-2.7,2.5-2.7,3.6c0,0.9,2,2.1,6.3,2.8c23.7,3.6,50.4,17.8,55.4,38c2,7.9,1.1,19.2-11.3,31.8c0.1,0.2,0.1,0.4,0.2,0.6
					c0.9-0.3,1.9-0.5,3.1-0.5c4.9,0,12.6,2.7,13,6.8c0.3,3-3,5.3-9.8,6.9c0,0,0,0-0.1,0c-6.5,1.2-12.6,1.5-16.6,1.5
					c-2.8,0-5.3-0.1-7.5-0.4c-11.6,4.8-48.7,15.9-75,15.9c-3.1,0-6-0.2-8.6-0.5c-9.5,2.6-20.6,3.9-32.9,3.9
					c-9.3,0-19.2-0.7-29.5-2.2c-15.3-2.2-24.6-7.8-27.5-16.6c-3.1-9.3,2.3-19.1,4.9-22c1.4-15.8,6.9-28.6,11.2-36.5
					c4.8-8.7,9.2-13.7,9.4-13.9c2.6-2.8,4.9-4.1,7.3-4.2c0,0,0,0,0.1,0c3.3,0,5.7,2.6,7.9,4.8c0.2,0.2,0.5,0.5,0.7,0.7
					c5.2-1,9.8-1.4,14.1-1.4c1.3,0,2.7,0,3.9,0.1c0,0,0-0.1,0-0.1c0.6-6.6,2.7-16.6,8.8-26.1c4.8-7.4,11.2-13.2,19.1-17.3
					C171.8,149.9,182.8,147.5,195.4,147.5 M195.4,145.8c-12.9,0-24.2,2.5-33.5,7.3c-8.1,4.2-14.8,10.3-19.7,17.9
					c-5.9,9.1-8.1,18.6-8.9,25.4c-0.8,0-1.6,0-2.4,0c-4.3,0-8.7,0.4-13.5,1.2c-2.3-2.4-5.2-5.4-9.2-5.4c-3,0-5.8,1.6-8.7,4.7
					c-0.2,0.2-4.7,5.2-9.6,14.2c-4.4,8-9.9,20.9-11.4,36.7c-3.1,3.9-8,13.9-4.9,23.3c3.1,9.4,12.9,15.4,28.9,17.8
					c10.3,1.5,20.3,2.3,29.7,2.3c12.4,0,23.5-1.3,33-3.9c2.6,0.3,5.4,0.4,8.4,0.4c25.6,0,61.9-10.4,75.3-15.9
					c2.1,0.2,4.6,0.3,7.2,0.3c4,0,10.2-0.3,16.9-1.5c0,0,0.1,0,0.1,0c7.9-1.9,11.6-4.8,11.2-8.8c-0.6-5.4-9.1-8.2-14.2-8.4
					c10.6-12.3,10.9-23.3,9.1-30.6c-4.2-17.1-23.2-30-43.2-36.2c1.7-0.8,3.5-2.2,5-4.8c2.5-4.3,2.3-10-0.8-15.5
					c-2.9-5.4-8.3-10.3-15-13.9c-7.6-4-16.8-6.4-26.7-6.7C197.6,145.8,196.5,145.8,195.4,145.8L195.4,145.8z M217.8,182.1
					c0.2-0.3,0.6-0.9,1.2-1.4c0.9,0.9,1.9,1.8,3,2.7C219.5,183,218.3,182.4,217.8,182.1L217.8,182.1z"/>
			</g>
			<g>
				<g>
					<path fill="#E9C093" d="M139.2,216.7c-6.1-13.4-2.8-68.6,59.4-66.6c29.7,1,44.4,20.3,38.9,29.6c-5.5,9.3-15.7-2.1-17.3-3.8
						c-1.7-1.7-15.3,9.3,1.7,11.8c38.9,5.9,79.5,39.3,33.8,73.2C232,273.6,159.5,261.6,139.2,216.7z"/>
					<path fill="#315A8D" d="M195.4,150.1c1.1,0,2.1,0,3.3,0c29.7,1,44.4,20.3,38.9,29.6c-1.6,2.6-3.5,3.6-5.5,3.6
						c-5.1,0-10.6-6.2-11.8-7.4c-0.1-0.1-0.3-0.2-0.5-0.2c-3,0-13.6,9.6,2.2,12c38.9,5.9,79.5,39.3,33.8,73.2
						c-5.8,3.1-14.6,4.8-24.9,4.8c-31.4,0-76.3-15.2-91.6-49C133.2,203.5,136.3,150.1,195.4,150.1 M195.4,147.3
						c-29.8,0-44.7,13.4-51.9,24.6c-10.6,16.4-10.7,37.2-6.8,46c16.8,37.1,65.5,50.6,94.1,50.6c10.9,0,20-1.8,26.2-5.1
						c0.1-0.1,0.2-0.1,0.3-0.2c21.3-15.7,22.9-30.4,20.5-39.9c-5-20.3-31.8-34.6-55.6-38.2c-4.4-0.7-6.1-1.9-6.1-2.6
						c0-1.1,1.7-2.9,3-3.6c3.3,3.3,7.9,7.3,12.9,7.3c2.3,0,5.5-0.9,7.9-5c2.3-3.8,2-8.9-0.8-14c-4.8-8.7-18.2-19.1-40.4-19.8
						C197.6,147.3,196.5,147.3,195.4,147.3L195.4,147.3z"/>
				</g>
				<path fill="#FFFFFF" d="M221.9,187.8c-17-2.6-3.4-13.5-1.7-11.8c1.7,1.7,11.5,12.6,17,4.3c2.2-4.6-14.1-16.3-24.5-10.5
					c-14,7.6-14.5,26.8-0.5,32.5c17.1,6.3,66,8.2,52.7,41.2c-1.3,3.8-10.2,10.8-9.5,15.2c0.1,0.9,0.4,1.5,0.7,2.1
					C301.2,226.9,260.7,193.7,221.9,187.8z"/>
				<g>
					<path fill="#E9C093" d="M174.5,236.4c0,0,73.6-36.8,91.4,21.1c4.3-4.3,28.3,5.1,6.8,10.1c-9.1,1.7-18.6,1.7-24,1.1
						c-16.1,6.8-99.1,31.1-102,1.9C143.6,241.5,174.5,236.4,174.5,236.4z"/>
					<path fill="#315A8D" d="M173.8,286.1c-17.9,0-27.5-5.1-28.5-15.3c-2.9-28.8,26-35.2,28.8-35.7c2.4-1.2,24.2-11.6,46.9-11.6
						c23.2,0,38.6,10.8,45.7,32c0.8-0.3,1.9-0.4,3-0.4c4.9,0,12.7,2.8,13.2,7c0.5,4.6-7.3,6.4-9.9,7c-6.6,1.2-12.7,1.5-16.6,1.5
						c-2.7,0-5.3-0.1-7.5-0.4C237.2,275,200.1,286.1,173.8,286.1z M221,226.3c-22.8,0-45.6,11.3-45.8,11.4c-0.1,0.1-0.3,0.1-0.4,0.1
						c-1.2,0.2-29.6,5.2-26.8,32.8c0.9,8.5,9.5,12.8,25.8,12.8c25.8,0,63.6-11.3,74.3-15.8c0.2-0.1,0.5-0.1,0.7-0.1
						c2.1,0.3,4.7,0.4,7.5,0.4c3.8,0,9.7-0.2,16.1-1.4c6.3-1.5,7.8-3.2,7.7-4c-0.2-1.8-5.7-4.5-10.4-4.5c-1.3,0-2.4,0.3-2.9,0.7
						c-0.3,0.3-0.8,0.5-1.3,0.4c-0.5-0.1-0.8-0.5-1-0.9C258.1,236.9,243.4,226.3,221,226.3z"/>
				</g>
				<path fill="#E9C093" d="M185.1,232.6c0,0,38.1,18.6,65.6-3.8l-4.9-14l-37.6-4.4L185.1,232.6z"/>
				<g>
					<path fill="#E9C093" d="M185.1,232.6c0,0,38.1,18.6,65.6-3.8"/>
					<path fill="#315A8D" d="M217.8,241.1c-18,0-33.1-7.2-33.3-7.3c-0.7-0.3-1-1.2-0.6-1.8c0.3-0.7,1.2-1,1.8-0.6
						c0.4,0.2,37.6,18,64.1-3.6c0.6-0.5,1.5-0.4,1.9,0.2c0.5,0.6,0.4,1.5-0.2,2C241,238.5,228.8,241.1,217.8,241.1z"/>
				</g>
				<g>
					<g>
						<path fill="#E9C093" d="M198.3,251.6c1.3-10.8-2.1-27-24.2-53.3c-11.4-10.8-21.6-8.2-19,5.1c-11.4-3.2-22.2-5.7-38.7-2.5
							c-3.8-3.8-7.6-9.5-14.6-1.9c0,0-17.8,19.7-20.3,50.1c-4.4,4.4-17.8,31.1,21.6,36.8c25.4,3.7,51.8,3.1,70.4-4.5"/>
						<path fill="#315A8D" d="M132.3,289.5c-9.3,0-19.2-0.7-29.5-2.2c-15.4-2.2-24.7-7.8-27.6-16.7c-2.9-8.7,1.7-18.5,4.9-22.1
							c2.7-30.3,19.9-49.6,20.6-50.5c2.6-2.8,5-4.2,7.4-4.2c0,0,0,0,0.1,0c3.3,0,5.8,2.6,8,4.9c0.2,0.2,0.4,0.4,0.6,0.7
							c15.1-2.8,25.4-0.9,36.6,2.1c-0.7-6.7,2.1-9.4,4-10.4c4.4-2.4,11.1,0,17.7,6.2c18.4,21.8,26.4,39.6,24.7,54.4
							c-0.1,0.8-0.8,1.3-1.5,1.2c-0.8-0.1-1.3-0.8-1.2-1.5c1.6-14.1-6.2-31.2-23.9-52.2c-5.5-5.1-11.1-7.4-14.4-5.6
							c-2.3,1.3-3.2,4.8-2.2,9.6c0.1,0.5-0.1,1-0.4,1.3c-0.4,0.3-0.8,0.4-1.3,0.3c-11.9-3.3-22.2-5.6-38.1-2.5
							c-0.5,0.1-0.9-0.1-1.2-0.4c-0.4-0.4-0.8-0.8-1.2-1.2c-1.9-2-3.8-4-6-4c0,0,0,0,0,0c-1.6,0-3.4,1.1-5.4,3.3
							c-0.2,0.2-17.5,19.7-19.9,49.3c0,0.3-0.2,0.6-0.4,0.9c-2.5,2.5-7.3,11.6-4.6,19.7c2.6,7.7,11.1,12.7,25.4,14.8
							c28.1,4.1,52.8,2.5,69.7-4.4c0.7-0.3,1.5,0,1.8,0.8c0.3,0.7,0,1.5-0.8,1.8C162.9,287.2,148.6,289.5,132.3,289.5z"/>
					</g>
					<g>
						<path fill="#FFFFFF" d="M163.6,275.7c3.4-15.1-12.3-26.5-24.3-23.7c-12,2.8-23.4,4.3-35.4,2.2c-4.4-0.8-15.7-9.6-23.5-1.8
							c-4.8,8.3-9.5,27.9,23.2,32.7c18.9,2.7,38.4,3.1,54.6-0.3C160.8,282.5,162.8,279.6,163.6,275.7z"/>
						<path fill="#315A8D" d="M140,248.5c-0.3,1.7-2.3,2.5-5.1,2.5c-2.8,0-4.6-0.8-5.1-2.5c-0.6-2.3,2.3-4,5.1-4
							C137.7,244.4,140.4,246.1,140,248.5z"/>
						<path fill="#FFFFFF" d="M142.4,238c0,3-3.2,3.5-7.1,3.5c-3.9,0-7.1-0.6-7.1-3.5c0-3,3.2-5.3,7.1-5.3
							C139.2,232.6,142.4,235,142.4,238z"/>
						<path fill="#315A8D" d="M102.3,247.8c-0.2,1.4-1.9,2.3-4.7,2.3c-2.8,0-5.1-0.5-5.5-2.3c-0.5-2.4,2.3-4,5.1-4
							C100.1,243.7,102.7,245.4,102.3,247.8z"/>
						<path fill="#FFFFFF" d="M103.6,237.4c0,3-3.2,3.6-7.1,3.6c-3.9,0-7.1-0.6-7.1-3.6c0-3,3.2-5.4,7.1-5.4
							C100.4,232,103.6,234.4,103.6,237.4z"/>
						<path fill="#315A8D" d="M120.1,256.8c-0.2,2.9-3.9,4.5-8.1,4.3c-4.2-0.3-7.3-2.4-7.1-5.2c0.2-2.9,3.7-4.6,7.9-4.4
							C117,251.8,120.3,253.9,120.1,256.8z"/>
						<g>
							<path fill="#E9C093" d="M115.1,265.6c0,0,5.4,0.6,6.7-1.3"/>
							<path fill="#315A8D" d="M117.1,267.1c-0.9,0-1.7-0.1-2.2-0.1c-0.8-0.1-1.3-0.8-1.2-1.5s0.8-1.3,1.5-1.2
								c2.2,0.3,4.9,0,5.3-0.7c0.4-0.6,1.3-0.8,1.9-0.4c0.6,0.4,0.8,1.3,0.4,1.9C121.8,266.7,119.2,267.1,117.1,267.1z"/>
						</g>
					</g>
				</g>
				<g>
					<path fill="#E9C093" d="M193.4,260.8c0,0,11.7,2.1,16.5,1.3c4.8-0.8,3.5-2.9,7-2.5c3.5,0.4,5.7,6.7-1.3,11.8
						c-7,5-30.8,7.1-30.8,7.1"/>
					<path fill="#315A8D" d="M184.9,279.8c-0.7,0-1.3-0.5-1.4-1.3c-0.1-0.8,0.5-1.4,1.3-1.5c0.2,0,23.5-2.1,30.1-6.8
						c4.5-3.2,4.1-6.4,3.9-7.2c-0.3-1.1-1.1-1.9-2-2c-1.2-0.1-1.4,0-2,0.5c-0.8,0.6-1.9,1.5-4.6,2c-4.9,0.9-16.5-1.2-17-1.3
						c-0.8-0.1-1.3-0.8-1.1-1.6s0.9-1.3,1.6-1.1c0.1,0,11.5,2.1,16,1.3c2-0.3,2.6-0.9,3.3-1.4c1-0.8,1.9-1.4,4.1-1.1
						c2,0.2,3.7,1.9,4.3,4.1c0.9,3.5-0.9,7.3-4.9,10.2c-7.2,5.2-30.5,7.3-31.5,7.4C185,279.8,184.9,279.8,184.9,279.8z"/>
				</g>
				<path fill="#315A8D" d="M218.3,179c-0.4,0-0.8-0.2-1-0.5c-0.5-0.6-0.5-1.4,0.1-2c0.1-0.1,2.5-2.1,6.4-1.6
					c0.8,0.1,1.3,0.8,1.2,1.6c-0.1,0.8-0.8,1.3-1.6,1.2c-2.6-0.4-4.1,0.9-4.1,0.9C218.9,178.9,218.6,179,218.3,179z"/>
			</g>
			<g>
				<g>
					<path fill="#315A8D" d="M6.2,166c0,15.7,17.8,28.4,36.5,28.4c18.7,0,31.3-12.7,31.3-28.4c0-15.7-19.2-28.4-37.9-28.4
						C17.4,137.5,6.2,150.3,6.2,166z"/>
					<polygon fill="#315A8D" points="55.9,191.5 65.8,199.2 60.6,201.6 67.7,207.3 44.1,198.8 52.1,196.9 41.8,191.6 					"/>
				</g>
				<g>
					<g>
						<path fill="#E9C093" d="M37.5,151.9c0,0.4-0.1,0.8-0.2,1.3c-0.5,2.1-1.4,3.8-2.8,5.2c-1.1,1.1-2.4,1.9-4,2.4
							c-1.1,0.4-2.3,0.6-3.7,0.7c-0.2,0-0.4,0-0.7,0c-0.3,0-0.5,0-0.5,0l-0.6,0c-0.5,0-0.8-0.1-1-0.3c-0.2-0.2-0.3-0.4-0.3-0.7
							l0-0.1c0-0.2,0-0.5,0-0.7c0-0.8,0-2.1,0.1-3.8c0-2,0.1-3.7,0.2-5.3c0-0.7,0.1-1.3,0.1-2c0-0.4,0.1-0.7,0.1-0.8
							c0-0.1,0.1-0.3,0.3-0.3c0.1-0.1,0.4-0.1,0.7-0.2c0.8-0.2,1.8-0.3,3-0.3c0.4,0,0.8,0,1,0c1.8,0.1,3.4,0.4,4.9,1
							c1.6,0.6,2.6,1.6,3.1,2.9C37.4,151.1,37.5,151.5,37.5,151.9z M32.5,152.8c0-0.7-0.4-1.2-1.3-1.6c-0.5-0.2-1.1-0.3-1.8-0.3
							c-0.3,0-0.5,0-0.6,0c-0.8,0.1-1.2,0.4-1.2,0.9v0.1c0,0.6,0,0.9,0,1.1v0.7v0.9v0.8v0.3c0,0.4,0,0.7,0.1,0.8
							c0,0.1,0.1,0.1,0.2,0.1c0,0,0.1,0,0.1,0c0.4-0.1,0.9-0.4,1.6-0.8c0.7-0.4,1.3-0.9,1.9-1.4C32.2,153.9,32.5,153.4,32.5,152.8z"
							/>
						<path fill="#E9C093" d="M46.7,154.9c0.2,0.5,0.3,1.2,0.3,2c0,1.6-0.5,2.8-1.5,3.6c-0.4,0.3-0.9,0.5-1.6,0.7
							c-0.7,0.2-1.4,0.3-2,0.3c-1,0-1.7-0.4-2.3-1.2c-0.3-0.4-0.5-0.7-0.6-1.2c-0.1-0.4-0.2-1.1-0.3-1.8c-0.1-0.4-0.1-0.7-0.1-1.1
							c0-0.9,0.2-1.7,0.5-2.3c0.3-0.7,0.8-1.2,1.5-1.5c0.5-0.2,0.9-0.3,1.4-0.3c0.6,0,1.3,0.1,1.9,0.3c0.7,0.3,1.3,0.6,1.7,1.1
							C46.1,154,46.5,154.5,46.7,154.9z M44.3,156.3c0-0.4-0.2-0.8-0.5-1.1c-0.5-0.3-1-0.5-1.4-0.5c-0.3,0-0.6,0.1-0.8,0.3
							c-0.2,0.2-0.3,0.5-0.3,0.9c0,0.3,0.1,0.5,0.2,0.8c0.2,0.4,0.4,0.7,0.7,0.9c0.3,0.3,0.6,0.4,0.9,0.4c0.3,0,0.6-0.2,0.7-0.5
							C44.1,157.1,44.3,156.6,44.3,156.3z"/>
						<path fill="#E9C093" d="M56.3,155.2c0,1.5,0.1,2.4,0.1,2.7l-0.1,3.5c0,1.2-0.1,2-0.1,2.3c-0.1,0.6-0.1,1.1-0.3,1.5
							c-0.1,0.3-0.3,0.6-0.5,0.7c-0.2,0.2-0.5,0.3-0.8,0.3c-0.6,0.1-1.1,0.2-1.4,0.2c-0.3,0.1-0.7,0.1-1.1,0.1
							c-0.8,0-1.5-0.1-2.1-0.4c-0.8-0.3-1.2-0.8-1.2-1.4c0-0.1,0-0.3,0.1-0.5c0.2-0.7,0.6-1.1,1.2-1.1c0.2,0,0.4,0.1,0.7,0.1
							c0.6,0.3,1.2,0.4,1.6,0.5c0,0,0.1,0,0.2,0c0.5,0,0.8-0.2,0.9-0.7c0.2-0.6,0.3-1.2,0.3-1.9c0-0.5,0-0.7,0-0.7
							c-0.2,0.3-0.5,0.5-1,0.7c-0.4,0.2-0.9,0.3-1.4,0.3h-0.2c-1.1,0-1.9-0.4-2.4-1.1c-0.6-0.9-0.9-2-0.9-3.2c0-1.5,0.4-2.5,1.3-3.2
							c0.9-0.6,1.9-1,3.1-1c1.1,0,1.9,0.2,2.4,0.8c0.3-0.7,0.5-1,0.7-1h0l0.4,0.1l0.4,0.1c0.2,0.2,0.4,0.4,0.4,0.7
							c0,0.1,0,0.2,0,0.2l-0.1,0.6c0,0.1-0.1,0.3-0.1,0.4L56.3,155.2z M52.7,158.7c0.2-0.1,0.4-0.3,0.6-0.5c0.2-0.2,0.3-0.5,0.3-0.7
							c0-0.2,0.1-0.5,0.1-0.7c0-0.7-0.2-1.3-0.6-1.6c-0.2-0.2-0.5-0.3-0.8-0.3s-0.5,0.1-0.8,0.3c-0.3,0.2-0.5,0.4-0.7,0.8
							c-0.2,0.3-0.3,0.7-0.3,1.2c0,0.9,0.2,1.4,0.7,1.7c0.2,0.1,0.3,0.1,0.6,0.1C52.1,159,52.4,158.9,52.7,158.7z"/>
						<path fill="#E9C093" d="M18.2,172.9c0-0.3-0.1-0.5-0.1-0.8c0-0.5-0.1-0.9-0.1-1.3c0-1.4,0.4-2.1,1.3-2.1h0.2
							c1,0.1,2.2,0.1,3.7,0.1h1.2c1,0,1.7,0,2.1,0c0.7,0,1.3,0,1.7,0.1c0.6,0.1,0.9,0.1,1,0.2c0.2,0.1,0.3,0.5,0.3,1l0,0.6
							c0,0.3,0,1,0.1,2.1l0,0.5c0,0.3-0.2,0.6-0.5,0.6c-0.1,0-0.2,0.1-0.4,0.1c-0.2,0-0.4,0-0.5-0.1c-0.5-0.2-0.9-0.3-1.1-0.3
							c-0.3,0-0.6,0.1-0.8,0.2c-0.3,0.1-0.5,0.4-0.5,0.6l0.1,4.1L26,182c0,0.5-0.1,0.8-0.3,1c-0.3,0.2-0.7,0.4-1.2,0.4
							c-0.3,0-0.7,0-1.1-0.1c-0.6-0.1-1-0.3-1.2-0.6c-0.1-0.1-0.2-0.3-0.2-0.5c0-0.2,0-0.4,0.1-0.6c0.4-1.5,0.6-3.2,0.6-5.1
							c0-0.6,0-1-0.1-1.4c-0.1-0.3-0.2-0.5-0.4-0.6c-0.2-0.1-0.5-0.1-0.8-0.1l-0.6,0l-0.6,0l-0.8-0.1c-0.2,0-0.3,0-0.4-0.1
							c-0.4-0.1-0.6-0.4-0.6-0.9C18.3,173.3,18.3,173.1,18.2,172.9z"/>
						<path fill="#E9C093" d="M30.8,180.2c0.1-0.4,0.3-1,0.3-1.6l0.3-1.5c0-0.3,0.1-0.5,0.1-0.6c0-0.4,0-0.7,0.1-0.8
							c0-0.2,0.1-0.3,0.2-0.3c0.1-0.1,0.2-0.1,0.5-0.1c0.2,0,0.4,0,0.6,0.1c0.5,0,0.8,0.1,1.1,0.1c0.3,0,0.4,0.3,0.5,0.9
							c0.2,1.7,0.2,3,0.2,3.8v0.3l0,1.8c0,0.5-0.1,0.9-0.2,1.1c-0.1,0.2-0.4,0.3-0.8,0.3c-0.2,0-0.3,0-0.5,0c-0.9,0-1.5-0.2-1.9-0.4
							c-0.4-0.2-0.6-0.8-0.6-1.5C30.5,181.1,30.6,180.6,30.8,180.2z M33.5,173.8c-0.3,0-0.6-0.1-0.9-0.3c-0.3-0.2-0.6-0.4-0.8-0.8
							c-0.2-0.4-0.3-0.8-0.3-1.2c0-0.8,0.4-1.3,1.1-1.3c0.2,0,0.3,0,0.5,0.1c0.6,0.1,1,0.4,1.3,0.8c0.3,0.4,0.5,0.9,0.5,1.4
							c0,0.7-0.2,1.1-0.7,1.2C34,173.8,33.7,173.8,33.5,173.8z"/>
						<path fill="#E9C093" d="M41.3,178.2c0,0-0.1,0-0.2-0.1c-0.1-0.1-0.3-0.3-0.5-0.4c-0.1-0.1-0.3-0.1-0.4-0.1c-0.1,0-0.1,0-0.2,0
							c-0.7,0-1.2,0.8-1.2,2.4c0,0.2,0,0.7,0.1,1.5l0,0.9l0,0.5c0,0.1-0.1,0.2-0.4,0.3c-0.3,0.1-0.6,0.2-0.8,0.2c-0.2,0-0.3,0-0.5,0
							h-0.2h-0.3c-0.3,0-0.6-0.2-0.8-0.6c-0.1-0.2-0.1-0.4-0.1-0.7v-0.2l0.1-0.5c0-0.4,0.1-0.6,0.1-0.8c0.1-0.8,0.2-1.9,0.2-3.3
							c0-1.2,0-2,0.1-2.6c0.1-0.3,0.5-0.5,1.3-0.7l0.7-0.1l0.2,0c0.2,0,0.3,0.1,0.3,0.4c0,0.1,0,0.1,0,0.2c0,0.1,0,0.2,0,0.2
							c0,0.2,0,0.4,0,0.6v0.2c0,0.3,0.1,0.4,0.2,0.4h0.1c0.1,0,0.2-0.1,0.3-0.3c0,0,0.1-0.1,0.3-0.3c0.5-0.4,0.9-0.7,1.3-0.9
							c0.7-0.3,1.2-0.5,1.7-0.5c0.5,0,0.9,0.3,1.1,0.8c0.1,0.2,0.1,0.5,0.1,0.9c0,0.2,0,0.3,0,0.4c0,0.1-0.1,0.2-0.2,0.3
							c-0.2,0.3-0.5,0.6-1,1c-0.4,0.4-0.8,0.7-1.1,0.9C41.5,178.2,41.4,178.2,41.3,178.2L41.3,178.2z"/>
						<path fill="#E9C093" d="M51.5,180.6c0.2,0.1,0.4,0.3,0.5,0.5c0.1,0.1,0.2,0.3,0.2,0.5c0,0.4-0.3,0.7-0.8,1.1
							c-0.3,0.2-0.8,0.4-1.2,0.5c-0.5,0.1-1,0.2-1.4,0.2c-1,0-1.8-0.1-2.4-0.4c-0.6-0.3-1.1-0.8-1.4-1.5c-0.2-0.5-0.3-1.4-0.3-2.6
							c0-0.9,0.2-1.8,0.7-2.6c0.5-0.8,1.1-1.4,1.8-1.8c0.7-0.4,1.6-0.6,2.6-0.6c0.5,0,1,0.1,1.4,0.4c0.4,0.2,0.8,0.6,1,1
							c0.3,0.6,0.5,1.2,0.5,1.9c0,0.6-0.2,1.1-0.7,1.4c-0.7,0.6-1.6,0.9-2.4,1l-0.4,0c-0.2,0-0.4,0-0.6-0.1
							c-0.4-0.1-0.7-0.1-0.9-0.1c-0.1,0-0.2,0-0.3,0c-0.1,0.1-0.1,0.2-0.1,0.3v0.1c0,0.6,0.4,1,1,1.2c0.1,0,0.3,0.1,0.4,0.1
							c0.2,0,0.6-0.1,0.9-0.2c0.3-0.1,0.5-0.2,0.6-0.2c0.3-0.1,0.5-0.2,0.7-0.2C51.2,180.5,51.3,180.6,51.5,180.6z M47.5,177
							c0,0.3,0.2,0.6,0.5,0.8c0.2,0.2,0.4,0.2,0.7,0.2c0.2,0,0.3,0,0.5-0.1c0.4-0.1,0.7-0.3,1-0.7c0.3-0.3,0.4-0.5,0.4-0.9
							c0-0.1,0-0.1,0-0.2c-0.1-0.5-0.4-0.8-1-0.8l-0.2,0c-0.3,0-0.6,0.1-0.9,0.3c-0.3,0.2-0.5,0.3-0.7,0.6
							C47.6,176.6,47.5,176.8,47.5,177z"/>
						<path fill="#E9C093" d="M61.3,169.9c0.3,0.2,0.4,0.4,0.5,0.7c0.2,1.4,0.3,3,0.3,4.8c0,0.6,0,1,0,1.3c0,1.3-0.1,2.8-0.3,4.4
							v0.1c0,0.2,0,0.4,0.1,0.5c0,0.1,0.1,0.2,0.2,0.4c0.1,0.2,0.2,0.4,0.2,0.5v0c0,0.1-0.1,0.3-0.3,0.4c-0.1,0.1-0.4,0.1-0.8,0.2h0
							c-0.2,0-0.5-0.3-0.7-1c-0.5,0.6-1.3,0.9-2.4,0.9c-1.2,0-2.2-0.3-3.1-1c-0.9-0.7-1.3-1.7-1.3-3.2c0-1.2,0.3-2.3,0.9-3.3
							c0.2-0.3,0.5-0.6,0.8-1c0.3-0.3,0.7-0.5,1.1-0.7c0.3-0.1,0.7-0.2,1-0.2c0.6,0,1.2,0.3,1.7,0.8c-0.1-0.8-0.1-1.3-0.1-1.6
							c-0.1-1.2-0.1-2-0.1-2.6v-0.3c0-0.2,0-0.4,0-0.5c0-0.1,0.1-0.1,0.3-0.1c0.1,0,0.2,0,0.3,0C60.1,169.5,60.7,169.6,61.3,169.9z
							 M57.4,177.2c-0.4,0.3-0.7,0.8-0.6,1.5c0,0.4,0.1,0.7,0.3,1c0.2,0.3,0.4,0.5,0.6,0.7c0.2,0.2,0.4,0.2,0.7,0.2
							c0.2,0,0.5-0.1,0.7-0.2c0.3-0.3,0.5-0.8,0.5-1.4c0-0.2,0-0.4,0-0.6c-0.1-0.5-0.3-0.9-0.8-1.2c-0.3-0.1-0.5-0.2-0.8-0.2
							C57.7,177.1,57.5,177.1,57.4,177.2z"/>
					</g>
				</g>
			</g>
		</g>
	</g>
</g>
<g id="_6">
</g>
<g id="_1" display="none">
</g>
<g id="">
</g>
<g id="_2">
</g>
</svg>
