<?xml version="1.0" encoding="utf-8"?>
<!-- Generator: Adobe Illustrator 16.0.0, SVG Export Plug-In . SVG Version: 6.00 Build 0)  -->
<!DOCTYPE svg PUBLIC "-//W3C//DTD SVG 1.1//EN" "http://www.w3.org/Graphics/SVG/1.1/DTD/svg11.dtd">
<svg version="1.1" xmlns="http://www.w3.org/2000/svg" xmlns:xlink="http://www.w3.org/1999/xlink" x="0px" y="0px" width="295.4px"
	 height="342.9px" viewBox="0 0 295.4 342.9" enable-background="new 0 0 295.4 342.9" xml:space="preserve">
<g id="bg">
</g>
<g id="info">
	<g>
		
			<path fill="#F2C5D8" stroke="#315A8D" stroke-width="2.39" stroke-linecap="round" stroke-linejoin="round" stroke-miterlimit="10" d="
			M165.9,188.1c0,0,13.4-18.2,47-9.5c2.3,1,2.2,2.9-2.5,3.1c-4.7,0.2-16.9,1.1-21.8,7.4C184.7,193.8,168.6,196.4,165.9,188.1z"/>
		
			<path fill="#F2C5D8" stroke="#315A8D" stroke-width="2.39" stroke-linecap="round" stroke-linejoin="round" stroke-miterlimit="10" d="
			M165.5,188.5c0,0,16.8-15.2,48,0c2,1.4,1.5,3.3-3.1,2.5c-4.7-0.8-16.8-2.3-22.8,2.9C182.8,197.8,166.4,197.2,165.5,188.5z"/>
		
			<path fill="#FFEEE2" stroke="#315A8D" stroke-width="2.39" stroke-linecap="round" stroke-linejoin="round" stroke-miterlimit="10" d="
			M111,192.9c0,0-8.6,19.5-8.4,29.9c0.2,10.6,4.1,20.9,14.6,26.7l1.4,13.4c0,0,1.3,11.6,7.7,11.6c7.4,0,8.1-10.7,8.1-10.7l0.7-9.4
			c1.6,0.1,3.2,0.2,5,0.2h0.8c2.1,0,4-0.1,5.9-0.2l0.7,9.5c0,0,0.7,10.7,8.1,10.7c6.4,0,7.7-11.6,7.7-11.6l1.5-14
			c9.7-5.9,13.4-15.8,13.6-26.1c0.2-10.4-8.5-29.9-8.5-29.9"/>
		<g>
			
				<path fill="#FFFFFF" stroke="#315A8D" stroke-width="2.39" stroke-linecap="round" stroke-linejoin="round" stroke-miterlimit="10" d="
				M111.3,244.2c0,0,3.9,18.3,6.6,19.9c2.7,1.6,18.4,3,18.6,1.6c0.1-1.4,1.7-10.5,1.7-10.5l6.7-0.9v11.9c0,0,13.2,2.9,18.7,1
				c5.4-1.9,8.4-24.8,8.4-24.8L111.3,244.2z"/>
			
				<path fill="#FFEEE2" stroke="#315A8D" stroke-width="2.39" stroke-linecap="round" stroke-linejoin="round" stroke-miterlimit="10" d="
				M130.6,253.5c0,0,8.5,2.5,19.6,0"/>
		</g>
		<path fill="#315A8D" d="M143.4,230.9c-0.3,0.3-0.7,0.4-1.3,0.4l-0.8,0l0,0.7c0,0.6-0.2,1.1-0.4,1.3c-0.4,0.4-0.8,0.4-1.1,0
			c-0.2-0.3-0.4-0.7-0.4-1.4l0.1-0.6l-0.7,0c-0.7,0-1.1-0.2-1.4-0.4c-0.4-0.4-0.4-0.8,0-1.1c0.2-0.3,0.7-0.4,1.4-0.3h0.7l0-0.8
			c0-0.6,0.2-1,0.4-1.2c0.4-0.4,0.7-0.4,1.1-0.1c0.3,0.3,0.4,0.7,0.3,1.3l0,0.8l0.8,0c0.6,0,1,0.1,1.3,0.4
			C143.8,230.2,143.8,230.5,143.4,230.9z"/>
		<g>
			
				<path fill="#FFFFFF" stroke="#315A8D" stroke-width="2.39" stroke-linecap="round" stroke-linejoin="round" stroke-miterlimit="10" d="
				M112.6,184.9c-10.1,2-16.1,46.6-4.8,61.7c7.5,2.7,57.6,1.8,66.2-1.4c9.3-3.5,7.4-47.1-8.1-62.3
				C157.6,184.5,116.7,184,112.6,184.9z"/>
			<g>
				
					<path fill="#FFFFFF" stroke="#315A8D" stroke-width="2.39" stroke-linecap="round" stroke-linejoin="round" stroke-miterlimit="10" d="
					M126.1,220.8c0,1.3-1.1,2.4-2.4,2.4c-1.3,0-2.4-1.1-2.4-2.4c0-1.3,1.1-2.4,2.4-2.4C125,218.5,126.1,219.5,126.1,220.8z"/>
				
					<path fill="#FFFFFF" stroke="#315A8D" stroke-width="2.39" stroke-linecap="round" stroke-linejoin="round" stroke-miterlimit="10" d="
					M126.1,209.6c0,1.3-1.1,2.4-2.4,2.4c-1.3,0-2.4-1.1-2.4-2.4s1.1-2.4,2.4-2.4C125,207.2,126.1,208.2,126.1,209.6z"/>
				
					<path fill="#FFFFFF" stroke="#315A8D" stroke-width="2.39" stroke-linecap="round" stroke-linejoin="round" stroke-miterlimit="10" d="
					M155.4,220.8c0,1.3-1.1,2.4-2.4,2.4c-1.3,0-2.4-1.1-2.4-2.4c0-1.3,1.1-2.4,2.4-2.4C154.3,218.5,155.4,219.5,155.4,220.8z"/>
				
					<path fill="#FFFFFF" stroke="#315A8D" stroke-width="2.39" stroke-linecap="round" stroke-linejoin="round" stroke-miterlimit="10" d="
					M126.1,233.7c0,1.3-1.1,2.4-2.4,2.4c-1.3,0-2.4-1.1-2.4-2.4s1.1-2.4,2.4-2.4C125,231.3,126.1,232.3,126.1,233.7z"/>
				
					<path fill="#FFFFFF" stroke="#315A8D" stroke-width="2.39" stroke-linecap="round" stroke-linejoin="round" stroke-miterlimit="10" d="
					M155.4,233.7c0,1.3-1.1,2.4-2.4,2.4c-1.3,0-2.4-1.1-2.4-2.4s1.1-2.4,2.4-2.4C154.3,231.3,155.4,232.3,155.4,233.7z"/>
				
					<path fill="#FFFFFF" stroke="#315A8D" stroke-width="2.39" stroke-linecap="round" stroke-linejoin="round" stroke-miterlimit="10" d="
					M155.4,209.6c0,1.3-1.1,2.4-2.4,2.4c-1.3,0-2.4-1.1-2.4-2.4s1.1-2.4,2.4-2.4C154.3,207.2,155.4,208.2,155.4,209.6z"/>
			</g>
		</g>
		<g>
			<path fill="#315A8D" d="M113.4,341.7c-2.1,0-4.3-0.1-6.4-0.2c-7-0.5-15.9-4.4-18.7-11.7c-3.7-9.6-12.1-12.6-23.7-14.3
				c-0.6-0.1-1.6-0.1-2.6-0.2c-7.3-0.5-22.4-1.5-24.1-16c-0.7-5.8,4.4-11.5,9.2-17.1c6.2-7.1,9.7-11.6,5.8-15
				c-1.9-1.7-2.9-3.7-2.9-6c0-3.8,2.8-8,8.5-12.9c16.2-13.9,52.7-27.5,64.5-30.5c18.2-4.7,35-7,50-7c5.9,0,11.5,0.4,16.8,1.1
				c4.1,0.6,6.8,2,8.1,4.1c1.3,2.1,0.7,4.2,0.5,4.8c-0.3,0.9-0.2,1.7,0.3,2.5c3.7,5.8,24,9.5,29.4,10c11.4,1.1,38,6,37.9,26.8
				c0,5-1.8,8.9-3.5,12.7c-2.5,5.4-4.6,10.1-1.2,17c2.2,4.3,2.5,8.7,0.9,13c-4.5,12.4-23.8,21-31.1,24.2l-1.3,0.6
				c-11.9,5.4-23.7,6.1-33.5,6.1c0,0,0,0,0,0c-3.8,0-7.8-0.1-11.6-0.2c-3.9-0.1-7.9-0.2-11.9-0.2c-5.2,0-9.5,0.2-13.6,0.7
				c-6.1,0.7-11.6,2-17.4,3.5C133.3,339.5,124.5,341.7,113.4,341.7z"/>
			<path fill="#315A8D" d="M172.9,212c5.6,0,11.2,0.3,16.6,1.1c9.4,1.3,8,6.6,7.7,7.4c-3.2,8.9,26.3,13.7,30.7,14.1
				c10,1,36.9,5.2,36.8,25.6c0,11.7-10.7,17.9-4.6,30.2c9.6,19.3-23,32.6-30.9,36.1c-11,5-22,6-33.1,6c-7.7,0-15.5-0.5-23.4-0.5
				c-4.5,0-9.1,0.2-13.8,0.7c-15.2,1.7-27.2,7.9-45.7,7.9c-2,0-4.1-0.1-6.3-0.2c-6.9-0.5-15.2-4.4-17.7-11
				c-4-10.4-13.5-13.5-24.7-15c-5.1-0.7-23.9,0.4-25.7-15.2c-1.3-11.5,23.9-24.7,14.7-32.8c-6-5.3,0-12.3,5.6-17.1
				c15.4-13.3,51.1-26.9,64-30.2C137.6,215.3,155.4,212,172.9,212 M172.9,209.6c-15.1,0-32,2.4-50.3,7.1c-11.9,3-48.6,16.7-65,30.7
				c-6,5.1-8.9,9.6-8.9,13.8c0,2.6,1.1,4.9,3.3,6.9c2.9,2.6,0.3,6.2-5.9,13.3c-5,5.8-10.3,11.7-9.5,18c1.8,15.5,18.2,16.6,25.2,17.1
				c1,0.1,1.9,0.1,2.5,0.2c11.1,1.6,19.3,4.4,22.7,13.5c3,7.8,12.3,12,19.8,12.5c2.2,0.2,4.4,0.2,6.5,0.2c11.3,0,20.1-2.2,28.7-4.4
				c5.8-1.5,11.3-2.8,17.3-3.5c4.1-0.4,8.4-0.7,13.5-0.7c4,0,8,0.1,11.8,0.2c3.8,0.1,7.8,0.2,11.6,0.2c10,0,21.9-0.7,34-6.2
				c0.4-0.2,0.8-0.4,1.3-0.6c8.1-3.6,27-11.9,31.7-24.9c1.7-4.6,1.3-9.3-1-13.9c-3.2-6.4-1.2-10.6,1.2-16c1.7-3.7,3.6-7.9,3.6-13.2
				c0-9.6-5.5-17.3-16-22.3c-7.8-3.6-16.8-5.1-23-5.8c-6.6-0.6-25.4-4.6-28.5-9.5c-0.4-0.7-0.3-1.1-0.2-1.5c0.3-0.7,1-3.3-0.6-5.8
				c-1.5-2.5-4.5-4-9-4.7C184.6,209.9,178.9,209.6,172.9,209.6L172.9,209.6z"/>
		</g>
		<g>
			<g>
				<path fill="#C4E6F9" d="M130.2,258.6c0,4.9-4,8.9-8.9,8.9c-4.9,0-8.9-4-8.9-8.9c0-4.9,4-8.9,8.9-8.9
					C126.2,249.7,130.2,253.7,130.2,258.6z"/>
				<path fill="#FFF1C2" d="M125.5,265.7c-0.4-0.6,0.4-1.2,0.1-1.7c-0.3-0.7-1.4-0.4-1.4-1.4c0-1.6,3.4-0.5,5.4-0.7
					c0.4-1,0.6-2.2,0.6-3.3c0-0.9-0.1-1.7-0.4-2.5c-0.8,0.3-1.7,0.3-2.5-0.2c-0.7-0.4-0.7-0.8-1.7-0.8c-0.5,0-1,0.1-1.5,0.1
					c-0.9,0-4-0.5-2.5-1.9c0.8-0.8,2.4,0,3.4-0.2c0.6-0.1,1.5-0.6,2-1.2c-1.5-1.3-3.5-2-5.7-2c-4.3,0-7.9,3.1-8.7,7.1
					c0.6,0.6,1.4,1.1,2.2,1.4c1.3,0.5,4,0.6,2.5,2.5c-0.4,0.5-1.2,0.9-0.7,1.5c0.5,0.6,1.9,0.3,2.5,0.6c2.2,0.9-0.8,1.9-1.8,1.9
					c-1,0-1.9-0.1-2.7-0.5c1.6,1.9,4.1,3.2,6.8,3.2c1.7,0,3.4-0.5,4.7-1.4C125.8,266,125.6,265.9,125.5,265.7z"/>
			</g>
			<g>
				<path fill="#FFF1C2" d="M205.8,298c0,7.3-5.9,13.2-13.2,13.2c-7.3,0-13.2-5.9-13.2-13.2c0-7.3,5.9-13.2,13.2-13.2
					C199.9,284.8,205.8,290.7,205.8,298z"/>
				<g>
					<path fill="#FADFEB" d="M185.1,302.8c1.3,0.3,3.5,1.7,4.7,0.4c1.7-1.6-4.2-2.3-0.8-3.7c1.7-0.7,4.4,0.3,6.4,0.1
						c3.9-0.4,7.3-2,10-4.6c-1.3-5.9-6.6-10.2-12.8-10.2c-3.4,0-6.6,1.3-8.9,3.5c1.2,0.8,2.6,1.1,4.2,1.3c1.3,0.2,2.6,0.3,3.9,0.3
						c0.8-0.1,1.7-0.4,2.4-0.3c0.4,0.1,1,0.3,1.1,0.7c0.2,0.7-0.6,0.8-0.6,1.1c0.1,1.3,0.9,0.8,2,1c2.1,0.4,3.1,2.2,0.4,2.4
						c-2.4,0.1-12.3-0.9-16-3.6c-1.2,2-1.8,4.3-1.8,6.7c0,1.5,0.2,2.9,0.7,4.3C181.6,302.1,183.7,302.4,185.1,302.8z"/>
					<path fill="#FADFEB" d="M204.1,303.1c-4.4,1.9-9.3,3.3-14.1,3.3c-2.6,0-5.6-0.3-8.2-1.1c-0.1,0-0.1,0-0.2,0
						c2.4,3.5,6.4,5.9,11,5.9c5.6,0,10.3-3.5,12.3-8.4C204.6,302.9,204.4,303,204.1,303.1z"/>
				</g>
			</g>
		</g>
		<g>
			<path fill="#FFF1C2" d="M181.5,221.1c0,0.8-0.7,1.5-1.5,1.5c-0.8,0-1.5-0.7-1.5-1.5c0-0.8,0.7-1.5,1.5-1.5
				C180.8,219.6,181.5,220.3,181.5,221.1z"/>
			<path fill="#FFF1C2" d="M238.4,291.2c0,0.8-0.7,1.5-1.5,1.5c-0.8,0-1.5-0.7-1.5-1.5c0-0.8,0.7-1.5,1.5-1.5
				C237.8,289.7,238.4,290.3,238.4,291.2z"/>
			<path fill="#FFF1C2" d="M158.3,318.3c0,0.8-0.7,1.5-1.5,1.5c-0.8,0-1.5-0.7-1.5-1.5c0-0.8,0.7-1.5,1.5-1.5
				C157.7,316.9,158.3,317.5,158.3,318.3z"/>
			<path fill="#FFF1C2" d="M127.6,283c0,0.8-0.7,1.5-1.5,1.5c-0.8,0-1.5-0.7-1.5-1.5c0-0.8,0.7-1.5,1.5-1.5
				C126.9,281.5,127.6,282.2,127.6,283z"/>
			
				<circle fill="#FFF1C2" stroke="#315A8D" stroke-width="2.39" stroke-linecap="round" stroke-linejoin="round" stroke-miterlimit="10" cx="144.3" cy="237.3" r="3.2"/>
			<path fill="#FFF1C2" d="M240.1,255c0,1.7-1.4,3.2-3.2,3.2c-1.8,0-3.2-1.4-3.2-3.2c0-1.8,1.4-3.2,3.2-3.2
				C238.7,251.8,240.1,253.2,240.1,255z"/>
			<path fill="#FFF1C2" d="M70.2,268c0,1.8-1.4,3.2-3.2,3.2c-1.8,0-3.2-1.4-3.2-3.2c0-1.7,1.4-3.2,3.2-3.2
				C68.8,264.8,70.2,266.2,70.2,268z"/>
			<path fill="#FFF1C2" d="M95.5,310.1c0,1.8-1.4,3.2-3.2,3.2s-3.2-1.4-3.2-3.2c0-1.7,1.4-3.2,3.2-3.2S95.5,308.4,95.5,310.1z"/>
			<path fill="#FFF1C2" d="M217.8,323c0,1.8-1.4,3.2-3.2,3.2c-1.8,0-3.2-1.4-3.2-3.2c0-1.8,1.4-3.2,3.2-3.2
				C216.4,319.8,217.8,321.2,217.8,323z"/>
		</g>
		
			<path fill="#F2C5D8" stroke="#315A8D" stroke-width="2.39" stroke-linecap="round" stroke-linejoin="round" stroke-miterlimit="10" d="
			M104.4,184.2c0,0,10.4,16.2,32.8,15.9c22.4,0,44.3-19.7,44.3-19.7L104.4,184.2z"/>
		<g>
			
				<path fill="#FFF1C2" stroke="#315A8D" stroke-width="2.39" stroke-linecap="round" stroke-linejoin="round" stroke-miterlimit="10" d="
				M216.9,124.7c1.7,44.9-32.1,66-74.4,67.6c-42.2,1.6-76.8-15.6-78.6-61.7c-1.6-42.2,31.3-77.8,73.5-79.4
				C179.7,49.5,215.3,82.5,216.9,124.7z"/>
			<g>
				<path fill="#FFEEE2" d="M137,191.8c-34.5,0-51.9-13.9-53-42.4c-0.1-1.6,0-3.3,0-5.2c0-0.3,0.1-0.6,0.4-0.8
					c13.6-13.1,33.5-20.9,55.8-21.7c1.4-0.1,2.8-0.1,4.1-0.1c20.7,0,39.6,6.2,53.2,17.4c0.2,0.2,0.4,0.5,0.4,0.8
					c0.2,1.8,0.4,3.5,0.4,5.1c0.6,15.3-4.2,27-14.1,34.8c-9.2,7.2-23.3,11.2-41.7,11.9C140.6,191.8,138.8,191.8,137,191.8
					C137,191.8,137,191.8,137,191.8z"/>
				<path fill="#315A8D" d="M144.3,122.9c20.4,0,38.9,6,52.4,17.2c0.2,1.6,0.4,3.3,0.4,5c1.2,30.8-19.4,44.1-54.7,45.5
					c-1.9,0.1-3.7,0.1-5.5,0.1c-32.6,0-50.6-12.1-51.8-41.3c-0.1-1.7,0-3.4,0-5c13.5-13,33-20.5,55-21.4
					C141.6,122.9,143,122.9,144.3,122.9 M144.3,120.5c-1.4,0-2.8,0-4.2,0.1c-22.6,0.9-42.7,8.7-56.6,22c-0.4,0.4-0.7,1-0.7,1.6
					c-0.1,1.9-0.1,3.6,0,5.3c1.1,29.3,18.8,43.6,54.2,43.6c1.8,0,3.7,0,5.6-0.1c18.7-0.7,33-4.8,42.4-12.2
					c10.3-8,15.2-20.1,14.6-35.8c-0.1-1.6-0.2-3.4-0.5-5.2c-0.1-0.6-0.4-1.2-0.8-1.5C184.4,126.8,165.3,120.5,144.3,120.5
					L144.3,120.5z"/>
			</g>
			<g>
				<path fill="#E9C093" d="M82.3,153.7c-2.1,0-3.5-0.6-4.1-1.8c-0.8-1.4-0.3-3.4,1.4-6c7.4-11.1,24.5-15.9,25.2-16.1
					c0.1,0,0.2,0,0.3,0c0.5,0,0.9,0.3,1.1,0.7c0.2,0.4,4.1,9.6-8.8,18.4C94.4,150.8,86.9,153.7,82.3,153.7z"/>
				<path fill="#315A8D" d="M105.1,131c0,0,3.8,8.6-8.3,16.9c-2.8,1.8-10.2,4.7-14.5,4.7c-3.1,0-4.6-1.5-1.7-5.9
					C87.8,135.7,105.1,131,105.1,131 M105.1,128.6c-0.2,0-0.4,0-0.6,0.1c-0.7,0.2-18.3,5.1-25.9,16.6c-0.7,1.1-3,4.5-1.5,7.2
					c0.6,1.1,2,2.4,5.2,2.4c4.8,0,12.7-3,15.8-5.1c0,0,0,0,0,0c13.7-9.3,9.4-19.4,9.2-19.9C106.9,129.1,106,128.6,105.1,128.6
					L105.1,128.6z"/>
			</g>
			<g>
				<defs>
					<path id="SVGID_203_" d="M142.5,190.5c35.3-1.4,55.9-14.7,54.7-45.5c-0.1-1.7-0.2-3.4-0.4-5c-14.4-11.9-34.5-17.9-56.5-17.1
						c-22,0.8-41.5,8.4-55,21.4c-0.1,1.6-0.1,3.3,0,5C86.4,180.2,106.4,191.9,142.5,190.5z"/>
				</defs>
				<clipPath id="SVGID_2_">
					<use xlink:href="#SVGID_203_"  overflow="visible"/>
				</clipPath>
				<g clip-path="url(#SVGID_2_)">
					<g>
						<path fill="#F2C5D8" d="M110.1,181.3c0.3,9-6.7,16.5-15.6,16.9c-9,0.3-16.5-6.7-16.9-15.6c-0.3-9,6.7-16.5,15.6-16.9
							C102.2,165.3,109.8,172.3,110.1,181.3z"/>
						<path fill="#F2C5D8" d="M207.2,177.5c0.4,9-6.6,16.5-15.6,16.9c-9,0.3-16.5-6.7-16.9-15.6c-0.3-9,6.7-16.5,15.6-16.9
							C199.3,161.5,206.9,168.5,207.2,177.5z"/>
					</g>
				</g>
			</g>
			<g>
				<path fill="#E9C093" d="M155,59.9c0.1,2.9-2.1,5.3-5,5.4c-2.9,0.1-5.3-2.1-5.4-5c-0.1-2.9,2.1-5.3,5-5.4
					C152.5,54.8,154.9,57.1,155,59.9z"/>
				<path fill="#E9C093" d="M141.2,90.4c0.1,2.9-2.1,5.3-5,5.4c-2.9,0.1-5.3-2.1-5.4-5c-0.1-2.9,2.1-5.3,5-5.4
					C138.7,85.3,141.1,87.5,141.2,90.4z"/>
				<path fill="#E9C093" d="M105.6,74.2c0.1,2.9-2.1,5.3-5,5.4c-2.9,0.1-5.3-2.1-5.4-5c-0.1-2.9,2.1-5.3,5-5.4
					C103,69.1,105.5,71.3,105.6,74.2z"/>
				<path fill="#E9C093" d="M82.3,103.1c0.1,2.9-2.1,5.3-5,5.4c-2.9,0.1-5.3-2.1-5.4-5c-0.1-2.9,2.1-5.3,5-5.4
					C79.8,98,82.2,100.2,82.3,103.1z"/>
				<path fill="#E9C093" d="M170.2,111.6c0.1,2.9-2.1,5.3-5,5.4c-2.9,0.1-5.3-2.1-5.4-5c-0.1-2.9,2.1-5.3,5-5.4
					C167.6,106.5,170.1,108.8,170.2,111.6z"/>
				<path fill="#E9C093" d="M200.5,91.4c0.1,2.9-2.1,5.3-5,5.4c-2.9,0.1-5.3-2.1-5.4-5c-0.1-2.9,2.1-5.3,5-5.4
					C198,86.3,200.4,88.5,200.5,91.4z"/>
				<path fill="#E9C093" d="M212.5,132c0.1,2.9-2.1,5.3-5,5.4c-2.9,0.1-5.3-2.1-5.4-5c-0.1-2.9,2.1-5.3,5-5.4
					C209.9,126.9,212.3,129.1,212.5,132z"/>
				<path fill="#E9C093" d="M122,113.5c0.1,2.9-2.1,5.3-5,5.4c-2.9,0.1-5.3-2.1-5.4-5c-0.1-2.9,2.1-5.3,5-5.4
					C119.5,108.4,121.9,110.6,122,113.5z"/>
				<path fill="#E9C093" d="M79.3,137.1c0.1,2.9-2.1,5.3-5,5.4c-2.9,0.1-5.3-2.1-5.4-5c-0.1-2.9,2.1-5.3,5-5.4
					C76.8,132,79.2,134.2,79.3,137.1z"/>
			</g>
			<g>
				
					<path fill="#FFFFFF" stroke="#315A8D" stroke-width="2.39" stroke-linecap="round" stroke-linejoin="round" stroke-miterlimit="10" d="
					M146.5,176.7c0.1,3.3-1.4,6-3.5,6.1c-2.1,0.1-3.8-2.5-4-5.8c-0.1-3.3,1.5-4.8,3.6-4.9C144.7,172,146.4,173.4,146.5,176.7z"/>
				<g>
					
						<path fill="#F2C5D8" stroke="#315A8D" stroke-width="2.39" stroke-linecap="round" stroke-linejoin="round" stroke-miterlimit="10" d="
						M147.1,162.6c0.1,2.9-2.3,3.6-5.2,3.7c-2.9,0.1-5.3-0.4-5.5-3.3c-0.1-2.9,2.2-5.4,5.1-5.5C144.5,157.4,147,159.7,147.1,162.6z"
						/>
					<g>
						<path fill="#315A8D" d="M118,160.2c0.1,1.5-1.1,2.7-2.5,2.7l0,0c-1.4,0.1-2.7-1.1-2.7-2.5l-0.1-2.2c-0.1-1.4,1.1-2.7,2.5-2.7
							l0,0c1.5-0.1,2.7,1.1,2.7,2.5L118,160.2z"/>
						<path fill="#315A8D" d="M170.7,158.2c0.1,1.4-1.1,2.7-2.5,2.7l0,0c-1.4,0.1-2.7-1.1-2.7-2.5l-0.1-2.2
							c-0.1-1.5,1.1-2.7,2.5-2.7l0,0c1.4-0.1,2.7,1.1,2.7,2.5L170.7,158.2z"/>
					</g>
				</g>
			</g>
		</g>
		<g>
			
				<path fill="#FFFFFF" stroke="#315A8D" stroke-width="2.39" stroke-linecap="round" stroke-linejoin="round" stroke-miterlimit="10" d="
				M148.7,212.7c2.4,11.8,0.5,22.1-4.4,23.1c-4.8,1-10.8-7.7-13.2-19.5c-2.4-11.8,1.5-12.7,6.3-13.7
				C142.3,201.6,146.2,201,148.7,212.7z"/>
			<path fill="#F2C5D8" d="M143.2,230.8c-2.7,0.3-5.8-3.9-7.3-11.8c-0.4-1.9-0.1-3.9,0.7-4.8c0.3-0.3,1.8-1.2,2.9-1.3
				c0.9-0.1,2.8,0.2,3.4,0.5c1.7,0.7,2.6,2.6,3,4.6C147.5,226,146.1,230.5,143.2,230.8z"/>
			
				<path fill="#FFFFFF" stroke="#315A8D" stroke-width="2.39" stroke-linecap="round" stroke-linejoin="round" stroke-miterlimit="10" d="
				M136.9,205.2c0,0-7.2-10.8,5.3-18.1c1.1-0.4,2.1,0.4,1.1,1.9c-1,1.5-3.2,5.7-0.8,9.5C144.3,201.4,142.2,207.4,136.9,205.2z"/>
			
				<path fill="#FFFFFF" stroke="#315A8D" stroke-width="2.39" stroke-linecap="round" stroke-linejoin="round" stroke-miterlimit="10" d="
				M137,205.5c0,0-4.7-10.8,10.9-15c1.2-0.1,2.2,0.7,0.7,1.9c-1.5,1.2-5.1,4.4-3.6,8.2C146.1,203.5,142.1,208.4,137,205.5z"/>
		</g>
		<g>
			
				<path fill="#FFEEE2" stroke="#315A8D" stroke-width="2.39" stroke-linecap="round" stroke-linejoin="round" stroke-miterlimit="10" d="
				M149.7,205c0,0.9-1.1,4.3-4.9,4.2c-2.6-0.6-9.4-2.7-11,4.1c-1.4,5.6,5.1,8.8,16.5,7.1c7-1.1,24.8-7.8,21.2-27.1"/>
			
				<path fill="#FFFFFF" stroke="#315A8D" stroke-width="2.39" stroke-linecap="round" stroke-linejoin="round" stroke-miterlimit="10" d="
				M173.3,188c0,0,10.1,25-15.6,30.5c-0.5-1.3-5.8-13.6-5.8-13.6s3.6-1.4,3.9-4.9"/>
			
				<path fill="#FFFFFF" stroke="#315A8D" stroke-width="2.39" stroke-linecap="round" stroke-linejoin="round" stroke-miterlimit="10" d="
				M147.3,207.8c0,0,3.6-0.8,5.5,4.6c1.9,5.4-2.5,7.8-2.5,7.8s1.2,3.2,6.4,0.5c5.2-2.7,1.9-13.4-1.8-15.9
				C151.2,202.4,144.6,206.3,147.3,207.8z"/>
		</g>
		<g>
			
				<path fill="#FFEEE2" stroke="#315A8D" stroke-width="2.39" stroke-linecap="round" stroke-linejoin="round" stroke-miterlimit="10" d="
				M102.1,188.6c0.1,19.5,18.9,22.8,26,22.5c11.5-0.5,17.2-4.8,14.8-10.1c-2.9-6.4-9.2-2.9-11.6-1.9c-3.7,0.8-5.4-2.3-5.6-3.2
				c0,0-6.1,0-8.3-0.6"/>
			
				<path fill="#FFFFFF" stroke="#315A8D" stroke-width="2.39" stroke-linecap="round" stroke-linejoin="round" stroke-miterlimit="10" d="
				M99,186.5c0,0-4.8,23.7,21.4,24.3c0.3-1.3,3.2-14.4,3.2-14.4s-8.1-0.6-9-3.9"/>
			
				<path fill="#FFFFFF" stroke="#315A8D" stroke-width="2.39" stroke-linecap="round" stroke-linejoin="round" stroke-miterlimit="10" d="
				M128.6,198.3c0,0-3.7-0.1-4.5,5.6c-0.8,5.7,4,7.2,4,7.2s-0.6,3.3-6.2,1.7c-5.6-1.7-4.4-12.8-1.3-15.9
				C123.7,193.7,131,196.2,128.6,198.3z"/>
		</g>
		<g>
			<defs>
				<path id="SVGID_205_" d="M227.9,234.5c-4.4-0.4-33.9-5.2-30.7-14.1c0.3-0.8,1.7-6-7.7-7.4c-22.4-3.2-47.3,1-66.3,5.9
					c-12.9,3.3-48.6,17-64,30.2c-5.6,4.8-11.6,11.8-5.6,17.1c9.2,8.1-16,21.3-14.7,32.8c1.8,15.7,20.6,14.5,25.7,15.2
					c11.1,1.6,20.6,4.6,24.7,15c2.5,6.6,10.8,10.5,17.7,11c22.2,1.7,35.2-5.8,52.1-7.6c24.5-2.7,47.2,4.2,70.3-6.2
					c7.9-3.5,40.5-16.8,30.9-36.1c-6.1-12.4,4.5-18.5,4.6-30.2C264.9,239.8,238,235.5,227.9,234.5z"/>
			</defs>
			<clipPath id="SVGID_4_">
				<use xlink:href="#SVGID_205_"  overflow="visible"/>
			</clipPath>
			<g clip-path="url(#SVGID_4_)">
				<path fill="#FADFEB" d="M131,315.6c-4.3,2.6-8.6,4.9-13.8,4.8c-3.8-0.2-7.3-1.8-11.1-1.3c-6.7,0.8-14.4,6.5-21.2,6.8
					c-3,0.1-9.2,0.4-8.4,5c0.9,5,8.6,4,12,3.4c3.9-0.7,7.9-1.6,11.8-2.4c4.7-0.9,9.1-0.2,13.8-0.2c6.7,0.1,16.3-2.8,22.2-6.1
					c3.1-1.8,7.6-4.9,6.3-9.1C140.9,310.7,134.3,313.6,131,315.6z"/>
				<path fill="#FADFEB" d="M109.5,228.6c-4.3,2.6-8.6,4.9-13.8,4.7c-3.8-0.1-7.3-1.8-11.1-1.3c-6.7,0.8-14.4,6.5-21.2,6.8
					c-3,0.1-9.2,0.4-8.4,5c0.9,5,8.6,4,12,3.4c3.9-0.7,7.9-1.6,11.8-2.4c4.7-0.9,9.1-0.2,13.8-0.2c6.7,0.1,16.3-2.8,22.2-6.1
					c3.1-1.8,7.6-4.9,6.3-9.1C119.4,223.7,112.8,226.6,109.5,228.6z"/>
				<path fill="#FFFACE" d="M283.6,298.7c-4.3,2.6-8.6,4.9-13.8,4.8c-3.8-0.1-7.3-1.8-11.1-1.3c-6.7,0.8-14.4,6.5-21.2,6.8
					c-3,0.1-9.2,0.4-8.4,5c0.9,5,8.6,4,12,3.4c3.9-0.7,7.9-1.6,11.8-2.4c4.7-0.9,9.1-0.2,13.8-0.2c6.7,0.1,16.3-2.8,22.2-6.1
					c3.2-1.8,7.6-4.9,6.3-9.1C293.5,293.8,286.9,296.7,283.6,298.7z"/>
				<path fill="#FADFEB" d="M242.9,223.6c-5.1-1.6-8.7-0.6-13.8,0.9c-1.5,0.5-9.3,4.9-12.4,6.4c-6.2,2.9-10,7.9-15.4,11.8
					c-9.4,6.8-22.8,4.2-31.6,11.9c-3.2,2.8-0.3,7.1,3.1,7.5c11.6,1.2,29.7-2.1,38.7-10.1c6.3-5.6,9-11.7,18-13.7
					c6-1.3,12.7-2.5,16.1-8.3C247,227.5,245.6,224.4,242.9,223.6z"/>
				<path fill="#FFFACE" d="M74.6,288c-5.1-1.6-8.7-0.6-13.7,0.9c-1.5,0.5-9.3,4.9-12.4,6.4c-6.2,2.9-10,7.9-15.4,11.8
					c-9.4,6.8-22.8,4.2-31.6,11.9c-3.2,2.8-0.3,7.1,3.1,7.5c11.6,1.2,29.7-2.1,38.7-10.1c6.3-5.6,9-11.7,18-13.7
					c6-1.3,12.7-2.5,16.1-8.3C78.7,291.9,77.3,288.8,74.6,288z"/>
			</g>
		</g>
		<path fill="#FFFACE" d="M205.6,295.6c1.3,0.8,2.1,1.7,2.1,2.7c0,3.1-6.8,5.6-15.3,5.6c-8.4,0-15.3-2.5-15.3-5.6
			c0-1,0.8-1.9,2.1-2.7c-3.9,1.2-6.3,2.8-6.3,4.7c0,3.5,8.8,6.4,19.6,6.4c10.8,0,19.6-2.9,19.6-6.4
			C212,298.4,209.5,296.7,205.6,295.6z"/>
		<g>
			<g>
				<path fill="#FFFFFF" d="M192.8,80.5c-4.6,0-10.5-1.2-17.1-3.5c-1-0.3-1.9-0.5-2.7-0.9l-8.2-3.5c-0.8-0.3-1.6-0.8-2.5-1.3
					c-14.3-7.4-20.9-15.4-18-22c1.1-2.7,3.4-4,6.6-4c0.9,0,1.9,0.1,3,0.3c0.4-1.6,0.9-3.1,1.5-4.5l2.7-6.3c0.2-0.6,0.5-1.2,0.8-1.8
					c-6.7-4.7-9.2-13.5-6-21.1c2.8-6.4,9-10.5,16-10.5c2.4,0,4.7,0.5,6.9,1.4l5.2,2.2c3.6-2.5,8-3.8,12.4-3.8c2.9,0,5.8,0.6,8.6,1.8
					c9,3.9,14.2,13.1,13,22.8c8.2,3.9,12,13.6,8.4,22.1C220.5,54,214.3,58,207.5,58c-1.2,0-2.4-0.1-3.6-0.4l-1.6,3.7
					c-0.6,1.4-1.3,2.8-2.2,4.2c2.2,1.6,5.9,4.8,3.9,9.5C203,77.5,200.1,80.5,192.8,80.5C192.8,80.5,192.8,80.5,192.8,80.5z"/>
				<path fill="#315A8D" d="M193.3,2.4c2.7,0,5.4,0.5,8.1,1.7c8.9,3.8,13.7,13.2,12.1,22.4l0.3,0.1c8,3.4,11.7,12.7,8.3,20.7
					c-2.6,6-8.4,9.6-14.5,9.6c-1.4,0-2.9-0.2-4.3-0.6l-2,4.6c-0.8,1.8-1.7,3.4-2.8,5c4,2.6,5.9,5.3,4.5,8.7
					c-1.5,3.4-5.1,4.8-10.1,4.8c-4.7,0-10.5-1.3-16.8-3.5c-0.9-0.2-1.7-0.5-2.6-0.8l-8.2-3.5c-0.8-0.4-1.6-0.8-2.4-1.3
					c-12.4-6.3-20.3-13.9-17.5-20.4c1-2.3,2.9-3.3,5.5-3.3c1.2,0,2.5,0.2,3.9,0.5c0.4-1.8,0.9-3.6,1.7-5.4l2.7-6.3
					c0.4-0.9,0.8-1.8,1.3-2.7c-6.8-4.1-9.7-12.7-6.5-20.2c2.6-6.1,8.6-9.8,14.9-9.8c2.1,0,4.3,0.4,6.4,1.3l5.8,2.5
					C184.6,3.8,188.9,2.4,193.3,2.4 M193.3,0v2.4V0c-4.4,0-8.8,1.3-12.5,3.7l-4.6-2c-2.3-1-4.8-1.5-7.3-1.5
					c-7.4,0-14.2,4.4-17.1,11.3c-3.3,7.8-0.9,16.8,5.6,21.9c-0.2,0.3-0.3,0.7-0.4,1l-2.7,6.3c-0.5,1.1-0.9,2.3-1.3,3.6
					c-0.8-0.1-1.5-0.2-2.1-0.2c-4.7,0-6.7,2.6-7.7,4.8c-3.2,7.3,3.4,15.7,18.6,23.5c1,0.6,1.8,1.1,2.6,1.4l8.2,3.5
					c0.8,0.4,1.8,0.7,2.8,0.9c6.8,2.4,12.7,3.6,17.5,3.6c7.9,0,11.1-3.4,12.3-6.3c1.6-3.7,0.4-7.1-3.4-10.3c0.7-1.1,1.2-2.3,1.7-3.4
					l1.2-2.8c1,0.2,1.9,0.2,2.9,0.2c7.3,0,13.8-4.3,16.7-11c3.7-8.7,0.1-18.8-8.2-23.2c0.9-9.9-4.6-19.2-13.8-23.2
					C199.4,0.6,196.4,0,193.3,0L193.3,0z"/>
			</g>
			
				<path fill="#FFFFFF" stroke="#315A8D" stroke-width="2.39" stroke-linecap="round" stroke-linejoin="round" stroke-miterlimit="10" d="
				M179.2,36c0,0,3.2,16.9,22.3,9.6"/>
			
				<path fill="#FFFFFF" stroke="#315A8D" stroke-width="2.39" stroke-linecap="round" stroke-linejoin="round" stroke-miterlimit="10" d="
				M202.6,57.6c0,0-9.7-3.3-6.5-9.3"/>
			
				<path fill="#FFFFFF" stroke="#315A8D" stroke-width="2.39" stroke-linecap="round" stroke-linejoin="round" stroke-miterlimit="10" d="
				M154,45.8c0,0,2,3.4,6.8,5.8"/>
		</g>
	</g>
</g>
<g id="圖層_6">
</g>
<g id="圖層_1" display="none">
</g>
<g id="其他">
</g>
<g id="圖層_2">
</g>
</svg>
