<?xml version="1.0" encoding="utf-8"?>
<!-- Generator: Adobe Illustrator 16.0.0, SVG Export Plug-In . SVG Version: 6.00 Build 0)  -->
<!DOCTYPE svg PUBLIC "-//W3C//DTD SVG 1.1//EN" "http://www.w3.org/Graphics/SVG/1.1/DTD/svg11.dtd">
<svg version="1.1" xmlns="http://www.w3.org/2000/svg" xmlns:xlink="http://www.w3.org/1999/xlink" x="0px" y="0px" width="260.5px"
	 height="313.1px" viewBox="0 0 260.5 313.1" enable-background="new 0 0 260.5 313.1" xml:space="preserve">
<g id="bg">
</g>
<g id="info">
	<g>
		<path fill="#C8C9CA" d="M160.6,287.9c-16.8-8.7-42.7-6.1-61.9-6c-21,0.1-44.1-2.4-63.8,3.7c-11,0.1-24.1,3.3-20.4,13.4
			c4.5,12.3,31.4,12,44.1,12c30.8,0,81.7,6.2,103.6-14.1C165.4,293.8,165,290.2,160.6,287.9z"/>
		<path fill="#C8C9CA" d="M236.4,268c-17.6-3.7-45.3-11-62.4-1c-1.3,0.3-2.6,0.6-4,1c-5.7,1.6-7.5,8.8-3.4,13
			c14.3,15.1,59.7,17,73.2,0C243.2,276.8,242.7,269.3,236.4,268z"/>
		<g>
			
				<path fill="#E9C093" stroke="#315A8D" stroke-width="2.39" stroke-linecap="round" stroke-linejoin="round" stroke-miterlimit="10" d="
				M39.5,242.7c0,0-30.6-7.2-17-21.5c13.6-14.3,28-12.8,28-12.8s12.7-10.6,39.9-8.4c27.2,2.2,33.7,12.1,33.7,12.1
				s30.1-3.1,31.4,21.4c-2.2,4.2-2,20.1-14.9,30c-12.8,10-69,10.6-69,10.6l-33.4-15.4L39.5,242.7z"/>
			<g>
				
					<path fill="#E9C093" stroke="#315A8D" stroke-width="2.39" stroke-linecap="round" stroke-linejoin="round" stroke-miterlimit="10" d="
					M155,234.8c-5.1,11.8-25.7,17.6-28.6,8.8c-0.3,0-0.7,0-0.9,0c-0.1,0-0.2,0-0.2,0c-7.3,9.5-29,9.9-40.7,9.2
					c-7.7-0.4-36-1.1-39.3-9.2c-5.6,0.2-17.6-4.9-25.5-11.5c-5.8,28.6,1.8,62.5,25,70.1c4.4,1.3,8.1,1.5,11.3,0.9
					c3.8,2.6,8.2,4.6,13.3,5.9c2.4,0.6,4.8,1,7,1.4c3.2,1.1,6.7,1.6,10.7,1.2c14.3,0.8,25.2-2.5,33.3-8.4c2.9,0.3,6.1,0,9.9-1.1
					c22.9-7.5,30.5-40.5,25.3-68.8C155.3,233.9,155.1,234.3,155,234.8z"/>
				
					<path fill="none" stroke="#315A8D" stroke-width="2.39" stroke-linecap="round" stroke-linejoin="round" stroke-miterlimit="10" d="
					M56,303.1c0,0-14.1-13.3-10.6-52.9"/>
				
					<path fill="none" stroke="#315A8D" stroke-width="2.39" stroke-linecap="round" stroke-linejoin="round" stroke-miterlimit="10" d="
					M120.3,303.3c0,0,9.7-21.5,7.1-39.9"/>
				
					<path fill="#E9C093" stroke="#315A8D" stroke-width="2.39" stroke-linecap="round" stroke-linejoin="round" stroke-miterlimit="10" d="
					M126.3,243.6c0,0,1.9,3.3,1.6,6.7"/>
				
					<path fill="#E9C093" stroke="#315A8D" stroke-width="2.39" stroke-linecap="round" stroke-linejoin="round" stroke-miterlimit="10" d="
					M128,290.6c0,0,8.5,0.5,11.8-3.9"/>
				
					<path fill="#E9C093" stroke="#315A8D" stroke-width="2.39" stroke-linecap="round" stroke-linejoin="round" stroke-miterlimit="10" d="
					M136.8,280.1c0,0,6.5-0.1,7.8-2.3"/>
				
					<path fill="#E9C093" stroke="#315A8D" stroke-width="2.39" stroke-linecap="round" stroke-linejoin="round" stroke-miterlimit="10" d="
					M50.5,292.7c0,0,7.7,3.5,10.1,2.6"/>
				
					<path fill="#E9C093" stroke="#315A8D" stroke-width="2.39" stroke-linecap="round" stroke-linejoin="round" stroke-miterlimit="10" d="
					M47.1,283.4c0,0,6.7,4,8.5,3.2"/>
				
					<path fill="#E9C093" stroke="#315A8D" stroke-width="2.39" stroke-linecap="round" stroke-linejoin="round" stroke-miterlimit="10" d="
					M18.7,262.4c0,0,3.8,2.7,7.8,2.7"/>
				
					<path fill="#E9C093" stroke="#315A8D" stroke-width="2.39" stroke-linecap="round" stroke-linejoin="round" stroke-miterlimit="10" d="
					M30.8,292.7c0,0,6.6,1.5,9.5,1.4"/>
				
					<path fill="#E9C093" stroke="#315A8D" stroke-width="2.39" stroke-linecap="round" stroke-linejoin="round" stroke-miterlimit="10" d="
					M48.4,288.6c0,0-4.1,0.8-8.2,0"/>
				
					<path fill="#E9C093" stroke="#315A8D" stroke-width="2.39" stroke-linecap="round" stroke-linejoin="round" stroke-miterlimit="10" d="
					M106.8,266.9c0,0,5.3-0.1,9.3-1.8"/>
				
					<path fill="#E9C093" stroke="#315A8D" stroke-width="2.39" stroke-linecap="round" stroke-linejoin="round" stroke-miterlimit="10" d="
					M103.2,274c0,0,7.3,0.4,11-2"/>
			</g>
			
				<path fill="#315A8D" stroke="#315A8D" stroke-width="2.39" stroke-linecap="round" stroke-linejoin="round" stroke-miterlimit="10" d="
				M35.4,219.5c0,0-11,8,0,11.4c11,3.4,11,3.4,11,3.4s31.2,20.6,77.8,2.6c15.2-0.4,28.8-5.3,19.3-13.6c-7.9-5-19.3-5.5-19.3-5.5
				s-36-16.4-71.7-1.9C43,215.5,35.4,219.5,35.4,219.5z"/>
			<g>
				<defs>
					<path id="SVGID_197_" d="M35.4,218.7c0,0-11,8,0,11.4c11,3.4,11,3.4,11,3.4s31.2,20.6,77.8,2.6c15.2-0.4,28.8-5.3,19.3-13.6
						c-7.9-5,29.1-78,29.1-78S120.3-165.1,1.3,122C-8,121.7,35.4,218.7,35.4,218.7z"/>
				</defs>
				<clipPath id="SVGID_2_">
					<use xlink:href="#SVGID_197_"  overflow="visible"/>
				</clipPath>
				<g clip-path="url(#SVGID_2_)">
					<path fill="#DBDCDC" d="M138.2,281.5c0,8.5-24.3,15.4-54.2,15.4c-29.9,0-54.2-6.9-54.2-15.4c0-8.5,24.3-15.4,54.2-15.4
						C113.9,266,138.2,272.9,138.2,281.5z"/>
					<g>
						<path fill="#FFEEE2" d="M112.8,197.1c0,8.5-12.9,15.3-28.8,15.3c-15.9,0-28.8-6.9-28.8-15.3c0-8.5,12.9-15.3,28.8-15.3
							C99.9,181.8,112.8,188.7,112.8,197.1z"/>
						
							<path fill="#FFEEE2" stroke="#315A8D" stroke-width="2.39" stroke-linecap="round" stroke-linejoin="round" stroke-miterlimit="10" d="
							M59.1,255l1.7,16.1c0,0,1.4,12.3,8.2,12.3c7.8,0,8.6-11.3,8.6-11.3l1.1-15.6"/>
						
							<path fill="#FFEEE2" stroke="#315A8D" stroke-width="2.39" stroke-linecap="round" stroke-linejoin="round" stroke-miterlimit="10" d="
							M113.7,199.3c0,0,9.1,20.6,8.9,31.6c-0.3,17.3-9.9,33.5-39.6,33.5h-0.9c-29.7,0-39.3-16.2-39.6-33.5
							c-0.2-11,8.9-31.6,8.9-31.6"/>
						<path fill="#315A8D" d="M70.8,240.8c-0.3,0.3-0.7,0.4-1.4,0.5l-0.8,0l0,0.8c0,0.7-0.2,1.2-0.5,1.4c-0.4,0.4-0.8,0.4-1.2,0
							c-0.3-0.3-0.4-0.8-0.4-1.5l0.1-0.7l-0.7,0c-0.7,0-1.2-0.2-1.5-0.4c-0.4-0.4-0.4-0.8,0-1.2c0.3-0.3,0.8-0.4,1.5-0.4h0.7l0-0.8
							c0-0.6,0.2-1,0.4-1.3c0.4-0.4,0.8-0.4,1.1-0.1c0.3,0.3,0.4,0.7,0.3,1.4l0,0.9l0.8,0c0.6,0,1.1,0.2,1.3,0.4
							C71.2,240,71.1,240.4,70.8,240.8z"/>
						<g>
							<g>
								<path fill="#315A8D" d="M94.3,209.3c0,1-0.8,1.8-1.8,1.8c-1,0-1.8-0.8-1.8-1.8c0-1,0.8-1.8,1.8-1.8
									C93.5,207.5,94.3,208.3,94.3,209.3z"/>
							</g>
							<g>
								<path fill="#315A8D" d="M59.8,207.7c0,1-0.8,1.8-1.8,1.8c-1,0-1.8-0.8-1.8-1.8c0-1,0.8-1.8,1.8-1.8
									C59,205.9,59.8,206.7,59.8,207.7z"/>
							</g>
						</g>
						
							<path fill="#FFEEE2" stroke="#315A8D" stroke-width="2.39" stroke-linecap="round" stroke-linejoin="round" stroke-miterlimit="10" d="
							M110.9,255l-1.7,16.1c0,0-1.4,12.3-8.2,12.3c-7.8,0-8.6-11.3-8.6-11.3l-1.1-15.6"/>
						
							<path fill="#FFEEE2" stroke="#315A8D" stroke-width="2.39" stroke-linecap="round" stroke-linejoin="round" stroke-miterlimit="10" d="
							M109.7,183.8c0,0,33.8,43.9,16.5,52.2c-6.8,3.1-17.5,0.9-12.1-6.7c-1.6-5.6-5.3-16.9-6.7-20.7"/>
						<g>
							
								<path fill="#FFF1C2" stroke="#315A8D" stroke-width="2.39" stroke-linecap="round" stroke-linejoin="round" stroke-miterlimit="10" d="
								M165.9,131.9c0,46-35.5,66.3-78.8,66.3c-43.3,0-78-19-78-66.3c0-43.3,35.1-78.4,78.4-78.4C130.8,53.5,165.9,88.6,165.9,131.9
								z"/>
							<g>
								<path fill="#FFEEE2" d="M87.1,197.5c-19.4,0-33.5-3.5-43.1-10.6c-10.2-7.6-15.1-19-15.1-35c0-1.7,0.1-3.4,0.3-5.3
									c0-0.3,0.2-0.6,0.4-0.8c14.5-12.9,35-20,57.9-20c22.9,0,43.5,7.1,57.9,20c0.2,0.2,0.4,0.5,0.4,0.8c0.2,1.8,0.3,3.6,0.3,5.3
									C146.1,182.2,126.2,197.5,87.1,197.5z"/>
								<path fill="#315A8D" d="M87.5,127.1c22.5,0,42.8,6.9,57.1,19.7c0.2,1.7,0.2,3.4,0.2,5.2c0,31.6-21.6,44.4-57.8,44.4
									c-36.9,0-57-12.8-57-44.4c0-1.8,0.1-3.5,0.3-5.2C44.7,134,65,127.1,87.5,127.1 M87.5,124.7c-23.2,0-44,7.2-58.7,20.3
									c-0.4,0.4-0.7,1-0.8,1.6c-0.2,1.9-0.3,3.7-0.3,5.4c0,16.2,5.3,28.3,15.6,36c9.8,7.3,24.1,10.8,43.8,10.8
									c39.9,0,60.2-15.7,60.2-46.8c0-1.7-0.1-3.5-0.3-5.4c-0.1-0.6-0.3-1.2-0.8-1.6C131.6,131.9,110.7,124.7,87.5,124.7
									L87.5,124.7z"/>
							</g>
							<g>
								<path fill="#E9C093" d="M27.4,156.3c-2.3,0-3.9-0.7-4.5-1.9c-0.8-1.5-0.2-3.5,1.7-6.1c7.9-11.1,25.6-15.3,26.4-15.5
									c0.1,0,0.2,0,0.3,0c0.5,0,0.9,0.3,1.1,0.8c0.2,0.4,3.8,10-9.7,18.4C39.7,153.7,32.1,156.3,27.4,156.3z"/>
								<path fill="#315A8D" d="M51.2,133.9c0,0,3.6,8.9-9.2,17c-2.8,1.7-10.1,4.2-14.6,4.2c-3.5,0-5.2-1.5-1.9-6.2
									C33.3,138.1,51.2,133.9,51.2,133.9 M51.2,131.5c-0.2,0-0.4,0-0.5,0.1c-0.8,0.2-18.9,4.5-27.1,16c-0.8,1.1-3.2,4.5-1.8,7.3
									c0.9,1.7,2.8,2.6,5.6,2.6c5,0,12.7-2.7,15.8-4.6c0,0,0,0,0,0c14.3-9,10.3-19.4,10.2-19.9C53.1,132.1,52.2,131.5,51.2,131.5
									L51.2,131.5z"/>
							</g>
							<g>
								<defs>
									<path id="SVGID_199_" d="M87.1,196.3c36.2,0,57.8-12.8,57.8-44.4c0-1.8-0.1-3.5-0.2-5.2c-14.3-12.8-34.6-19.7-57.1-19.7
										c-22.5,0-42.8,6.9-57.1,19.7c-0.2,1.7-0.3,3.4-0.3,5.2C30.1,183.5,50.2,196.3,87.1,196.3z"/>
								</defs>
								<clipPath id="SVGID_4_">
									<use xlink:href="#SVGID_199_"  overflow="visible"/>
								</clipPath>
								<g clip-path="url(#SVGID_4_)">
									<g>
										<path fill="#F2C5D8" d="M54.4,185.6c0,9.2-7.5,16.7-16.7,16.7c-9.2,0-16.7-7.5-16.7-16.7c0-9.2,7.5-16.7,16.7-16.7
											C46.9,168.9,54.4,176.4,54.4,185.6z"/>
										<path fill="#F2C5D8" d="M153.9,185.6c0,9.2-7.5,16.7-16.7,16.7c-9.2,0-16.7-7.5-16.7-16.7c0-9.2,7.5-16.7,16.7-16.7
											C146.5,168.9,153.9,176.4,153.9,185.6z"/>
									</g>
								</g>
							</g>
							<path fill="none" d="M87.5,127.1c-31.7,0-57.4,15.4-57.4,47c0,1.8,0.1,3.5,0.3,5.2C44.7,192,65,199,87.5,199
								c22.5,0,42.8-7,57.1-19.7c0.2-1.7,0.2-3.4,0.2-5.2C144.9,142.5,119.2,127.1,87.5,127.1z"/>
							<g>
								<path fill="#E9C093" d="M105.1,63.2c0,2.9-2.4,5.3-5.3,5.3c-2.9,0-5.3-2.4-5.3-5.3c0-3,2.4-5.3,5.3-5.3
									C102.7,57.9,105.1,60.3,105.1,63.2z"/>
								<path fill="#E9C093" d="M89.8,93.9c0,2.9-2.4,5.3-5.3,5.3c-2.9,0-5.3-2.4-5.3-5.3c0-3,2.4-5.3,5.3-5.3
									C87.4,88.5,89.8,90.9,89.8,93.9z"/>
								<path fill="#E9C093" d="M54,75.9c0,2.9-2.4,5.3-5.3,5.3s-5.3-2.4-5.3-5.3c0-3,2.4-5.3,5.3-5.3S54,72.9,54,75.9z"/>
								<path fill="#E9C093" d="M29,104.5c0,2.9-2.4,5.3-5.3,5.3c-2.9,0-5.3-2.4-5.3-5.3c0-2.9,2.4-5.3,5.3-5.3
									C26.6,99.2,29,101.6,29,104.5z"/>
								<path fill="#E9C093" d="M118.6,116.7c0,2.9-2.4,5.3-5.3,5.3c-2.9,0-5.3-2.4-5.3-5.3c0-2.9,2.4-5.3,5.3-5.3
									C116.2,111.4,118.6,113.8,118.6,116.7z"/>
								<path fill="#E9C093" d="M150.4,97.2c0,2.9-2.4,5.3-5.3,5.3c-3,0-5.3-2.4-5.3-5.3c0-2.9,2.4-5.3,5.3-5.3
									C148,91.8,150.4,94.2,150.4,97.2z"/>
								<path fill="#E9C093" d="M161.1,139.2c0,2.9-2.4,5.3-5.3,5.3c-2.9,0-5.3-2.4-5.3-5.3c0-2.9,2.4-5.3,5.3-5.3
									C158.7,133.9,161.1,136.2,161.1,139.2z"/>
								<path fill="#E9C093" d="M69.2,116.7c0,2.9-2.4,5.3-5.3,5.3c-2.9,0-5.3-2.4-5.3-5.3c0-2.9,2.4-5.3,5.3-5.3
									C66.8,111.4,69.2,113.8,69.2,116.7z"/>
								<path fill="#E9C093" d="M24.6,139.2c0,2.9-2.4,5.3-5.3,5.3c-3,0-5.3-2.4-5.3-5.3c0-2.9,2.4-5.3,5.3-5.3
									C22.2,133.9,24.6,136.2,24.6,139.2z"/>
							</g>
							<g>
								
									<path fill="#FFFFFF" stroke="#315A8D" stroke-width="2.39" stroke-linecap="round" stroke-linejoin="round" stroke-miterlimit="10" d="
									M91.8,182.2c0,3.4-1.7,6.1-3.8,6.1c-2.1,0-3.8-2.8-3.8-6.1c0-3.4,1.7-4.8,3.8-4.8C90.1,177.4,91.8,178.8,91.8,182.2z"/>
								<g>
									
										<path fill="#F2C5D8" stroke="#315A8D" stroke-width="2.39" stroke-linecap="round" stroke-linejoin="round" stroke-miterlimit="10" d="
										M92.9,167.8c0,3-2.4,3.6-5.4,3.6c-3,0-5.5-0.6-5.5-3.6c0-3,2.4-5.5,5.5-5.5C90.4,162.4,92.9,164.8,92.9,167.8z"/>
									<g>
										<path fill="#315A8D" d="M63.2,164.3c0,1.5-1.2,2.7-2.7,2.7l0,0c-1.5,0-2.7-1.2-2.7-2.7V162c0-1.5,1.2-2.7,2.7-2.7l0,0
											c1.5,0,2.7,1.2,2.7,2.7V164.3z"/>
										<path fill="#315A8D" d="M117.2,164.2c0,1.5-1.2,2.7-2.7,2.7l0,0c-1.5,0-2.7-1.2-2.7-2.7V162c0-1.5,1.2-2.7,2.7-2.7l0,0
											c1.5,0,2.7,1.2,2.7,2.7L117.2,164.2z"/>
									</g>
								</g>
							</g>
						</g>
						
							<path fill="#FFEEE2" stroke="#315A8D" stroke-width="2.39" stroke-linecap="round" stroke-linejoin="round" stroke-miterlimit="10" d="
							M63.3,196.3c-16.7-2.8-20.7-14.5-20.7-14.5s-4.6-1.1-6.1,1.6c-1.5,2.8-5.2,7.5-5.2,7.5s3,11.2,17.5,19.2"/>
						<g>
							
								<path fill="#FFEEE2" stroke="#315A8D" stroke-width="2.39" stroke-linecap="round" stroke-linejoin="round" stroke-miterlimit="10" d="
								M32.1,193.2c0,0-13.8-10.8-2.4-21.2c3.8-3.2,16.2-10.7,9.8,2.8c3.1,1,6.7,6.9,0.9,12.4"/>
						</g>
					</g>
				</g>
			</g>
			<g>
				<g>
					
						<path fill="#CBDF8C" stroke="#315A8D" stroke-width="2.39" stroke-linecap="round" stroke-linejoin="round" stroke-miterlimit="10" d="
						M109.9,13.3c-6.3-5.7-20.7-5.2-24.1,3.4c-2.9,5.7,2.3,17.8,2.3,17.8c2.9,10.3,8.6,6.3,13.2,0.6C107,28.3,117.9,20.2,109.9,13.3
						z"/>
					
						<path fill="#CBDF8C" stroke="#315A8D" stroke-width="2.39" stroke-linecap="round" stroke-linejoin="round" stroke-miterlimit="10" d="
						M112.6,17.4c0,3.8-6.1,4.9-12.4,4.9c-6.3,0-13.7-2-13.7-5.8c0-3.8,7.1-6.9,13.4-6.9C106.2,9.6,112.6,13.6,112.6,17.4z"/>
					
						<path fill="#E9C093" stroke="#315A8D" stroke-width="2.39" stroke-linecap="round" stroke-linejoin="round" stroke-miterlimit="10" d="
						M90.6,20.6c0,0-1.6,3.8,0,8.7"/>
					
						<line fill="#E9C093" stroke="#315A8D" stroke-width="2.39" stroke-linecap="round" stroke-linejoin="round" stroke-miterlimit="10" x1="95.9" y1="29.3" x2="94.6" y2="40.7"/>
					
						<line fill="#E9C093" stroke="#315A8D" stroke-width="2.39" stroke-linecap="round" stroke-linejoin="round" stroke-miterlimit="10" x1="103.2" y1="22.3" x2="103.2" y2="25.3"/>
				</g>
				<g>
					
						<path fill="#E9C093" stroke="#315A8D" stroke-width="2.39" stroke-linecap="round" stroke-linejoin="round" stroke-miterlimit="10" d="
						M105.6,35.8c0,0-3,0.3-4.2,2.2c-6.4-5.1-14.4-6.3-21,1.2c-1.1-2.7-4.7-3.4-4.7-3.4C56.6,35,28.4,65.5,55.8,72.4
						c6.8,1.7,12.2,0.1,16.2-3.3c6.6,7.5,21.7,10.6,30.3,7.1c3.8-1.4,6.4-3.6,8.1-6.2c3.9,2.7,8.8,3.9,15,2.4
						C152.9,65.5,124.6,35,105.6,35.8z"/>
					
						<path fill="#E9C093" stroke="#315A8D" stroke-width="2.39" stroke-linecap="round" stroke-linejoin="round" stroke-miterlimit="10" d="
						M72.1,69.1c0,0,0.1-5,3.9-18"/>
					
						<path fill="#E9C093" stroke="#315A8D" stroke-width="2.39" stroke-linecap="round" stroke-linejoin="round" stroke-miterlimit="10" d="
						M110.4,70c0,0,2.7-6.2,0-14.3"/>
					
						<path fill="#E9C093" stroke="#315A8D" stroke-width="2.39" stroke-linecap="round" stroke-linejoin="round" stroke-miterlimit="10" d="
						M101.4,38c0,0,3.5,4.6,5.3,8.5"/>
					
						<path fill="#E9C093" stroke="#315A8D" stroke-width="2.39" stroke-linecap="round" stroke-linejoin="round" stroke-miterlimit="10" d="
						M80.4,39.2c0,0-1.4,0.9-2.2,3"/>
				</g>
				
					<path fill="#E9C093" stroke="#315A8D" stroke-width="2.39" stroke-linecap="round" stroke-linejoin="round" stroke-miterlimit="10" d="
					M72.1,36c0,0-5.8,2.1-8.2,6.3"/>
				
					<path fill="#E9C093" stroke="#315A8D" stroke-width="2.39" stroke-linecap="round" stroke-linejoin="round" stroke-miterlimit="10" d="
					M50.5,60c0,0-4.5,6.9-3.4,7.9"/>
				
					<path fill="#E9C093" stroke="#315A8D" stroke-width="2.39" stroke-linecap="round" stroke-linejoin="round" stroke-miterlimit="10" d="
					M55.5,62.9c0,0,6.3,0.7,9.9,0"/>
				
					<path fill="#E9C093" stroke="#315A8D" stroke-width="2.39" stroke-linecap="round" stroke-linejoin="round" stroke-miterlimit="10" d="
					M60.5,67.9c0,0,2.6,1.1,7.5-1.7"/>
				
					<path fill="#E9C093" stroke="#315A8D" stroke-width="2.39" stroke-linecap="round" stroke-linejoin="round" stroke-miterlimit="10" d="
					M107.9,63c0,0-2.7,2.8-8.4,3.2"/>
				
					<path fill="#E9C093" stroke="#315A8D" stroke-width="2.39" stroke-linecap="round" stroke-linejoin="round" stroke-miterlimit="10" d="
					M104,69.1c0,0-2.1,1.1-8.2,1"/>
				
					<path fill="#E9C093" stroke="#315A8D" stroke-width="2.39" stroke-linecap="round" stroke-linejoin="round" stroke-miterlimit="10" d="
					M114.1,39.1c0,0-0.5,1.8-2.5,3.1"/>
				
					<line fill="#E9C093" stroke="#315A8D" stroke-width="2.39" stroke-linecap="round" stroke-linejoin="round" stroke-miterlimit="10" x1="120.3" y1="40.1" x2="116.9" y2="42.2"/>
				
					<path fill="#E9C093" stroke="#315A8D" stroke-width="2.39" stroke-linecap="round" stroke-linejoin="round" stroke-miterlimit="10" d="
					M136.8,60c0,0-1.2,3.8-8.9,4.6"/>
			</g>
		</g>
		<g>
			<g>
				<g>
					<g>
						<g>
							<path fill="#E9C093" d="M221.2,272.4c-6.9,0-15.2-1.8-24.9-5.2c-1.7-0.5-3.3-2.2-4.4-5c-3.8-9.5-3.2-33.4,14-60
								c2.2-3.5,10.2-14.8,26-14.8c2.9,0,5.9,0.4,9,1.2c13,3.3,17.9,13,18.3,21.1c0.4,9.9-5.7,18.8-15.2,22.4c0,0.2,0.1,0.5,0.1,0.7
								c1,6.2,3.7,22.5-4.5,32.3C235.6,270,229.4,272.4,221.2,272.4z"/>
							<path fill="#315A8D" d="M232,188.7c2.7,0,5.6,0.3,8.7,1.1c23,5.8,22.6,34.7,2.1,41.5c0.5,4.4,9.1,39.9-21.5,39.9
								c-6.4,0-14.4-1.5-24.5-5.2c-6.5-1.6-11.3-29.8,10.3-63.2C207.4,202.3,215.1,188.7,232,188.7 M232,186.3L232,186.3
								c-16.4,0-24.8,11.7-27,15.3l0,0.1c-18.8,29.1-17.5,52.7-14.1,61.1c1.6,4,3.6,5.3,5.1,5.7c9.8,3.5,18.3,5.3,25.2,5.3
								c8.5,0,15-2.6,19.4-7.7c8.5-10,5.9-26.6,4.8-33c9.5-4,15.4-13.1,15-23.2c-0.3-8.5-5.5-18.8-19.2-22.2
								C238.1,186.7,235,186.3,232,186.3L232,186.3z"/>
						</g>
						<path fill="#FFFFFF" d="M242.8,231.4c11.5-3.9,16.7-14.6,15-24.4c-1.2,5.4-5.5,11.4-16.2,17.2c-6.8,1.8-8.6,20.2-6,30.6
							c0,2.5,0.2,6.9-2,13.9C249.2,260.3,243.2,235,242.8,231.4z"/>
					</g>
					<g>
						<path fill="#E9C093" d="M207.8,286.1c-0.1,0-0.2,0-0.4,0c-2.9-0.5-5-7.1-5.7-10c0,0,0,0,0,0c0,0-1.2-2.9-8.7-3.3
							c-0.2,0-0.5,0-0.7,0c-5.2,0-7.1,2.9-8.7,5.5c-0.6,1-1.2,1.9-1.9,2.5c-0.5,0.4-1,0.6-1.5,0.6c-2.2,0-3.3-3.2-4.5-7.3
							c-0.1-0.5-0.3-0.9-0.4-1.2c-0.2-0.1-0.8-0.4-1.2-0.6c-2.7-1.1-7.6-3.3-10-9.6c-3.2-8.5-0.7-21.7,7.6-39.5
							c-5.4-5.6-12.7-17.5-11-27.6c1-6,4.9-10.7,11.5-14c0.9-3.5,6.1-21.3,25.5-24.8c4.7-1.9,9.2-3.7,12.5-3.7
							c1.8,0,3.2,0.5,4.1,1.5c0.8,0.9,1.2,2.2,1.2,3.9c0.6,0.1,1.2,0.3,1.8,0.4c7.4,1.6,15,3.2,20.6,8.3c0.9-0.1,1.7-0.3,2.6-0.5
							c1.4-0.3,2.9-0.6,4.3-0.6c1.8,0,3.2,0.6,4.1,1.7c1.7,2.1,1.7,5.9,0.3,12.4c-0.3,1.9-0.5,4.6-0.7,7.8c-1,16.1-2.8,43-27,46.9
							c0.1,1.4,0.4,3.2,0.7,5.3c1.9,12.6,5,33.6-8.1,37.9c-1.6,0.5-2.4,2.4-3.1,4.2C210.4,284.2,209.6,286.1,207.8,286.1
							C207.8,286.1,207.8,286.1,207.8,286.1z"/>
						<path fill="#315A8D" d="M210.3,154.4c2.7,0,4.4,1.3,4,5.2c8.6,1.9,17.2,3.2,23.3,9c2.5-0.2,5.2-1.1,7.3-1.1
							c3.5,0,5.6,2.2,3.2,12.6c-1.9,12.4,1.4,50.2-27.7,53.9c0.4,7.9,8.4,38.2-6.4,43c-3.8,1.1-3.8,7.9-6.1,7.9c-0.1,0-0.1,0-0.2,0
							c-2.5-0.4-4.7-9.1-4.7-9.1s-1.1-3.8-9.8-4.2c-0.2,0-0.5,0-0.7,0c-8,0-9.2,6.5-11.4,8.3c-0.3,0.2-0.5,0.3-0.7,0.3
							c-1.9,0-3.1-5.9-3.8-7.9c-0.8-2.3-25.4-2.4-3.3-49.3c-6.7-6.6-22.2-30,0.1-40.5c0,0,3.8-20.8,24.8-24.5
							C202.5,156.2,207.1,154.4,210.3,154.4 M210.3,152L210.3,152c-3.5,0-8.1,1.7-12.9,3.7c-9.2,1.7-16.6,6.8-21.6,14.7
							c-2.8,4.4-4.1,8.5-4.6,10.5c-6.7,3.4-10.6,8.3-11.7,14.6c-1.9,11.3,6.3,23.1,10.8,28.1c-8.1,17.7-10.6,31-7.3,39.7
							c2.6,6.8,8,9.2,10.7,10.3c0.2,0.1,0.5,0.2,0.7,0.3c0.1,0.2,0.1,0.5,0.2,0.7c1.1,3.8,2.3,8.2,5.6,8.2c0.6,0,1.4-0.1,2.3-0.9
							c0.9-0.7,1.5-1.7,2.2-2.8c1.5-2.4,3.1-4.9,7.7-4.9c0.2,0,0.4,0,0.6,0c6,0.3,7.4,2.2,7.6,2.6c1.2,4.6,3.3,10.2,6.6,10.7
							c0.2,0,0.4,0,0.6,0c2.6,0,3.7-2.5,4.5-4.5c0.6-1.4,1.3-3.2,2.3-3.5c0,0,0.1,0,0.1,0c14-4.6,10.8-26.2,8.9-39.2
							c-0.2-1.5-0.4-2.9-0.6-4.1c10.3-2,17.6-8.5,21.9-19.2c3.7-9.4,4.4-20.5,5-28.5c0.2-3.1,0.4-5.7,0.7-7.6
							c1.5-6.8,1.4-10.9-0.5-13.3c-1.1-1.4-2.8-2.2-5-2.2c-1.5,0-3,0.3-4.5,0.6c-0.7,0.1-1.4,0.3-2,0.4c-5.8-5-13.4-6.6-20.7-8.2
							c-0.3-0.1-0.6-0.1-0.9-0.2c-0.1-1.5-0.6-2.8-1.5-3.7C214.1,152.6,212.4,152,210.3,152L210.3,152z"/>
					</g>
					
						<path fill="#E9C093" stroke="#315A8D" stroke-width="2.39" stroke-linecap="round" stroke-linejoin="round" stroke-miterlimit="10" d="
						M174.2,221c0,0-11.4-9.9-14.5-10.7c-3.1-0.7-5.9,1.1-3.8,5.1c1.2,1.9,1.8,2.8,1.8,2.8s4.7,11.5,12,15"/>
					<path fill="#FFFFFF" d="M173.1,223c0,0.1,4.1,3.8,5.1,4.4c1.2,4.4-5.8,10.7-9.7,22.3c-3.3,9.7-1.6,16-0.7,17.1
						c3.5,4,8.2,4.6,8.5,5.6c0.8,2.3,2.2,9.4,4.5,7.6c2.3-1.9,3.4-8.7,12.1-8.3c8.7,0.4,9.8,4.2,9.8,4.2s2.3,8.7,4.7,9.1
						c2.5,0.4,2.4-6.8,6.3-7.9c0.2,0,0.3-0.1,0.5-0.2c4.6-11.9,1.4-22.1-2.1-27.3c-3.8-5.7-3.2-10.4-2.3-13.9
						c16.7-0.8,24.4-13.4,24.4-23.4c0-10-9.6-15.8-20.4-15.9c-10.8,0-19.6-0.6-28.1-4.2c-8.5-3.5-5.3-6.7-12.6-9.6
						C150.9,193.1,166.4,216.4,173.1,223z"/>
					
						<path fill="#FFFFFF" stroke="#315A8D" stroke-width="2.39" stroke-linecap="round" stroke-linejoin="round" stroke-miterlimit="10" d="
						M186.1,204.1c0,3.4-1.3,6.2-2.9,6.2c-1.6,0-2.9-1.3-2.9-4.8c0-3.4,1.3-7.6,3-7.6C184.8,197.9,186.1,200.7,186.1,204.1z"/>
					<path fill="#315A8D" d="M191.2,193.5c-0.8,1.8-3.7,2.3-6.5,1.1c-2.8-1.2-4.4-3.7-3.6-5.5c0.8-1.8,3.7-2.3,6.4-1.1
						C190.4,189.2,192,191.6,191.2,193.5z"/>
					<path fill="#FFFFFF" d="M203,179.2c-1.5,2.2,0.7,4.3,3.8,6.3c3,2,5.8,3.3,7.3,1.1c1.5-2.2,0.2-5.7-2.8-7.7
						C208.2,176.8,204.5,177,203,179.2z"/>
					<path fill="#315A8D" d="M198.7,188.6c0,0,1.3-2.6,5.1-1.6c3.8,1,4.3,6-0.9,5.6C199.7,192.4,197.5,190.3,198.7,188.6z"/>
					<path fill="#FFFFFF" d="M191.4,174c-0.5,2.5-3.3,2.3-6.6,1.6c-3.3-0.7-6-1.7-5.5-4.1c0.5-2.4,3.6-3.9,7-3.2
						C189.6,169,191.9,171.6,191.4,174z"/>
					<path fill="#315A8D" d="M185.8,184.4c0,0,1-2.7-2.4-4.8c-3.4-2-7.3,1.2-3.4,4.6C182.4,186.3,185.3,186.4,185.8,184.4z"/>
				</g>
			</g>
			<g>
				
					<path fill="#E9C093" stroke="#315A8D" stroke-width="2.39" stroke-linecap="round" stroke-linejoin="round" stroke-miterlimit="10" d="
					M229.6,245.3c-2.9,5.7-13.3,7.9-14.4,3.4c-0.1,0-0.4,0-0.5,0c0,0-0.1,0-0.1,0c-3.9,4.5-14.7,3.9-20.5,3.2
					c-3.8-0.4-17.8-1.7-19.1-5.8c-2.8-0.1-8.5-3-12.2-6.5c-3.8,13.9-1.2,31,10,35.5c2.1,0.8,4,1,5.6,0.8c1.8,1.4,3.9,2.6,6.4,3.4
					c1.2,0.4,2.3,0.7,3.4,0.9c1.5,0.7,3.3,1,5.2,1c7.1,0.9,12.6-0.4,16.7-3.1c1.4,0.2,3,0.2,4.9-0.2c11.6-3,16.4-19,14.8-33.2
					C229.8,244.9,229.7,245.1,229.6,245.3z"/>
				
					<path fill="none" stroke="#315A8D" stroke-width="2.39" stroke-linecap="round" stroke-linejoin="round" stroke-miterlimit="10" d="
					M178.4,275.8c0,0-6.5-7.1-3.5-26.5"/>
				
					<path fill="none" stroke="#315A8D" stroke-width="2.39" stroke-linecap="round" stroke-linejoin="round" stroke-miterlimit="10" d="
					M210.2,278c0,0,5.5-10.3,4.9-19.5"/>
				
					<path fill="#E9C093" stroke="#315A8D" stroke-width="2.39" stroke-linecap="round" stroke-linejoin="round" stroke-miterlimit="10" d="
					M215.2,248.7c0,0,0.8,1.7,0.5,3.4"/>
				
					<path fill="#E9C093" stroke="#315A8D" stroke-width="2.39" stroke-linecap="round" stroke-linejoin="round" stroke-miterlimit="10" d="
					M214.4,272c0,0,4.2,0.5,6-1.6"/>
				
					<path fill="#E9C093" stroke="#315A8D" stroke-width="2.39" stroke-linecap="round" stroke-linejoin="round" stroke-miterlimit="10" d="
					M219.1,267.1c0,0,3.2,0.2,3.9-0.9"/>
				
					<path fill="#E9C093" stroke="#315A8D" stroke-width="2.39" stroke-linecap="round" stroke-linejoin="round" stroke-miterlimit="10" d="
					M176,270.5c0,0,3.7,2,4.9,1.6"/>
				
					<path fill="#E9C093" stroke="#315A8D" stroke-width="2.39" stroke-linecap="round" stroke-linejoin="round" stroke-miterlimit="10" d="
					M174.6,265.8c0,0,3.2,2.2,4.1,1.9"/>
				
					<path fill="#E9C093" stroke="#315A8D" stroke-width="2.39" stroke-linecap="round" stroke-linejoin="round" stroke-miterlimit="10" d="
					M161.3,254.4c0,0,1.8,1.5,3.8,1.6"/>
				
					<path fill="#E9C093" stroke="#315A8D" stroke-width="2.39" stroke-linecap="round" stroke-linejoin="round" stroke-miterlimit="10" d="
					M166.3,269.8c0,0,3.2,1,4.6,1"/>
				
					<path fill="#E9C093" stroke="#315A8D" stroke-width="2.39" stroke-linecap="round" stroke-linejoin="round" stroke-miterlimit="10" d="
					M175.1,268.4c0,0-2.1,0.2-4-0.3"/>
				
					<path fill="#E9C093" stroke="#315A8D" stroke-width="2.39" stroke-linecap="round" stroke-linejoin="round" stroke-miterlimit="10" d="
					M204.7,259.6c0,0,2.6,0.1,4.7-0.6"/>
				
					<path fill="#E9C093" stroke="#315A8D" stroke-width="2.39" stroke-linecap="round" stroke-linejoin="round" stroke-miterlimit="10" d="
					M202.7,263c0,0,3.6,0.4,5.5-0.6"/>
			</g>
			
				<path fill="#E9C093" stroke="#315A8D" stroke-width="2.39" stroke-linecap="round" stroke-linejoin="round" stroke-miterlimit="10" d="
				M223.1,235.8c0,0,8.4,1.2,6.8,8.9c-1.5,2.3-7.6,9.7-14.8,3.6c-5.1,3.1-21.3,8.1-40.1-2.2c-5.3-1.7-11.8-4.8-11.8-7.8
				c0-3.1,3.7-3.2,3.7-3.2s0.7,3.9,9.8,6.6c7.6,2.9,26.2,7.1,36,2.1c5.2,0.4,9.6-0.7,8.4-3.2C221,238.9,223.1,235.8,223.1,235.8z"/>
			
				<path fill="#E9C093" stroke="#315A8D" stroke-width="2.39" stroke-linecap="round" stroke-linejoin="round" stroke-miterlimit="10" d="
				M211.7,236.8c0,0-6.4,6.8-7.9,9.6c-1.4,2.8,1.2,7,5.6,5.8c2.2-0.7,5.2-3.6,5.2-3.6s4.7-3.3,6.4-9"/>
			<g>
				<g>
					
						<path fill="#CBDF8C" stroke="#315A8D" stroke-width="2.39" stroke-linecap="round" stroke-linejoin="round" stroke-miterlimit="10" d="
						M233.9,141.7c-2.2-4.2-9.7-6.6-13.2-2.8c-2.6,2.4-2.2,9.7-2.2,9.7c-0.5,5.9,3.3,4.9,6.7,2.8
						C229.5,148.9,236.7,146.8,233.9,141.7z"/>
					
						<path fill="#CBDF8C" stroke="#315A8D" stroke-width="2.39" stroke-linecap="round" stroke-linejoin="round" stroke-miterlimit="10" d="
						M234.5,144.3c-0.7,2-4.1,1.4-7.4,0.2c-3.3-1.2-6.7-3.7-6-5.6c0.7-2,5-2.2,8.2-1C232.7,139,235.2,142.3,234.5,144.3z"/>
					
						<path fill="#E9C093" stroke="#315A8D" stroke-width="2.39" stroke-linecap="round" stroke-linejoin="round" stroke-miterlimit="10" d="
						M222.5,141.8c0,0-1.6,1.7-1.7,4.5"/>
					
						<line fill="#E9C093" stroke="#315A8D" stroke-width="2.39" stroke-linecap="round" stroke-linejoin="round" stroke-miterlimit="10" x1="223.5" y1="147.3" x2="220.7" y2="152.9"/>
					
						<line fill="#E9C093" stroke="#315A8D" stroke-width="2.39" stroke-linecap="round" stroke-linejoin="round" stroke-miterlimit="10" x1="228.7" y1="145" x2="228.1" y2="146.6"/>
				</g>
				<g>
					
						<path fill="#E9C093" stroke="#315A8D" stroke-width="2.39" stroke-linecap="round" stroke-linejoin="round" stroke-miterlimit="10" d="
						M227.3,152.5c0,0-1.6-0.4-2.6,0.4c-2.4-3.9-6.3-6-11.1-3.4c0-1.6-1.8-2.7-1.8-2.7c-9.7-4-30.2,6.4-17.3,15.2
						c3.2,2.2,6.3,2.4,9,1.4c2,5.2,9.2,9.6,14.3,9.5c2.2,0,4-0.6,5.4-1.6c1.5,2.1,3.8,3.7,7.3,4.1
						C246.1,176.9,237.4,155.7,227.3,152.5z"/>
					
						<path fill="#E9C093" stroke="#315A8D" stroke-width="2.39" stroke-linecap="round" stroke-linejoin="round" stroke-miterlimit="10" d="
						M203.6,163.3c0,0,1-2.6,5.4-8.6"/>
					
						<path fill="#E9C093" stroke="#315A8D" stroke-width="2.39" stroke-linecap="round" stroke-linejoin="round" stroke-miterlimit="10" d="
						M223.3,171.2c0,0,2.6-2.7,2.7-7.4"/>
					
						<path fill="#E9C093" stroke="#315A8D" stroke-width="2.39" stroke-linecap="round" stroke-linejoin="round" stroke-miterlimit="10" d="
						M224.7,152.8c0,0,0.9,3.1,1.1,5.4"/>
					
						<path fill="#E9C093" stroke="#315A8D" stroke-width="2.39" stroke-linecap="round" stroke-linejoin="round" stroke-miterlimit="10" d="
						M213.6,149.4c0,0-0.9,0.2-1.7,1.2"/>
				</g>
				
					<path fill="#E9C093" stroke="#315A8D" stroke-width="2.39" stroke-linecap="round" stroke-linejoin="round" stroke-miterlimit="10" d="
					M209.9,146.2c0,0-3.4,0-5.5,1.7"/>
				
					<path fill="#E9C093" stroke="#315A8D" stroke-width="2.39" stroke-linecap="round" stroke-linejoin="round" stroke-miterlimit="10" d="
					M194.1,154.5c0,0-3.7,2.7-3.3,3.4"/>
				
					<path fill="#E9C093" stroke="#315A8D" stroke-width="2.39" stroke-linecap="round" stroke-linejoin="round" stroke-miterlimit="10" d="
					M196.2,157c0,0,3.1,1.6,5.1,1.9"/>
				
					<path fill="#E9C093" stroke="#315A8D" stroke-width="2.39" stroke-linecap="round" stroke-linejoin="round" stroke-miterlimit="10" d="
					M197.8,160.5c0,0,1.1,1.1,4.2,0.6"/>
				
					<path fill="#E9C093" stroke="#315A8D" stroke-width="2.39" stroke-linecap="round" stroke-linejoin="round" stroke-miterlimit="10" d="
					M223.3,167.1c0,0-1.9,0.9-5,0.1"/>
				
					<path fill="#E9C093" stroke="#315A8D" stroke-width="2.39" stroke-linecap="round" stroke-linejoin="round" stroke-miterlimit="10" d="
					M220.2,169.4c0,0-1.3,0.2-4.4-1.1"/>
				
					<path fill="#E9C093" stroke="#315A8D" stroke-width="2.39" stroke-linecap="round" stroke-linejoin="round" stroke-miterlimit="10" d="
					M231.1,155.8c0,0-0.6,0.8-1.9,1.1"/>
				
					<line fill="#E9C093" stroke="#315A8D" stroke-width="2.39" stroke-linecap="round" stroke-linejoin="round" stroke-miterlimit="10" x1="234.2" y1="157.5" x2="232" y2="158"/>
				
					<path fill="#E9C093" stroke="#315A8D" stroke-width="2.39" stroke-linecap="round" stroke-linejoin="round" stroke-miterlimit="10" d="
					M238.9,171c0,0-1.3,1.7-5.5,0.7"/>
			</g>
		</g>
	</g>
</g>
<g id="圖層_6">
</g>
<g id="圖層_1" display="none">
</g>
<g id="其他">
</g>
<g id="圖層_2">
</g>
</svg>
