<?xml version="1.0" encoding="utf-8"?>
<!-- Generator: Adobe Illustrator 16.0.0, SVG Export Plug-In . SVG Version: 6.00 Build 0)  -->
<!DOCTYPE svg PUBLIC "-//W3C//DTD SVG 1.1//EN" "http://www.w3.org/Graphics/SVG/1.1/DTD/svg11.dtd">
<svg version="1.1" xmlns="http://www.w3.org/2000/svg" xmlns:xlink="http://www.w3.org/1999/xlink" x="0px" y="0px" width="365.4px"
	 height="212.8px" viewBox="0 0 365.4 212.8" enable-background="new 0 0 365.4 212.8" xml:space="preserve">
<g id="bg">
</g>
<g id="info">
	<g>
		<g>
			<g>
				<path fill="#DBDCDC" d="M332.5,183.6c2.7,2.8,4.1,5.8,3.1,6.7c-1,1-4-0.5-6.7-3.3c-2.7-2.8-4.1-5.8-3.1-6.7
					C326.9,179.4,329.8,180.8,332.5,183.6z"/>
				<path fill="#DBDCDC" d="M343.6,184.6c0.4,3.9-0.4,7.1-1.7,7.2c-1.4,0.1-2.8-2.9-3.1-6.7c-0.4-3.9,0.4-7.1,1.7-7.2
					C341.8,177.7,343.2,180.8,343.6,184.6z"/>
				<path fill="#DBDCDC" d="M351.9,186.7c-1.5,2.8-3.6,4.7-4.6,4.2c-1-0.5-0.6-3.3,1-6.1c1.5-2.8,3.6-4.7,4.6-4.2
					C353.9,181.2,353.5,183.9,351.9,186.7z"/>
			</g>
			<g>
				<path fill="#DBDCDC" d="M20,154.9c2.7,2.8,4.1,5.8,3.1,6.7s-4-0.5-6.7-3.3c-2.7-2.8-4.1-5.8-3.1-6.7
					C14.3,150.7,17.3,152.2,20,154.9z"/>
				<path fill="#DBDCDC" d="M31.1,156c0.4,3.9-0.4,7.1-1.7,7.2c-1.4,0.1-2.8-2.9-3.2-6.7c-0.4-3.8,0.4-7.1,1.8-7.2
					C29.3,149.1,30.7,152.1,31.1,156z"/>
				<path fill="#DBDCDC" d="M39.4,158.1c-1.5,2.8-3.6,4.7-4.6,4.2c-1-0.5-0.6-3.3,1-6.1c1.5-2.8,3.6-4.7,4.6-4.2
					C41.4,152.5,40.9,155.2,39.4,158.1z"/>
			</g>
			<g>
				<path fill="#DBDCDC" d="M155.1,204.5c2.7,2.8,4.1,5.8,3.2,6.7c-1,1-4-0.5-6.7-3.3c-2.7-2.8-4.1-5.8-3.1-6.7
					C149.4,200.3,152.4,201.8,155.1,204.5z"/>
				<path fill="#DBDCDC" d="M166.2,205.6c0.4,3.9-0.4,7.1-1.7,7.2c-1.4,0.1-2.8-2.9-3.2-6.7c-0.4-3.8,0.4-7.1,1.7-7.2
					C164.4,198.7,165.8,201.7,166.2,205.6z"/>
				<path fill="#DBDCDC" d="M174.5,207.7c-1.5,2.8-3.6,4.7-4.6,4.2c-1-0.5-0.6-3.3,1-6.1c1.5-2.8,3.6-4.7,4.6-4.2
					C176.5,202.1,176,204.8,174.5,207.7z"/>
			</g>
			<g>
				<path fill="#DBDCDC" d="M225.7,138.7c2.7,2.8,4.1,5.8,3.1,6.7c-1,1-4-0.5-6.7-3.3c-2.7-2.8-4.1-5.8-3.1-6.7
					C220,134.5,222.9,136,225.7,138.7z"/>
				<path fill="#DBDCDC" d="M236.7,139.8c0.4,3.8-0.4,7.1-1.7,7.2c-1.4,0.1-2.8-2.9-3.2-6.7c-0.4-3.8,0.4-7.1,1.7-7.2
					C234.9,132.9,236.3,135.9,236.7,139.8z"/>
				<path fill="#DBDCDC" d="M245,141.9c-1.5,2.8-3.6,4.7-4.6,4.2c-1-0.5-0.6-3.3,1-6.1c1.5-2.8,3.6-4.7,4.6-4.2
					C247,136.3,246.6,139,245,141.9z"/>
			</g>
			<path fill="#DBDCDC" d="M45.1,187.3c0,0.9-1.7,1.6-3.7,1.6c-2.1,0-3.7-0.7-3.7-1.6c0-0.9,1.7-1.6,3.7-1.6
				C43.4,185.8,45.1,186.5,45.1,187.3z"/>
			<path fill="#DBDCDC" d="M51.7,169.9c0,1.2-2.3,2.2-5.2,2.2c-2.9,0-5.2-1-5.2-2.2c0-1.2,2.3-2.2,5.2-2.2
				C49.4,167.7,51.7,168.7,51.7,169.9z"/>
			<path fill="#DBDCDC" d="M208,133.4c0,1.2-2.3,2.2-5.2,2.2c-2.9,0-5.2-1-5.2-2.2c0-1.2,2.3-2.2,5.2-2.2
				C205.7,131.2,208,132.2,208,133.4z"/>
			<path fill="#DBDCDC" d="M276.1,205.7c0,0.8-1.6,1.5-3.6,1.5c-2,0-3.6-0.7-3.6-1.5c0-0.8,1.6-1.5,3.6-1.5
				C274.5,204.2,276.1,204.8,276.1,205.7z"/>
			<path fill="#DBDCDC" d="M77.7,153c0,0.8-1.6,1.5-3.6,1.5c-2,0-3.6-0.7-3.6-1.5c0-0.8,1.6-1.5,3.6-1.5
				C76.1,151.4,77.7,152.1,77.7,153z"/>
			<path fill="#DBDCDC" d="M317.3,190.5c0,1.2-2.2,2.1-5,2.1c-2.7,0-5-0.9-5-2.1c0-1.2,2.2-2.1,5-2.1
				C315.1,188.4,317.3,189.3,317.3,190.5z"/>
			<path fill="#DBDCDC" d="M322.6,140c0,0.7-1.3,1.2-2.9,1.2c-1.6,0-2.9-0.5-2.9-1.2c0-0.7,1.3-1.2,2.9-1.2
				C321.3,138.8,322.6,139.3,322.6,140z"/>
			<path fill="#DBDCDC" d="M131.7,165.8c0,0.7-1.3,1.2-2.9,1.2c-1.6,0-2.9-0.5-2.9-1.2c0-0.7,1.3-1.2,2.9-1.2
				C130.4,164.6,131.7,165.2,131.7,165.8z"/>
			<path fill="#DBDCDC" d="M8.1,164.6c0,0.7-1.3,1.2-2.9,1.2c-1.6,0-2.9-0.5-2.9-1.2c0-0.7,1.3-1.2,2.9-1.2
				C6.9,163.4,8.1,164,8.1,164.6z"/>
			<path fill="#DBDCDC" d="M365.4,153c0,1.4-2.6,2.5-5.8,2.5c-3.2,0-5.8-1.1-5.8-2.5c0-1.4,2.6-2.5,5.8-2.5
				C362.8,150.5,365.4,151.6,365.4,153z"/>
			<path fill="#DBDCDC" d="M268.9,155.4c0,1.4-2.6,2.5-5.8,2.5c-3.2,0-5.8-1.1-5.8-2.5c0-1.4,2.6-2.5,5.8-2.5
				C266.3,153,268.9,154.1,268.9,155.4z"/>
		</g>
		<g>
			<path fill="#DBDCDC" d="M317.6,114.6c0.4-2.6-0.6-5.5-3.4-7.5c-0.4-0.3-0.7-0.5-1.1-0.8c-1.5-1.1-3.7-1.3-5.6-0.8
				c-14.1-2.2-27.6-1.3-41.8,0.8c-19.5,2.9-39.2,3.6-58.8,5.5c-16.2,1.6-31.5,5.7-46.5,11.8c-20.8,8.6-39.5,13-62.1,13.7
				c-16.6,0.6-33-0.3-49.6-0.8c-10.5-0.3-22,1.1-28,10.6c-3.2,5.1-4,9.4-3.1,13.1c-1.7,30.3,79.4,18.9,95.8,16.6
				c7.6-1,15.9-2.4,23-3.3c6.4-0.8,12.7,5.5,17.3,9c8.6,6.4,16.9,9.7,27.6,10.8c12,1.2,23.7-3.9,35.9-2.7c9.9,1,17.6,1.1,26.5-3.3
				c3.6-1.8,5.9-6.6,5.8-10.5c0-2.6-0.5-5.1-0.8-7.7c-0.4-3.6,4.3-1.5,7.2-1.8c3.2-0.3,6.5-2,7.2-5.5c0.4-1.6,0.6-3.2,0.7-4.9
				c0-0.1,0-0.2,0-0.3c11.3,1.2,22.7,4.2,34.3,1.3c6.8-1.8,11.4-6.9,13.3-13.4c1.2-4.2,0.6-7.4-0.9-10.2c3.2-0.7,6.4-1.9,9.6-3.8
				c3.2-1.9,5.2-7,2.7-10.3C321.1,117.9,319.4,116.2,317.6,114.6z"/>
			<g>
				
					<path fill="#B4B4B5" stroke="#315A8D" stroke-width="2.39" stroke-linecap="round" stroke-linejoin="round" stroke-miterlimit="10" d="
					M262.8,99.5c4.3-2.4,11.5-6.7,43.7-1.2c7.6,1.5,12.8,3.5,12.6,7.1c-0.2,3.6-3.6,5.3-8.8,4.4c-5.2-0.9-23.6-6.3-25.1,0.7
					c-0.2,2.1,2.7,2.8,10.2,4c10,1.5,25,1.2,23.6,11.3c-1.4,8-22.3,2.3-22.3,2.3s-16.9-3.9-19.3,1.2c-1.6,3.4,13.6,3.7,24.3,6.3
					c4.1,1.2,5.9,7.1,4.6,10.9c-1.3,3.8-15.6,5.1-35.9-1.3c-20.3-6.5-24.3-17.7-19.8-29.8C253.3,107.9,257.2,102.5,262.8,99.5z"/>
				<g>
					
						<path fill="#E9C093" stroke="#315A8D" stroke-width="2.39" stroke-linecap="round" stroke-linejoin="round" stroke-miterlimit="10" d="
						M102,86.4c-3-0.4-5.8,1.6-6.2,4.6l0,0c-0.4,3,1.6,5.8,4.6,6.2L254,120.3c3,0.5,5.8-1.6,6.2-4.6l0,0c0.4-3-1.6-5.8-4.6-6.2
						L102,86.4z"/>
					<path fill="#315A8D" d="M248.7,120.5c-0.1,0.7,0.4,1.4,1.1,1.5l0,0c0.7,0.1,1.4-0.4,1.5-1.1l1.9-13c0.1-0.7-0.4-1.4-1.1-1.5
						l0,0c-0.7-0.1-1.4,0.4-1.5,1.1L248.7,120.5z"/>
					<path fill="#315A8D" d="M241.3,119.4c-0.1,0.7,0.4,1.4,1.1,1.5l0,0c0.7,0.1,1.4-0.4,1.5-1.1l1.9-13c0.1-0.7-0.4-1.4-1.1-1.5
						l0,0c-0.7-0.1-1.4,0.4-1.5,1.1L241.3,119.4z"/>
					<path fill="#315A8D" d="M243.2,119.1c-0.3,0.7,0,1.5,0.7,1.8l0,0c0.7,0.3,1.4,0,1.7-0.7l5.3-12c0.3-0.7,0-1.5-0.7-1.8l0,0
						c-0.7-0.3-1.5,0-1.8,0.7L243.2,119.1z"/>
				</g>
			</g>
			<g>
				<g>
					<g>
						<path fill="#E9C093" d="M134.7,156.4c-19.2,0-45.3-9-60.2-29.1c-8-10.8-9.6-25.6-3.9-37c4.6-9.2,13-14.3,23.7-14.3
							c4.1,0,8.6,0.8,13.2,2.3l3.2,1.1c15.7,5.2,28.1,9.3,30,14.5c0.5,1.3,0.3,2.6-0.4,3.9c-1.5,2.5-3.4,3-4.7,3
							c-3.3,0-6.4-2.9-8.5-5.1c-0.9,0.3-2.8,1.9-2.8,3.2c0,1.1,1.7,2,4.7,2.4c15.8,2.4,33.5,11.8,36.8,25.2
							c1.5,6.2,0.4,15.8-13.6,26.1c0,0-0.1,0.1-0.1,0.1C147.8,155.2,141.7,156.4,134.7,156.4z"/>
						<path fill="#315A8D" d="M94.3,77.3c3.9,0,8.2,0.7,12.9,2.3c19,6.3,35.9,11.4,32.2,17.7c-1.1,1.8-2.4,2.4-3.7,2.4
							c-3.4,0-7.1-4.2-8-5c-0.1-0.1-0.2-0.1-0.4-0.1c-2,0-9.1,6.5,1.5,8.1c26.2,4,53.4,26.4,22.7,49.2c-4.2,2.3-10.1,3.4-16.9,3.4
							c-19,0-44.7-9-59.3-28.6C61.3,107.8,68.8,77.3,94.3,77.3 M94.3,74.9c-11,0-20,5.4-24.8,14.9c-5.9,11.7-4.3,27.1,4,38.2
							c15.2,20.4,41.7,29.5,61.2,29.5c7.3,0,13.5-1.3,18-3.7c0.1-0.1,0.2-0.1,0.3-0.2c14.5-10.8,15.6-20.8,14-27.4
							c-2.9-11.7-16.3-20.5-30.2-24.4c1.5-0.3,3.2-1.2,4.6-3.5c0.9-1.6,1.1-3.3,0.5-4.9c-2.1-5.5-12.5-9.2-30.8-15.2l-3.2-1.1
							C103.1,75.7,98.5,74.9,94.3,74.9L94.3,74.9z M125.5,99c0-0.4,0.8-1.2,1.4-1.7c1.1,1.1,2.5,2.3,4,3.3c-0.6-0.1-1.2-0.2-1.8-0.3
							C126.3,99.9,125.6,99.2,125.5,99L125.5,99z"/>
					</g>
					<path fill="#FFFFFF" d="M128.8,102.6c-11.4-1.7-2.3-9.1-1.1-8c1.1,1.1,7.7,8.5,11.4,2.9c1.5-3.1-9.4-10.9-16.5-7
						c-9.4,5.1-9.7,18-0.4,21.8c11.5,4.3,44.4,5.5,35.4,27.7c-0.9,2.6-6.8,7.2-6.4,10.2c0.1,0.6,0.3,1,0.5,1.4
						C182.1,129,154.9,106.6,128.8,102.6z"/>
					
						<path fill="#E9C093" stroke="#315A8D" stroke-width="2.39" stroke-linecap="round" stroke-linejoin="round" stroke-miterlimit="10" d="
						M97,135.4c0,0,49.5-24.7,61.4,14.2c2.9-2.9,19.1,3.4,4.6,6.8c-6.1,1.1-12.5,1.1-16.1,0.7c-10.8,4.6-66.6,20.9-68.6,1.3
						C76.2,138.8,97,135.4,97,135.4z"/>
					<path fill="#E9C093" d="M104.1,132.8c0,0,25.6,12.5,44.1-2.6l-3.3-9.4l-25.3-3L104.1,132.8z"/>
					
						<path fill="#E9C093" stroke="#315A8D" stroke-width="2.39" stroke-linecap="round" stroke-linejoin="round" stroke-miterlimit="10" d="
						M104.1,132.8c0,0,25.6,12.5,44.1-2.6"/>
					<g>
						
							<path fill="#E9C093" stroke="#315A8D" stroke-width="2.39" stroke-linecap="round" stroke-linejoin="round" stroke-miterlimit="10" d="
							M113,145.6c0.8-7.3-1.4-18.2-16.3-35.8c-7.7-7.2-14.5-5.5-12.8,3.4c-7.7-2.1-14.9-3.8-26-1.7c-2.6-2.6-5.1-6.4-9.8-1.3
							c0,0-11.9,13.2-13.7,33.7c-3,3-11.9,20.9,14.5,24.7c17,2.5,34.8,2.1,47.3-3"/>
						<g>
							<path fill="#FFFFFF" d="M89.7,161.8c2.3-10.1-8.3-17.8-16.4-16c-8.1,1.9-15.7,2.9-23.8,1.4c-3-0.6-10.6-6.4-15.8-1.2
								c-3.2,5.6-6.4,18.8,15.6,21.9c12.7,1.8,25.8,2.1,36.7-0.2C87.7,166.4,89.1,164.4,89.7,161.8z"/>
							<path fill="#FFFFFF" d="M75.4,136.4c0,2-2.1,2.4-4.8,2.4c-2.6,0-4.7-0.4-4.7-2.4c0-2,2.1-3.6,4.7-3.6
								C73.3,132.8,75.4,134.4,75.4,136.4z"/>
							<path fill="#FFFFFF" d="M49.3,136c0,2-2.1,2.4-4.8,2.4c-2.6,0-4.7-0.4-4.7-2.4c0-2,2.1-3.6,4.7-3.6
								C47.2,132.4,49.3,134,49.3,136z"/>
							<path fill="#315A8D" d="M60.4,149.1c-0.1,1.9-2.6,3-5.4,2.9c-2.8-0.2-4.9-1.6-4.8-3.5c0.1-1.9,2.5-3.1,5.3-2.9
								C58.3,145.7,60.5,147.1,60.4,149.1z"/>
							
								<path fill="#E9C093" stroke="#315A8D" stroke-width="2.39" stroke-linecap="round" stroke-linejoin="round" stroke-miterlimit="10" d="
								M57,155c0,0,3.6,0.4,4.5-0.8"/>
							
								<path fill="none" stroke="#315A8D" stroke-width="2.39" stroke-linecap="round" stroke-linejoin="round" stroke-miterlimit="10" d="
								M67.8,143.4c0,0,3.8,0.5,4.8-0.5"/>
							
								<path fill="none" stroke="#315A8D" stroke-width="2.39" stroke-linecap="round" stroke-linejoin="round" stroke-miterlimit="10" d="
								M42.2,142c0,0,3.7,1,4.8,0.1"/>
						</g>
					</g>
					
						<path fill="#E9C093" stroke="#315A8D" stroke-width="2.39" stroke-linecap="round" stroke-linejoin="round" stroke-miterlimit="10" d="
						M109.7,151.8c0,0,7.9,1.4,11.1,0.9s2.3-2,4.7-1.7c2.3,0.3,3.8,4.5-0.8,7.9c-4.7,3.4-20.7,4.8-20.7,4.8"/>
					
						<path fill="none" stroke="#315A8D" stroke-width="2.39" stroke-linecap="round" stroke-linejoin="round" stroke-miterlimit="10" d="
						M126.4,95.9c0,0,1.3-1.2,3.5-0.9"/>
				</g>
				<g>
					
						<path fill="#FFFFFF" stroke="#315A8D" stroke-width="2.39" stroke-linecap="round" stroke-linejoin="round" stroke-miterlimit="10" d="
						M9.6,122.5c-9.1,6.2-11.4,19.6-4.1,29.2c14.2,18.7,36.1,8,48.2-0.3c0,0-10.1-0.7-11-9.7c-0.1,0.1-1.7-8.4-4.4-12.4
						C31.6,119.4,18.7,116.3,9.6,122.5z"/>
					
						<path fill="#315A8D" stroke="#315A8D" stroke-width="2.39" stroke-linecap="round" stroke-linejoin="round" stroke-miterlimit="10" d="
						M6,142.1c0,0,0.3,1.3,1,3.1"/>
					<path fill="#315A8D" d="M6.4,137.9c0.3,0.7,0,1.4-0.7,1.7c-0.7,0.3-1.4,0-1.7-0.7c-0.3-0.7,0-1.4,0.7-1.7
						C5.4,136.9,6.2,137.3,6.4,137.9z"/>
				</g>
			</g>
			<g>
				
					<path fill="#FFEEE2" stroke="#315A8D" stroke-width="2.39" stroke-linecap="round" stroke-linejoin="round" stroke-miterlimit="10" d="
					M156.6,125.6c0,0-7.2,45.5,30.8,50.1c5.8,1.2,18.4-0.3,23-1.4c3.2-0.3,24.2,5.7,26.5,7.5c2,1.1,10.1-9.2,0-12.1
					c-3.7-1.2-12.4-8.4-12.4-8.4l9.5-3.7c0,0,18.7,4.6,26.2,0.6c2.9-2.6,8.1-9.5,0-9.2c-6.6-0.9-22.2-3.5-22.2-3.5
					s2.3-19.3-24.8-27.3c-10.1,1.7-55.3,7.5-55.3,7.5"/>
				
					<path fill="#E9C093" stroke="#315A8D" stroke-width="2.39" stroke-linecap="round" stroke-linejoin="round" stroke-miterlimit="10" d="
					M160.2,152.9c0,0,1,4.6,20.3,4.3c19.3-0.3,45.9-6.5,52.2-18c1.4-3.2,2.4-6,1.4-7.5c2.1-0.1,6-0.6,6.3,5.9
					c0.7,3.2,7.9,5.3,7.9,5.3l-10.2,8.9l2,8.8l-9.4,0.6l-2.7,2.8c0,0-6.2-4.5-14.1-2.2c-1.9,3.7-2.6,7.9-2.6,7.9l6.3,7.5l-7.3-0.9
					c0,0-24.8,6-38.6-3.7C165.8,169.2,154.3,155,160.2,152.9z"/>
				
					<path fill="#FFEEE2" stroke="#315A8D" stroke-width="2.39" stroke-linecap="round" stroke-linejoin="round" stroke-miterlimit="10" d="
					M146.4,120.3c0.1,0.4-2.1,38.8-3.1,40.1c-1,1.3-3.7,4.6-1.1,5c2.6,0.4,9.9,0.7,12.2-5.9c2.3-6.6,8.2-22.2,8.2-22.2"/>
			</g>
			<g>
				<g>
					
						<path fill="#FFF1C2" stroke="#315A8D" stroke-width="2.39" stroke-linecap="round" stroke-linejoin="round" stroke-miterlimit="10" d="
						M241.6,51.6c12.7,38.5-11.9,68.8-50.3,81.5c-38.5,12.6-76.2,2.8-88.9-35.7C89.7,59,110.6,17.5,149.1,4.9
						C187.5-7.8,229,13.1,241.6,51.6z"/>
					<g>
						<path fill="#E9C093" d="M167.4,7.7c0.9,2.6-0.6,5.4-3.2,6.3c-2.6,0.9-5.4-0.6-6.3-3.2c-0.9-2.6,0.6-5.4,3.2-6.3
							C163.7,3.7,166.5,5.1,167.4,7.7z"/>
						<path fill="#E9C093" d="M162.7,39.4c0.9,2.6-0.6,5.4-3.2,6.3c-2.6,0.9-5.4-0.6-6.3-3.2c-0.9-2.6,0.6-5.4,3.2-6.3
							C159,35.4,161.8,36.8,162.7,39.4z"/>
						<path fill="#E9C093" d="M125.6,33.9c0.9,2.6-0.6,5.4-3.2,6.3c-2.6,0.9-5.4-0.6-6.3-3.2c-0.9-2.6,0.6-5.4,3.2-6.3
							C121.9,29.9,124.7,31.3,125.6,33.9z"/>
						<path fill="#E9C093" d="M111.8,66.7c0.9,2.6-0.6,5.4-3.2,6.3c-2.6,0.9-5.4-0.6-6.3-3.2c-0.9-2.6,0.6-5.4,3.2-6.3
							C108.2,62.6,111,64.1,111.8,66.7z"/>
						<path fill="#E9C093" d="M195,51.3c0.9,2.6-0.6,5.4-3.2,6.3c-2.6,0.9-5.4-0.6-6.3-3.2c-0.9-2.6,0.6-5.4,3.2-6.3
							C191.3,47.3,194.1,48.7,195,51.3z"/>
						<path fill="#E9C093" d="M224.9,59c0.9,2.6-0.6,5.4-3.2,6.3c-2.6,0.9-5.4-0.6-6.3-3.2c-0.9-2.6,0.6-5.4,3.2-6.3
							C221.2,55,224,56.4,224.9,59z"/>
						<path fill="#E9C093" d="M217.5,24.7c0.9,2.6-0.6,5.4-3.2,6.3c-2.6,0.9-5.4-0.6-6.3-3.2c-0.9-2.6,0.6-5.4,3.2-6.3
							C213.8,20.6,216.6,22.1,217.5,24.7z"/>
						<path fill="#E9C093" d="M237.5,85.5c0.9,2.6-0.6,5.4-3.2,6.3c-2.6,0.9-5.4-0.6-6.3-3.2c-0.9-2.6,0.6-5.4,3.2-6.3
							C233.8,81.5,236.7,82.9,237.5,85.5z"/>
						<path fill="#E9C093" d="M151.1,65.8c0.9,2.6-0.6,5.4-3.2,6.3c-2.6,0.9-5.4-0.6-6.3-3.2c-0.9-2.6,0.6-5.4,3.2-6.3
							C147.4,61.7,150.2,63.2,151.1,65.8z"/>
						<path fill="#E9C093" d="M118,98.8c0.9,2.6-0.6,5.4-3.2,6.3c-2.6,0.9-5.4-0.6-6.3-3.2c-0.9-2.6,0.6-5.4,3.2-6.3
							C114.4,94.7,117.2,96.2,118,98.8z"/>
					</g>
					<g>
						<path fill="#FFEEE2" d="M159.2,139.7c-22.1,0-41.6-10.6-45.3-24.5c-2.5-9.7-2.4-24.6,6.2-35c7.8-7.9,14.2-11.1,23.8-14.6
							c8.3-2.9,17.1-4.4,26.2-4.4c17.8,0,32.2,5.7,38.6,11.4c0,0,0.1,0.1,0.1,0.1c2.3,2.8,4.7,8.5,4.8,8.7
							c6.1,14.5,6.9,25.7,2.6,34.2c-5,9.9-16.4,16.4-38.2,21.7C171.7,138.9,165.4,139.7,159.2,139.7
							C159.2,139.7,159.2,139.7,159.2,139.7z"/>
						<path fill="#315A8D" d="M170.1,62.4c16.7,0,31.2,5.2,37.8,11.1c1.9,2.3,3.9,6.9,4.6,8.4c14.3,34.3-2.1,46.3-34.8,54.3
							c-6.4,1.6-12.7,2.3-18.5,2.3c-23.3,0-40.8-11.3-44.1-23.7c-2.6-9.9-2.2-24.1,6-33.9c7.4-7.5,13.3-10.7,23.3-14.2
							C153.1,63.7,161.9,62.4,170.1,62.4 M170.1,60c-9.2,0-18.2,1.5-26.6,4.5c-9.8,3.5-16.3,6.7-24.2,14.8c0,0-0.1,0.1-0.1,0.1
							c-9,10.7-9.1,26.1-6.5,36c1.8,6.9,7.4,13.2,15.7,17.9c8.7,4.9,19.3,7.5,30.7,7.5c6.3,0,12.7-0.8,19.1-2.4
							c22.2-5.4,33.8-12.1,39-22.3c4.5-8.9,3.6-20.4-2.6-35.2c-0.3-0.6-2.6-6.1-4.9-9c-0.1-0.1-0.2-0.2-0.3-0.3
							C203,65.9,188.3,60,170.1,60L170.1,60z"/>
					</g>
					<g>
						<path fill="#E9C093" d="M111.1,98.9c-1.6,0-2.5-0.7-2.9-1.3c-0.8-1.2-0.8-3.1,0.2-5.6c3.9-10.5,15.3-15.5,15.8-15.7
							c0.2-0.1,0.3-0.1,0.5-0.1c0.4,0,0.9,0.3,1.1,0.7c0.2,0.3,3.9,8.5-4.1,17C120,95.5,114.7,98.9,111.1,98.9z"/>
						<path fill="#315A8D" d="M124.7,77.3c0,0,3.6,7.7-3.8,15.7c-1.8,1.8-6.8,4.7-9.7,4.7c-2,0-3.1-1.4-1.6-5.4
							C113.2,82.2,124.7,77.3,124.7,77.3 M124.7,74.9c-0.3,0-0.6,0.1-0.9,0.2c-0.5,0.2-12.4,5.5-16.5,16.4c-1.1,3-1.1,5.2,0,6.7
							c0.5,0.7,1.6,1.8,3.9,1.8c3.9,0,9.5-3.5,11.4-5.5c0,0,0,0,0,0c8.5-9.1,4.4-17.9,4.3-18.3C126.4,75.4,125.6,74.9,124.7,74.9
							L124.7,74.9z"/>
					</g>
					<g>
						<defs>
							<path id="SVGID_201_" d="M177.7,136.2c32.7-8,49.1-20,34.8-54.3c-0.7-1.6-2.7-6.1-4.6-8.4c-9.9-8.8-37.3-16-63.5-6.7
								c-10,3.5-15.9,6.7-23.3,14.2c-8.2,9.8-8.6,24-6,33.9C119.2,130.4,145.6,144.1,177.7,136.2z"/>
						</defs>
						<clipPath id="SVGID_2_">
							<use xlink:href="#SVGID_201_"  overflow="visible"/>
						</clipPath>
						<g clip-path="url(#SVGID_2_)">
							<path fill="#F2C5D8" d="M220.5,101.4c2.7,8.2-1.7,17-9.9,19.7c-8.2,2.7-17-1.8-19.7-9.9c-2.7-8.2,1.8-17,9.9-19.7
								C209,88.8,217.8,93.3,220.5,101.4z"/>
							<path fill="#F2C5D8" d="M139,126.3c2.7,8.2-1.8,17-9.9,19.7c-8.2,2.7-17-1.8-19.7-9.9c-2.7-8.2,1.8-17,9.9-19.7
								C127.5,113.7,136.3,118.1,139,126.3z"/>
						</g>
					</g>
					<g>
						
							<path fill="#FFFFFF" stroke="#315A8D" stroke-width="2.39" stroke-linecap="round" stroke-linejoin="round" stroke-miterlimit="10" d="
							M156.4,110.8c-0.2-1.4,1.2-2.6,4.6-3.2c3.4-0.6,6.4-0.8,6.8,1.2c0.1,0.8-0.1,1.5-0.7,2.2l0,0c0,0-0.6,1.6-0.5,2.7
							c0,0-0.1,1,0.4,2.2c0.5,1.2-0.1,1.9-0.9,2.1c-0.8,0.2-3,0.3-3.3-4c-0.2-0.6-1.1-0.5-1.6-0.4c0,0,0,0,0,0
							C158.2,113.8,156.7,112.6,156.4,110.8z"/>
						
							<path fill="#F2C5D8" stroke="#315A8D" stroke-width="2.39" stroke-linecap="round" stroke-linejoin="round" stroke-miterlimit="10" d="
							M155.2,102.5c0.5,2.8-0.8,4.2-3.6,4.7c-1.8,0.3-5.2-0.3-5.7-3c-0.5-2.8,1.4-5.4,4.1-5.9C152.8,97.7,154.7,99.7,155.2,102.5z"
							/>
						<path fill="#315A8D" d="M132.6,95.8c-2.1,0.9-4.8,2.3-8.4,3.8c-2.2,0.5-2.5,3.6-0.2,3.2c3.7-0.5,7.6-1.9,10.8-4.3
							C136.6,97.3,135.2,94.7,132.6,95.8z"/>
						<path fill="#315A8D" d="M173.6,87.6c2.3,0.1,5.2,0.5,9.2,0.7c2.3-0.3,3.6,2.5,1.3,3c-3.7,0.8-7.8,0.8-11.6-0.3
							C170.3,90.4,170.8,87.5,173.6,87.6z"/>
					</g>
				</g>
			</g>
			<g>
				
					<path fill="#FFFFFF" stroke="#315A8D" stroke-width="2.39" stroke-linecap="round" stroke-linejoin="round" stroke-miterlimit="10" d="
					M109.2,30.1c-4.7,3.6-13.1,10.8-11.3,17.3c0.9,2.9,4,6,12.2,1.1c8.2-4.9,24.1-12,33.5-14.1c21.5-6-3.9-11.3-14.8-12.2
					C122.4,21.7,113.8,26.6,109.2,30.1z"/>
				
					<path fill="#FFFFFF" stroke="#315A8D" stroke-width="2.39" stroke-linecap="round" stroke-linejoin="round" stroke-miterlimit="10" d="
					M241.4,49.1c0,0,11.2,11.6,6.8,19.5c-1.6,2.6-5.4,4.8-12.1-2c-6.8-6.7-20.5-17.6-29-21.9c-3.3-1.8-3.2-14.3,12.4-12.7
					C224.5,32.5,236.3,42.3,241.4,49.1z"/>
				
					<path fill="#FFFFFF" stroke="#315A8D" stroke-width="2.39" stroke-linecap="round" stroke-linejoin="round" stroke-miterlimit="10" d="
					M147,31.1c2,7.2,32.4,8.5,37.6,6.4c7.6,1.7,3.8-4.6,2.6-7.8c-1.1-3.2-4.7-9.6-14.8-12.2c-10.1-2.5-37.9-1.8-43.8,2.2
					C121.5,27.2,143.9,20,147,31.1z"/>
				
					<path fill="#FFFFFF" stroke="#315A8D" stroke-width="2.39" stroke-linecap="round" stroke-linejoin="round" stroke-miterlimit="10" d="
					M206.8,23.7c0,0-31.3-13.4-36.3-5.8c-1.3,2.7,10.3,2,11.8,12.6c1.7,12.2,25.1,18,32.1,19.3c3.2,2,13.6-4.6,4.2-17.4
					C215.7,28.1,217.6,28.1,206.8,23.7z"/>
				
					<path fill="#FFFFFF" stroke="#315A8D" stroke-width="2.39" stroke-linecap="round" stroke-linejoin="round" stroke-miterlimit="10" d="
					M215,15.3c0,0-2.4,6.7,0.6,11.1c1.8,4.3,3.8,20.6-2.4,15.8c-6.3-4.9-15.2-11.4-14.5-28.3c1.2-8.7,16.1-8.4,18-3.5
					C217.5,12,215,15.3,215,15.3z"/>
				
					<path fill="#FFFFFF" stroke="#315A8D" stroke-width="2.39" stroke-linecap="round" stroke-linejoin="round" stroke-miterlimit="10" d="
					M227.2,38.6c0,0,8.6-2.6,7.4-11.5c-0.8-5,3-4.5,5.4-2.5c2.4,2,6.8,7.9,3.2,13.1c-3.6,5.2-10.9,12.7-19.1,10.4
					C220.5,46.6,223.5,40.6,227.2,38.6z"/>
				
					<path fill="#FFFFFF" stroke="#315A8D" stroke-width="2.39" stroke-linecap="round" stroke-linejoin="round" stroke-miterlimit="10" d="
					M215.5,27.5c0,0-1,13-7.1,19c-2,2.3-1.3,6.9,5.5,9.8c4.2,1.8,8.3-2.3,10.3-6c2.6-4.8,6.2-13.6,1.4-20
					C220.4,23.2,216,23.9,215.5,27.5z"/>
			</g>
			
				<path fill="#E9C093" stroke="#315A8D" stroke-width="2.39" stroke-linecap="round" stroke-linejoin="round" stroke-miterlimit="10" d="
				M93,89.7c0,0,1.3,7.9,5.7,13.2"/>
		</g>
	</g>
</g>
<g id="圖層_6">
</g>
<g id="圖層_1" display="none">
</g>
<g id="其他">
</g>
<g id="圖層_2">
</g>
</svg>
