<?xml version="1.0" encoding="utf-8"?>
<!-- Generator: Adobe Illustrator 16.0.0, SVG Export Plug-In . SVG Version: 6.00 Build 0)  -->
<!DOCTYPE svg PUBLIC "-//W3C//DTD SVG 1.1//EN" "http://www.w3.org/Graphics/SVG/1.1/DTD/svg11.dtd">
<svg version="1.1" xmlns="http://www.w3.org/2000/svg" xmlns:xlink="http://www.w3.org/1999/xlink" x="0px" y="0px" width="553.3px"
	 height="100px" viewBox="0 0 553.3 100" enable-background="new 0 0 553.3 100" xml:space="preserve">
<g id="bg">
</g>
<g id="info">
	<g>
		<path fill="#315A8D" d="M552.9,43.5c-27-14.2,22.7-27-19.9-39.7C526,1.4,507.3,0,507.3,0H55.2c0,0-33.9-0.4-43.2,4.3
			c-15.5,8.6-13.6,13-7.4,17.5c3.9,3.5,21.5,7,17.5,9.1c-30.2,15.7,6.6,36.4,5.7,39.7C27,73.9,11.2,82.5,13.6,88.4
			C18,96.1,55.2,100,55.2,100h427.3c4.1,0,24.7-0.9,24.7-0.9c14.7-0.8,43.6-5,21.4-18.5C544.4,70.7,555.7,43.5,552.9,43.5z"/>
		<g>
			<g>
				<text transform="matrix(1 0 0 1 119.6504 70.0146)" fill="#FFFFFF" font-family="'CooperBlack'" font-size="68.2829">Graphics</text>
			</g>
		</g>
	</g>
</g>
<g id="圖層_6">
</g>
<g id="圖層_1" display="none">
</g>
<g id="其他">
</g>
<g id="圖層_2">
</g>
</svg>
