<?xml version="1.0" encoding="utf-8"?>
<!-- Generator: Adobe Illustrator 16.0.0, SVG Export Plug-In . SVG Version: 6.00 Build 0)  -->
<!DOCTYPE svg PUBLIC "-//W3C//DTD SVG 1.1//EN" "http://www.w3.org/Graphics/SVG/1.1/DTD/svg11.dtd">
<svg version="1.1" xmlns="http://www.w3.org/2000/svg" xmlns:xlink="http://www.w3.org/1999/xlink" x="0px" y="0px" width="442.3px"
	 height="160.5px" viewBox="0 0 442.3 160.5" enable-background="new 0 0 442.3 160.5" xml:space="preserve">
<g id="bg">
</g>
<g id="info">
	<g>
		<g>
			<polygon fill="#FBEBDF" points="390,92.1 45,92.1 72,45.6 45,0 390,0 367.3,45.6 			"/>
			
				<line fill="none" stroke="#FBEBDF" stroke-width="7.8647" stroke-linecap="round" stroke-linejoin="round" stroke-miterlimit="10" x1="45.3" y1="42.5" x2="3.9" y2="42.5"/>
			
				<line fill="none" stroke="#FBEBDF" stroke-width="7.8646" stroke-linecap="round" stroke-linejoin="round" stroke-miterlimit="10" x1="438.3" y1="42.5" x2="397" y2="42.5"/>
		</g>
		
			<text transform="matrix(1 0 0 1 138.7773 62.8467)" fill="#1E2F54" font-family="'jf-openhuninn-1.0'" font-size="48" letter-spacing="4">萌果君</text>
		<g>
			<g>
				<path fill="#FBEBDF" d="M154.8,136.7c0.4-3.4,0.9-7.4,1.5-10.4c0,0-0.1,0-0.1,0c-1.3,2.6-2.9,5.4-4.8,8.5
					c-2.2,3.6-4.4,7.1-6.7,10.7c-0.8-0.2-1.7-0.3-2.5-0.5c-0.6-4.1-1.2-8.1-1.7-12.2c-0.5-3.6-0.7-6.9-0.8-9.8c0,0,0,0-0.1,0
					c-0.7,2.9-1.8,6.9-2.9,10.3c-1,3.3-2,6.7-3,10c-1.1-0.2-2.1-0.5-3.2-0.7c2.5-7.7,4.9-15.5,7.3-23.2c1.3,0.3,2.6,0.6,4,0.9
					c0.5,4.1,1.1,8.2,1.7,12.4c0.4,3.1,0.7,5.9,0.9,8.5c0,0,0.1,0,0.1,0c1.1-2.3,2.6-4.7,4.3-7.5c2.2-3.5,4.4-7.1,6.6-10.7
					c1.3,0.2,2.7,0.5,4,0.7c-0.9,8.1-1.7,16.1-2.5,24.2c-1.1-0.2-2.2-0.4-3.3-0.6C154,143.7,154.4,140.2,154.8,136.7z"/>
				<path fill="#FBEBDF" d="M172.2,150.1c0-0.7,0-1.5,0-2.2c0,0-0.1,0-0.1,0c-1.2,1.2-3.4,2.2-6,1.8c-3.8-0.5-5.3-3.3-4.9-5.8
					c0.7-4.2,4.9-5.8,11.9-4.9c0-0.1,0-0.2,0-0.4c0.2-1.4,0.1-4-3.6-4.5c-1.7-0.2-3.5,0-4.9,0.6c-0.1-0.7-0.3-1.5-0.4-2.2
					c1.6-0.7,3.8-1,6.1-0.7c5.4,0.7,6.3,4.5,5.9,7.9c-0.3,2.2-0.5,4.3-0.8,6.5c-0.2,1.5-0.3,3-0.2,4.2
					C174.3,150.3,173.3,150.2,172.2,150.1z M172.9,141.2c-3.6-0.5-7.8-0.5-8.3,2.8c-0.3,2,1,3.2,2.7,3.4c2.4,0.3,4.1-0.9,4.9-2.3
					c0.2-0.3,0.3-0.7,0.3-1C172.6,143.2,172.7,142.2,172.9,141.2z"/>
				<path fill="#FBEBDF" d="M181.8,138.4c0.2-1.8,0.3-3.3,0.3-4.7c1,0.1,1.9,0.2,2.9,0.3c0,1-0.1,1.9-0.1,2.9c0,0,0,0,0.1,0
					c1.1-1.6,3.3-3,6.2-2.7c2.5,0.2,6.2,1.9,5.9,7.8c-0.2,3.5-0.4,6.9-0.6,10.4c-1.1-0.1-2.3-0.1-3.4-0.2c0.2-3.3,0.5-6.7,0.7-10
					c0.2-2.8-0.7-5.2-3.8-5.5c-2.2-0.2-4,1.1-4.7,2.8c-0.2,0.4-0.3,0.9-0.4,1.4c-0.3,3.5-0.7,7-1,10.4c-1.1-0.1-2.3-0.2-3.4-0.3
					C180.9,146.8,181.4,142.6,181.8,138.4z"/>
				<path fill="#FBEBDF" d="M218.3,135.7c-0.1,1.3-0.2,2.7-0.2,4.8c0,3.4,0,6.7-0.1,10.1c0,4-0.9,6.4-2.8,7.9c-1.9,1.6-4.6,2-7,1.9
					c-2.3-0.1-4.8-0.7-6.3-1.7c0.3-0.8,0.7-1.6,1-2.4c1.2,0.8,3.2,1.5,5.5,1.6c3.5,0.1,6.2-1.6,6.2-5.9c0-0.6,0-1.3,0-1.9
					c0,0-0.1,0-0.1,0c-1.1,1.6-3.1,2.9-6,2.8c-4.7-0.1-7.8-4-7.6-8.8c0.3-5.9,4.4-9,8.5-8.9c3.1,0.1,4.8,1.7,5.6,3.1c0,0,0,0,0.1,0
					c0.1-0.9,0.1-1.8,0.2-2.6C216.4,135.6,217.3,135.6,218.3,135.7z M214.8,142.5c0-0.5,0-1-0.2-1.4c-0.6-1.8-2.2-3.4-4.5-3.4
					c-3.1-0.1-5.5,2.4-5.6,6.4c-0.2,3.4,1.6,6.3,5.3,6.4c2.1,0.1,4-1.1,4.8-3.1c0.2-0.5,0.3-1.1,0.3-1.7
					C214.8,144.6,214.8,143.5,214.8,142.5z"/>
				<path fill="#FBEBDF" d="M240.3,143.7c0.4,6.4-4.3,9.5-8.9,9.6c-5.1,0.2-9.1-3.3-9.1-8.8c0-5.8,3.9-9.3,8.8-9.4
					C236.3,134.9,239.9,138.4,240.3,143.7z M225.7,144.4c0,3.8,2.4,6.7,5.8,6.6c3.3-0.1,5.6-3.1,5.4-7c-0.1-3-1.8-6.6-5.7-6.5
					C227.3,137.6,225.7,141,225.7,144.4z"/>
				<path fill="#FBEBDF" d="M247.7,142.6C247.7,142.6,247.8,142.6,247.7,142.6c0.5-0.6,1.1-1.5,1.5-2.1c1.6-2.1,3.2-4.3,4.8-6.4
					c1.3-0.1,2.6-0.3,3.9-0.4c-2.1,2.6-4.2,5.2-6.3,7.8c3,3.2,6,6.3,9.1,9.4c-1.4,0.1-2.8,0.3-4.1,0.4c-2.4-2.6-4.8-5.2-7.1-7.8
					c-0.5,0.6-1,1.3-1.6,1.9c0.2,2.2,0.3,4.4,0.5,6.5c-1.1,0.1-2.2,0.2-3.4,0.2c-0.6-8.5-1.1-17-1.7-25.5c1-0.1,2.1-0.1,3.1-0.2
					C246.9,131.9,247.3,137.3,247.7,142.6z"/>
				<path fill="#FBEBDF" d="M264.3,128c0.2,1.1-0.5,2-1.8,2.2c-1.1,0.1-2-0.6-2.2-1.7c-0.1-1.1,0.6-2.1,1.8-2.2
					C263.2,126.2,264.1,126.9,264.3,128z M263.2,150.6c-0.7-5.8-1.3-11.5-2-17.3c1.1-0.1,2.2-0.3,3.2-0.4c0.7,5.8,1.4,11.5,2.1,17.3
					C265.5,150.4,264.3,150.5,263.2,150.6z"/>
				<path fill="#FBEBDF" d="M270.5,136.9c-0.2-1.8-0.5-3.2-0.8-4.7c1-0.1,1.9-0.3,2.9-0.4c0.2,0.9,0.4,1.9,0.6,2.8c0,0,0,0,0.1,0
					c0.7-1.8,2.5-3.7,5.4-4.1c2.5-0.4,6.5,0.3,7.6,6.2c0.6,3.4,1.2,6.8,1.8,10.2c-1.1,0.2-2.3,0.4-3.4,0.6c-0.6-3.3-1.1-6.6-1.7-9.9
					c-0.5-2.8-1.9-4.9-5-4.4c-2.1,0.3-3.6,2-3.9,3.9c-0.1,0.4-0.1,1,0,1.5c0.5,3.5,1,6.9,1.5,10.4c-1.1,0.2-2.3,0.3-3.4,0.5
					C271.7,145.3,271.1,141.1,270.5,136.9z"/>
				<path fill="#FBEBDF" d="M305.4,125.5c0.2,1.2,0.5,2.6,1,4.7c0.8,3.3,1.6,6.6,2.4,9.8c0.9,3.9,0.7,6.5-0.8,8.4
					c-1.5,2-4,3.1-6.4,3.6c-2.3,0.5-4.9,0.5-6.6-0.1c0.1-0.8,0.3-1.7,0.4-2.5c1.4,0.5,3.4,0.7,5.8,0.2c3.5-0.7,5.7-3,4.7-7.3
					c-0.1-0.6-0.3-1.3-0.4-1.9c0,0-0.1,0-0.1,0c-0.7,1.8-2.4,3.5-5.2,4.1c-4.6,1-8.6-2-9.5-6.7c-1.1-5.8,2.2-9.8,6.2-10.7
					c3.1-0.7,5.1,0.5,6.2,1.7c0,0,0,0,0.1,0c-0.1-0.9-0.3-1.7-0.4-2.6C303.6,126,304.5,125.8,305.4,125.5z M303.7,133
					c-0.1-0.5-0.3-1-0.5-1.4c-1-1.7-2.9-2.8-5.3-2.3c-3.1,0.7-4.8,3.6-4,7.6c0.7,3.4,3.1,5.8,6.7,5c2.1-0.4,3.6-2.1,3.9-4.2
					c0.1-0.6,0-1.2-0.1-1.7C304.1,135.1,303.9,134,303.7,133z"/>
			</g>
		</g>
	</g>
</g>
<g id="圖層_8">
</g>
<g id="圖層_7" display="none">
</g>
<g id="圖層_6">
</g>
<g id="圖層_1" display="none">
</g>
<g id="其他">
</g>
<g id="圖層_2">
</g>
</svg>
