<?xml version="1.0" encoding="utf-8"?>
<!-- Generator: Adobe Illustrator 16.0.0, SVG Export Plug-In . SVG Version: 6.00 Build 0)  -->
<!DOCTYPE svg PUBLIC "-//W3C//DTD SVG 1.1//EN" "http://www.w3.org/Graphics/SVG/1.1/DTD/svg11.dtd">
<svg version="1.1" xmlns="http://www.w3.org/2000/svg" xmlns:xlink="http://www.w3.org/1999/xlink" x="0px" y="0px" width="442.3px"
	 height="147.4px" viewBox="0 0 442.3 147.4" enable-background="new 0 0 442.3 147.4" xml:space="preserve">
<g id="bg">
</g>
<g id="info">
	<g>
		<g>
			<polygon fill="#FBEBDF" points="390,92.1 45,92.1 72,45.6 45,0 390,0 367.3,45.6 			"/>
			
				<line fill="none" stroke="#FBEBDF" stroke-width="7.8647" stroke-linecap="round" stroke-linejoin="round" stroke-miterlimit="10" x1="45.3" y1="42.5" x2="3.9" y2="42.5"/>
			
				<line fill="none" stroke="#FBEBDF" stroke-width="7.8646" stroke-linecap="round" stroke-linejoin="round" stroke-miterlimit="10" x1="438.3" y1="42.5" x2="397" y2="42.5"/>
		</g>
		
			<text transform="matrix(1 0 0 1 138.7764 62.8467)" fill="#1E2F54" font-family="'jf-openhuninn-1.0'" font-size="48" letter-spacing="4">噗噗喵</text>
		<g>
			<g>
				<path fill="#FBEBDF" d="M183.9,119.2c1.6,0.1,3.6,0.4,6.1,0.8c3.1,0.6,5.2,1.7,6.5,3.2c1.2,1.3,1.7,3.2,1.4,5.3
					c-0.3,2.2-1.2,3.8-2.7,4.8c-2,1.5-5.2,1.9-8.5,1.2c-1-0.2-1.9-0.4-2.7-0.8c-0.7,3.2-1.4,6.3-2.1,9.5c-1.2-0.3-2.4-0.5-3.6-0.8
					C180.1,134.8,182,127,183.9,119.2z M184.5,131.4c0.7,0.3,1.6,0.6,2.7,0.8c4.1,0.8,6.8-0.6,7.4-3.9c0.5-3.2-1.6-5-5-5.7
					c-1.4-0.3-2.5-0.4-3-0.4C185.8,125.2,185.1,128.3,184.5,131.4z"/>
				<path fill="#FBEBDF" d="M217.2,142.7c0,1.8,0,3.4,0.1,4.8c-1.1,0-2.2,0-3.3-0.1c0-1-0.1-1.9-0.1-2.8c0,0-0.1,0-0.1,0
					c-1,1.4-3.2,3.1-6.8,2.9c-3.2-0.2-6.9-2.2-6.1-8.2c0.4-3.4,0.8-6.7,1.1-10.1c1.1,0.1,2.2,0.2,3.3,0.3c-0.3,3.2-0.6,6.4-0.9,9.6
					c-0.3,3.3,0.6,5.6,4,5.9c2.4,0.2,4.2-1.2,4.9-2.6c0.2-0.5,0.4-1,0.4-1.6c0.1-3.6,0.3-7.1,0.4-10.7c1.1,0,2.2,0.1,3.3,0.1
					C217.4,134.3,217.3,138.5,217.2,142.7z"/>
				<path fill="#FBEBDF" d="M223,123.5c1.5-0.3,3.5-0.5,6-0.7c3.1-0.2,5.4,0.3,7,1.5c1.5,1,2.5,2.7,2.7,4.8c0.2,2.2-0.2,4-1.4,5.4
					c-1.6,1.9-4.5,3.1-7.9,3.3c-1,0.1-2,0.1-2.8-0.1c0.1,3.2,0.2,6.5,0.4,9.7c-1.2,0-2.4,0.1-3.6,0.1
					C223.2,139.5,223.1,131.5,223,123.5z M226.6,135.1c0.7,0.2,1.7,0.2,2.8,0.1c4.1-0.2,6.4-2.3,6.1-5.6c-0.3-3.2-2.8-4.5-6.3-4.3
					c-1.4,0.1-2.5,0.2-3,0.4C226.3,128.8,226.5,132,226.6,135.1z"/>
				<path fill="#FBEBDF" d="M261.2,137.9c0.4,1.8,0.8,3.3,1.3,4.6c-1.1,0.3-2.1,0.5-3.2,0.7c-0.3-0.9-0.5-1.8-0.8-2.7
					c0,0-0.1,0-0.1,0c-0.6,1.6-2.4,3.8-5.9,4.5c-3.2,0.6-7.2-0.4-8-6.4c-0.5-3.4-0.9-6.7-1.4-10.1c1.1-0.2,2.2-0.3,3.3-0.5
					c0.5,3.2,1,6.3,1.5,9.5c0.5,3.3,2,5.3,5.3,4.7c2.4-0.5,3.8-2.3,4.1-3.8c0.1-0.5,0.1-1.1,0-1.7c-0.8-3.5-1.5-7-2.3-10.4
					c1.1-0.2,2.2-0.5,3.3-0.7C259.2,129.7,260.2,133.8,261.2,137.9z"/>
			</g>
		</g>
	</g>
</g>
<g id="圖層_8">
</g>
<g id="圖層_7" display="none">
</g>
<g id="圖層_6">
</g>
<g id="圖層_1" display="none">
</g>
<g id="其他">
</g>
<g id="圖層_2">
</g>
</svg>
