<?xml version="1.0" encoding="utf-8"?>
<!-- Generator: Adobe Illustrator 16.0.0, SVG Export Plug-In . SVG Version: 6.00 Build 0)  -->
<!DOCTYPE svg PUBLIC "-//W3C//DTD SVG 1.1//EN" "http://www.w3.org/Graphics/SVG/1.1/DTD/svg11.dtd">
<svg version="1.1" xmlns="http://www.w3.org/2000/svg" xmlns:xlink="http://www.w3.org/1999/xlink" x="0px" y="0px" width="162.4px"
	 height="198px" viewBox="0 0 162.4 198" enable-background="new 0 0 162.4 198" xml:space="preserve">
<g id="bg">
</g>
<g id="info">
	<g>
		<g>
			<g>
				<path fill="#E9C093" d="M102.9,170.4c-10.2,0-22.6-2.6-36.9-7.6c-2.8-0.7-5.2-3.4-7-7.8c-4.9-12.3-7-46.8,20.6-89.5l0.1-0.1
					c3.1-5.2,15.3-22.3,39.1-22.3c4.3,0,8.8,0.6,13.4,1.7c19.6,4.9,27.2,19.6,27.7,31.9c0.6,14.8-8.3,28.1-22.3,33.7
					c0,0.2,0.1,0.3,0.1,0.5c1.6,9.2,5.7,33.7-6.8,48.5C124.7,166.7,115.3,170.4,102.9,170.4z"/>
				<g>
					<path fill="#315A8D" d="M118.8,45.6c3.9,0,8.2,0.5,12.8,1.6c34.1,8.4,33.6,51.2,3.2,61.5c0.7,6.6,13.7,59.2-31.9,59.2
						c-9.4,0-21.2-2.2-36.2-7.5c-9.6-2.3-16.9-44.1,15-93.6C82.3,65.9,93.6,45.6,118.8,45.6 M118.8,40.6v5V40.6L118.8,40.6
						c-25.2,0-38,18-41.3,23.5l0,0.1C65.9,82,58.2,101,55.1,119.1c-2.5,14.6-1.9,28,1.6,36.8c2.6,6.4,6,8.6,8.6,9.3
						c14.5,5.1,27.2,7.7,37.6,7.7c13.1,0,23.2-4,29.9-12c12.6-14.9,9.3-38.6,7.6-49.1c13.9-6.4,22.6-20.1,22-35.3
						c-0.3-7.8-3.1-15-7.9-21c-5.2-6.4-12.7-11-21.7-13.2C128,41.2,123.3,40.6,118.8,40.6L118.8,40.6z"/>
				</g>
			</g>
			<path fill="#FFFFFF" d="M134.8,108.7c17-5.8,24.7-21.8,22.1-36.2c-1.8,8-8.2,16.9-24,25.5c-10.1,2.7-12.6,30-8.7,45.3
				c0,3.7,0.4,10.2-2.9,20.5C144.5,151.5,135.4,114.2,134.8,108.7z"/>
		</g>
		<g>
			<path fill="#E9C093" d="M44.5,195.5c-6.4,0-8.1-9-8.5-12.5c-0.3-0.2-0.6-0.4-1-0.6c-6.7-3.9-22.5-13.1-10.6-45.5
				c2.5-6.7,5.4-20.3,4.7-23.5c-8.2-3.6-21.8-11.2-25.5-23.9c-2.3-7.9-0.6-16.4,5.2-25.3c0-6.3,1.5-45.1,32.8-61.1
				C41.7,3.1,41.9,3,42,3c0.9-0.2,1.7-0.3,2.5-0.3c3.9,0,6.2,2.7,7.5,5.3c4.4-0.7,9.8-1.1,15-1.1c5.4,0,10.6,0.4,15.1,1.2
				c2.2-2.9,6.3-5.6,11.4-5.6c1.3,0,2.6,0.2,3.8,0.5c9.2,2.5,24.6,20.7,32,42.9c5.4,16.3,8.4,40.1-7.8,61.5c0.2,1,0.5,2.9,0.9,4.7
				c3.3,16.2,12,59.3-10.6,70.2c0,0-0.1,0-0.1,0c-0.3,0.1-0.8,0.5-1.2,0.8c-0.6,0.4-1.2,0.9-1.9,1.3c-3.1,4.5-9.4,11-15.1,11.1
				c0,0-0.1,0-0.1,0c-4.3,0-5.7-4.7-6.7-7.7c-0.2-0.7-0.5-1.6-0.7-2.1c-0.4-0.1-0.8-0.3-1.3-0.5c-4.2-1.7-12.1-4.9-17.8-4.9
				c-2.8,0-5.7,1.7-8,3.1c-1.2,0.7-2.2,1.3-3.1,1.6c-0.4,0.4-1,1.5-1.5,2.4c-1.8,3.1-4.5,7.9-9.3,8.2
				C44.7,195.5,44.6,195.5,44.5,195.5z"/>
			<g>
				<path fill="#315A8D" d="M93.5,5c1,0,2.1,0.1,3.2,0.4c14.6,3.9,54.3,60.2,22.2,101.3c0,4.9,16.6,61.3-8.2,73.4
					c-1.3,0.6-2.5,2-3.8,2.4c-3.1,4.8-9.1,10.5-13.5,10.6c0,0,0,0-0.1,0c-3.8,0-4.1-7.9-5.8-9.4c-3.1-1.2-13.4-5.8-20.7-5.8
					c-5,0-9.8,4.2-12.1,4.9c-2.3,0.7-4.4,10-10,10.3c-0.1,0-0.2,0-0.3,0c-5.4,0-6.1-11.4-6.1-11.4c-3.8-3.1-24.4-9-11.6-43.8
					c2.3-6.1,7-25.1,3.9-26.4C19,106.5-6.8,91.9,11.2,65c0,0-0.9-43.1,31.5-59.6c0.7-0.2,1.3-0.3,1.9-0.3c2.8,0,4.6,2,6.1,5.6
					c4.3-0.8,10.2-1.4,16.5-1.4c5.4,0,11.1,0.4,16.3,1.5C84.8,7.9,88.7,5,93.5,5 M93.5,0c-5.3,0-9.6,2.4-12.4,5.4
					c-4.3-0.7-9.1-1-14.1-1c-4.7,0-9.5,0.3-13.7,0.9c-2.3-3.4-5.2-5.1-8.8-5.1c-1,0-2,0.1-3.1,0.4c-0.4,0.1-0.7,0.2-1,0.4
					C25.9,8.3,15.4,21.8,10,40C6.8,50.6,6.3,59.9,6.2,63.5c-5.9,9.3-7.6,18.3-5.1,26.7c3.9,13,16.9,20.9,25.5,24.9
					c-0.1,4.4-2.6,15.5-4.6,20.9c-12.6,34.3,4.8,44.6,11.6,48.5c1,6.9,4.3,13.5,10.9,13.5c0.2,0,0.4,0,0.6,0c6.2-0.4,9.4-6,11.4-9.4
					c0.3-0.5,0.7-1.2,0.9-1.6c0.9-0.4,1.8-0.9,2.8-1.5c2-1.2,4.7-2.8,6.8-2.8c5.2,0,13.1,3.2,16.9,4.7c0.1,0,0.2,0.1,0.3,0.1
					c0.1,0.3,0.2,0.7,0.3,1c1,3.3,3,9.5,9.1,9.5l0.2,0c6.8-0.1,13.5-7.1,16.7-11.7c0.7-0.4,1.3-0.8,1.7-1.2c0.2-0.2,0.6-0.4,0.7-0.5
					c0.1,0,0.1,0,0.2-0.1c10.8-5.2,16.3-17.4,16.4-36c0.1-14.1-2.9-29-4.5-36.9c-0.2-1.2-0.5-2.5-0.7-3.5c6.7-9.2,10.6-19.6,11.7-31
					c0.9-10.2-0.5-21-4.1-32C123.9,21.8,108,3.3,98,0.6C96.5,0.2,95,0,93.5,0L93.5,0z"/>
			</g>
		</g>
		<path fill="#FFFFFF" d="M87.1,135.1c-3.9-7.9-3.3-17.9-1.5-22.2c18.4-0.5,28.1-12.3,31.5-21.6c3.3-9.3-1.5-25.7-16.1-26.9
			c-15.1-1.2-23,15.5-48.9,15.5c-25.8,0-25.3-14.1-34.5-15.3c-2.6-0.4-4.7-0.1-6.4,0.5c0,0,0,0,0,0c-22.8,34,24.6,48.3,24.6,48.3
			s-2.1,18.7-4.6,24.8c-13.8,33.7,26.9,34.1,32,34.1c7.3,0,27.4-2.1,31.5-10.4C101.6,148,91,143,87.1,135.1z"/>
		<g>
			<path fill="#FFFFFF" d="M29.4,154.9c-1.3,0-2.6-0.5-3.5-1.5c-2-2-2-5.2,0-7.1l17.7-17.7c0.9-0.9,2.2-1.5,3.5-1.5
				c1.3,0,2.6,0.5,3.6,1.5c1.9,1.9,1.9,5.1,0,7.1l-17.7,17.7C32,154.4,30.7,154.9,29.4,154.9z"/>
			<path fill="#315A8D" d="M47.1,129.7c0.6,0,1.3,0.2,1.8,0.7c1,1,1,2.6,0,3.6l-17.7,17.7c-0.5,0.5-1.1,0.7-1.8,0.7
				s-1.3-0.2-1.8-0.7c-1-1-1-2.6,0-3.6l17.7-17.7C45.8,129.9,46.4,129.7,47.1,129.7 M47.1,124.7C47.1,124.7,47.1,124.7,47.1,124.7
				c-2,0-3.9,0.8-5.3,2.2L24,144.5c-2.9,2.9-2.9,7.7,0,10.6c1.4,1.4,3.3,2.2,5.3,2.2c2,0,3.9-0.8,5.3-2.2l17.7-17.7
				c2.9-2.9,2.9-7.7,0-10.6C51,125.4,49.1,124.7,47.1,124.7L47.1,124.7z"/>
		</g>
		<g>
			<path fill="#FFFFFF" d="M58.8,141c-13.2,0-23.9-10.7-23.9-23.9c0-13.2,10.7-23.9,23.9-23.9c13.2,0,23.9,10.7,23.9,23.9
				C82.6,130.3,71.9,141,58.8,141z"/>
			<path fill="#315A8D" d="M58.8,95.8c11.8,0,21.4,9.6,21.4,21.4c0,11.8-9.6,21.4-21.4,21.4c-11.8,0-21.4-9.6-21.4-21.4
				C37.4,105.4,47,95.8,58.8,95.8 M58.8,90.8c-14.5,0-26.4,11.8-26.4,26.4c0,14.5,11.8,26.4,26.4,26.4c14.5,0,26.4-11.8,26.4-26.4
				C85.1,102.6,73.3,90.8,58.8,90.8L58.8,90.8z"/>
		</g>
		<path fill="#F2C5D8" d="M67.1,114.5c-0.7,0-1.4,0-2,0.1l-3.9,0.3l2.2-3.3c3.3-4.8,7.4-7.7,10.6-9.4c-3.7-3.7-8.7-6-14.3-6.3
			c-2.7,4.4-3.9,9.4-3.5,15l0.3,3.9l-3.3-2.2c-4.8-3.3-7.7-7.4-9.4-10.6c-3.7,3.7-6,8.7-6.3,14.3c3.8,2.3,8.2,3.5,13,3.5
			c0.7,0,1.4,0,2-0.1l3.9-0.3l-2.2,3.3c-3.3,4.8-7.4,7.7-10.6,9.4c3.7,3.7,8.7,6,14.3,6.3c2.7-4.4,3.9-9.4,3.5-15l-0.3-3.9l3.3,2.2
			c4.8,3.3,7.7,7.4,9.4,10.6c3.7-3.7,6-8.7,6.3-14.3C76.2,115.7,71.9,114.5,67.1,114.5z"/>
		<g>
			<path fill="none" stroke="#315A8D" stroke-width="5" stroke-linecap="round" stroke-linejoin="round" stroke-miterlimit="10" d="
				M47.6,89.4c0,0,1.8,4.8-2.7,7.9"/>
			<path fill="none" stroke="#315A8D" stroke-width="5" stroke-linecap="round" stroke-linejoin="round" stroke-miterlimit="10" d="
				M63.9,88.5c0,0-1.2,4.4,6.9,8"/>
			
				<path fill="#FFFFFF" stroke="#315A8D" stroke-width="5" stroke-linecap="round" stroke-linejoin="round" stroke-miterlimit="10" d="
				M47.8,91.1c1.5,7.6,15.3,9.3,16.1-3.1"/>
		</g>
		
			<path fill="#E9C093" stroke="#315A8D" stroke-width="5" stroke-linecap="round" stroke-linejoin="round" stroke-miterlimit="10" d="
			M93.3,115.9c-1.2,0.8-11.9,11.1-11.9,11.1s-4.9,0.2-6.7,4.3c-0.8,1.9-2.8,9.2,6.7,9.2c10.7,0,22.6-10,22.6-10"/>
		<path fill="#FFFFFF" d="M66.1,55.2c0,4,4.4,4.7,9.8,4.7s9.8-0.7,9.8-4.7c0-4-4.4-7.2-9.8-7.2S66.1,51.3,66.1,55.2z"/>
		<path fill="#FFFFFF" d="M24.9,55.2c0,4,4.4,4.7,9.8,4.7c5.4,0,9.8-0.7,9.8-4.7c0-4-4.4-7.2-9.8-7.2C29.3,48.1,24.9,51.3,24.9,55.2
			z"/>
		<path fill="#315A8D" d="M58.5,79.5c0,2.7-3.5,4.6-7.9,4.6c-4.4,0-7.9-2-7.9-4.6c0-3.2,3.6-5.8,7.9-5.8
			C55,73.7,58.5,76.3,58.5,79.5z"/>
		
			<path fill="#E9C093" stroke="#315A8D" stroke-width="5" stroke-linecap="round" stroke-linejoin="round" stroke-miterlimit="10" d="
			M34.5,115.3c-2.3,8.3,1,11.4,2.4,13.4c3.5-0.4,6.8,0.8,7,5.5c0.2,4.6-3,7-7.6,6.1c-21.8-7-8.5-27.4-8.5-27.4L34.5,115.3z"/>
		<path fill="#315A8D" d="M73.2,68.4c0,0-0.6-4.4,4.3-5.5c4.9-1,7.4,5.5,1.3,8.3C76.3,72.4,73.6,70.5,73.2,68.4z"/>
		<path fill="#315A8D" d="M38.2,68.4c0,0,0.6-4.4-4.2-5.5c-4.9-1-7.4,5.5-1.3,8.3C35.1,72.4,37.8,70.5,38.2,68.4z"/>
	</g>
</g>
<g id="圖層_6">
</g>
<g id="圖層_1" display="none">
</g>
<g id="其他">
</g>
<g id="圖層_2">
</g>
</svg>
