<?xml version="1.0" encoding="utf-8"?>
<!-- Generator: Adobe Illustrator 16.0.0, SVG Export Plug-In . SVG Version: 6.00 Build 0)  -->
<!DOCTYPE svg PUBLIC "-//W3C//DTD SVG 1.1//EN" "http://www.w3.org/Graphics/SVG/1.1/DTD/svg11.dtd">
<svg version="1.1" xmlns="http://www.w3.org/2000/svg" xmlns:xlink="http://www.w3.org/1999/xlink" x="0px" y="0px" width="442.3px"
	 height="149.7px" viewBox="0 0 442.3 149.7" enable-background="new 0 0 442.3 149.7" xml:space="preserve">
<g id="bg">
</g>
<g id="info">
	<g>
		<g>
			<polygon fill="#FBEBDF" points="390,92.1 45,92.1 72,45.6 45,0 390,0 367.3,45.6 			"/>
			
				<line fill="none" stroke="#FBEBDF" stroke-width="7.8647" stroke-linecap="round" stroke-linejoin="round" stroke-miterlimit="10" x1="45.3" y1="42.5" x2="3.9" y2="42.5"/>
			
				<line fill="none" stroke="#FBEBDF" stroke-width="7.8646" stroke-linecap="round" stroke-linejoin="round" stroke-miterlimit="10" x1="438.3" y1="42.5" x2="397" y2="42.5"/>
		</g>
		
			<text transform="matrix(1 0 0 1 165.1768 62.8467)" fill="#1E2F54" font-family="'jf-openhuninn-1.0'" font-size="48" letter-spacing="4">柴寶</text>
		<g>
			<g>
				<path fill="#FBEBDF" d="M171.9,123.1c-2.5-0.5-5-1.1-7.4-1.7c0.2-0.9,0.4-1.7,0.6-2.6c5.9,1.4,11.9,2.6,17.9,3.6
					c-0.1,0.9-0.3,1.8-0.4,2.6c-2.5-0.4-5-0.8-7.5-1.3c-1.4,7.1-2.7,14.1-4.1,21.2c-1.2-0.2-2.3-0.5-3.5-0.7
					C169,137.2,170.5,130.2,171.9,123.1z"/>
				<path fill="#FBEBDF" d="M183.9,135c0.3-2,0.5-3.8,0.6-5.4c1,0.1,1.9,0.3,2.9,0.4c-0.1,1.1-0.2,2.3-0.3,3.4c0,0,0.1,0,0.2,0
					c1.1-2.2,3.3-3.4,5.5-3.2c0.4,0,0.6,0.1,0.9,0.2c-0.1,1-0.2,2-0.3,3c-0.3-0.1-0.7-0.2-1.1-0.2c-2.3-0.3-4.2,1.2-5,3.5
					c-0.1,0.4-0.3,0.9-0.3,1.4c-0.4,3.1-0.8,6.1-1.2,9.2c-1.2-0.2-2.3-0.3-3.5-0.5C182.7,142.9,183.3,139,183.9,135z"/>
				<path fill="#FBEBDF" d="M213.1,140.6c-0.1,6.4-5.2,9.1-9.9,8.8c-5.3-0.3-9-4.2-8.5-9.7c0.6-5.8,4.9-8.8,9.9-8.5
					C209.7,131.6,213.2,135.3,213.1,140.6z M198.2,140c-0.3,3.8,1.8,6.9,5.3,7.1c3.4,0.2,6-2.6,6.1-6.5c0.1-3-1.3-6.7-5.2-7
					C200.4,133.4,198.4,136.7,198.2,140z"/>
				<path fill="#FBEBDF" d="M217.2,149.5c0.1-1.2,0.2-2.9,0.2-4.5c0-7,0.1-14,0.1-21.1c1.1,0,2.1,0,3.2,0c0,3.6,0.1,7.3,0.1,10.9
					c0,0,0,0,0.1,0c1.2-2,3.2-3.2,6.2-3.3c4.5-0.2,7.9,3.2,8.2,8.5c0.4,6.2-3.8,9.6-8.1,9.7c-2.8,0.1-5.1-0.9-6.6-3.2
					c0,0-0.1,0-0.1,0c0,1-0.1,1.9-0.1,2.9C219.2,149.5,218.2,149.5,217.2,149.5z M220.8,142.5c0,0.4,0.1,0.8,0.2,1.2
					c0.7,2.2,2.7,3.7,5.3,3.6c3.7-0.1,5.7-2.9,5.5-6.9c-0.2-3.5-2.2-6.4-5.8-6.2c-2.3,0.1-4.4,1.6-5,4c-0.1,0.4-0.2,0.8-0.2,1.3
					C220.8,140.5,220.8,141.5,220.8,142.5z"/>
				<path fill="#FBEBDF" d="M256.5,137.8c1,6.4-3.5,9.9-8.2,10.4c-5.3,0.6-9.6-2.5-10-8c-0.4-5.8,3.3-9.5,8.2-10.1
					C251.6,129.5,255.6,132.5,256.5,137.8z M241.6,139.8c0.3,3.8,3,6.5,6.5,6.1c3.4-0.4,5.5-3.6,4.9-7.4c-0.4-2.9-2.5-6.4-6.4-5.9
					C242.7,132.9,241.3,136.5,241.6,139.8z"/>
				<path fill="#FBEBDF" d="M277.2,137.9c0.4,1.8,0.8,3.3,1.3,4.6c-1,0.2-2.1,0.5-3.1,0.7c-0.3-0.9-0.6-1.8-0.8-2.7c0,0-0.1,0-0.1,0
					c-0.6,1.6-2.2,3.8-5.6,4.5c-3,0.6-6.9-0.3-7.9-6.3c-0.6-3.3-1.2-6.7-1.7-10c1.1-0.2,2.2-0.4,3.3-0.6c0.6,3.2,1.2,6.3,1.8,9.5
					c0.6,3.3,2.1,5.3,5.3,4.6c2.3-0.5,3.6-2.3,3.9-3.8c0.1-0.5,0.1-1.1,0-1.7c-0.8-3.5-1.6-7-2.3-10.4c1.1-0.2,2.2-0.5,3.2-0.8
					C275.2,129.7,276.2,133.8,277.2,137.9z"/>
			</g>
		</g>
	</g>
</g>
<g id="圖層_8">
</g>
<g id="圖層_7" display="none">
</g>
<g id="圖層_6">
</g>
<g id="圖層_1" display="none">
</g>
<g id="其他">
</g>
<g id="圖層_2">
</g>
</svg>
