<?xml version="1.0" encoding="utf-8"?>
<!-- Generator: Adobe Illustrator 16.0.0, SVG Export Plug-In . SVG Version: 6.00 Build 0)  -->
<!DOCTYPE svg PUBLIC "-//W3C//DTD SVG 1.1//EN" "http://www.w3.org/Graphics/SVG/1.1/DTD/svg11.dtd">
<svg version="1.1" xmlns="http://www.w3.org/2000/svg" xmlns:xlink="http://www.w3.org/1999/xlink" x="0px" y="0px" width="189.3px"
	 height="223px" viewBox="0 0 189.3 223" enable-background="new 0 0 189.3 223" xml:space="preserve">
<g id="bg">
</g>
<g id="info">
	<g>
		<g>
			<path fill="#FBEBDF" d="M106.8,215.4c-8.9,0-12.2-7.9-13.5-12c-3.7-1.4-9.5-3.4-13-3.4c-0.9,0.1-3.2,1.5-4.2,2.1
				c-0.6,0.3-1.1,0.7-1.7,1c0,0-0.1,0.3-0.1,0.3c-2.1,3.7-6.4,11.4-15.4,11.9c-0.3,0-0.6,0-0.9,0c-7.7,0-13.3-5.7-15.4-15.3
				c-8.2-5-24.7-18.2-11.7-53.4c0.1-0.3,0.2-0.6,0.3-1c0-0.1-0.1-0.2-0.1-0.2c-2.2-6.1-1.1-12.3,0.5-16.8c-8.7-5-18.3-13-21.7-24.6
				c-2.8-9.5-1.2-19.5,4.9-29.7c0.2-4.4,0.9-13.4,3.9-23.5c5.8-19.5,17.2-34,32.9-42.1c0.7-0.3,1.3-0.6,2-0.8c1.5-0.4,3-0.6,4.4-0.6
				c4.3,0,8,1.6,11,4.8c3.7-0.4,7.6-0.6,11.6-0.6c4.3,0,8.5,0.2,12.4,0.7c3.9-3.3,8.9-5.1,14.1-5.1c1.9,0,3.9,0.3,5.8,0.8
				c11.6,3.1,26.6,21.2,34.9,41.8c9.9,2.5,18.3,7.6,24.1,14.9c5.5,6.8,8.6,15.1,9,23.9c0.7,15.8-7.6,30.5-21.4,38.3
				c1.7,11.2,3.7,34.2-9.2,49.5c-1.5,1.7-3.3,3.5-5.3,5.1c-3.6,9.7-8.7,16-16,19.7c-0.1,0.1-0.3,0.2-0.4,0.3
				c-0.1,0.1-0.2,0.2-0.3,0.2c-0.3,0.2-0.6,0.3-0.9,0.5c-3.3,4.5-11,13.1-20.3,13.1H106.8z"/>
			<path fill="#FBEBDF" d="M106.9,12.3c1.5,0,3,0.2,4.5,0.6c9.5,2.6,24.4,19.5,32.5,41.3c0.8,0.2,1.5,0.3,2.3,0.5
				c9,2.2,16.5,6.8,21.7,13.2c4.8,6,7.6,13.2,7.9,21c0.6,15.2-8,28.9-21.9,35.3c1.7,10.4,5.2,34.2-7.3,49.1c-1.7,2-3.5,3.8-5.5,5.3
				v0c-3,8.8-7.5,15-14.4,18.3c-0.1,0-0.3,0.1-0.3,0.1c-0.2,0.1-0.6,0.4-0.8,0.6c-0.5,0.4-1.1,0.7-1.8,1.1
				c-3.2,4.6-9.9,11.7-16.8,11.7h-0.2c-6.1,0-8-6.2-9.1-9.5c-0.1-0.3-0.2-0.8-0.3-1.1c-0.1,0-0.2,0-0.3-0.1
				c-3.8-1.5-11.7-4.7-16.9-4.7c-2.1,0-4.8,1.6-6.8,2.8c-1,0.6-1.9,1.1-2.8,1.5c-0.3,0.4-0.6,1.1-0.9,1.6c-1.9,3.4-5.1,9-11.3,9.4
				c-0.2,0-0.4,0-0.6,0c-6.6,0-9.9-6.6-10.9-13.5c-6.7-3.9-24.2-14.2-11.6-48.5c0.3-0.9,0.7-1.9,1-2.9c0,0,0,0,0,0
				c-0.3-0.5-0.5-1.1-0.7-1.7c-2.4-6.7,0.3-13.8,2.1-17.4c-8.5-4.3-19.7-11.9-23.3-23.8c-2.5-8.4-0.8-17.4,5.1-26.7
				c0.1-3.6,0.6-12.9,3.8-23.5c5.4-18.1,15.9-31.6,30.4-39c0.3-0.2,0.7-0.3,1-0.4c1.1-0.3,2.1-0.4,3.1-0.4c3.6,0,6.6,1.7,8.8,5.1
				c4.2-0.6,9-0.9,13.7-0.9c5,0,9.8,0.3,14.1,1C97.3,14.7,101.6,12.3,106.9,12.3 M106.9,2.3c-5.6,0-11,1.7-15.5,4.9
				C88,6.8,84.3,6.6,80.5,6.6c-3.3,0-6.6,0.1-9.8,0.4c-3.6-3-8-4.6-12.8-4.6c-1.8,0-3.7,0.2-5.6,0.7c-1.1,0.3-2.1,0.7-3.1,1.2
				C32.3,13,20,28.6,13.8,49.4C11,59.1,10,67.8,9.8,72.8C2,86.6,2.8,98,5,105.4c3.5,11.6,12.1,19.9,20.7,25.5
				c-1,4.4-1.3,9.5,0.2,14.7c-6.1,17-6.4,31.4-0.8,42.8c3.6,7.4,9,11.9,13.1,14.7c3,10.7,10.3,17.2,19.8,17.2c0.4,0,0.8,0,1.2,0
				c10.8-0.7,16.3-9,18.9-13.5c0.2-0.1,0.4-0.2,0.6-0.4c0.6-0.4,1.7-1,2.4-1.3c1.8,0.2,4.6,1,8.4,2.4c0.7,1.7,1.6,3.4,2.8,5.3
				c3.5,5.1,8.7,7.7,14.6,7.7h0.2c11.1,0,19.8-9.2,23.9-14.5c0.2-0.2,0.4-0.2,0.5-0.3l0.2-0.1c0,0,0.1,0,0.1,0
				c7.8-4.1,13.6-10.9,17.5-20.9c1.9-1.6,3.5-3.2,4.9-4.9c13.1-15.5,12.4-37.5,10.8-50.2c13.7-9.1,21.7-24.5,21-41.1
				c-0.4-9.9-3.9-19.2-10.1-26.9c-6.1-7.5-14.4-12.9-24.3-15.9c-4-9.4-9.4-18.3-15.3-25.7c-5.2-6.4-13.2-14.4-22-16.8
				C111.7,2.6,109.3,2.3,106.9,2.3L106.9,2.3z"/>
		</g>
		<g>
			<g>
				<g>
					<path fill="#FFD19D" d="M116.3,182.7c-10.2,0-22.6-2.6-36.9-7.6c-2.8-0.7-5.2-3.4-7-7.8c-4.9-12.3-7-46.8,20.6-89.5l0.1-0.1
						c3.1-5.2,15.3-22.3,39.1-22.3c4.3,0,8.8,0.6,13.4,1.7c19.6,4.9,27.2,19.6,27.7,31.9c0.6,14.8-8.3,28.1-22.3,33.7
						c0,0.2,0.1,0.3,0.1,0.5c1.6,9.2,5.7,33.7-6.8,48.5C138.1,179,128.7,182.7,116.3,182.7z"/>
					<g>
						<path fill="#315A8D" d="M132.2,57.9c3.9,0,8.2,0.5,12.8,1.6c34.1,8.4,33.6,51.2,3.2,61.5c0.7,6.6,13.7,59.2-31.9,59.2
							c-9.4,0-21.2-2.2-36.2-7.5c-9.6-2.3-16.9-44.1,15-93.6C95.7,78.2,107.1,57.9,132.2,57.9 M132.2,52.9L132.2,52.9
							c-25.2,0-38,18-41.3,23.5l0,0.1c-11.5,17.9-19.3,36.9-22.4,54.9c-2.5,14.6-1.9,28,1.6,36.8c2.6,6.4,6,8.6,8.6,9.3
							c14.5,5.1,27.2,7.7,37.6,7.7c13.1,0,23.2-4,29.9-12c12.6-14.9,9.3-38.6,7.6-49.1c13.9-6.4,22.6-20.1,22-35.3
							c-0.3-7.8-3.1-15-7.9-21c-5.2-6.4-12.7-11-21.7-13.2C141.4,53.5,136.7,52.9,132.2,52.9L132.2,52.9z"/>
					</g>
				</g>
				<path fill="#FFFFFF" d="M148.3,121c17-5.8,24.7-21.8,22.1-36.2c-1.8,8-8.2,16.9-24,25.6c-10.1,2.7-12.6,30-8.7,45.3
					c0,3.7,0.4,10.2-2.9,20.5C158,163.8,148.9,126.5,148.3,121z"/>
			</g>
			<g>
				<path fill="#FFD19D" d="M57.9,207.8c-6.4,0-8.1-9-8.5-12.5c-0.3-0.2-0.6-0.4-1-0.6c-6.7-3.9-22.5-13.1-10.6-45.5
					c2.5-6.7,5.4-20.3,4.7-23.5c-8.2-3.6-21.8-11.2-25.5-23.9c-2.3-7.9-0.6-16.4,5.2-25.3c0-6.3,1.5-45.1,32.8-61.1
					c0.2-0.1,0.3-0.1,0.5-0.2c0.9-0.2,1.7-0.3,2.5-0.3c3.9,0,6.2,2.7,7.5,5.3c4.4-0.7,9.8-1.1,15-1.1c5.4,0,10.6,0.4,15.1,1.2
					c2.2-2.9,6.3-5.6,11.4-5.6c1.3,0,2.6,0.2,3.8,0.5c9.2,2.5,24.6,20.7,32,42.9c5.4,16.3,8.4,40.1-7.8,61.5c0.2,1,0.5,2.9,0.9,4.7
					c3.3,16.2,12,59.3-10.6,70.2c0,0-0.1,0-0.1,0c-0.3,0.1-0.8,0.5-1.2,0.8c-0.6,0.4-1.2,0.9-1.9,1.3c-3.1,4.5-9.4,11-15.1,11.1
					c0,0-0.1,0-0.1,0c-4.3,0-5.7-4.7-6.7-7.7c-0.2-0.7-0.5-1.6-0.7-2.1c-0.4-0.2-0.8-0.3-1.3-0.5c-4.2-1.7-12.1-4.9-17.8-4.9
					c-2.8,0-5.7,1.7-8,3.1c-1.2,0.7-2.2,1.3-3.1,1.6c-0.4,0.4-1,1.5-1.5,2.4c-1.8,3.1-4.5,7.9-9.3,8.2
					C58.2,207.8,58,207.8,57.9,207.8z"/>
				<g>
					<path fill="#315A8D" d="M106.9,17.3c1,0,2.1,0.1,3.2,0.4c14.6,3.9,54.3,60.2,22.2,101.3c0,4.9,16.6,61.3-8.2,73.4
						c-1.3,0.6-2.5,2-3.8,2.4c-3.1,4.8-9.1,10.5-13.5,10.6c0,0,0,0-0.1,0c-3.8,0-4.1-7.9-5.8-9.4c-3.1-1.2-13.4-5.8-20.7-5.8
						c-5,0-9.8,4.2-12.1,4.9c-2.3,0.7-4.4,10-10,10.3c-0.1,0-0.2,0-0.3,0c-5.4,0-6.1-11.4-6.1-11.4c-3.8-3.1-24.4-9-11.6-43.8
						c2.3-6.1,7-25.1,3.9-26.4c-11.6-4.9-37.4-19.5-19.4-46.4c0,0-0.9-43.1,31.5-59.6c0.7-0.2,1.3-0.3,1.9-0.3c2.8,0,4.6,2,6.1,5.6
						c4.3-0.8,10.2-1.4,16.5-1.4c5.4,0,11.2,0.4,16.3,1.5C98.2,20.2,102.2,17.3,106.9,17.3 M106.9,12.3c-5.3,0-9.6,2.4-12.4,5.4
						c-4.3-0.7-9.1-1-14.1-1c-4.7,0-9.5,0.3-13.7,0.9c-2.3-3.4-5.2-5.1-8.8-5.1c-1,0-2,0.1-3.1,0.4c-0.4,0.1-0.7,0.2-1,0.4
						c-14.5,7.4-25,20.9-30.4,39c-3.2,10.6-3.7,19.9-3.8,23.5c-5.9,9.3-7.6,18.3-5.1,26.7c3.9,13,16.9,20.9,25.5,24.9
						c-0.1,4.4-2.6,15.6-4.6,20.9c-12.6,34.3,4.8,44.6,11.6,48.5c1,6.9,4.3,13.5,10.9,13.5c0.2,0,0.4,0,0.6,0
						c6.2-0.4,9.4-6,11.3-9.4c0.3-0.5,0.7-1.2,0.9-1.6c0.9-0.4,1.8-0.9,2.8-1.5c2-1.2,4.7-2.8,6.8-2.8c5.2,0,13.1,3.2,16.9,4.7
						c0.1,0,0.2,0.1,0.3,0.1c0.1,0.3,0.2,0.7,0.3,1c1,3.3,3,9.5,9.1,9.5l0.2,0c6.8-0.1,13.5-7.1,16.7-11.7c0.7-0.4,1.3-0.8,1.7-1.2
						c0.2-0.2,0.6-0.5,0.8-0.5c0.1,0,0.1,0,0.2-0.1c10.8-5.2,16.3-17.4,16.4-36c0.1-14.1-2.9-29-4.5-36.9c-0.2-1.2-0.5-2.5-0.7-3.5
						c6.7-9.2,10.6-19.6,11.7-31c0.9-10.2-0.5-21-4.1-32c-7.8-23.3-23.7-41.8-33.7-44.5C109.9,12.5,108.4,12.3,106.9,12.3
						L106.9,12.3z"/>
				</g>
			</g>
			<path fill="#FFFFFF" d="M100.6,147.4c-3.9-7.9-3.3-17.9-1.5-22.2c18.4-0.5,28.1-12.3,31.5-21.6c3.3-9.3-1.5-25.7-16.1-26.9
				c-15.1-1.2-23,15.5-48.9,15.5C39.7,92.1,40.2,78,31,76.8c-2.6-0.4-4.7-0.1-6.4,0.5c0,0,0,0,0,0c-22.8,34,24.6,48.3,24.6,48.3
				s-2.1,18.7-4.6,24.8c-13.8,33.7,26.9,34.1,32,34.1c7.3,0,27.4-2.1,31.5-10.4C115,160.3,104.4,155.3,100.6,147.4z"/>
			<g>
				<path fill="#FFFFFF" d="M42.8,167.2c-1.3,0-2.6-0.5-3.5-1.5c-2-2-2-5.1,0-7.1l17.7-17.7c0.9-0.9,2.2-1.5,3.5-1.5
					c1.3,0,2.6,0.5,3.6,1.5c1.9,1.9,1.9,5.1,0,7.1l-17.7,17.7C45.4,166.6,44.1,167.2,42.8,167.2z"/>
				<path fill="#315A8D" d="M60.5,141.9c0.6,0,1.3,0.2,1.8,0.7c1,1,1,2.6,0,3.6l-17.7,17.7c-0.5,0.5-1.1,0.7-1.8,0.7
					s-1.3-0.2-1.8-0.7c-1-1-1-2.6,0-3.6l17.7-17.7C59.2,142.2,59.8,141.9,60.5,141.9 M60.5,136.9L60.5,136.9c-2,0-3.9,0.8-5.3,2.2
					l-17.7,17.7c-2.9,2.9-2.9,7.7,0,10.6c1.4,1.4,3.3,2.2,5.3,2.2c2,0,3.9-0.8,5.3-2.2l17.7-17.7c2.9-2.9,2.9-7.7,0-10.6
					C64.4,137.7,62.5,136.9,60.5,136.9L60.5,136.9z"/>
			</g>
			<g>
				<path fill="#FFFFFF" d="M72.2,153.3c-13.2,0-23.9-10.7-23.9-23.9c0-13.2,10.7-23.9,23.9-23.9s23.9,10.7,23.9,23.9
					C96.1,142.6,85.4,153.3,72.2,153.3z"/>
				<path fill="#315A8D" d="M72.2,108.1c11.8,0,21.4,9.6,21.4,21.4c0,11.8-9.6,21.4-21.4,21.4c-11.8,0-21.4-9.6-21.4-21.4
					C50.9,117.6,60.4,108.1,72.2,108.1 M72.2,103.1c-14.5,0-26.4,11.8-26.4,26.4c0,14.5,11.8,26.4,26.4,26.4s26.4-11.8,26.4-26.4
					C98.6,114.9,86.8,103.1,72.2,103.1L72.2,103.1z"/>
			</g>
			<path fill="#F6C8D6" d="M80.5,126.8c-0.7,0-1.4,0-2,0.1l-3.9,0.3l2.2-3.3c3.3-4.8,7.4-7.7,10.6-9.4c-3.7-3.7-8.7-6-14.3-6.3
				c-2.7,4.4-3.9,9.4-3.5,15l0.3,3.9l-3.3-2.2c-4.8-3.3-7.7-7.4-9.4-10.6c-3.7,3.7-6,8.7-6.3,14.3c3.8,2.3,8.2,3.5,13,3.5
				c0.7,0,1.4,0,2-0.1l3.9-0.3l-2.2,3.3c-3.3,4.8-7.4,7.7-10.6,9.4c3.7,3.7,8.7,6,14.3,6.3c2.7-4.4,3.9-9.4,3.5-15l-0.3-3.9l3.3,2.2
				c4.8,3.3,7.7,7.4,9.4,10.6c3.7-3.7,6-8.7,6.3-14.3C89.6,128,85.3,126.8,80.5,126.8z"/>
			<g>
				
					<path fill="none" stroke="#315A8D" stroke-width="5" stroke-linecap="round" stroke-linejoin="round" stroke-miterlimit="10" d="
					M61,101.7c0,0,1.8,4.8-2.7,7.9"/>
				
					<path fill="none" stroke="#315A8D" stroke-width="5" stroke-linecap="round" stroke-linejoin="round" stroke-miterlimit="10" d="
					M77.3,100.7c0,0-1.2,4.4,6.9,8"/>
				
					<path fill="#FFFFFF" stroke="#315A8D" stroke-width="5" stroke-linecap="round" stroke-linejoin="round" stroke-miterlimit="10" d="
					M61.3,103.4c1.5,7.6,15.3,9.3,16.1-3.1"/>
			</g>
			
				<path fill="#FFD19D" stroke="#315A8D" stroke-width="5" stroke-linecap="round" stroke-linejoin="round" stroke-miterlimit="10" d="
				M106.7,128.2c-1.2,0.8-11.9,11.1-11.9,11.1s-4.9,0.2-6.7,4.3c-0.8,1.9-2.8,9.2,6.7,9.2c10.7,0,22.6-10,22.6-10"/>
			<path fill="#FFFFFF" d="M79.5,67.5c0,4,4.4,4.7,9.8,4.7c5.4,0,9.8-0.7,9.8-4.7c0-4-4.4-7.2-9.8-7.2
				C83.9,60.3,79.5,63.5,79.5,67.5z"/>
			<path fill="#FFFFFF" d="M38.3,67.5c0,4,4.4,4.7,9.8,4.7c5.4,0,9.8-0.7,9.8-4.7c0-4-4.4-7.2-9.8-7.2
				C42.7,60.3,38.3,63.5,38.3,67.5z"/>
			<path fill="#315A8D" d="M72,91.8c0,2.7-3.5,4.6-7.9,4.6s-7.9-2-7.9-4.6c0-3.2,3.6-5.8,7.9-5.8C68.4,86,72,88.6,72,91.8z"/>
			
				<path fill="#FFD19D" stroke="#315A8D" stroke-width="5" stroke-linecap="round" stroke-linejoin="round" stroke-miterlimit="10" d="
				M48,127.5c-2.3,8.3,1,11.5,2.4,13.4c3.5-0.4,6.8,0.8,7,5.5c0.2,4.7-3,7-7.6,6.1c-21.8-7-8.5-27.4-8.5-27.4L48,127.5z"/>
			<path fill="#315A8D" d="M86.6,80.7c0,0-0.6-4.4,4.3-5.5c4.9-1,7.4,5.5,1.3,8.3C89.7,84.7,87,82.8,86.6,80.7z"/>
			<path fill="#315A8D" d="M51.6,80.7c0,0,0.6-4.4-4.2-5.5c-4.9-1-7.4,5.5-1.3,8.3C48.5,84.7,51.2,82.8,51.6,80.7z"/>
		</g>
	</g>
</g>
<g id="圖層_8">
</g>
<g id="圖層_7" display="none">
</g>
<g id="圖層_6">
</g>
<g id="圖層_1" display="none">
</g>
<g id="其他">
</g>
<g id="圖層_2">
</g>
</svg>
